<svg width="279" height="380" viewBox="0 0 279 380" fill="none" xmlns="http://www.w3.org/2000/svg">
<g filter="url(#filter0_i_2093_1888)">
<path d="M261.998 12.7583C264.009 12.1191 265.014 11.7995 265.563 12.3354C266.112 12.8712 265.818 13.8842 265.228 15.9102L264.033 20.0202C263.857 20.622 263.77 20.9229 263.824 21.2195C263.878 21.5162 264.066 21.7669 264.442 22.2684L266.986 25.6636C268.328 27.4549 268.999 28.3505 268.644 29.0578C268.289 29.7652 267.17 29.7618 264.931 29.7549L260.929 29.7427C260.276 29.7407 259.95 29.7397 259.672 29.8835C259.394 30.0272 259.206 30.294 258.83 30.8276L256.513 34.1179C255.27 35.8829 254.648 36.7654 253.879 36.6613C253.109 36.5572 252.744 35.5413 252.015 33.5095L250.523 29.354C250.316 28.7785 250.213 28.4908 250.002 28.285C249.791 28.0792 249.5 27.983 248.92 27.7906L244.729 26.4013C242.68 25.722 241.655 25.3824 241.532 24.6155C241.409 23.8486 242.276 23.2055 244.01 21.9194L247.242 19.5218C247.767 19.133 248.029 18.9385 248.166 18.657C248.302 18.3755 248.293 18.0492 248.275 17.3968L248.165 13.3962C248.103 11.1586 248.072 10.0399 248.77 9.66734C249.468 9.29482 250.38 9.94371 252.204 11.2415L255.661 13.7012C256.171 14.0646 256.427 14.2463 256.725 14.2929C257.023 14.3396 257.321 14.2447 257.918 14.0548L261.998 12.7583Z" fill="#E6A608"/>
</g>
<path d="M266.4 58.825C266.4 52.7544 258.548 48.6974 252.477 48.6974C239.714 48.6974 229.368 37.7667 229.368 24.283C229.368 18.5264 225.446 12 219.689 12H27.5586C14.5674 12 8.07173 12 4.03587 16.2638C0 20.5277 0 27.3902 0 41.1153V350.085C0 363.81 0 370.672 4.03587 374.936C8.07173 379.2 14.5674 379.2 27.5586 379.2H238.841C251.833 379.2 258.328 379.2 262.364 374.936C266.4 370.672 266.4 363.81 266.4 350.085V58.825Z" fill="white"/>
<path d="M206.976 153.952C208.067 153.952 208.952 153.067 208.952 151.976C208.952 150.885 208.067 150 206.976 150C205.885 150 205 150.885 205 151.976C205 153.067 205.885 153.952 206.976 153.952Z" stroke="#5479F7" stroke-width="0.8" stroke-miterlimit="10"/>
<path d="M193.416 68.3519C194.507 68.3519 195.392 67.4672 195.392 66.3759C195.392 65.2846 194.507 64.3999 193.416 64.3999C192.325 64.3999 191.44 65.2846 191.44 66.3759C191.44 67.4672 192.325 68.3519 193.416 68.3519Z" stroke="#5479F7" stroke-width="0.8" stroke-miterlimit="10"/>
<path d="M208.488 122.576C209.089 122.576 209.576 122.089 209.576 121.488C209.576 120.887 209.089 120.4 208.488 120.4C207.887 120.4 207.4 120.887 207.4 121.488C207.4 122.089 207.887 122.576 208.488 122.576Z" stroke="#C04BE2" stroke-width="0.8" stroke-miterlimit="10"/>
<path d="M141.4 171.6L142.264 173.352L144.2 173.632L142.8 175L143.136 176.92L141.4 176.016L139.672 176.92L140 175L138.6 173.632L140.536 173.352L141.4 171.6Z" stroke="#C04BE2" stroke-width="0.8" stroke-miterlimit="10"/>
<path d="M102.192 58L102.808 59.248L104.192 59.448L103.192 60.416L103.424 61.792L102.192 61.144L100.96 61.792L101.2 60.416L100.2 59.448L101.576 59.248L102.192 58Z" stroke="#5479F7" stroke-width="0.8" stroke-miterlimit="10"/>
<path d="M61.7036 96.941L64.9974 100.583C65.1066 100.704 65.1633 100.863 65.1551 101.026C65.1469 101.188 65.0745 101.341 64.9537 101.45L64.0429 102.274C63.9221 102.383 63.7629 102.44 63.6003 102.432C63.4377 102.424 63.285 102.351 63.1758 102.23L60.2938 99.0437C60.1846 98.9229 60.1278 98.7637 60.136 98.6011C60.1442 98.4385 60.2167 98.2858 60.3374 98.1766L61.7036 96.941ZM61.7036 96.941C62.1867 96.5041 62.4765 95.8932 62.5093 95.2428C62.5421 94.5923 62.3151 93.9556 61.8783 93.4726L61.4666 93.0174C61.2482 92.7759 61.1347 92.4575 61.1511 92.1323C61.1675 91.8071 61.3124 91.5016 61.5539 91.2832C61.7955 91.0647 62.1139 90.9511 62.4391 90.9674C62.7644 90.9837 63.0698 91.1285 63.2882 91.37L65.3468 93.6463L66.7129 92.4107C66.9545 92.1923 67.2729 92.0787 67.5981 92.095C67.9234 92.1113 68.2288 92.2561 68.4472 92.4975L70.0504 95.1857C70.2375 95.5242 70.3301 95.8764 70.3143 96.1891C70.2986 96.5019 70.1753 96.7584 69.963 96.9199L66.7753 99.8028C66.4129 100.13 65.9353 100.301 65.4475 100.276C64.9596 100.252 64.5015 100.035 64.1739 99.6726" stroke="#5479F7" stroke-width="0.96" stroke-linecap="round" stroke-linejoin="round"/>
<path d="M150.451 122.099C149.195 120.778 147.421 119.571 145.185 118.534C140.534 116.387 134.376 115.204 127.83 115.204C121.283 115.204 115.126 116.387 110.475 118.534C105.654 120.762 103.005 123.784 103.005 127.049V142.922" stroke="#5479F7" stroke-width="1.6" stroke-linecap="round" stroke-linejoin="round"/>
<path d="M127.829 110.408C134.657 110.408 140.193 104.872 140.193 98.0439C140.193 91.2154 134.657 85.6799 127.829 85.6799C121 85.6799 115.465 91.2154 115.465 98.0439C115.465 104.872 121 110.408 127.829 110.408Z" stroke="#5479F7" stroke-width="1.6" stroke-linecap="round" stroke-linejoin="round"/>
<path d="M168.672 106.171H188.523C189.001 106.171 189.438 105.903 189.657 105.474C189.876 105.044 189.835 104.534 189.56 104.145L183.532 95.7675L189.56 87.3898C189.843 87.0009 189.876 86.4905 189.657 86.061C189.438 85.6316 189.001 85.3643 188.523 85.3643H168.648V128.371" stroke="#C04BE2" stroke-width="1.6" stroke-linecap="round" stroke-linejoin="round"/>
<path d="M100.865 152.255H126.193V141.593C126.193 140.888 126.768 140.313 127.473 140.313H152.8V129.65C152.8 128.945 153.375 128.37 154.08 128.37H180.68" stroke="#5479F7" stroke-width="1.6" stroke-linecap="round" stroke-linejoin="round"/>
<path d="M94.5607 91.8621C103.068 77.3186 118.859 67.5393 136.927 67.5393M166.419 77.3997C164.282 75.788 162.009 74.3471 159.621 73.0973" stroke="#C04BE2" stroke-width="1.6" stroke-miterlimit="10" stroke-linecap="round"/>
<path d="M94.5692 141.293C90.9718 135.136 88.6708 128.127 88.0631 120.633" stroke="#C04BE2" stroke-width="1.6" stroke-miterlimit="10" stroke-linecap="round"/>
<path d="M185.971 116.582C185.971 143.667 164.015 165.624 136.929 165.624C128.616 165.624 120.781 163.558 113.927 159.904" stroke="#C04BE2" stroke-width="1.6" stroke-miterlimit="10" stroke-linecap="round"/>
<path d="M140.417 70.3699L138.556 73.4151L141.002 73.3458C141.084 73.3432 141.16 73.39 141.196 73.4652L142.248 75.6808L143.915 72.9548" stroke="#5479F7" stroke-width="0.927508" stroke-linecap="round" stroke-linejoin="round"/>
<path d="M150.592 72.9538L152.259 75.6799L153.309 73.4642C153.344 73.3916 153.418 73.3448 153.498 73.3448C153.5 73.3448 153.502 73.3448 153.504 73.3448L155.951 73.4141L154.089 70.3689" stroke="#5479F7" stroke-width="0.927508" stroke-linecap="round" stroke-linejoin="round"/>
<path d="M145.572 71.101C145.61 71.101 145.646 71.111 145.679 71.1302L147.255 72.0651L148.83 71.1302C148.863 71.111 148.901 71.1001 148.94 71.101L150.772 71.1227L151.668 69.5253C151.687 69.4919 151.715 69.4643 151.748 69.4451L153.346 68.5487L153.324 66.7165C153.324 66.6781 153.334 66.6405 153.353 66.6071L154.288 65.0314L153.353 63.4557C153.334 63.4232 153.323 63.3847 153.324 63.3463L153.346 61.5142L151.748 60.6177C151.715 60.5993 151.687 60.5709 151.668 60.5375L150.772 58.9401L148.94 58.9618C148.901 58.9635 148.864 58.9518 148.83 58.9326L147.254 58.0002L145.678 58.9351C145.645 58.9543 145.609 58.966 145.569 58.9644L143.736 58.9426L142.84 60.54C142.821 60.5734 142.793 60.601 142.76 60.6202L141.162 61.5167L141.184 63.3488C141.184 63.3872 141.174 63.4248 141.155 63.4582L140.22 65.0339L141.155 66.6096C141.174 66.6422 141.185 66.6806 141.184 66.719L141.162 68.5512L142.76 69.4476C142.793 69.466 142.821 69.4944 142.84 69.5278L143.736 71.1252L145.569 71.1035C145.569 71.1035 145.57 71.1035 145.571 71.1035L145.572 71.101Z" stroke="#5479F7" stroke-width="0.927508" stroke-linecap="round" stroke-linejoin="round"/>
<path d="M147.254 60.9768C145.018 60.9768 143.198 62.7964 143.198 65.0329C143.198 67.2694 145.018 69.089 147.254 69.089C149.491 69.089 151.31 67.2694 151.31 65.0329C151.31 62.7964 149.491 60.9768 147.254 60.9768Z" stroke="#5479F7" stroke-width="0.927508" stroke-linecap="round" stroke-linejoin="round"/>
<path d="M145.712 64.9304L146.743 65.9614L148.797 63.907" stroke="#5479F7" stroke-width="0.927508" stroke-linecap="round" stroke-linejoin="round"/>
<path d="M85.1372 108.21L81.4105 110.192C81.3587 110.221 81.3069 110.229 81.2478 110.229C81.1738 110.229 81.1073 110.207 81.0481 110.162C80.9446 110.088 80.8929 109.955 80.9077 109.829L81.5879 105.807L78.7042 102.968C78.608 102.879 78.5785 102.738 78.6154 102.62C78.6524 102.494 78.7633 102.406 78.889 102.391L82.8819 101.807L84.6639 98.1539C84.7231 98.0356 84.8414 97.9617 84.9745 97.9617C85.1076 97.9617 85.2259 98.0356 85.285 98.1539L85.9949 99.618" stroke="#5479F7" stroke-width="0.960693" stroke-miterlimit="10" stroke-linecap="round"/>
<path d="M98.0928 99.6031L98.8026 98.139C98.8618 98.0207 98.9801 97.9468 99.1132 97.9468C99.2463 97.9468 99.3646 98.0207 99.4237 98.139L101.206 101.792L105.199 102.376C105.324 102.398 105.435 102.487 105.472 102.605C105.509 102.731 105.472 102.864 105.383 102.953L102.492 105.799L103.173 109.822C103.195 109.948 103.143 110.081 103.032 110.155C102.973 110.199 102.899 110.221 102.832 110.221C102.781 110.221 102.722 110.206 102.67 110.184L98.9431 108.203" stroke="#5479F7" stroke-width="0.960693" stroke-miterlimit="10" stroke-linecap="round"/>
<path d="M95.5479 111.138C95.4962 111.138 95.437 111.123 95.3852 111.101L91.8138 109.208L88.2424 111.101C88.1241 111.16 87.9836 111.153 87.8801 111.079C87.7766 111.005 87.7248 110.872 87.7396 110.746L88.4199 106.724L85.5435 103.877C85.4474 103.788 85.4178 103.648 85.4548 103.529C85.4918 103.404 85.6027 103.315 85.7284 103.3L89.7213 102.716L91.5107 99.0631C91.5698 98.9448 91.6881 98.8708 91.8212 98.8708C91.9543 98.8708 92.0726 98.9448 92.1318 99.0631L93.9212 102.716L97.9141 103.3C98.0398 103.322 98.1507 103.411 98.1877 103.529C98.2246 103.655 98.1877 103.788 98.0989 103.877L95.2078 106.724L95.8881 110.746C95.9102 110.872 95.8585 111.005 95.7476 111.079C95.6884 111.123 95.6145 111.145 95.5479 111.145V111.138Z" stroke="#5479F7" stroke-width="0.960693" stroke-miterlimit="10" stroke-linecap="round"/>
<path d="M54.6646 209.672C54.91 209.683 55.2246 209.693 55.6086 209.704C56.0033 209.715 56.3926 209.72 56.7766 209.72C57.2886 209.72 57.774 209.715 58.2326 209.704C58.702 209.693 59.0326 209.688 59.2246 209.688C60.4193 209.688 61.31 209.923 61.8966 210.392C62.494 210.861 62.7926 211.464 62.7926 212.2C62.7926 212.573 62.702 212.947 62.5206 213.32C62.35 213.683 62.0673 214.013 61.6726 214.312C61.278 214.6 60.7553 214.829 60.1046 215V215.032C61.0006 215.128 61.7046 215.32 62.2166 215.608C62.7286 215.896 63.0913 216.243 63.3046 216.648C63.518 217.043 63.6246 217.459 63.6246 217.896C63.6246 218.525 63.4646 219.075 63.1446 219.544C62.8246 220.003 62.3606 220.36 61.7526 220.616C61.1553 220.872 60.4353 221 59.5926 221C59.358 221 59.0006 220.995 58.5206 220.984C58.0513 220.963 57.4806 220.952 56.8086 220.952C56.4033 220.952 56.0033 220.957 55.6086 220.968C55.2246 220.968 54.91 220.979 54.6646 221V220.68C55.0273 220.659 55.2993 220.616 55.4806 220.552C55.662 220.488 55.7793 220.36 55.8326 220.168C55.8966 219.976 55.9286 219.688 55.9286 219.304V211.368C55.9286 210.973 55.8966 210.685 55.8326 210.504C55.7793 210.312 55.6566 210.184 55.4646 210.12C55.2833 210.045 55.0166 210.003 54.6646 209.992V209.672ZM58.8886 209.992C58.43 209.992 58.126 210.083 57.9766 210.264C57.838 210.445 57.7686 210.813 57.7686 211.368V219.304C57.7686 219.677 57.8006 219.96 57.8646 220.152C57.9286 220.344 58.0406 220.472 58.2006 220.536C58.3713 220.6 58.6166 220.632 58.9366 220.632C59.8966 220.632 60.59 220.392 61.0166 219.912C61.454 219.421 61.6726 218.728 61.6726 217.832C61.6726 217.011 61.454 216.376 61.0166 215.928C60.59 215.48 59.8806 215.256 58.8886 215.256H57.3366C57.3366 215.256 57.3366 215.213 57.3366 215.128C57.3366 215.032 57.3366 214.984 57.3366 214.984H58.7126C59.2993 214.984 59.7526 214.867 60.0726 214.632C60.3926 214.387 60.6113 214.067 60.7286 213.672C60.846 213.267 60.9046 212.835 60.9046 212.376C60.9046 211.587 60.75 210.995 60.4406 210.6C60.1313 210.195 59.614 209.992 58.8886 209.992ZM72.9954 212.568V219.272C72.9954 219.752 73.0754 220.109 73.2354 220.344C73.406 220.568 73.71 220.68 74.1474 220.68V221.016C73.8167 220.984 73.486 220.968 73.1554 220.968C72.8034 220.968 72.4674 220.984 72.1474 221.016C71.8274 221.048 71.534 221.107 71.2674 221.192V219.448C71.0007 220.088 70.6274 220.547 70.1474 220.824C69.678 221.091 69.182 221.224 68.6594 221.224C68.2647 221.224 67.9287 221.165 67.6514 221.048C67.374 220.941 67.1447 220.797 66.9634 220.616C66.7714 220.403 66.638 220.131 66.5634 219.8C66.4887 219.459 66.4514 219.032 66.4514 218.52V214.488C66.4514 214.008 66.3714 213.656 66.2114 213.432C66.0514 213.197 65.7474 213.08 65.2994 213.08V212.744C65.6407 212.776 65.9714 212.792 66.2914 212.792C66.6434 212.792 66.9794 212.776 67.2994 212.744C67.6194 212.701 67.9127 212.643 68.1794 212.568V218.968C68.1794 219.277 68.2007 219.56 68.2434 219.816C68.286 220.072 68.3874 220.275 68.5474 220.424C68.7074 220.573 68.9634 220.648 69.3154 220.648C69.6887 220.648 70.0194 220.536 70.3074 220.312C70.606 220.088 70.8407 219.784 71.0114 219.4C71.182 219.016 71.2674 218.584 71.2674 218.104V214.488C71.2674 214.008 71.1874 213.656 71.0274 213.432C70.8674 213.197 70.5634 213.08 70.1154 213.08V212.744C70.4567 212.776 70.7874 212.792 71.1074 212.792C71.4594 212.792 71.7954 212.776 72.1154 212.744C72.4354 212.701 72.7287 212.643 72.9954 212.568ZM77.6333 208.712C77.9639 208.712 78.2413 208.819 78.4653 209.032C78.6893 209.235 78.8013 209.491 78.8013 209.8C78.8013 210.109 78.6893 210.371 78.4653 210.584C78.2413 210.787 77.9639 210.888 77.6333 210.888C77.3026 210.888 77.0253 210.787 76.8013 210.584C76.5773 210.371 76.4653 210.109 76.4653 209.8C76.4653 209.491 76.5773 209.235 76.8013 209.032C77.0253 208.819 77.3026 208.712 77.6333 208.712ZM78.5933 212.568V219.512C78.5933 219.96 78.6786 220.264 78.8493 220.424C79.0306 220.584 79.3293 220.664 79.7453 220.664V221C79.5639 220.989 79.2813 220.979 78.8973 220.968C78.5239 220.947 78.1399 220.936 77.7453 220.936C77.3719 220.936 76.9879 220.947 76.5933 220.968C76.1986 220.979 75.9053 220.989 75.7133 221V220.664C76.1293 220.664 76.4226 220.584 76.5933 220.424C76.7746 220.264 76.8653 219.96 76.8653 219.512V214.488C76.8653 214.008 76.7853 213.656 76.6253 213.432C76.4653 213.197 76.1613 213.08 75.7133 213.08V212.744C76.0546 212.776 76.3853 212.792 76.7053 212.792C77.0679 212.792 77.4039 212.776 77.7133 212.744C78.0333 212.701 78.3266 212.643 78.5933 212.568ZM84.0941 208.456V219.512C84.0941 219.96 84.1795 220.264 84.3501 220.424C84.5315 220.584 84.8301 220.664 85.2461 220.664V221C85.0648 220.989 84.7821 220.979 84.3981 220.968C84.0141 220.947 83.6301 220.936 83.2461 220.936C82.8621 220.936 82.4728 220.947 82.0781 220.968C81.6941 220.979 81.4061 220.989 81.2141 221V220.664C81.6301 220.664 81.9235 220.584 82.0941 220.424C82.2755 220.264 82.3661 219.96 82.3661 219.512V210.376C82.3661 209.896 82.2861 209.544 82.1261 209.32C81.9661 209.085 81.6621 208.968 81.2141 208.968V208.632C81.5555 208.664 81.8861 208.68 82.2061 208.68C82.5581 208.68 82.8941 208.664 83.2141 208.632C83.5341 208.589 83.8275 208.531 84.0941 208.456ZM94.145 208.456V219.256C94.145 219.736 94.225 220.093 94.385 220.328C94.5557 220.552 94.8597 220.664 95.297 220.664V221C94.9663 220.968 94.6357 220.952 94.305 220.952C93.9423 220.952 93.601 220.968 93.281 221C92.9717 221.032 92.6837 221.091 92.417 221.176V210.376C92.417 209.896 92.3317 209.544 92.161 209.32C92.001 209.085 91.7023 208.968 91.265 208.968V208.632C91.6063 208.664 91.937 208.68 92.257 208.68C92.609 208.68 92.945 208.664 93.265 208.632C93.585 208.589 93.8783 208.531 94.145 208.456ZM90.545 212.52C91.0143 212.52 91.441 212.621 91.825 212.824C92.2197 213.027 92.497 213.368 92.657 213.848L92.465 214.024C92.3157 213.64 92.097 213.363 91.809 213.192C91.521 213.011 91.1957 212.92 90.833 212.92C90.225 212.92 89.729 213.245 89.345 213.896C88.961 214.536 88.7743 215.528 88.785 216.872C88.785 217.757 88.8597 218.483 89.009 219.048C89.1583 219.603 89.377 220.013 89.665 220.28C89.9637 220.547 90.321 220.68 90.737 220.68C91.153 220.68 91.5263 220.504 91.857 220.152C92.1983 219.8 92.401 219.293 92.465 218.632L92.609 218.968C92.5023 219.693 92.2463 220.253 91.841 220.648C91.4357 221.032 90.8917 221.224 90.209 221.224C89.5583 221.224 88.9823 221.069 88.481 220.76C87.9903 220.44 87.6117 219.96 87.345 219.32C87.0783 218.669 86.945 217.853 86.945 216.872C86.945 215.901 87.105 215.096 87.425 214.456C87.7557 213.805 88.193 213.32 88.737 213C89.281 212.68 89.8837 212.52 90.545 212.52ZM103.81 221.112C103.362 221.112 102.978 221.027 102.658 220.856C102.338 220.685 102.098 220.451 101.938 220.152C101.778 219.853 101.698 219.512 101.698 219.128C101.698 218.659 101.805 218.28 102.018 217.992C102.231 217.693 102.503 217.453 102.834 217.272C103.175 217.091 103.533 216.941 103.906 216.824C104.29 216.696 104.647 216.579 104.978 216.472C105.319 216.355 105.597 216.221 105.81 216.072C106.034 215.923 106.146 215.725 106.146 215.48V214.392C106.146 214.008 106.082 213.704 105.954 213.48C105.837 213.245 105.671 213.08 105.458 212.984C105.255 212.888 105.01 212.84 104.722 212.84C104.477 212.84 104.215 212.877 103.938 212.952C103.661 213.016 103.442 213.149 103.282 213.352C103.517 213.416 103.709 213.544 103.858 213.736C104.018 213.917 104.098 214.147 104.098 214.424C104.098 214.723 103.997 214.957 103.794 215.128C103.602 215.299 103.357 215.384 103.058 215.384C102.727 215.384 102.482 215.283 102.322 215.08C102.162 214.867 102.082 214.621 102.082 214.344C102.082 214.056 102.151 213.821 102.29 213.64C102.439 213.459 102.631 213.288 102.866 213.128C103.122 212.957 103.447 212.813 103.842 212.696C104.247 212.579 104.695 212.52 105.186 212.52C105.645 212.52 106.039 212.573 106.37 212.68C106.711 212.776 106.994 212.936 107.218 213.16C107.485 213.405 107.661 213.715 107.746 214.088C107.831 214.451 107.874 214.893 107.874 215.416V219.832C107.874 220.099 107.906 220.291 107.97 220.408C108.045 220.515 108.162 220.568 108.322 220.568C108.429 220.568 108.53 220.541 108.626 220.488C108.733 220.435 108.855 220.355 108.994 220.248L109.154 220.52C108.93 220.701 108.701 220.845 108.466 220.952C108.242 221.059 107.954 221.112 107.602 221.112C107.261 221.112 106.983 221.059 106.77 220.952C106.557 220.845 106.397 220.691 106.29 220.488C106.194 220.285 106.146 220.035 106.146 219.736C105.869 220.184 105.538 220.525 105.154 220.76C104.77 220.995 104.322 221.112 103.81 221.112ZM104.578 220.344C104.877 220.344 105.154 220.259 105.41 220.088C105.677 219.917 105.922 219.661 106.146 219.32V216.136C106.029 216.307 105.858 216.456 105.634 216.584C105.41 216.701 105.17 216.824 104.914 216.952C104.658 217.08 104.413 217.229 104.178 217.4C103.954 217.56 103.767 217.768 103.618 218.024C103.469 218.28 103.394 218.605 103.394 219C103.394 219.416 103.501 219.747 103.714 219.992C103.927 220.227 104.215 220.344 104.578 220.344ZM118.79 209.48C119.355 209.48 119.787 209.544 120.086 209.672C120.385 209.8 120.646 209.939 120.87 210.088C120.998 210.163 121.099 210.221 121.174 210.264C121.259 210.296 121.339 210.312 121.414 210.312C121.521 210.312 121.595 210.253 121.638 210.136C121.691 210.019 121.734 209.843 121.766 209.608H122.134C122.123 209.8 122.107 210.029 122.086 210.296C122.075 210.552 122.065 210.893 122.054 211.32C122.054 211.747 122.054 212.307 122.054 213H121.686C121.654 212.477 121.537 211.971 121.334 211.48C121.142 210.989 120.854 210.589 120.47 210.28C120.097 209.971 119.617 209.816 119.03 209.816C118.486 209.816 118.033 209.981 117.67 210.312C117.318 210.632 117.142 211.059 117.142 211.592C117.142 212.061 117.259 212.456 117.494 212.776C117.729 213.085 118.049 213.379 118.454 213.656C118.87 213.923 119.339 214.221 119.862 214.552C120.395 214.893 120.875 215.235 121.302 215.576C121.729 215.907 122.065 216.275 122.31 216.68C122.555 217.085 122.678 217.576 122.678 218.152C122.678 218.845 122.513 219.421 122.182 219.88C121.862 220.328 121.43 220.664 120.886 220.888C120.342 221.112 119.745 221.224 119.094 221.224C118.497 221.224 118.022 221.16 117.67 221.032C117.318 220.904 117.019 220.771 116.774 220.632C116.539 220.483 116.358 220.408 116.23 220.408C116.123 220.408 116.043 220.467 115.99 220.584C115.947 220.701 115.91 220.877 115.878 221.112H115.51C115.531 220.877 115.542 220.605 115.542 220.296C115.553 219.976 115.558 219.56 115.558 219.048C115.569 218.536 115.574 217.891 115.574 217.112H115.942C115.985 217.773 116.102 218.392 116.294 218.968C116.497 219.544 116.801 220.008 117.206 220.36C117.622 220.701 118.171 220.872 118.854 220.872C119.217 220.872 119.553 220.803 119.862 220.664C120.171 220.525 120.422 220.307 120.614 220.008C120.806 219.709 120.902 219.325 120.902 218.856C120.902 218.419 120.795 218.035 120.582 217.704C120.379 217.373 120.091 217.069 119.718 216.792C119.355 216.504 118.929 216.211 118.438 215.912C117.937 215.592 117.467 215.272 117.03 214.952C116.593 214.632 116.241 214.259 115.974 213.832C115.718 213.405 115.59 212.899 115.59 212.312C115.59 211.661 115.739 211.128 116.038 210.712C116.347 210.296 116.742 209.987 117.222 209.784C117.713 209.581 118.235 209.48 118.79 209.48ZM128.657 212.52C129.372 212.52 130.006 212.669 130.561 212.968C131.116 213.267 131.558 213.736 131.889 214.376C132.22 215.016 132.385 215.853 132.385 216.888C132.385 217.923 132.22 218.76 131.889 219.4C131.558 220.029 131.116 220.493 130.561 220.792C130.006 221.08 129.372 221.224 128.657 221.224C127.953 221.224 127.318 221.08 126.753 220.792C126.188 220.493 125.74 220.029 125.409 219.4C125.089 218.76 124.929 217.923 124.929 216.888C124.929 215.853 125.089 215.016 125.409 214.376C125.74 213.736 126.188 213.267 126.753 212.968C127.318 212.669 127.953 212.52 128.657 212.52ZM128.657 212.84C128.102 212.84 127.649 213.16 127.297 213.8C126.945 214.429 126.769 215.459 126.769 216.888C126.769 218.317 126.945 219.347 127.297 219.976C127.649 220.595 128.102 220.904 128.657 220.904C129.201 220.904 129.649 220.595 130.001 219.976C130.364 219.347 130.545 218.317 130.545 216.888C130.545 215.459 130.364 214.429 130.001 213.8C129.649 213.16 129.201 212.84 128.657 212.84ZM136.944 208.456V219.512C136.944 219.96 137.029 220.264 137.2 220.424C137.381 220.584 137.68 220.664 138.096 220.664V221C137.915 220.989 137.632 220.979 137.248 220.968C136.864 220.947 136.48 220.936 136.096 220.936C135.712 220.936 135.323 220.947 134.928 220.968C134.544 220.979 134.256 220.989 134.064 221V220.664C134.48 220.664 134.773 220.584 134.944 220.424C135.125 220.264 135.216 219.96 135.216 219.512V210.376C135.216 209.896 135.136 209.544 134.976 209.32C134.816 209.085 134.512 208.968 134.064 208.968V208.632C134.405 208.664 134.736 208.68 135.056 208.68C135.408 208.68 135.744 208.664 136.064 208.632C136.384 208.589 136.677 208.531 136.944 208.456ZM141.583 208.712C141.914 208.712 142.191 208.819 142.415 209.032C142.639 209.235 142.751 209.491 142.751 209.8C142.751 210.109 142.639 210.371 142.415 210.584C142.191 210.787 141.914 210.888 141.583 210.888C141.253 210.888 140.975 210.787 140.751 210.584C140.527 210.371 140.415 210.109 140.415 209.8C140.415 209.491 140.527 209.235 140.751 209.032C140.975 208.819 141.253 208.712 141.583 208.712ZM142.543 212.568V219.512C142.543 219.96 142.629 220.264 142.799 220.424C142.981 220.584 143.279 220.664 143.695 220.664V221C143.514 220.989 143.231 220.979 142.847 220.968C142.474 220.947 142.09 220.936 141.695 220.936C141.322 220.936 140.938 220.947 140.543 220.968C140.149 220.979 139.855 220.989 139.663 221V220.664C140.079 220.664 140.373 220.584 140.543 220.424C140.725 220.264 140.815 219.96 140.815 219.512V214.488C140.815 214.008 140.735 213.656 140.575 213.432C140.415 213.197 140.111 213.08 139.663 213.08V212.744C140.005 212.776 140.335 212.792 140.655 212.792C141.018 212.792 141.354 212.776 141.663 212.744C141.983 212.701 142.277 212.643 142.543 212.568ZM152.748 208.456V219.256C152.748 219.736 152.828 220.093 152.988 220.328C153.159 220.552 153.463 220.664 153.9 220.664V221C153.569 220.968 153.239 220.952 152.908 220.952C152.545 220.952 152.204 220.968 151.884 221C151.575 221.032 151.287 221.091 151.02 221.176V210.376C151.02 209.896 150.935 209.544 150.764 209.32C150.604 209.085 150.305 208.968 149.868 208.968V208.632C150.209 208.664 150.54 208.68 150.86 208.68C151.212 208.68 151.548 208.664 151.868 208.632C152.188 208.589 152.481 208.531 152.748 208.456ZM149.148 212.52C149.617 212.52 150.044 212.621 150.428 212.824C150.823 213.027 151.1 213.368 151.26 213.848L151.068 214.024C150.919 213.64 150.7 213.363 150.412 213.192C150.124 213.011 149.799 212.92 149.436 212.92C148.828 212.92 148.332 213.245 147.948 213.896C147.564 214.536 147.377 215.528 147.388 216.872C147.388 217.757 147.463 218.483 147.612 219.048C147.761 219.603 147.98 220.013 148.268 220.28C148.567 220.547 148.924 220.68 149.34 220.68C149.756 220.68 150.129 220.504 150.46 220.152C150.801 219.8 151.004 219.293 151.068 218.632L151.212 218.968C151.105 219.693 150.849 220.253 150.444 220.648C150.039 221.032 149.495 221.224 148.812 221.224C148.161 221.224 147.585 221.069 147.084 220.76C146.593 220.44 146.215 219.96 145.948 219.32C145.681 218.669 145.548 217.853 145.548 216.872C145.548 215.901 145.708 215.096 146.028 214.456C146.359 213.805 146.796 213.32 147.34 213C147.884 212.68 148.487 212.52 149.148 212.52ZM160.349 209.672C160.594 209.683 160.909 209.693 161.293 209.704C161.688 209.715 162.077 209.72 162.461 209.72C162.973 209.72 163.458 209.715 163.917 209.704C164.386 209.693 164.717 209.688 164.909 209.688C166.264 209.688 167.277 209.981 167.949 210.568C168.621 211.155 168.957 211.912 168.957 212.84C168.957 213.224 168.888 213.629 168.749 214.056C168.621 214.472 168.392 214.861 168.061 215.224C167.73 215.576 167.282 215.864 166.717 216.088C166.152 216.312 165.432 216.424 164.557 216.424H162.989V216.104H164.397C165.112 216.104 165.656 215.96 166.029 215.672C166.413 215.384 166.669 215.005 166.797 214.536C166.936 214.067 167.005 213.56 167.005 213.016C167.005 212.003 166.824 211.245 166.461 210.744C166.098 210.243 165.469 209.992 164.573 209.992C164.114 209.992 163.81 210.083 163.661 210.264C163.522 210.445 163.453 210.813 163.453 211.368V219.272C163.453 219.667 163.496 219.965 163.581 220.168C163.666 220.36 163.826 220.488 164.061 220.552C164.296 220.616 164.642 220.653 165.101 220.664V221C164.813 220.979 164.44 220.968 163.981 220.968C163.522 220.957 163.048 220.952 162.557 220.952C162.13 220.952 161.72 220.957 161.325 220.968C160.941 220.968 160.616 220.979 160.349 221V220.68C160.712 220.659 160.984 220.616 161.165 220.552C161.346 220.488 161.464 220.36 161.517 220.168C161.581 219.976 161.613 219.688 161.613 219.304V211.368C161.613 210.973 161.581 210.685 161.517 210.504C161.464 210.312 161.341 210.184 161.149 210.12C160.968 210.045 160.701 210.003 160.349 209.992V209.672ZM175.765 212.52C176.075 212.52 176.336 212.584 176.549 212.712C176.773 212.84 176.939 213.005 177.045 213.208C177.163 213.4 177.221 213.619 177.221 213.864C177.221 214.173 177.125 214.44 176.933 214.664C176.752 214.877 176.507 214.984 176.197 214.984C175.931 214.984 175.701 214.904 175.509 214.744C175.328 214.584 175.237 214.365 175.237 214.088C175.237 213.853 175.296 213.656 175.413 213.496C175.541 213.325 175.685 213.192 175.845 213.096C175.739 213.011 175.611 212.973 175.461 212.984C175.173 212.995 174.907 213.091 174.661 213.272C174.416 213.443 174.208 213.667 174.037 213.944C173.867 214.211 173.733 214.499 173.637 214.808C173.541 215.117 173.493 215.405 173.493 215.672V219.352C173.493 219.875 173.637 220.227 173.925 220.408C174.213 220.579 174.613 220.664 175.125 220.664V221C174.88 220.989 174.528 220.979 174.069 220.968C173.621 220.947 173.147 220.936 172.645 220.936C172.261 220.936 171.877 220.947 171.493 220.968C171.109 220.979 170.816 220.989 170.613 221V220.664C171.029 220.664 171.323 220.584 171.493 220.424C171.675 220.264 171.765 219.96 171.765 219.512V214.488C171.765 214.008 171.685 213.656 171.525 213.432C171.365 213.197 171.061 213.08 170.613 213.08V212.744C170.955 212.776 171.285 212.792 171.605 212.792C171.968 212.792 172.304 212.776 172.613 212.744C172.933 212.701 173.227 212.643 173.493 212.568V214.408C173.621 214.099 173.792 213.8 174.005 213.512C174.219 213.224 174.475 212.989 174.773 212.808C175.072 212.616 175.403 212.52 175.765 212.52ZM182.366 212.52C183.081 212.52 183.716 212.669 184.27 212.968C184.825 213.267 185.268 213.736 185.598 214.376C185.929 215.016 186.094 215.853 186.094 216.888C186.094 217.923 185.929 218.76 185.598 219.4C185.268 220.029 184.825 220.493 184.27 220.792C183.716 221.08 183.081 221.224 182.366 221.224C181.662 221.224 181.028 221.08 180.462 220.792C179.897 220.493 179.449 220.029 179.118 219.4C178.798 218.76 178.638 217.923 178.638 216.888C178.638 215.853 178.798 215.016 179.118 214.376C179.449 213.736 179.897 213.267 180.462 212.968C181.028 212.669 181.662 212.52 182.366 212.52ZM182.366 212.84C181.812 212.84 181.358 213.16 181.006 213.8C180.654 214.429 180.478 215.459 180.478 216.888C180.478 218.317 180.654 219.347 181.006 219.976C181.358 220.595 181.812 220.904 182.366 220.904C182.91 220.904 183.358 220.595 183.71 219.976C184.073 219.347 184.254 218.317 184.254 216.888C184.254 215.459 184.073 214.429 183.71 213.8C183.358 213.16 182.91 212.84 182.366 212.84ZM193.514 208.488C193.855 208.488 194.164 208.509 194.442 208.552C194.73 208.595 194.986 208.653 195.21 208.728C195.434 208.803 195.626 208.893 195.786 209C195.967 209.107 196.111 209.24 196.218 209.4C196.324 209.56 196.378 209.741 196.378 209.944C196.378 210.264 196.266 210.531 196.042 210.744C195.818 210.947 195.535 211.048 195.194 211.048C194.852 211.048 194.57 210.947 194.346 210.744C194.122 210.531 194.01 210.269 194.01 209.96C194.01 209.747 194.068 209.555 194.186 209.384C194.314 209.203 194.49 209.064 194.714 208.968C194.586 208.893 194.415 208.84 194.202 208.808C193.999 208.765 193.791 208.744 193.578 208.744C193.044 208.744 192.596 208.856 192.234 209.08C191.882 209.293 191.599 209.587 191.386 209.96C191.236 210.227 191.124 210.568 191.05 210.984C190.986 211.389 190.954 211.981 190.954 212.76H193.306C193.775 212.76 194.175 212.755 194.506 212.744C194.847 212.733 195.151 212.717 195.418 212.696C195.695 212.664 195.962 212.621 196.218 212.568V219.512C196.218 219.96 196.308 220.264 196.49 220.424C196.671 220.584 196.975 220.664 197.402 220.664V221C197.21 220.989 196.922 220.979 196.538 220.968C196.154 220.947 195.764 220.936 195.37 220.936C194.986 220.936 194.596 220.947 194.202 220.968C193.818 220.979 193.53 220.989 193.338 221V220.664C193.754 220.664 194.047 220.584 194.218 220.424C194.399 220.264 194.49 219.96 194.49 219.512V214.488C194.49 214.008 194.404 213.656 194.234 213.432C194.074 213.197 193.764 213.08 193.306 213.08H190.954V219.512C190.954 219.971 191.071 220.28 191.306 220.44C191.551 220.589 191.882 220.664 192.298 220.664V221C192.074 220.989 191.759 220.979 191.354 220.968C190.948 220.947 190.532 220.936 190.106 220.936C189.69 220.936 189.29 220.947 188.906 220.968C188.522 220.979 188.234 220.989 188.042 221V220.664C188.468 220.664 188.772 220.584 188.954 220.424C189.135 220.264 189.226 219.96 189.226 219.512V213.08H187.978V212.76H189.226C189.226 212.088 189.316 211.485 189.498 210.952C189.69 210.408 189.994 209.939 190.41 209.544C190.751 209.235 191.178 208.984 191.69 208.792C192.212 208.589 192.82 208.488 193.514 208.488ZM201.75 208.456V219.512C201.75 219.96 201.836 220.264 202.006 220.424C202.188 220.584 202.486 220.664 202.902 220.664V221C202.721 220.989 202.438 220.979 202.054 220.968C201.67 220.947 201.286 220.936 200.902 220.936C200.518 220.936 200.129 220.947 199.734 220.968C199.35 220.979 199.062 220.989 198.87 221V220.664C199.286 220.664 199.58 220.584 199.75 220.424C199.932 220.264 200.022 219.96 200.022 219.512V210.376C200.022 209.896 199.942 209.544 199.782 209.32C199.622 209.085 199.318 208.968 198.87 208.968V208.632C199.212 208.664 199.542 208.68 199.862 208.68C200.214 208.68 200.55 208.664 200.87 208.632C201.19 208.589 201.484 208.531 201.75 208.456ZM208.281 212.52C209.22 212.52 209.956 212.803 210.489 213.368C211.023 213.933 211.289 214.829 211.289 216.056H205.769L205.737 215.752H209.593C209.604 215.229 209.561 214.749 209.465 214.312C209.369 213.864 209.22 213.507 209.017 213.24C208.815 212.973 208.548 212.84 208.217 212.84C207.759 212.84 207.359 213.085 207.017 213.576C206.687 214.056 206.484 214.829 206.409 215.896L206.457 215.976C206.447 216.125 206.436 216.291 206.425 216.472C206.415 216.643 206.409 216.813 206.409 216.984C206.409 217.72 206.521 218.339 206.745 218.84C206.969 219.341 207.263 219.72 207.625 219.976C207.988 220.221 208.356 220.344 208.729 220.344C209.017 220.344 209.295 220.301 209.561 220.216C209.839 220.12 210.1 219.965 210.345 219.752C210.591 219.528 210.809 219.224 211.001 218.84L211.321 218.968C211.193 219.331 210.996 219.688 210.729 220.04C210.463 220.392 210.121 220.68 209.705 220.904C209.289 221.117 208.804 221.224 208.249 221.224C207.503 221.224 206.852 221.059 206.297 220.728C205.743 220.387 205.316 219.901 205.017 219.272C204.719 218.643 204.569 217.896 204.569 217.032C204.569 216.083 204.724 215.272 205.033 214.6C205.343 213.928 205.775 213.416 206.329 213.064C206.895 212.701 207.545 212.52 208.281 212.52Z" fill="#C04BE2"/>
<path d="M62.2792 255V244.92H68.5792V245.907H63.3082V249.393H67.7392V250.38H63.3082V254.013H68.5792V255H62.2792ZM70.1236 255L73.0776 251.178L70.1866 247.44H71.4186L73.6796 250.387L75.9196 247.44H77.1516L74.2606 251.178L77.2216 255H75.9826L73.6796 251.969L71.3626 255H70.1236ZM81.909 255.21C81.1483 255.21 80.5043 255.04 79.977 254.699C79.4496 254.358 79.0483 253.889 78.773 253.292C78.5023 252.69 78.3623 251.999 78.353 251.22C78.3623 250.427 78.507 249.731 78.787 249.134C79.067 248.532 79.4706 248.065 79.998 247.734C80.5253 247.398 81.1646 247.23 81.916 247.23C82.6813 247.23 83.3463 247.417 83.911 247.79C84.4803 248.163 84.87 248.674 85.08 249.323L84.072 249.645C83.8946 249.192 83.6123 248.842 83.225 248.595C82.8423 248.343 82.4036 248.217 81.909 248.217C81.3536 248.217 80.894 248.345 80.53 248.602C80.166 248.854 79.8953 249.206 79.718 249.659C79.5406 250.112 79.4496 250.632 79.445 251.22C79.4543 252.125 79.6643 252.853 80.075 253.404C80.4856 253.95 81.097 254.223 81.909 254.223C82.4223 254.223 82.8586 254.106 83.218 253.873C83.582 253.635 83.8573 253.29 84.044 252.837L85.08 253.145C84.8 253.817 84.3893 254.33 83.848 254.685C83.3066 255.035 82.6603 255.21 81.909 255.21ZM87.1598 246.005V244.85H88.1888V246.005H87.1598ZM87.1598 255V247.44H88.1888V255H87.1598ZM95.1034 255C94.6788 255.089 94.2588 255.124 93.8434 255.105C93.4328 255.086 93.0641 254.998 92.7374 254.839C92.4154 254.68 92.1704 254.433 92.0024 254.097C91.8671 253.817 91.7924 253.535 91.7784 253.25C91.7691 252.961 91.7644 252.632 91.7644 252.263V245.34H92.7864V252.221C92.7864 252.538 92.7888 252.804 92.7934 253.019C92.8028 253.229 92.8518 253.416 92.9404 253.579C93.1084 253.892 93.3744 254.078 93.7384 254.139C94.1071 254.2 94.5621 254.186 95.1034 254.097V255ZM90.1474 248.322V247.44H95.1034V248.322H90.1474ZM97.4329 246.005V244.85H98.4619V246.005H97.4329ZM97.4329 255V247.44H98.4619V255H97.4329ZM106.72 255V251.143C106.72 250.723 106.681 250.338 106.601 249.988C106.522 249.633 106.394 249.325 106.216 249.064C106.044 248.798 105.817 248.593 105.537 248.448C105.262 248.303 104.926 248.231 104.529 248.231C104.165 248.231 103.843 248.294 103.563 248.42C103.288 248.546 103.055 248.728 102.863 248.966C102.677 249.199 102.534 249.484 102.436 249.82C102.338 250.156 102.289 250.539 102.289 250.968L101.561 250.807C101.561 250.032 101.697 249.381 101.967 248.854C102.238 248.327 102.611 247.928 103.087 247.657C103.563 247.386 104.109 247.251 104.725 247.251C105.178 247.251 105.572 247.321 105.908 247.461C106.249 247.601 106.536 247.79 106.769 248.028C107.007 248.266 107.199 248.539 107.343 248.847C107.488 249.15 107.593 249.475 107.658 249.82C107.724 250.161 107.756 250.501 107.756 250.842V255H106.72ZM101.253 255V247.44H102.184V249.302H102.289V255H101.253ZM113.276 258.57C112.889 258.57 112.506 258.512 112.128 258.395C111.755 258.283 111.409 258.103 111.092 257.856C110.775 257.613 110.509 257.296 110.294 256.904L111.225 256.386C111.435 256.806 111.729 257.107 112.107 257.289C112.49 257.476 112.879 257.569 113.276 257.569C113.822 257.569 114.263 257.466 114.599 257.261C114.94 257.06 115.187 256.762 115.341 256.365C115.495 255.968 115.57 255.474 115.565 254.881V252.865H115.684V247.44H116.601V254.895C116.601 255.11 116.594 255.315 116.58 255.511C116.571 255.712 116.55 255.908 116.517 256.099C116.428 256.664 116.244 257.128 115.964 257.492C115.689 257.856 115.325 258.127 114.872 258.304C114.424 258.481 113.892 258.57 113.276 258.57ZM113.206 255.21C112.501 255.21 111.899 255.035 111.4 254.685C110.901 254.33 110.518 253.852 110.252 253.25C109.986 252.648 109.853 251.969 109.853 251.213C109.853 250.462 109.984 249.785 110.245 249.183C110.511 248.581 110.891 248.105 111.386 247.755C111.881 247.405 112.473 247.23 113.164 247.23C113.873 247.23 114.471 247.403 114.956 247.748C115.441 248.093 115.808 248.567 116.055 249.169C116.307 249.766 116.433 250.448 116.433 251.213C116.433 251.964 116.309 252.643 116.062 253.25C115.815 253.852 115.451 254.33 114.97 254.685C114.489 255.035 113.901 255.21 113.206 255.21ZM113.311 254.251C113.848 254.251 114.291 254.12 114.641 253.859C114.991 253.598 115.252 253.238 115.425 252.781C115.598 252.319 115.684 251.796 115.684 251.213C115.684 250.62 115.598 250.098 115.425 249.645C115.252 249.188 114.991 248.831 114.641 248.574C114.296 248.317 113.859 248.189 113.332 248.189C112.791 248.189 112.343 248.322 111.988 248.588C111.633 248.854 111.37 249.216 111.197 249.673C111.029 250.13 110.945 250.644 110.945 251.213C110.945 251.787 111.031 252.305 111.204 252.767C111.381 253.224 111.645 253.586 111.995 253.852C112.345 254.118 112.784 254.251 113.311 254.251ZM126.002 255.21C125.442 255.21 124.922 255.131 124.441 254.972C123.965 254.809 123.566 254.554 123.244 254.209C122.992 253.938 122.805 253.637 122.684 253.306C122.563 252.97 122.495 252.615 122.481 252.242C122.476 251.887 122.528 251.535 122.635 251.185C122.742 250.835 122.91 250.525 123.139 250.254C123.274 250.086 123.426 249.946 123.594 249.834C123.767 249.722 123.944 249.626 124.126 249.547C123.776 249.183 123.508 248.847 123.321 248.539C123.139 248.226 123.048 247.844 123.048 247.391C123.048 246.873 123.179 246.399 123.44 245.97C123.706 245.541 124.072 245.221 124.539 245.011C124.777 244.904 125.02 244.829 125.267 244.787C125.519 244.74 125.769 244.717 126.016 244.717C126.394 244.717 126.765 244.771 127.129 244.878C127.493 244.981 127.803 245.144 128.06 245.368C128.233 245.503 128.384 245.664 128.515 245.851C128.646 246.033 128.748 246.224 128.823 246.425L127.829 246.719C127.731 246.467 127.568 246.255 127.339 246.082C127.162 245.942 126.956 245.844 126.723 245.788C126.494 245.732 126.263 245.704 126.03 245.704C125.633 245.704 125.274 245.781 124.952 245.935C124.672 246.075 124.462 246.269 124.322 246.516C124.182 246.763 124.112 247.053 124.112 247.384C124.112 247.669 124.159 247.904 124.252 248.091C124.345 248.273 124.481 248.471 124.658 248.686C124.761 248.798 124.875 248.912 125.001 249.029C125.127 249.141 125.255 249.258 125.386 249.379L128.578 252.34C128.597 252.209 128.608 252.083 128.613 251.962C128.618 251.836 128.62 251.712 128.62 251.591L128.613 250.114H129.586V251.661C129.586 252.03 129.572 252.331 129.544 252.564C129.516 252.797 129.479 252.991 129.432 253.145L130.734 254.342L130.055 255.063L128.942 254.013C128.788 254.214 128.592 254.393 128.354 254.552C128.121 254.711 127.887 254.834 127.654 254.923C127.402 255.035 127.136 255.11 126.856 255.147C126.576 255.189 126.291 255.21 126.002 255.21ZM126.016 254.216C126.282 254.216 126.522 254.2 126.737 254.167C126.952 254.134 127.157 254.067 127.353 253.964C127.6 253.833 127.785 253.712 127.906 253.6C128.027 253.483 128.125 253.381 128.2 253.292L124.924 250.296C124.728 250.357 124.544 250.441 124.371 250.548C124.203 250.651 124.058 250.774 123.937 250.919C123.802 251.087 123.701 251.281 123.636 251.5C123.571 251.719 123.538 251.95 123.538 252.193C123.547 252.45 123.589 252.688 123.664 252.907C123.743 253.122 123.86 253.313 124.014 253.481C124.233 253.738 124.527 253.924 124.896 254.041C125.265 254.158 125.638 254.216 126.016 254.216ZM136.083 255V247.44H137.007V249.26L136.825 249.022C136.909 248.798 137.018 248.593 137.154 248.406C137.289 248.215 137.436 248.058 137.595 247.937C137.791 247.764 138.019 247.634 138.281 247.545C138.542 247.452 138.806 247.398 139.072 247.384C139.338 247.365 139.58 247.384 139.8 247.44V248.406C139.524 248.336 139.223 248.32 138.897 248.357C138.57 248.394 138.269 248.525 137.994 248.749C137.742 248.945 137.553 249.181 137.427 249.456C137.301 249.727 137.217 250.016 137.175 250.324C137.133 250.627 137.112 250.928 137.112 251.227V255H136.083ZM144.89 255.21C144.153 255.21 143.513 255.047 142.972 254.72C142.435 254.393 142.018 253.934 141.719 253.341C141.42 252.748 141.271 252.053 141.271 251.255C141.271 250.429 141.418 249.715 141.712 249.113C142.006 248.511 142.419 248.047 142.951 247.72C143.488 247.393 144.12 247.23 144.848 247.23C145.595 247.23 146.232 247.403 146.759 247.748C147.286 248.089 147.685 248.579 147.956 249.218C148.227 249.857 148.35 250.62 148.327 251.507H147.277V251.143C147.258 250.163 147.046 249.423 146.64 248.924C146.239 248.425 145.651 248.175 144.876 248.175C144.064 248.175 143.441 248.439 143.007 248.966C142.578 249.493 142.363 250.245 142.363 251.22C142.363 252.172 142.578 252.912 143.007 253.439C143.441 253.962 144.055 254.223 144.848 254.223C145.389 254.223 145.861 254.099 146.262 253.852C146.668 253.6 146.988 253.238 147.221 252.767L148.18 253.138C147.881 253.796 147.44 254.307 146.857 254.671C146.278 255.03 145.623 255.21 144.89 255.21ZM141.999 251.507V250.646H147.774V251.507H141.999ZM151.917 255L149.607 247.433L150.636 247.44L152.428 253.313L154.227 247.44H155.165L156.964 253.313L158.77 247.44H159.792L157.482 255H156.586L154.696 248.98L152.813 255H151.917ZM163.492 255.21C162.923 255.21 162.445 255.107 162.057 254.902C161.675 254.697 161.388 254.424 161.196 254.083C161.005 253.742 160.909 253.371 160.909 252.97C160.909 252.559 160.991 252.209 161.154 251.92C161.322 251.626 161.549 251.386 161.833 251.199C162.123 251.012 162.456 250.87 162.834 250.772C163.217 250.679 163.639 250.597 164.101 250.527C164.568 250.452 165.023 250.389 165.466 250.338C165.914 250.282 166.306 250.228 166.642 250.177L166.278 250.401C166.292 249.654 166.148 249.101 165.844 248.742C165.541 248.383 165.014 248.203 164.262 248.203C163.744 248.203 163.306 248.32 162.946 248.553C162.592 248.786 162.342 249.155 162.197 249.659L161.196 249.365C161.369 248.688 161.717 248.163 162.239 247.79C162.762 247.417 163.441 247.23 164.276 247.23C164.967 247.23 165.553 247.361 166.033 247.622C166.519 247.879 166.862 248.252 167.062 248.742C167.156 248.961 167.216 249.206 167.244 249.477C167.272 249.748 167.286 250.023 167.286 250.303V255H166.369V253.103L166.635 253.215C166.379 253.864 165.98 254.358 165.438 254.699C164.897 255.04 164.248 255.21 163.492 255.21ZM163.611 254.321C164.092 254.321 164.512 254.235 164.871 254.062C165.231 253.889 165.52 253.654 165.739 253.355C165.959 253.052 166.101 252.711 166.166 252.333C166.222 252.09 166.253 251.824 166.257 251.535C166.262 251.241 166.264 251.022 166.264 250.877L166.656 251.08C166.306 251.127 165.926 251.173 165.515 251.22C165.109 251.267 164.708 251.32 164.311 251.381C163.919 251.442 163.565 251.514 163.247 251.598C163.033 251.659 162.825 251.745 162.624 251.857C162.424 251.964 162.258 252.109 162.127 252.291C162.001 252.473 161.938 252.699 161.938 252.97C161.938 253.189 161.992 253.402 162.099 253.607C162.211 253.812 162.389 253.983 162.631 254.118C162.879 254.253 163.205 254.321 163.611 254.321ZM169.809 255V247.44H170.733V249.26L170.551 249.022C170.635 248.798 170.744 248.593 170.88 248.406C171.015 248.215 171.162 248.058 171.321 247.937C171.517 247.764 171.745 247.634 172.007 247.545C172.268 247.452 172.532 247.398 172.798 247.384C173.064 247.365 173.306 247.384 173.526 247.44V248.406C173.25 248.336 172.949 248.32 172.623 248.357C172.296 248.394 171.995 248.525 171.72 248.749C171.468 248.945 171.279 249.181 171.153 249.456C171.027 249.727 170.943 250.016 170.901 250.324C170.859 250.627 170.838 250.928 170.838 251.227V255H169.809ZM178.35 255.21C177.645 255.21 177.043 255.035 176.544 254.685C176.044 254.33 175.662 253.852 175.396 253.25C175.13 252.648 174.997 251.969 174.997 251.213C174.997 250.462 175.127 249.785 175.389 249.183C175.655 248.581 176.035 248.105 176.53 247.755C177.024 247.405 177.617 247.23 178.308 247.23C179.017 247.23 179.614 247.403 180.1 247.748C180.585 248.093 180.951 248.567 181.199 249.169C181.451 249.766 181.577 250.448 181.577 251.213C181.577 251.964 181.453 252.643 181.206 253.25C180.958 253.852 180.594 254.33 180.114 254.685C179.633 255.035 179.045 255.21 178.35 255.21ZM178.455 254.251C178.991 254.251 179.435 254.12 179.785 253.859C180.135 253.598 180.396 253.238 180.569 252.781C180.741 252.319 180.828 251.796 180.828 251.213C180.828 250.62 180.741 250.098 180.569 249.645C180.396 249.188 180.135 248.831 179.785 248.574C179.439 248.317 179.003 248.189 178.476 248.189C177.934 248.189 177.486 248.322 177.132 248.588C176.777 248.854 176.513 249.216 176.341 249.673C176.173 250.13 176.089 250.644 176.089 251.213C176.089 251.787 176.175 252.305 176.348 252.767C176.525 253.224 176.789 253.586 177.139 253.852C177.489 254.118 177.927 254.251 178.455 254.251ZM180.828 255V249.309H180.716V244.92H181.752V255H180.828ZM184.556 246.005V244.85H185.585V246.005H184.556ZM184.556 255V247.44H185.585V255H184.556ZM193.843 255V251.143C193.843 250.723 193.803 250.338 193.724 249.988C193.645 249.633 193.516 249.325 193.339 249.064C193.166 248.798 192.94 248.593 192.66 248.448C192.385 248.303 192.049 248.231 191.652 248.231C191.288 248.231 190.966 248.294 190.686 248.42C190.411 248.546 190.177 248.728 189.986 248.966C189.799 249.199 189.657 249.484 189.559 249.82C189.461 250.156 189.412 250.539 189.412 250.968L188.684 250.807C188.684 250.032 188.819 249.381 189.09 248.854C189.361 248.327 189.734 247.928 190.21 247.657C190.686 247.386 191.232 247.251 191.848 247.251C192.301 247.251 192.695 247.321 193.031 247.461C193.372 247.601 193.659 247.79 193.892 248.028C194.13 248.266 194.321 248.539 194.466 248.847C194.611 249.15 194.716 249.475 194.781 249.82C194.846 250.161 194.879 250.501 194.879 250.842V255H193.843ZM188.376 255V247.44H189.307V249.302H189.412V255H188.376ZM200.399 258.57C200.011 258.57 199.629 258.512 199.251 258.395C198.877 258.283 198.532 258.103 198.215 257.856C197.897 257.613 197.631 257.296 197.417 256.904L198.348 256.386C198.558 256.806 198.852 257.107 199.23 257.289C199.612 257.476 200.002 257.569 200.399 257.569C200.945 257.569 201.386 257.466 201.722 257.261C202.062 257.06 202.31 256.762 202.464 256.365C202.618 255.968 202.692 255.474 202.688 254.881V252.865H202.807V247.44H203.724V254.895C203.724 255.11 203.717 255.315 203.703 255.511C203.693 255.712 203.672 255.908 203.64 256.099C203.551 256.664 203.367 257.128 203.087 257.492C202.811 257.856 202.447 258.127 201.995 258.304C201.547 258.481 201.015 258.57 200.399 258.57ZM200.329 255.21C199.624 255.21 199.022 255.035 198.523 254.685C198.023 254.33 197.641 253.852 197.375 253.25C197.109 252.648 196.976 251.969 196.976 251.213C196.976 250.462 197.106 249.785 197.368 249.183C197.634 248.581 198.014 248.105 198.509 247.755C199.003 247.405 199.596 247.23 200.287 247.23C200.996 247.23 201.593 247.403 202.079 247.748C202.564 248.093 202.93 248.567 203.178 249.169C203.43 249.766 203.556 250.448 203.556 251.213C203.556 251.964 203.432 252.643 203.185 253.25C202.937 253.852 202.573 254.33 202.093 254.685C201.612 255.035 201.024 255.21 200.329 255.21ZM200.434 254.251C200.97 254.251 201.414 254.12 201.764 253.859C202.114 253.598 202.375 253.238 202.548 252.781C202.72 252.319 202.807 251.796 202.807 251.213C202.807 250.62 202.72 250.098 202.548 249.645C202.375 249.188 202.114 248.831 201.764 248.574C201.418 248.317 200.982 248.189 200.455 248.189C199.913 248.189 199.465 248.322 199.111 248.588C198.756 248.854 198.492 249.216 198.32 249.673C198.152 250.13 198.068 250.644 198.068 251.213C198.068 251.787 198.154 252.305 198.327 252.767C198.504 253.224 198.768 253.586 199.118 253.852C199.468 254.118 199.906 254.251 200.434 254.251ZM51.4279 274V263.92H57.2169V264.949H52.4569V268.449H56.3769V269.471H52.4569V274H51.4279ZM59.3225 265.005V263.85H60.3515V265.005H59.3225ZM59.3225 274V266.44H60.3515V274H59.3225ZM68.6101 274V270.143C68.6101 269.723 68.5705 269.338 68.4911 268.988C68.4118 268.633 68.2835 268.325 68.1061 268.064C67.9335 267.798 67.7071 267.593 67.4271 267.448C67.1518 267.303 66.8158 267.231 66.4191 267.231C66.0551 267.231 65.7331 267.294 65.4531 267.42C65.1778 267.546 64.9445 267.728 64.7531 267.966C64.5665 268.199 64.4241 268.484 64.3261 268.82C64.2281 269.156 64.1791 269.539 64.1791 269.968L63.4511 269.807C63.4511 269.032 63.5865 268.381 63.8571 267.854C64.1278 267.327 64.5011 266.928 64.9771 266.657C65.4531 266.386 65.9991 266.251 66.6151 266.251C67.0678 266.251 67.4621 266.321 67.7981 266.461C68.1388 266.601 68.4258 266.79 68.6591 267.028C68.8971 267.266 69.0885 267.539 69.2331 267.847C69.3778 268.15 69.4828 268.475 69.5481 268.82C69.6135 269.161 69.6461 269.501 69.6461 269.842V274H68.6101ZM63.1431 274V266.44H64.0741V268.302H64.1791V274H63.1431ZM74.0096 274V264.907H70.4886V263.92H78.5596V264.907H75.0386V274H74.0096ZM82.4601 274.21C81.7227 274.21 81.0834 274.047 80.5421 273.72C80.0054 273.393 79.5877 272.934 79.2891 272.341C78.9904 271.748 78.8411 271.053 78.8411 270.255C78.8411 269.429 78.9881 268.715 79.2821 268.113C79.5761 267.511 79.9891 267.047 80.5211 266.72C81.0577 266.393 81.6901 266.23 82.4181 266.23C83.1647 266.23 83.8017 266.403 84.3291 266.748C84.8564 267.089 85.2554 267.579 85.5261 268.218C85.7967 268.857 85.9204 269.62 85.8971 270.507H84.8471V270.143C84.8284 269.163 84.6161 268.423 84.2101 267.924C83.8087 267.425 83.2207 267.175 82.4461 267.175C81.6341 267.175 81.0111 267.439 80.5771 267.966C80.1477 268.493 79.9331 269.245 79.9331 270.22C79.9331 271.172 80.1477 271.912 80.5771 272.439C81.0111 272.962 81.6247 273.223 82.4181 273.223C82.9594 273.223 83.4307 273.099 83.8321 272.852C84.2381 272.6 84.5577 272.238 84.7911 271.767L85.7501 272.138C85.4514 272.796 85.0104 273.307 84.4271 273.671C83.8484 274.03 83.1927 274.21 82.4601 274.21ZM79.5691 270.507V269.646H85.3441V270.507H79.5691ZM91.2865 274.21C90.5258 274.21 89.8818 274.04 89.3545 273.699C88.8272 273.358 88.4258 272.889 88.1505 272.292C87.8798 271.69 87.7398 270.999 87.7305 270.22C87.7398 269.427 87.8845 268.731 88.1645 268.134C88.4445 267.532 88.8482 267.065 89.3755 266.734C89.9028 266.398 90.5422 266.23 91.2935 266.23C92.0588 266.23 92.7238 266.417 93.2885 266.79C93.8578 267.163 94.2475 267.674 94.4575 268.323L93.4495 268.645C93.2722 268.192 92.9898 267.842 92.6025 267.595C92.2198 267.343 91.7812 267.217 91.2865 267.217C90.7312 267.217 90.2715 267.345 89.9075 267.602C89.5435 267.854 89.2728 268.206 89.0955 268.659C88.9182 269.112 88.8272 269.632 88.8225 270.22C88.8318 271.125 89.0418 271.853 89.4525 272.404C89.8632 272.95 90.4745 273.223 91.2865 273.223C91.7998 273.223 92.2362 273.106 92.5955 272.873C92.9595 272.635 93.2348 272.29 93.4215 271.837L94.4575 272.145C94.1775 272.817 93.7668 273.33 93.2255 273.685C92.6842 274.035 92.0378 274.21 91.2865 274.21ZM102.062 274V270.143C102.062 269.723 102.023 269.338 101.943 268.988C101.864 268.633 101.736 268.325 101.558 268.064C101.386 267.798 101.159 267.593 100.879 267.448C100.604 267.303 100.268 267.231 99.8715 267.231C99.5075 267.231 99.1855 267.294 98.9055 267.42C98.6301 267.546 98.3968 267.728 98.2055 267.966C98.0188 268.199 97.8765 268.484 97.7785 268.82C97.6805 269.156 97.6315 269.539 97.6315 269.968L96.9035 269.807C96.9035 269.032 97.0388 268.381 97.3095 267.854C97.5801 267.327 97.9535 266.928 98.4295 266.657C98.9055 266.386 99.4515 266.251 100.067 266.251C100.52 266.251 100.914 266.321 101.25 266.461C101.591 266.601 101.878 266.79 102.111 267.028C102.349 267.266 102.541 267.539 102.685 267.847C102.83 268.15 102.935 268.475 103 268.82C103.066 269.161 103.098 269.501 103.098 269.842V274H102.062ZM96.5955 274V263.92H97.5265V269.611H97.6315V274H96.5955ZM112.317 274.21C111.579 274.21 110.94 274.047 110.399 273.72C109.862 273.393 109.444 272.934 109.146 272.341C108.847 271.748 108.698 271.053 108.698 270.255C108.698 269.429 108.845 268.715 109.139 268.113C109.433 267.511 109.846 267.047 110.378 266.72C110.914 266.393 111.547 266.23 112.275 266.23C113.021 266.23 113.658 266.403 114.186 266.748C114.713 267.089 115.112 267.579 115.383 268.218C115.653 268.857 115.777 269.62 115.754 270.507H114.704V270.143C114.685 269.163 114.473 268.423 114.067 267.924C113.665 267.425 113.077 267.175 112.303 267.175C111.491 267.175 110.868 267.439 110.434 267.966C110.004 268.493 109.79 269.245 109.79 270.22C109.79 271.172 110.004 271.912 110.434 272.439C110.868 272.962 111.481 273.223 112.275 273.223C112.816 273.223 113.287 273.099 113.689 272.852C114.095 272.6 114.414 272.238 114.648 271.767L115.607 272.138C115.308 272.796 114.867 273.307 114.284 273.671C113.705 274.03 113.049 274.21 112.317 274.21ZM109.426 270.507V269.646H115.201V270.507H109.426ZM123.262 274V270.143C123.262 269.723 123.222 269.338 123.143 268.988C123.064 268.633 122.935 268.325 122.758 268.064C122.585 267.798 122.359 267.593 122.079 267.448C121.804 267.303 121.468 267.231 121.071 267.231C120.707 267.231 120.385 267.294 120.105 267.42C119.83 267.546 119.596 267.728 119.405 267.966C119.218 268.199 119.076 268.484 118.978 268.82C118.88 269.156 118.831 269.539 118.831 269.968L118.103 269.807C118.103 269.032 118.238 268.381 118.509 267.854C118.78 267.327 119.153 266.928 119.629 266.657C120.105 266.386 120.651 266.251 121.267 266.251C121.72 266.251 122.114 266.321 122.45 266.461C122.791 266.601 123.078 266.79 123.311 267.028C123.549 267.266 123.74 267.539 123.885 267.847C124.03 268.15 124.135 268.475 124.2 268.82C124.265 269.161 124.298 269.501 124.298 269.842V274H123.262ZM117.795 274V266.44H118.726V268.302H118.831V274H117.795ZM128.859 274L126.115 266.44H127.158L129.391 272.656L131.61 266.44H132.667L129.923 274H128.859ZM134.764 265.005V263.85H135.793V265.005H134.764ZM134.764 274V266.44H135.793V274H134.764ZM138.592 274V266.44H139.516V268.26L139.334 268.022C139.418 267.798 139.527 267.593 139.663 267.406C139.798 267.215 139.945 267.058 140.104 266.937C140.3 266.764 140.528 266.634 140.79 266.545C141.051 266.452 141.315 266.398 141.581 266.384C141.847 266.365 142.089 266.384 142.309 266.44V267.406C142.033 267.336 141.732 267.32 141.406 267.357C141.079 267.394 140.778 267.525 140.503 267.749C140.251 267.945 140.062 268.181 139.936 268.456C139.81 268.727 139.726 269.016 139.684 269.324C139.642 269.627 139.621 269.928 139.621 270.227V274H138.592ZM147.357 274.21C146.605 274.21 145.964 274.04 145.432 273.699C144.9 273.358 144.491 272.887 144.207 272.285C143.922 271.683 143.78 270.992 143.78 270.213C143.78 269.42 143.924 268.724 144.214 268.127C144.503 267.53 144.914 267.065 145.446 266.734C145.982 266.398 146.619 266.23 147.357 266.23C148.113 266.23 148.757 266.4 149.289 266.741C149.825 267.077 150.234 267.546 150.514 268.148C150.798 268.745 150.941 269.434 150.941 270.213C150.941 271.006 150.798 271.704 150.514 272.306C150.229 272.903 149.818 273.37 149.282 273.706C148.745 274.042 148.103 274.21 147.357 274.21ZM147.357 273.223C148.197 273.223 148.822 272.945 149.233 272.39C149.643 271.83 149.849 271.104 149.849 270.213C149.849 269.298 149.641 268.57 149.226 268.029C148.815 267.488 148.192 267.217 147.357 267.217C146.792 267.217 146.325 267.345 145.957 267.602C145.593 267.854 145.32 268.206 145.138 268.659C144.96 269.107 144.872 269.625 144.872 270.213C144.872 271.123 145.082 271.853 145.502 272.404C145.922 272.95 146.54 273.223 147.357 273.223ZM158.645 274V270.143C158.645 269.723 158.605 269.338 158.526 268.988C158.447 268.633 158.318 268.325 158.141 268.064C157.968 267.798 157.742 267.593 157.462 267.448C157.187 267.303 156.851 267.231 156.454 267.231C156.09 267.231 155.768 267.294 155.488 267.42C155.213 267.546 154.979 267.728 154.788 267.966C154.601 268.199 154.459 268.484 154.361 268.82C154.263 269.156 154.214 269.539 154.214 269.968L153.486 269.807C153.486 269.032 153.621 268.381 153.892 267.854C154.163 267.327 154.536 266.928 155.012 266.657C155.488 266.386 156.034 266.251 156.65 266.251C157.103 266.251 157.497 266.321 157.833 266.461C158.174 266.601 158.461 266.79 158.694 267.028C158.932 267.266 159.123 267.539 159.268 267.847C159.413 268.15 159.518 268.475 159.583 268.82C159.648 269.161 159.681 269.501 159.681 269.842V274H158.645ZM153.178 274V266.44H154.109V268.302H154.214V274H153.178ZM171.213 274L171.22 269.037C171.22 268.454 171.057 267.996 170.73 267.665C170.408 267.329 169.998 267.161 169.498 267.161C169.214 267.161 168.936 267.226 168.665 267.357C168.395 267.488 168.171 267.698 167.993 267.987C167.821 268.276 167.734 268.654 167.734 269.121L167.125 268.946C167.111 268.405 167.216 267.931 167.44 267.525C167.669 267.119 167.982 266.804 168.378 266.58C168.78 266.351 169.232 266.237 169.736 266.237C170.497 266.237 171.106 266.473 171.563 266.944C172.021 267.411 172.249 268.043 172.249 268.841L172.242 274H171.213ZM162.19 274V266.44H163.114V268.302H163.226V274H162.19ZM166.712 274L166.719 269.107C166.719 268.505 166.558 268.031 166.236 267.686C165.919 267.336 165.499 267.161 164.976 267.161C164.454 267.161 164.031 267.341 163.709 267.7C163.387 268.055 163.226 268.528 163.226 269.121L162.61 268.785C162.61 268.3 162.725 267.866 162.953 267.483C163.182 267.096 163.495 266.792 163.891 266.573C164.288 266.349 164.738 266.237 165.242 266.237C165.723 266.237 166.15 266.34 166.523 266.545C166.901 266.75 167.198 267.049 167.412 267.441C167.627 267.833 167.734 268.309 167.734 268.869L167.727 274H166.712ZM177.909 274.21C177.172 274.21 176.532 274.047 175.991 273.72C175.454 273.393 175.037 272.934 174.738 272.341C174.439 271.748 174.29 271.053 174.29 270.255C174.29 269.429 174.437 268.715 174.731 268.113C175.025 267.511 175.438 267.047 175.97 266.72C176.507 266.393 177.139 266.23 177.867 266.23C178.614 266.23 179.251 266.403 179.778 266.748C180.305 267.089 180.704 267.579 180.975 268.218C181.246 268.857 181.369 269.62 181.346 270.507H180.296V270.143C180.277 269.163 180.065 268.423 179.659 267.924C179.258 267.425 178.67 267.175 177.895 267.175C177.083 267.175 176.46 267.439 176.026 267.966C175.597 268.493 175.382 269.245 175.382 270.22C175.382 271.172 175.597 271.912 176.026 272.439C176.46 272.962 177.074 273.223 177.867 273.223C178.408 273.223 178.88 273.099 179.281 272.852C179.687 272.6 180.007 272.238 180.24 271.767L181.199 272.138C180.9 272.796 180.459 273.307 179.876 273.671C179.297 274.03 178.642 274.21 177.909 274.21ZM175.018 270.507V269.646H180.793V270.507H175.018ZM188.854 274V270.143C188.854 269.723 188.815 269.338 188.735 268.988C188.656 268.633 188.528 268.325 188.35 268.064C188.178 267.798 187.951 267.593 187.671 267.448C187.396 267.303 187.06 267.231 186.663 267.231C186.299 267.231 185.977 267.294 185.697 267.42C185.422 267.546 185.189 267.728 184.997 267.966C184.811 268.199 184.668 268.484 184.57 268.82C184.472 269.156 184.423 269.539 184.423 269.968L183.695 269.807C183.695 269.032 183.831 268.381 184.101 267.854C184.372 267.327 184.745 266.928 185.221 266.657C185.697 266.386 186.243 266.251 186.859 266.251C187.312 266.251 187.706 266.321 188.042 266.461C188.383 266.601 188.67 266.79 188.903 267.028C189.141 267.266 189.333 267.539 189.477 267.847C189.622 268.15 189.727 268.475 189.792 268.82C189.858 269.161 189.89 269.501 189.89 269.842V274H188.854ZM183.387 274V266.44H184.318V268.302H184.423V274H183.387ZM196.523 274C196.098 274.089 195.678 274.124 195.263 274.105C194.852 274.086 194.483 273.998 194.157 273.839C193.835 273.68 193.59 273.433 193.422 273.097C193.286 272.817 193.212 272.535 193.198 272.25C193.188 271.961 193.184 271.632 193.184 271.263V264.34H194.206V271.221C194.206 271.538 194.208 271.804 194.213 272.019C194.222 272.229 194.271 272.416 194.36 272.579C194.528 272.892 194.794 273.078 195.158 273.139C195.526 273.2 195.981 273.186 196.523 273.097V274ZM191.567 267.322V266.44H196.523V267.322H191.567ZM206.331 274C205.906 274.089 205.486 274.124 205.071 274.105C204.66 274.086 204.292 273.998 203.965 273.839C203.643 273.68 203.398 273.433 203.23 273.097C203.095 272.817 203.02 272.535 203.006 272.25C202.997 271.961 202.992 271.632 202.992 271.263V264.34H204.014V271.221C204.014 271.538 204.016 271.804 204.021 272.019C204.03 272.229 204.079 272.416 204.168 272.579C204.336 272.892 204.602 273.078 204.966 273.139C205.335 273.2 205.79 273.186 206.331 273.097V274ZM201.375 267.322V266.44H206.331V267.322H201.375ZM211.404 274.21C210.653 274.21 210.011 274.04 209.479 273.699C208.947 273.358 208.539 272.887 208.254 272.285C207.969 271.683 207.827 270.992 207.827 270.213C207.827 269.42 207.972 268.724 208.261 268.127C208.55 267.53 208.961 267.065 209.493 266.734C210.03 266.398 210.667 266.23 211.404 266.23C212.16 266.23 212.804 266.4 213.336 266.741C213.873 267.077 214.281 267.546 214.561 268.148C214.846 268.745 214.988 269.434 214.988 270.213C214.988 271.006 214.846 271.704 214.561 272.306C214.276 272.903 213.866 273.37 213.329 273.706C212.792 274.042 212.151 274.21 211.404 274.21ZM211.404 273.223C212.244 273.223 212.869 272.945 213.28 272.39C213.691 271.83 213.896 271.104 213.896 270.213C213.896 269.298 213.688 268.57 213.273 268.029C212.862 267.488 212.239 267.217 211.404 267.217C210.839 267.217 210.373 267.345 210.004 267.602C209.64 267.854 209.367 268.206 209.185 268.659C209.008 269.107 208.919 269.625 208.919 270.213C208.919 271.123 209.129 271.853 209.549 272.404C209.969 272.95 210.587 273.223 211.404 273.223ZM61.1459 293.21C60.5766 293.21 60.0983 293.107 59.7109 292.902C59.3283 292.697 59.0413 292.424 58.8499 292.083C58.6586 291.742 58.5629 291.371 58.5629 290.97C58.5629 290.559 58.6446 290.209 58.8079 289.92C58.9759 289.626 59.2023 289.386 59.4869 289.199C59.7763 289.012 60.1099 288.87 60.4879 288.772C60.8706 288.679 61.2929 288.597 61.7549 288.527C62.2216 288.452 62.6766 288.389 63.1199 288.338C63.5679 288.282 63.9599 288.228 64.2959 288.177L63.9319 288.401C63.9459 287.654 63.8013 287.101 63.4979 286.742C63.1946 286.383 62.6673 286.203 61.9159 286.203C61.3979 286.203 60.9593 286.32 60.5999 286.553C60.2453 286.786 59.9956 287.155 59.8509 287.659L58.8499 287.365C59.0226 286.688 59.3703 286.163 59.8929 285.79C60.4156 285.417 61.0946 285.23 61.9299 285.23C62.6206 285.23 63.2063 285.361 63.6869 285.622C64.1723 285.879 64.5153 286.252 64.7159 286.742C64.8093 286.961 64.8699 287.206 64.8979 287.477C64.9259 287.748 64.9399 288.023 64.9399 288.303V293H64.0229V291.103L64.2889 291.215C64.0323 291.864 63.6333 292.358 63.0919 292.699C62.5506 293.04 61.9019 293.21 61.1459 293.21ZM61.2649 292.321C61.7456 292.321 62.1656 292.235 62.5249 292.062C62.8843 291.889 63.1736 291.654 63.3929 291.355C63.6123 291.052 63.7546 290.711 63.8199 290.333C63.8759 290.09 63.9063 289.824 63.9109 289.535C63.9156 289.241 63.9179 289.022 63.9179 288.877L64.3099 289.08C63.9599 289.127 63.5796 289.173 63.1689 289.22C62.7629 289.267 62.3616 289.32 61.9649 289.381C61.5729 289.442 61.2183 289.514 60.9009 289.598C60.6863 289.659 60.4786 289.745 60.2779 289.857C60.0773 289.964 59.9116 290.109 59.7809 290.291C59.6549 290.473 59.5919 290.699 59.5919 290.97C59.5919 291.189 59.6456 291.402 59.7529 291.607C59.8649 291.812 60.0423 291.983 60.2849 292.118C60.5323 292.253 60.8589 292.321 61.2649 292.321ZM70.5982 293.21C69.8376 293.21 69.1936 293.04 68.6662 292.699C68.1389 292.358 67.7376 291.889 67.4622 291.292C67.1916 290.69 67.0516 289.999 67.0422 289.22C67.0516 288.427 67.1962 287.731 67.4762 287.134C67.7562 286.532 68.1599 286.065 68.6872 285.734C69.2146 285.398 69.8539 285.23 70.6052 285.23C71.3706 285.23 72.0356 285.417 72.6002 285.79C73.1696 286.163 73.5592 286.674 73.7692 287.323L72.7612 287.645C72.5839 287.192 72.3016 286.842 71.9142 286.595C71.5316 286.343 71.0929 286.217 70.5982 286.217C70.0429 286.217 69.5832 286.345 69.2192 286.602C68.8552 286.854 68.5846 287.206 68.4072 287.659C68.2299 288.112 68.1389 288.632 68.1342 289.22C68.1436 290.125 68.3536 290.853 68.7642 291.404C69.1749 291.95 69.7862 292.223 70.5982 292.223C71.1116 292.223 71.5479 292.106 71.9072 291.873C72.2712 291.635 72.5466 291.29 72.7332 290.837L73.7692 291.145C73.4892 291.817 73.0786 292.33 72.5372 292.685C71.9959 293.035 71.3496 293.21 70.5982 293.21ZM81.3742 293V289.143C81.3742 288.723 81.3345 288.338 81.2552 287.988C81.1758 287.633 81.0475 287.325 80.8702 287.064C80.6975 286.798 80.4712 286.593 80.1912 286.448C79.9158 286.303 79.5798 286.231 79.1832 286.231C78.8192 286.231 78.4972 286.294 78.2172 286.42C77.9418 286.546 77.7085 286.728 77.5172 286.966C77.3305 287.199 77.1882 287.484 77.0902 287.82C76.9922 288.156 76.9432 288.539 76.9432 288.968L76.2152 288.807C76.2152 288.032 76.3505 287.381 76.6212 286.854C76.8918 286.327 77.2652 285.928 77.7412 285.657C78.2172 285.386 78.7632 285.251 79.3792 285.251C79.8318 285.251 80.2262 285.321 80.5622 285.461C80.9028 285.601 81.1898 285.79 81.4232 286.028C81.6612 286.266 81.8525 286.539 81.9972 286.847C82.1418 287.15 82.2468 287.475 82.3122 287.82C82.3775 288.161 82.4102 288.501 82.4102 288.842V293H81.3742ZM75.9072 293V282.92H76.8382V288.611H76.9432V293H75.9072ZM85.0667 284.005V282.85H86.0957V284.005H85.0667ZM85.0667 293V285.44H86.0957V293H85.0667ZM92.0933 293.21C91.3559 293.21 90.7166 293.047 90.1753 292.72C89.6386 292.393 89.2209 291.934 88.9223 291.341C88.6236 290.748 88.4743 290.053 88.4743 289.255C88.4743 288.429 88.6213 287.715 88.9153 287.113C89.2093 286.511 89.6223 286.047 90.1543 285.72C90.6909 285.393 91.3233 285.23 92.0513 285.23C92.7979 285.23 93.4349 285.403 93.9623 285.748C94.4896 286.089 94.8886 286.579 95.1593 287.218C95.4299 287.857 95.5536 288.62 95.5303 289.507H94.4803V289.143C94.4616 288.163 94.2493 287.423 93.8433 286.924C93.4419 286.425 92.8539 286.175 92.0793 286.175C91.2673 286.175 90.6443 286.439 90.2103 286.966C89.7809 287.493 89.5663 288.245 89.5663 289.22C89.5663 290.172 89.7809 290.912 90.2103 291.439C90.6443 291.962 91.2579 292.223 92.0513 292.223C92.5926 292.223 93.0639 292.099 93.4653 291.852C93.8713 291.6 94.1909 291.238 94.4243 290.767L95.3833 291.138C95.0846 291.796 94.6436 292.307 94.0603 292.671C93.4816 293.03 92.8259 293.21 92.0933 293.21ZM89.2023 289.507V288.646H94.9773V289.507H89.2023ZM99.5543 293L96.8103 285.44H97.8533L100.086 291.656L102.305 285.44H103.362L100.618 293H99.5543ZM108.245 293.21C107.508 293.21 106.869 293.047 106.327 292.72C105.791 292.393 105.373 291.934 105.074 291.341C104.776 290.748 104.626 290.053 104.626 289.255C104.626 288.429 104.773 287.715 105.067 287.113C105.361 286.511 105.774 286.047 106.306 285.72C106.843 285.393 107.475 285.23 108.203 285.23C108.95 285.23 109.587 285.403 110.114 285.748C110.642 286.089 111.041 286.579 111.311 287.218C111.582 287.857 111.706 288.62 111.682 289.507H110.632V289.143C110.614 288.163 110.401 287.423 109.995 286.924C109.594 286.425 109.006 286.175 108.231 286.175C107.419 286.175 106.796 286.439 106.362 286.966C105.933 287.493 105.718 288.245 105.718 289.22C105.718 290.172 105.933 290.912 106.362 291.439C106.796 291.962 107.41 292.223 108.203 292.223C108.745 292.223 109.216 292.099 109.617 291.852C110.023 291.6 110.343 291.238 110.576 290.767L111.535 291.138C111.237 291.796 110.796 292.307 110.212 292.671C109.634 293.03 108.978 293.21 108.245 293.21ZM105.354 289.507V288.646H111.129V289.507H105.354ZM120.574 293.21C119.814 293.21 119.17 293.04 118.642 292.699C118.115 292.358 117.714 291.889 117.438 291.292C117.168 290.69 117.028 289.999 117.018 289.22C117.028 288.427 117.172 287.731 117.452 287.134C117.732 286.532 118.136 286.065 118.663 285.734C119.191 285.398 119.83 285.23 120.581 285.23C121.347 285.23 122.012 285.417 122.576 285.79C123.146 286.163 123.535 286.674 123.745 287.323L122.737 287.645C122.56 287.192 122.278 286.842 121.89 286.595C121.508 286.343 121.069 286.217 120.574 286.217C120.019 286.217 119.559 286.345 119.195 286.602C118.831 286.854 118.561 287.206 118.383 287.659C118.206 288.112 118.115 288.632 118.11 289.22C118.12 290.125 118.33 290.853 118.74 291.404C119.151 291.95 119.762 292.223 120.574 292.223C121.088 292.223 121.524 292.106 121.883 291.873C122.247 291.635 122.523 291.29 122.709 290.837L123.745 291.145C123.465 291.817 123.055 292.33 122.513 292.685C121.972 293.035 121.326 293.21 120.574 293.21ZM127.999 293.21C127.429 293.21 126.951 293.107 126.564 292.902C126.181 292.697 125.894 292.424 125.703 292.083C125.511 291.742 125.416 291.371 125.416 290.97C125.416 290.559 125.497 290.209 125.661 289.92C125.829 289.626 126.055 289.386 126.34 289.199C126.629 289.012 126.963 288.87 127.341 288.772C127.723 288.679 128.146 288.597 128.608 288.527C129.074 288.452 129.529 288.389 129.973 288.338C130.421 288.282 130.813 288.228 131.149 288.177L130.785 288.401C130.799 287.654 130.654 287.101 130.351 286.742C130.047 286.383 129.52 286.203 128.769 286.203C128.251 286.203 127.812 286.32 127.453 286.553C127.098 286.786 126.848 287.155 126.704 287.659L125.703 287.365C125.875 286.688 126.223 286.163 126.746 285.79C127.268 285.417 127.947 285.23 128.783 285.23C129.473 285.23 130.059 285.361 130.54 285.622C131.025 285.879 131.368 286.252 131.569 286.742C131.662 286.961 131.723 287.206 131.751 287.477C131.779 287.748 131.793 288.023 131.793 288.303V293H130.876V291.103L131.142 291.215C130.885 291.864 130.486 292.358 129.945 292.699C129.403 293.04 128.755 293.21 127.999 293.21ZM128.118 292.321C128.598 292.321 129.018 292.235 129.378 292.062C129.737 291.889 130.026 291.654 130.246 291.355C130.465 291.052 130.607 290.711 130.673 290.333C130.729 290.09 130.759 289.824 130.764 289.535C130.768 289.241 130.771 289.022 130.771 288.877L131.163 289.08C130.813 289.127 130.432 289.173 130.022 289.22C129.616 289.267 129.214 289.32 128.818 289.381C128.426 289.442 128.071 289.514 127.754 289.598C127.539 289.659 127.331 289.745 127.131 289.857C126.93 289.964 126.764 290.109 126.634 290.291C126.508 290.473 126.445 290.699 126.445 290.97C126.445 291.189 126.498 291.402 126.606 291.607C126.718 291.812 126.895 291.983 127.138 292.118C127.385 292.253 127.712 292.321 128.118 292.321ZM134.315 293V285.44H135.239V287.26L135.057 287.022C135.141 286.798 135.251 286.593 135.386 286.406C135.521 286.215 135.668 286.058 135.827 285.937C136.023 285.764 136.252 285.634 136.513 285.545C136.774 285.452 137.038 285.398 137.304 285.384C137.57 285.365 137.813 285.384 138.032 285.44V286.406C137.757 286.336 137.456 286.32 137.129 286.357C136.802 286.394 136.501 286.525 136.226 286.749C135.974 286.945 135.785 287.181 135.659 287.456C135.533 287.727 135.449 288.016 135.407 288.324C135.365 288.627 135.344 288.928 135.344 289.227V293H134.315ZM143.122 293.21C142.385 293.21 141.745 293.047 141.204 292.72C140.667 292.393 140.25 291.934 139.951 291.341C139.652 290.748 139.503 290.053 139.503 289.255C139.503 288.429 139.65 287.715 139.944 287.113C140.238 286.511 140.651 286.047 141.183 285.72C141.72 285.393 142.352 285.23 143.08 285.23C143.827 285.23 144.464 285.403 144.991 285.748C145.518 286.089 145.917 286.579 146.188 287.218C146.459 287.857 146.582 288.62 146.559 289.507H145.509V289.143C145.49 288.163 145.278 287.423 144.872 286.924C144.471 286.425 143.883 286.175 143.108 286.175C142.296 286.175 141.673 286.439 141.239 286.966C140.81 287.493 140.595 288.245 140.595 289.22C140.595 290.172 140.81 290.912 141.239 291.439C141.673 291.962 142.287 292.223 143.08 292.223C143.621 292.223 144.093 292.099 144.494 291.852C144.9 291.6 145.22 291.238 145.453 290.767L146.412 291.138C146.113 291.796 145.672 292.307 145.089 292.671C144.51 293.03 143.855 293.21 143.122 293.21ZM140.231 289.507V288.646H146.006V289.507H140.231ZM152.012 293.21C151.274 293.21 150.635 293.047 150.094 292.72C149.557 292.393 149.139 291.934 148.841 291.341C148.542 290.748 148.393 290.053 148.393 289.255C148.393 288.429 148.54 287.715 148.834 287.113C149.128 286.511 149.541 286.047 150.073 285.72C150.609 285.393 151.242 285.23 151.97 285.23C152.716 285.23 153.353 285.403 153.881 285.748C154.408 286.089 154.807 286.579 155.078 287.218C155.348 287.857 155.472 288.62 155.449 289.507H154.399V289.143C154.38 288.163 154.168 287.423 153.762 286.924C153.36 286.425 152.772 286.175 151.998 286.175C151.186 286.175 150.563 286.439 150.129 286.966C149.699 287.493 149.485 288.245 149.485 289.22C149.485 290.172 149.699 290.912 150.129 291.439C150.563 291.962 151.176 292.223 151.97 292.223C152.511 292.223 152.982 292.099 153.384 291.852C153.79 291.6 154.109 291.238 154.343 290.767L155.302 291.138C155.003 291.796 154.562 292.307 153.979 292.671C153.4 293.03 152.744 293.21 152.012 293.21ZM149.121 289.507V288.646H154.896V289.507H149.121ZM157.702 293V285.44H158.626V287.26L158.444 287.022C158.528 286.798 158.638 286.593 158.773 286.406C158.908 286.215 159.055 286.058 159.214 285.937C159.41 285.764 159.639 285.634 159.9 285.545C160.161 285.452 160.425 285.398 160.691 285.384C160.957 285.365 161.2 285.384 161.419 285.44V286.406C161.144 286.336 160.843 286.32 160.516 286.357C160.189 286.394 159.888 286.525 159.613 286.749C159.361 286.945 159.172 287.181 159.046 287.456C158.92 287.727 158.836 288.016 158.794 288.324C158.752 288.627 158.731 288.928 158.731 289.227V293H157.702ZM169.953 296.57C169.565 296.57 169.183 296.512 168.805 296.395C168.431 296.283 168.086 296.103 167.769 295.856C167.451 295.613 167.185 295.296 166.971 294.904L167.902 294.386C168.112 294.806 168.406 295.107 168.784 295.289C169.166 295.476 169.556 295.569 169.953 295.569C170.499 295.569 170.94 295.466 171.276 295.261C171.616 295.06 171.864 294.762 172.018 294.365C172.172 293.968 172.246 293.474 172.242 292.881V290.865H172.361V285.44H173.278V292.895C173.278 293.11 173.271 293.315 173.257 293.511C173.247 293.712 173.226 293.908 173.194 294.099C173.105 294.664 172.921 295.128 172.641 295.492C172.365 295.856 172.001 296.127 171.549 296.304C171.101 296.481 170.569 296.57 169.953 296.57ZM169.883 293.21C169.178 293.21 168.576 293.035 168.077 292.685C167.577 292.33 167.195 291.852 166.929 291.25C166.663 290.648 166.53 289.969 166.53 289.213C166.53 288.462 166.66 287.785 166.922 287.183C167.188 286.581 167.568 286.105 168.063 285.755C168.557 285.405 169.15 285.23 169.841 285.23C170.55 285.23 171.147 285.403 171.633 285.748C172.118 286.093 172.484 286.567 172.732 287.169C172.984 287.766 173.11 288.448 173.11 289.213C173.11 289.964 172.986 290.643 172.739 291.25C172.491 291.852 172.127 292.33 171.647 292.685C171.166 293.035 170.578 293.21 169.883 293.21ZM169.988 292.251C170.524 292.251 170.968 292.12 171.318 291.859C171.668 291.598 171.929 291.238 172.102 290.781C172.274 290.319 172.361 289.796 172.361 289.213C172.361 288.62 172.274 288.098 172.102 287.645C171.929 287.188 171.668 286.831 171.318 286.574C170.972 286.317 170.536 286.189 170.009 286.189C169.467 286.189 169.019 286.322 168.665 286.588C168.31 286.854 168.046 287.216 167.874 287.673C167.706 288.13 167.622 288.644 167.622 289.213C167.622 289.787 167.708 290.305 167.881 290.767C168.058 291.224 168.322 291.586 168.672 291.852C169.022 292.118 169.46 292.251 169.988 292.251ZM179.092 293.21C178.341 293.21 177.699 293.04 177.167 292.699C176.635 292.358 176.227 291.887 175.942 291.285C175.657 290.683 175.515 289.992 175.515 289.213C175.515 288.42 175.66 287.724 175.949 287.127C176.238 286.53 176.649 286.065 177.181 285.734C177.718 285.398 178.355 285.23 179.092 285.23C179.848 285.23 180.492 285.4 181.024 285.741C181.561 286.077 181.969 286.546 182.249 287.148C182.534 287.745 182.676 288.434 182.676 289.213C182.676 290.006 182.534 290.704 182.249 291.306C181.964 291.903 181.554 292.37 181.017 292.706C180.48 293.042 179.839 293.21 179.092 293.21ZM179.092 292.223C179.932 292.223 180.557 291.945 180.968 291.39C181.379 290.83 181.584 290.104 181.584 289.213C181.584 288.298 181.376 287.57 180.961 287.029C180.55 286.488 179.927 286.217 179.092 286.217C178.527 286.217 178.061 286.345 177.692 286.602C177.328 286.854 177.055 287.206 176.873 287.659C176.696 288.107 176.607 288.625 176.607 289.213C176.607 290.123 176.817 290.853 177.237 291.404C177.657 291.95 178.275 292.223 179.092 292.223ZM187.083 293.21C186.514 293.21 186.035 293.107 185.648 292.902C185.265 292.697 184.978 292.424 184.787 292.083C184.596 291.742 184.5 291.371 184.5 290.97C184.5 290.559 184.582 290.209 184.745 289.92C184.913 289.626 185.139 289.386 185.424 289.199C185.713 289.012 186.047 288.87 186.425 288.772C186.808 288.679 187.23 288.597 187.692 288.527C188.159 288.452 188.614 288.389 189.057 288.338C189.505 288.282 189.897 288.228 190.233 288.177L189.869 288.401C189.883 287.654 189.738 287.101 189.435 286.742C189.132 286.383 188.604 286.203 187.853 286.203C187.335 286.203 186.896 286.32 186.537 286.553C186.182 286.786 185.933 287.155 185.788 287.659L184.787 287.365C184.96 286.688 185.307 286.163 185.83 285.79C186.353 285.417 187.032 285.23 187.867 285.23C188.558 285.23 189.143 285.361 189.624 285.622C190.109 285.879 190.452 286.252 190.653 286.742C190.746 286.961 190.807 287.206 190.835 287.477C190.863 287.748 190.877 288.023 190.877 288.303V293H189.96V291.103L190.226 291.215C189.969 291.864 189.57 292.358 189.029 292.699C188.488 293.04 187.839 293.21 187.083 293.21ZM187.202 292.321C187.683 292.321 188.103 292.235 188.462 292.062C188.821 291.889 189.111 291.654 189.33 291.355C189.549 291.052 189.692 290.711 189.757 290.333C189.813 290.09 189.843 289.824 189.848 289.535C189.853 289.241 189.855 289.022 189.855 288.877L190.247 289.08C189.897 289.127 189.517 289.173 189.106 289.22C188.7 289.267 188.299 289.32 187.902 289.381C187.51 289.442 187.155 289.514 186.838 289.598C186.623 289.659 186.416 289.745 186.215 289.857C186.014 289.964 185.849 290.109 185.718 290.291C185.592 290.473 185.529 290.699 185.529 290.97C185.529 291.189 185.583 291.402 185.69 291.607C185.802 291.812 185.979 291.983 186.222 292.118C186.469 292.253 186.796 292.321 187.202 292.321ZM193.539 293V282.71H194.568V293H193.539ZM200.188 293.203C199.301 293.203 198.571 293.012 197.997 292.629C197.428 292.246 197.078 291.714 196.947 291.033L197.997 290.858C198.109 291.287 198.363 291.63 198.76 291.887C199.161 292.139 199.656 292.265 200.244 292.265C200.818 292.265 201.271 292.146 201.602 291.908C201.933 291.665 202.099 291.336 202.099 290.921C202.099 290.688 202.045 290.499 201.938 290.354C201.835 290.205 201.623 290.067 201.301 289.941C200.979 289.815 200.498 289.666 199.859 289.493C199.173 289.306 198.636 289.12 198.249 288.933C197.862 288.746 197.586 288.532 197.423 288.289C197.26 288.042 197.178 287.741 197.178 287.386C197.178 286.957 197.299 286.581 197.542 286.259C197.785 285.932 198.121 285.68 198.55 285.503C198.979 285.321 199.479 285.23 200.048 285.23C200.617 285.23 201.126 285.323 201.574 285.51C202.027 285.692 202.391 285.949 202.666 286.28C202.941 286.611 203.105 286.996 203.156 287.435L202.106 287.624C202.036 287.181 201.814 286.831 201.441 286.574C201.072 286.313 200.603 286.177 200.034 286.168C199.497 286.154 199.061 286.257 198.725 286.476C198.389 286.691 198.221 286.978 198.221 287.337C198.221 287.538 198.282 287.71 198.403 287.855C198.524 287.995 198.744 288.128 199.061 288.254C199.383 288.38 199.84 288.518 200.433 288.667C201.128 288.844 201.674 289.031 202.071 289.227C202.468 289.423 202.75 289.654 202.918 289.92C203.086 290.186 203.17 290.515 203.17 290.907C203.17 291.621 202.904 292.183 202.372 292.594C201.845 293 201.117 293.203 200.188 293.203ZM205.618 293V291.803H206.815V293H205.618Z" fill="#7F8BAB"/>
<defs>
<filter id="filter0_i_2093_1888" x="241.521" y="7.64475" width="27.2172" height="29.0249" filterUnits="userSpaceOnUse" color-interpolation-filters="sRGB">
<feFlood flood-opacity="0" result="BackgroundImageFix"/>
<feBlend mode="normal" in="SourceGraphic" in2="BackgroundImageFix" result="shape"/>
<feColorMatrix in="SourceAlpha" type="matrix" values="0 0 0 0 0 0 0 0 0 0 0 0 0 0 0 0 0 0 127 0" result="hardAlpha"/>
<feOffset dy="-2.55766"/>
<feGaussianBlur stdDeviation="0.959121"/>
<feComposite in2="hardAlpha" operator="arithmetic" k2="-1" k3="1"/>
<feColorMatrix type="matrix" values="0 0 0 0 0.956863 0 0 0 0 0.85098 0 0 0 0 0.431373 0 0 0 1 0"/>
<feBlend mode="normal" in2="shape" result="effect1_innerShadow_2093_1888"/>
</filter>
</defs>
</svg>
