<svg xmlns="http://www.w3.org/2000/svg" width="44" height="44" viewBox="0 0 44 44" fill="none">
  <path d="M18.333 23.8332C18.333 24.8056 18.7193 25.7383 19.407 26.4259C20.0946 27.1135 21.0272 27.4998 21.9997 27.4998C22.9721 27.4998 23.9048 27.1135 24.5924 26.4259C25.28 25.7383 25.6663 24.8056 25.6663 23.8332C25.6663 22.8607 25.28 21.9281 24.5924 21.2404C23.9048 20.5528 22.9721 20.1665 21.9997 20.1665C21.0272 20.1665 20.0946 20.5528 19.407 21.2404C18.7193 21.9281 18.333 22.8607 18.333 23.8332Z" stroke="url(#paint0_linear_1055_3253)" stroke-width="2" stroke-linecap="round" stroke-linejoin="round"/>
  <path d="M14.667 38.5V36.6667C14.667 35.6942 15.0533 34.7616 15.7409 34.0739C16.4286 33.3863 17.3612 33 18.3337 33H25.667C26.6395 33 27.5721 33.3863 28.2597 34.0739C28.9474 34.7616 29.3337 35.6942 29.3337 36.6667V38.5" stroke="url(#paint1_linear_1055_3253)" stroke-width="2" stroke-linecap="round" stroke-linejoin="round"/>
  <path d="M27.5 9.16667C27.5 10.1391 27.8863 11.0718 28.5739 11.7594C29.2616 12.447 30.1942 12.8333 31.1667 12.8333C32.1391 12.8333 33.0718 12.447 33.7594 11.7594C34.447 11.0718 34.8333 10.1391 34.8333 9.16667C34.8333 8.19421 34.447 7.26157 33.7594 6.57394C33.0718 5.88631 32.1391 5.5 31.1667 5.5C30.1942 5.5 29.2616 5.88631 28.5739 6.57394C27.8863 7.26157 27.5 8.19421 27.5 9.16667Z" stroke="url(#paint2_linear_1055_3253)" stroke-width="2" stroke-linecap="round" stroke-linejoin="round"/>
  <path d="M31.167 18.3335H34.8337C35.8061 18.3335 36.7387 18.7198 37.4264 19.4074C38.114 20.0951 38.5003 21.0277 38.5003 22.0002V23.8335" stroke="url(#paint3_linear_1055_3253)" stroke-width="2" stroke-linecap="round" stroke-linejoin="round"/>
  <path d="M9.16699 9.16667C9.16699 10.1391 9.5533 11.0718 10.2409 11.7594C10.9286 12.447 11.8612 12.8333 12.8337 12.8333C13.8061 12.8333 14.7387 12.447 15.4264 11.7594C16.114 11.0718 16.5003 10.1391 16.5003 9.16667C16.5003 8.19421 16.114 7.26157 15.4264 6.57394C14.7387 5.88631 13.8061 5.5 12.8337 5.5C11.8612 5.5 10.9286 5.88631 10.2409 6.57394C9.5533 7.26157 9.16699 8.19421 9.16699 9.16667Z" stroke="url(#paint4_linear_1055_3253)" stroke-width="2" stroke-linecap="round" stroke-linejoin="round"/>
  <path d="M5.5 23.8335V22.0002C5.5 21.0277 5.88631 20.0951 6.57394 19.4074C7.26158 18.7198 8.19421 18.3335 9.16667 18.3335H12.8333" stroke="url(#paint5_linear_1055_3253)" stroke-width="2" stroke-linecap="round" stroke-linejoin="round"/>
  <defs>
    <linearGradient id="paint0_linear_1055_3253" x1="21.9997" y1="20.1665" x2="21.9997" y2="32.7178" gradientUnits="userSpaceOnUse">
      <stop offset="0.160784" stop-color="#6B54F7"/>
      <stop offset="1" stop-color="#C04BE2"/>
    </linearGradient>
    <linearGradient id="paint1_linear_1055_3253" x1="22.0003" y1="33" x2="22.0003" y2="42.4135" gradientUnits="userSpaceOnUse">
      <stop offset="0.160784" stop-color="#6B54F7"/>
      <stop offset="1" stop-color="#C04BE2"/>
    </linearGradient>
    <linearGradient id="paint2_linear_1055_3253" x1="31.1667" y1="5.5" x2="31.1667" y2="18.0513" gradientUnits="userSpaceOnUse">
      <stop offset="0.160784" stop-color="#6B54F7"/>
      <stop offset="1" stop-color="#C04BE2"/>
    </linearGradient>
    <linearGradient id="paint3_linear_1055_3253" x1="34.8337" y1="18.3335" x2="34.8337" y2="27.747" gradientUnits="userSpaceOnUse">
      <stop offset="0.160784" stop-color="#6B54F7"/>
      <stop offset="1" stop-color="#C04BE2"/>
    </linearGradient>
    <linearGradient id="paint4_linear_1055_3253" x1="12.8337" y1="5.5" x2="12.8337" y2="18.0513" gradientUnits="userSpaceOnUse">
      <stop offset="0.160784" stop-color="#6B54F7"/>
      <stop offset="1" stop-color="#C04BE2"/>
    </linearGradient>
    <linearGradient id="paint5_linear_1055_3253" x1="9.16667" y1="18.3335" x2="9.16667" y2="27.747" gradientUnits="userSpaceOnUse">
      <stop offset="0.160784" stop-color="#6B54F7"/>
      <stop offset="1" stop-color="#C04BE2"/>
    </linearGradient>
  </defs>
</svg>