<svg width="279" height="380" viewBox="0 0 279 380" fill="none" xmlns="http://www.w3.org/2000/svg">
<g filter="url(#filter0_i_2093_1885)">
<path d="M261.998 12.7583C264.009 12.1191 265.014 11.7995 265.563 12.3354C266.112 12.8712 265.818 13.8842 265.228 15.9102L264.033 20.0202C263.857 20.622 263.77 20.9229 263.824 21.2195C263.878 21.5162 264.066 21.7669 264.442 22.2684L266.986 25.6636C268.328 27.4549 268.999 28.3505 268.644 29.0578C268.289 29.7652 267.17 29.7618 264.931 29.7549L260.929 29.7427C260.276 29.7407 259.95 29.7397 259.672 29.8835C259.394 30.0272 259.206 30.294 258.83 30.8276L256.513 34.1179C255.27 35.8829 254.648 36.7654 253.879 36.6613C253.109 36.5572 252.744 35.5413 252.015 33.5095L250.523 29.354C250.316 28.7785 250.213 28.4908 250.002 28.285C249.791 28.0792 249.5 27.983 248.92 27.7906L244.729 26.4013C242.68 25.722 241.655 25.3824 241.532 24.6155C241.409 23.8486 242.276 23.2055 244.01 21.9194L247.242 19.5218C247.767 19.133 248.029 18.9385 248.166 18.657C248.302 18.3755 248.293 18.0492 248.275 17.3968L248.165 13.3962C248.103 11.1586 248.072 10.0399 248.77 9.66734C249.468 9.29482 250.38 9.94371 252.204 11.2415L255.661 13.7012C256.171 14.0646 256.427 14.2463 256.725 14.2929C257.023 14.3396 257.321 14.2447 257.918 14.0548L261.998 12.7583Z" fill="#E6A608"/>
</g>
<path d="M266.4 58.825C266.4 52.7544 258.548 48.6974 252.477 48.6974V48.6974C239.714 48.6974 229.368 37.7667 229.368 24.283V24.283C229.368 18.5264 225.446 12 219.689 12H27.5586C14.5674 12 8.07173 12 4.03587 16.2638C0 20.5277 0 27.3902 0 41.1153V350.085C0 363.81 0 370.672 4.03587 374.936C8.07173 379.2 14.5674 379.2 27.5586 379.2H238.841C251.833 379.2 258.328 379.2 262.364 374.936C266.4 370.672 266.4 363.81 266.4 350.085V58.825Z" fill="white"/>
<path d="M197.4 133.494C195.96 133.494 194.8 134.67 194.8 136.112C194.8 137.553 195.968 138.729 197.4 138.729C198.832 138.729 200 137.553 200 136.112C200 134.67 198.832 133.494 197.4 133.494Z" stroke="#5479F7" stroke-width="1.6" stroke-linecap="round" stroke-linejoin="round"/>
<path d="M205.744 141.967C204.304 141.967 203.144 143.142 203.144 144.584C203.144 146.026 204.312 147.201 205.744 147.201C207.176 147.201 208.344 146.026 208.344 144.584C208.344 143.142 207.176 141.967 205.744 141.967Z" stroke="#5479F7" stroke-width="1.6" stroke-linecap="round" stroke-linejoin="round"/>
<path d="M207.544 134.299L195.6 146.396" stroke="#5479F7" stroke-width="1.6" stroke-linecap="round" stroke-linejoin="round"/>
<path d="M143.272 141.91C146.368 139.574 148.856 140.13 150.92 141.789C151.424 142.192 151.448 142.957 150.984 143.4L135.528 158.05C135.104 158.452 134.544 158.67 133.968 158.67H115.848C114.504 158.67 113.216 159.233 112.296 160.216L107.864 164.968" stroke="#5479F7" stroke-width="1.6" stroke-linecap="round" stroke-linejoin="round"/>
<path d="M137.008 146.662C138.76 145.333 141.288 143.408 143.272 141.91" stroke="#5479F7" stroke-width="1.6" stroke-linecap="round" stroke-linejoin="round"/>
<path d="M121.88 151.872H134.448C134.832 151.872 135.144 151.542 135.112 151.156C134.808 146.871 131.744 146.468 130.784 146.468H124.488C121.552 144.487 119.72 144.076 116.28 144.076C112.168 144.076 108.864 146.082 104.704 151.341L99.616 156.165" stroke="#5479F7" stroke-width="1.6" stroke-linecap="round" stroke-linejoin="round"/>
<path d="M146.456 109.985C148.992 112.297 150.584 115.639 150.584 119.36C150.584 126.342 144.96 132.004 138.024 132.004C131.088 132.004 125.464 126.342 125.464 119.36C125.464 113.859 128.96 109.172 133.832 107.432" stroke="#C04BE2" stroke-width="1.6" stroke-linecap="round" stroke-linejoin="round"/>
<path d="M142.064 115.735C140.744 112.184 134.768 112.603 134.728 116.307C134.712 117.958 136.64 118.723 138.248 118.981C144.12 119.915 142.496 125.472 138.248 125.263C135.024 125.102 134.096 122.903 133.992 122.38" stroke="#C04BE2" stroke-width="1.6" stroke-linecap="round" stroke-linejoin="round"/>
<path d="M138.312 110.307V113.287" stroke="#C04BE2" stroke-width="1.6" stroke-linecap="round" stroke-linejoin="round"/>
<path d="M138.312 125.263V128.251" stroke="#C04BE2" stroke-width="1.6" stroke-linecap="round" stroke-linejoin="round"/>
<path d="M131.48 102.213H113.16V136.345H162.888V113.215" stroke="#C04BE2" stroke-width="1.6" stroke-linecap="round" stroke-linejoin="round"/>
<path d="M176.704 111.942H170.424V86.1143H176.704" stroke="#5479F7" stroke-width="1.6" stroke-linecap="round" stroke-linejoin="round"/>
<path d="M126.36 98.3397L133.24 91.4136C134.528 90.1169 136.28 89.384 138.104 89.384H166.968" stroke="#5479F7" stroke-width="1.6" stroke-linecap="round" stroke-linejoin="round"/>
<path d="M152.272 97.9368H139.576C137.232 97.9368 135.328 99.8535 135.328 102.213C135.328 104.573 137.232 106.49 139.576 106.49H152.272C154.4 108.632 157.336 109.953 160.584 109.953C162.96 109.953 165.176 109.244 167.024 108.02" stroke="#5479F7" stroke-width="1.6" stroke-linecap="round" stroke-linejoin="round"/>
<path d="M186.792 117.54C186.792 144.495 165.088 166.345 138.312 166.345C134.968 166.345 131.696 166.007 128.544 165.354" stroke="#C04BE2" stroke-width="1.6" stroke-miterlimit="10" stroke-linecap="round"/>
<path d="M97.752 144.294C92.744 136.611 89.832 127.421 89.832 117.548C89.832 90.5919 111.536 68.7422 138.312 68.7422C150.888 68.7422 162.352 73.5663 170.968 81.4751" stroke="#C04BE2" stroke-width="1.6" stroke-miterlimit="10" stroke-linecap="round"/>
<path d="M181.592 76.6992C182.683 76.6992 183.568 75.8086 183.568 74.71C183.568 73.6113 182.683 72.7207 181.592 72.7207C180.501 72.7207 179.616 73.6113 179.616 74.71C179.616 75.8086 180.501 76.6992 181.592 76.6992Z" stroke="#5479F7" stroke-width="0.8" stroke-miterlimit="10"/>
<path d="M81.1759 151.212C81.7768 151.212 82.2639 150.722 82.2639 150.117C82.2639 149.512 81.7768 149.021 81.1759 149.021C80.575 149.021 80.0879 149.512 80.0879 150.117C80.0879 150.722 80.575 151.212 81.1759 151.212Z" fill="#C04BE2"/>
<path d="M73.575 121.164V93.7812" stroke="#5479F7" stroke-width="1.6" stroke-linejoin="round"/>
<path d="M69.175 97.8563L73.575 93.4187L77.975 97.8563" stroke="#5479F7" stroke-width="1.6" stroke-linecap="round" stroke-linejoin="round"/>
<path d="M63.2 130.466V103.083" stroke="#5479F7" stroke-width="1.6" stroke-linejoin="round"/>
<path d="M58.8 107.158L63.2 102.721L67.608 107.158" stroke="#5479F7" stroke-width="1.6" stroke-linecap="round" stroke-linejoin="round"/>
<path d="M125.462 59.9093L125.967 60.9397L126.06 61.1292L126.269 61.1596L127.408 61.3254L126.582 62.1377L126.433 62.2839L126.468 62.4895L126.661 63.6293L125.65 63.0924L125.463 62.9929L125.275 63.092L124.26 63.6293L124.457 62.491L124.492 62.2846L124.343 62.1377L123.517 61.3254L124.656 61.1596L124.865 61.1292L124.958 60.9397L125.462 59.9093Z" stroke="#C04BE2" stroke-width="0.8"/>
<path d="M179.502 164.573L180.008 165.61L180.101 165.801L180.31 165.831L181.446 165.996L180.624 166.8L180.475 166.946L180.51 167.153L180.702 168.293L179.692 167.756L179.504 167.656L179.317 167.755L178.301 168.293L178.498 167.154L178.534 166.947L178.384 166.8L177.561 165.996L178.69 165.831L178.898 165.801L178.991 165.612L179.502 164.573Z" stroke="#C04BE2" stroke-width="0.8"/>
<path d="M117.455 173.292L118.071 174.549L119.455 174.75L118.455 175.733L118.687 177.11L117.455 176.458L116.223 177.11L116.463 175.733L115.463 174.75L116.839 174.549L117.455 173.292Z" fill="#5479F7"/>
<path d="M61.6595 165.894L58.89 167.856" stroke="#5479F7" stroke-width="0.754212" stroke-linecap="round"/>
<path d="M61.2557 168.26L59.2939 165.49" stroke="#5479F7" stroke-width="0.754212" stroke-linecap="round"/>
<path d="M56.2479 209.448C56.9519 209.448 57.5225 209.555 57.9599 209.768C58.3972 209.971 58.7972 210.211 59.1599 210.488C59.2985 210.595 59.4052 210.648 59.4799 210.648C59.6825 210.648 59.8159 210.323 59.8799 209.672H60.2479C60.2265 210.077 60.2105 210.568 60.1999 211.144C60.1892 211.709 60.1839 212.467 60.1839 213.416H59.8159C59.7412 212.904 59.6399 212.429 59.5119 211.992C59.3945 211.555 59.1865 211.181 58.8879 210.872C58.5999 210.531 58.2212 210.264 57.7519 210.072C57.2932 209.88 56.8239 209.784 56.3439 209.784C55.7892 209.784 55.2985 209.923 54.8719 210.2C54.4452 210.467 54.0825 210.851 53.7839 211.352C53.4959 211.853 53.2719 212.445 53.1119 213.128C52.9625 213.8 52.8879 214.541 52.8879 215.352C52.8879 217.272 53.1812 218.68 53.7679 219.576C54.3652 220.461 55.2612 220.904 56.4559 220.904C56.7972 220.904 57.0905 220.856 57.3359 220.76C57.5919 220.664 57.7945 220.568 57.9439 220.472C58.1252 220.344 58.2425 220.221 58.2959 220.104C58.3492 219.976 58.3759 219.811 58.3759 219.608V218.056C58.3759 217.597 58.3332 217.261 58.2479 217.048C58.1732 216.824 58.0185 216.675 57.7839 216.6C57.5492 216.515 57.2079 216.467 56.7599 216.456V216.136C56.9625 216.147 57.2025 216.157 57.4799 216.168C57.7572 216.168 58.0452 216.173 58.3439 216.184C58.6532 216.184 58.9305 216.184 59.1759 216.184C59.5599 216.184 59.9065 216.179 60.2159 216.168C60.5359 216.157 60.7972 216.147 60.9999 216.136V216.456C60.7759 216.467 60.6052 216.504 60.4879 216.568C60.3812 216.632 60.3065 216.76 60.2639 216.952C60.2319 217.144 60.2159 217.437 60.2159 217.832V221H59.8959C59.8852 220.819 59.8425 220.621 59.7679 220.408C59.7039 220.195 59.6025 220.088 59.4639 220.088C59.3892 220.088 59.3092 220.104 59.2239 220.136C59.1492 220.168 59.0159 220.248 58.8239 220.376C58.4505 220.632 58.0612 220.84 57.6559 221C57.2505 221.149 56.7919 221.224 56.2799 221.224C55.1385 221.224 54.1625 221 53.3519 220.552C52.5412 220.093 51.9225 219.437 51.4959 218.584C51.0799 217.72 50.8719 216.696 50.8719 215.512C50.8719 214.275 51.1012 213.203 51.5599 212.296C52.0292 211.389 52.6639 210.691 53.4639 210.2C54.2745 209.699 55.2025 209.448 56.2479 209.448ZM67.8778 212.52C68.1871 212.52 68.4484 212.584 68.6618 212.712C68.8858 212.84 69.0511 213.005 69.1578 213.208C69.2751 213.4 69.3338 213.619 69.3338 213.864C69.3338 214.173 69.2378 214.44 69.0458 214.664C68.8644 214.877 68.6191 214.984 68.3098 214.984C68.0431 214.984 67.8138 214.904 67.6218 214.744C67.4404 214.584 67.3498 214.365 67.3498 214.088C67.3498 213.853 67.4084 213.656 67.5258 213.496C67.6538 213.325 67.7978 213.192 67.9578 213.096C67.8511 213.011 67.7231 212.973 67.5738 212.984C67.2858 212.995 67.0191 213.091 66.7738 213.272C66.5284 213.443 66.3204 213.667 66.1498 213.944C65.9791 214.211 65.8458 214.499 65.7498 214.808C65.6538 215.117 65.6058 215.405 65.6058 215.672V219.352C65.6058 219.875 65.7498 220.227 66.0378 220.408C66.3258 220.579 66.7258 220.664 67.2378 220.664V221C66.9924 220.989 66.6404 220.979 66.1818 220.968C65.7338 220.947 65.2591 220.936 64.7578 220.936C64.3738 220.936 63.9898 220.947 63.6058 220.968C63.2218 220.979 62.9284 220.989 62.7258 221V220.664C63.1418 220.664 63.4351 220.584 63.6058 220.424C63.7871 220.264 63.8778 219.96 63.8778 219.512V214.488C63.8778 214.008 63.7978 213.656 63.6378 213.432C63.4778 213.197 63.1738 213.08 62.7258 213.08V212.744C63.0671 212.776 63.3978 212.792 63.7178 212.792C64.0804 212.792 64.4164 212.776 64.7258 212.744C65.0458 212.701 65.3391 212.643 65.6058 212.568V214.408C65.7338 214.099 65.9044 213.8 66.1178 213.512C66.3311 213.224 66.5871 212.989 66.8858 212.808C67.1844 212.616 67.5151 212.52 67.8778 212.52ZM74.4469 212.52C75.3855 212.52 76.1215 212.803 76.6549 213.368C77.1882 213.933 77.4549 214.829 77.4549 216.056H71.9349L71.9029 215.752H75.7589C75.7695 215.229 75.7269 214.749 75.6309 214.312C75.5349 213.864 75.3855 213.507 75.1829 213.24C74.9802 212.973 74.7135 212.84 74.3829 212.84C73.9242 212.84 73.5242 213.085 73.1829 213.576C72.8522 214.056 72.6495 214.829 72.5749 215.896L72.6229 215.976C72.6122 216.125 72.6015 216.291 72.5909 216.472C72.5802 216.643 72.5749 216.813 72.5749 216.984C72.5749 217.72 72.6869 218.339 72.9109 218.84C73.1349 219.341 73.4282 219.72 73.7909 219.976C74.1535 220.221 74.5215 220.344 74.8949 220.344C75.1829 220.344 75.4602 220.301 75.7269 220.216C76.0042 220.12 76.2655 219.965 76.5109 219.752C76.7562 219.528 76.9749 219.224 77.1669 218.84L77.4869 218.968C77.3589 219.331 77.1615 219.688 76.8949 220.04C76.6282 220.392 76.2869 220.68 75.8709 220.904C75.4549 221.117 74.9695 221.224 74.4149 221.224C73.6682 221.224 73.0175 221.059 72.4629 220.728C71.9082 220.387 71.4815 219.901 71.1829 219.272C70.8842 218.643 70.7349 217.896 70.7349 217.032C70.7349 216.083 70.8895 215.272 71.1989 214.6C71.5082 213.928 71.9402 213.416 72.4949 213.064C73.0602 212.701 73.7109 212.52 74.4469 212.52ZM81.613 221.112C81.165 221.112 80.781 221.027 80.461 220.856C80.141 220.685 79.901 220.451 79.741 220.152C79.581 219.853 79.501 219.512 79.501 219.128C79.501 218.659 79.6077 218.28 79.821 217.992C80.0343 217.693 80.3063 217.453 80.637 217.272C80.9783 217.091 81.3357 216.941 81.709 216.824C82.093 216.696 82.4503 216.579 82.781 216.472C83.1223 216.355 83.3997 216.221 83.613 216.072C83.837 215.923 83.949 215.725 83.949 215.48V214.392C83.949 214.008 83.885 213.704 83.757 213.48C83.6397 213.245 83.4743 213.08 83.261 212.984C83.0583 212.888 82.813 212.84 82.525 212.84C82.2797 212.84 82.0183 212.877 81.741 212.952C81.4637 213.016 81.245 213.149 81.085 213.352C81.3197 213.416 81.5117 213.544 81.661 213.736C81.821 213.917 81.901 214.147 81.901 214.424C81.901 214.723 81.7997 214.957 81.597 215.128C81.405 215.299 81.1597 215.384 80.861 215.384C80.5303 215.384 80.285 215.283 80.125 215.08C79.965 214.867 79.885 214.621 79.885 214.344C79.885 214.056 79.9543 213.821 80.093 213.64C80.2423 213.459 80.4343 213.288 80.669 213.128C80.925 212.957 81.2503 212.813 81.645 212.696C82.0503 212.579 82.4983 212.52 82.989 212.52C83.4477 212.52 83.8423 212.573 84.173 212.68C84.5143 212.776 84.797 212.936 85.021 213.16C85.2877 213.405 85.4637 213.715 85.549 214.088C85.6343 214.451 85.677 214.893 85.677 215.416V219.832C85.677 220.099 85.709 220.291 85.773 220.408C85.8477 220.515 85.965 220.568 86.125 220.568C86.2317 220.568 86.333 220.541 86.429 220.488C86.5357 220.435 86.6583 220.355 86.797 220.248L86.957 220.52C86.733 220.701 86.5037 220.845 86.269 220.952C86.045 221.059 85.757 221.112 85.405 221.112C85.0637 221.112 84.7863 221.059 84.573 220.952C84.3597 220.845 84.1997 220.691 84.093 220.488C83.997 220.285 83.949 220.035 83.949 219.736C83.6717 220.184 83.341 220.525 82.957 220.76C82.573 220.995 82.125 221.112 81.613 221.112ZM82.381 220.344C82.6797 220.344 82.957 220.259 83.213 220.088C83.4797 219.917 83.725 219.661 83.949 219.32V216.136C83.8317 216.307 83.661 216.456 83.437 216.584C83.213 216.701 82.973 216.824 82.717 216.952C82.461 217.08 82.2157 217.229 81.981 217.4C81.757 217.56 81.5703 217.768 81.421 218.024C81.2717 218.28 81.197 218.605 81.197 219C81.197 219.416 81.3037 219.747 81.517 219.992C81.7303 220.227 82.0183 220.344 82.381 220.344ZM91.0351 210.104V212.76H93.2431V213.08H91.0351V219.368C91.0351 219.805 91.1151 220.115 91.2751 220.296C91.4351 220.477 91.6645 220.568 91.9631 220.568C92.2405 220.568 92.4858 220.456 92.6991 220.232C92.9231 220.008 93.1151 219.629 93.2751 219.096L93.5791 219.208C93.4511 219.773 93.2218 220.253 92.8911 220.648C92.5711 221.032 92.0965 221.224 91.4671 221.224C91.1045 221.224 90.8005 221.176 90.5551 221.08C90.3098 220.995 90.0965 220.867 89.9151 220.696C89.6805 220.451 89.5205 220.157 89.4351 219.816C89.3498 219.475 89.3071 219.021 89.3071 218.456V213.08H87.8351V212.76H89.3071V210.424C89.6378 210.413 89.9471 210.387 90.2351 210.344C90.5231 210.291 90.7898 210.211 91.0351 210.104ZM102.971 209.48C103.537 209.48 103.969 209.544 104.267 209.672C104.566 209.8 104.827 209.939 105.051 210.088C105.179 210.163 105.281 210.221 105.355 210.264C105.441 210.296 105.521 210.312 105.595 210.312C105.702 210.312 105.777 210.253 105.819 210.136C105.873 210.019 105.915 209.843 105.947 209.608H106.315C106.305 209.8 106.289 210.029 106.267 210.296C106.257 210.552 106.246 210.893 106.235 211.32C106.235 211.747 106.235 212.307 106.235 213H105.867C105.835 212.477 105.718 211.971 105.515 211.48C105.323 210.989 105.035 210.589 104.651 210.28C104.278 209.971 103.798 209.816 103.211 209.816C102.667 209.816 102.214 209.981 101.851 210.312C101.499 210.632 101.323 211.059 101.323 211.592C101.323 212.061 101.441 212.456 101.675 212.776C101.91 213.085 102.23 213.379 102.635 213.656C103.051 213.923 103.521 214.221 104.043 214.552C104.577 214.893 105.057 215.235 105.483 215.576C105.91 215.907 106.246 216.275 106.491 216.68C106.737 217.085 106.859 217.576 106.859 218.152C106.859 218.845 106.694 219.421 106.363 219.88C106.043 220.328 105.611 220.664 105.067 220.888C104.523 221.112 103.926 221.224 103.275 221.224C102.678 221.224 102.203 221.16 101.851 221.032C101.499 220.904 101.201 220.771 100.955 220.632C100.721 220.483 100.539 220.408 100.411 220.408C100.305 220.408 100.225 220.467 100.171 220.584C100.129 220.701 100.091 220.877 100.059 221.112H99.6913C99.7126 220.877 99.7233 220.605 99.7233 220.296C99.7339 219.976 99.7393 219.56 99.7393 219.048C99.7499 218.536 99.7553 217.891 99.7553 217.112H100.123C100.166 217.773 100.283 218.392 100.475 218.968C100.678 219.544 100.982 220.008 101.387 220.36C101.803 220.701 102.353 220.872 103.035 220.872C103.398 220.872 103.734 220.803 104.043 220.664C104.353 220.525 104.603 220.307 104.795 220.008C104.987 219.709 105.083 219.325 105.083 218.856C105.083 218.419 104.977 218.035 104.763 217.704C104.561 217.373 104.273 217.069 103.899 216.792C103.537 216.504 103.11 216.211 102.619 215.912C102.118 215.592 101.649 215.272 101.211 214.952C100.774 214.632 100.422 214.259 100.155 213.832C99.8993 213.405 99.7713 212.899 99.7713 212.312C99.7713 211.661 99.9206 211.128 100.219 210.712C100.529 210.296 100.923 209.987 101.403 209.784C101.894 209.581 102.417 209.48 102.971 209.48ZM111.094 221.112C110.646 221.112 110.262 221.027 109.942 220.856C109.622 220.685 109.382 220.451 109.222 220.152C109.062 219.853 108.982 219.512 108.982 219.128C108.982 218.659 109.089 218.28 109.302 217.992C109.516 217.693 109.788 217.453 110.118 217.272C110.46 217.091 110.817 216.941 111.19 216.824C111.574 216.696 111.932 216.579 112.262 216.472C112.604 216.355 112.881 216.221 113.094 216.072C113.318 215.923 113.43 215.725 113.43 215.48V214.392C113.43 214.008 113.366 213.704 113.238 213.48C113.121 213.245 112.956 213.08 112.742 212.984C112.54 212.888 112.294 212.84 112.006 212.84C111.761 212.84 111.5 212.877 111.222 212.952C110.945 213.016 110.726 213.149 110.566 213.352C110.801 213.416 110.993 213.544 111.142 213.736C111.302 213.917 111.382 214.147 111.382 214.424C111.382 214.723 111.281 214.957 111.078 215.128C110.886 215.299 110.641 215.384 110.342 215.384C110.012 215.384 109.766 215.283 109.606 215.08C109.446 214.867 109.366 214.621 109.366 214.344C109.366 214.056 109.436 213.821 109.574 213.64C109.724 213.459 109.916 213.288 110.15 213.128C110.406 212.957 110.732 212.813 111.126 212.696C111.532 212.579 111.98 212.52 112.47 212.52C112.929 212.52 113.324 212.573 113.654 212.68C113.996 212.776 114.278 212.936 114.502 213.16C114.769 213.405 114.945 213.715 115.03 214.088C115.116 214.451 115.158 214.893 115.158 215.416V219.832C115.158 220.099 115.19 220.291 115.254 220.408C115.329 220.515 115.446 220.568 115.606 220.568C115.713 220.568 115.814 220.541 115.91 220.488C116.017 220.435 116.14 220.355 116.278 220.248L116.438 220.52C116.214 220.701 115.985 220.845 115.75 220.952C115.526 221.059 115.238 221.112 114.886 221.112C114.545 221.112 114.268 221.059 114.054 220.952C113.841 220.845 113.681 220.691 113.574 220.488C113.478 220.285 113.43 220.035 113.43 219.736C113.153 220.184 112.822 220.525 112.438 220.76C112.054 220.995 111.606 221.112 111.094 221.112ZM111.862 220.344C112.161 220.344 112.438 220.259 112.694 220.088C112.961 219.917 113.206 219.661 113.43 219.32V216.136C113.313 216.307 113.142 216.456 112.918 216.584C112.694 216.701 112.454 216.824 112.198 216.952C111.942 217.08 111.697 217.229 111.462 217.4C111.238 217.56 111.052 217.768 110.902 218.024C110.753 218.28 110.678 218.605 110.678 219C110.678 219.416 110.785 219.747 110.998 219.992C111.212 220.227 111.5 220.344 111.862 220.344ZM120.5 208.456V219.512C120.5 219.96 120.586 220.264 120.756 220.424C120.938 220.584 121.236 220.664 121.652 220.664V221C121.471 220.989 121.188 220.979 120.804 220.968C120.42 220.947 120.036 220.936 119.652 220.936C119.268 220.936 118.879 220.947 118.484 220.968C118.1 220.979 117.812 220.989 117.62 221V220.664C118.036 220.664 118.33 220.584 118.5 220.424C118.682 220.264 118.772 219.96 118.772 219.512V210.376C118.772 209.896 118.692 209.544 118.532 209.32C118.372 209.085 118.068 208.968 117.62 208.968V208.632C117.962 208.664 118.292 208.68 118.612 208.68C118.964 208.68 119.3 208.664 119.62 208.632C119.94 208.589 120.234 208.531 120.5 208.456ZM125.475 221.112C125.027 221.112 124.643 221.027 124.323 220.856C124.003 220.685 123.763 220.451 123.603 220.152C123.443 219.853 123.363 219.512 123.363 219.128C123.363 218.659 123.47 218.28 123.683 217.992C123.897 217.693 124.169 217.453 124.499 217.272C124.841 217.091 125.198 216.941 125.571 216.824C125.955 216.696 126.313 216.579 126.643 216.472C126.985 216.355 127.262 216.221 127.475 216.072C127.699 215.923 127.811 215.725 127.811 215.48V214.392C127.811 214.008 127.747 213.704 127.619 213.48C127.502 213.245 127.337 213.08 127.123 212.984C126.921 212.888 126.675 212.84 126.387 212.84C126.142 212.84 125.881 212.877 125.603 212.952C125.326 213.016 125.107 213.149 124.947 213.352C125.182 213.416 125.374 213.544 125.523 213.736C125.683 213.917 125.763 214.147 125.763 214.424C125.763 214.723 125.662 214.957 125.459 215.128C125.267 215.299 125.022 215.384 124.723 215.384C124.393 215.384 124.147 215.283 123.987 215.08C123.827 214.867 123.747 214.621 123.747 214.344C123.747 214.056 123.817 213.821 123.955 213.64C124.105 213.459 124.297 213.288 124.531 213.128C124.787 212.957 125.113 212.813 125.507 212.696C125.913 212.579 126.361 212.52 126.851 212.52C127.31 212.52 127.705 212.573 128.035 212.68C128.377 212.776 128.659 212.936 128.883 213.16C129.15 213.405 129.326 213.715 129.411 214.088C129.497 214.451 129.539 214.893 129.539 215.416V219.832C129.539 220.099 129.571 220.291 129.635 220.408C129.71 220.515 129.827 220.568 129.987 220.568C130.094 220.568 130.195 220.541 130.291 220.488C130.398 220.435 130.521 220.355 130.659 220.248L130.819 220.52C130.595 220.701 130.366 220.845 130.131 220.952C129.907 221.059 129.619 221.112 129.267 221.112C128.926 221.112 128.649 221.059 128.435 220.952C128.222 220.845 128.062 220.691 127.955 220.488C127.859 220.285 127.811 220.035 127.811 219.736C127.534 220.184 127.203 220.525 126.819 220.76C126.435 220.995 125.987 221.112 125.475 221.112ZM126.243 220.344C126.542 220.344 126.819 220.259 127.075 220.088C127.342 219.917 127.587 219.661 127.811 219.32V216.136C127.694 216.307 127.523 216.456 127.299 216.584C127.075 216.701 126.835 216.824 126.579 216.952C126.323 217.08 126.078 217.229 125.843 217.4C125.619 217.56 125.433 217.768 125.283 218.024C125.134 218.28 125.059 218.605 125.059 219C125.059 219.416 125.166 219.747 125.379 219.992C125.593 220.227 125.881 220.344 126.243 220.344ZM137.25 212.52C137.559 212.52 137.82 212.584 138.034 212.712C138.258 212.84 138.423 213.005 138.53 213.208C138.647 213.4 138.706 213.619 138.706 213.864C138.706 214.173 138.61 214.44 138.418 214.664C138.236 214.877 137.991 214.984 137.682 214.984C137.415 214.984 137.186 214.904 136.994 214.744C136.812 214.584 136.722 214.365 136.722 214.088C136.722 213.853 136.78 213.656 136.898 213.496C137.026 213.325 137.17 213.192 137.33 213.096C137.223 213.011 137.095 212.973 136.946 212.984C136.658 212.995 136.391 213.091 136.146 213.272C135.9 213.443 135.692 213.667 135.522 213.944C135.351 214.211 135.218 214.499 135.122 214.808C135.026 215.117 134.978 215.405 134.978 215.672V219.352C134.978 219.875 135.122 220.227 135.41 220.408C135.698 220.579 136.098 220.664 136.61 220.664V221C136.364 220.989 136.012 220.979 135.554 220.968C135.106 220.947 134.631 220.936 134.13 220.936C133.746 220.936 133.362 220.947 132.978 220.968C132.594 220.979 132.3 220.989 132.098 221V220.664C132.514 220.664 132.807 220.584 132.978 220.424C133.159 220.264 133.25 219.96 133.25 219.512V214.488C133.25 214.008 133.17 213.656 133.01 213.432C132.85 213.197 132.546 213.08 132.098 213.08V212.744C132.439 212.776 132.77 212.792 133.09 212.792C133.452 212.792 133.788 212.776 134.098 212.744C134.418 212.701 134.711 212.643 134.978 212.568V214.408C135.106 214.099 135.276 213.8 135.49 213.512C135.703 213.224 135.959 212.989 136.258 212.808C136.556 212.616 136.887 212.52 137.25 212.52ZM147.7 212.744V213.064C147.497 213.096 147.311 213.203 147.14 213.384C146.969 213.555 146.804 213.853 146.644 214.28L144.148 220.968L143.764 221.352L140.644 213.976C140.441 213.56 140.244 213.309 140.052 213.224C139.871 213.128 139.716 213.08 139.588 213.08V212.744C139.855 212.776 140.137 212.803 140.436 212.824C140.735 212.835 141.044 212.84 141.364 212.84C141.727 212.84 142.089 212.829 142.452 212.808C142.825 212.787 143.172 212.765 143.492 212.744V213.08C143.236 213.08 143.007 213.101 142.804 213.144C142.612 213.176 142.484 213.277 142.42 213.448C142.367 213.608 142.42 213.885 142.58 214.28L144.564 219.16L144.452 219.208L146.068 214.92C146.228 214.493 146.292 214.152 146.26 213.896C146.228 213.629 146.116 213.432 145.924 213.304C145.732 213.165 145.449 213.085 145.076 213.064V212.744C145.257 212.755 145.423 212.765 145.572 212.776C145.732 212.776 145.887 212.781 146.036 212.792C146.185 212.792 146.335 212.792 146.484 212.792C146.719 212.792 146.937 212.787 147.14 212.776C147.353 212.765 147.54 212.755 147.7 212.744ZM144.148 220.968L143.572 222.472C143.465 222.739 143.353 222.963 143.236 223.144C143.129 223.325 143.012 223.475 142.884 223.592C142.724 223.741 142.527 223.848 142.292 223.912C142.057 223.976 141.823 224.008 141.588 224.008C141.364 224.008 141.151 223.965 140.948 223.88C140.756 223.805 140.596 223.688 140.468 223.528C140.34 223.368 140.276 223.171 140.276 222.936C140.276 222.659 140.367 222.435 140.548 222.264C140.729 222.093 140.969 222.008 141.268 222.008C141.535 222.008 141.759 222.077 141.94 222.216C142.121 222.365 142.212 222.579 142.212 222.856C142.212 223.048 142.159 223.213 142.052 223.352C141.956 223.491 141.828 223.597 141.668 223.672C141.7 223.683 141.732 223.688 141.764 223.688C141.796 223.688 141.823 223.688 141.844 223.688C142.143 223.688 142.409 223.587 142.644 223.384C142.879 223.192 143.076 222.877 143.236 222.44L143.812 220.904L144.148 220.968ZM157.949 209.72C158.355 209.72 158.685 209.763 158.941 209.848C159.208 209.923 159.432 210.024 159.613 210.152C159.763 210.248 159.885 210.36 159.981 210.488C160.088 210.616 160.173 210.749 160.237 210.888C160.301 211.027 160.333 211.171 160.333 211.32C160.333 211.608 160.227 211.837 160.013 212.008C159.811 212.168 159.581 212.248 159.325 212.248C159.069 212.248 158.845 212.173 158.653 212.024C158.472 211.875 158.381 211.661 158.381 211.384C158.381 211.139 158.467 210.925 158.637 210.744C158.808 210.552 159.021 210.44 159.277 210.408C159.224 210.291 159.091 210.189 158.877 210.104C158.675 210.019 158.424 209.976 158.125 209.976C157.571 209.976 157.112 210.141 156.749 210.472C156.397 210.803 156.221 211.293 156.221 211.944C156.221 212.221 156.269 212.509 156.365 212.808C156.472 213.107 156.675 213.405 156.973 213.704C157.155 213.672 157.331 213.645 157.501 213.624C157.683 213.603 157.827 213.592 157.933 213.592C158.125 213.592 158.275 213.629 158.381 213.704C158.499 213.768 158.557 213.864 158.557 213.992C158.557 214.088 158.515 214.163 158.429 214.216C158.344 214.269 158.237 214.296 158.109 214.296C157.907 214.296 157.699 214.253 157.485 214.168C157.272 214.072 157.107 213.992 156.989 213.928C156.403 214.131 155.928 214.44 155.565 214.856C155.213 215.261 155.037 215.821 155.037 216.536C155.037 217.261 155.229 217.875 155.613 218.376C155.997 218.867 156.52 219.24 157.181 219.496C157.843 219.752 158.6 219.88 159.453 219.88C160.008 219.88 160.541 219.816 161.053 219.688C161.565 219.56 162.019 219.373 162.413 219.128C162.819 218.872 163.139 218.568 163.373 218.216C163.608 217.864 163.725 217.459 163.725 217C163.725 216.808 163.688 216.563 163.613 216.264C163.539 215.965 163.379 215.672 163.133 215.384C162.899 215.096 162.531 214.867 162.029 214.696L162.189 214.536C162.904 214.76 163.421 215.128 163.741 215.64C164.061 216.152 164.221 216.728 164.221 217.368C164.221 218.04 164.013 218.675 163.597 219.272C163.192 219.859 162.611 220.333 161.853 220.696C161.096 221.048 160.184 221.224 159.117 221.224C158.36 221.224 157.651 221.133 156.989 220.952C156.339 220.771 155.768 220.509 155.277 220.168C154.787 219.816 154.403 219.395 154.125 218.904C153.848 218.413 153.709 217.859 153.709 217.24C153.709 216.653 153.821 216.157 154.045 215.752C154.28 215.336 154.568 214.995 154.909 214.728C155.251 214.451 155.592 214.243 155.933 214.104C156.275 213.955 156.552 213.853 156.765 213.8C156.413 213.651 156.109 213.475 155.853 213.272C155.608 213.059 155.416 212.824 155.277 212.568C155.149 212.301 155.085 212.029 155.085 211.752C155.085 211.464 155.155 211.197 155.293 210.952C155.432 210.707 155.624 210.493 155.869 210.312C156.125 210.12 156.424 209.976 156.765 209.88C157.117 209.773 157.512 209.72 157.949 209.72ZM163.917 209.448C164.611 209.448 165.187 209.64 165.645 210.024C166.104 210.408 166.333 210.947 166.333 211.64C166.333 212.067 166.243 212.435 166.061 212.744C165.891 213.053 165.645 213.32 165.325 213.544C165.016 213.768 164.653 213.949 164.237 214.088C164.024 214.184 163.747 214.291 163.405 214.408C163.064 214.515 162.701 214.627 162.317 214.744C161.933 214.861 161.565 214.973 161.213 215.08C160.872 215.187 160.589 215.283 160.365 215.368C159.832 215.528 159.4 215.72 159.069 215.944C158.739 216.157 158.573 216.445 158.573 216.808C158.573 217.085 158.653 217.32 158.813 217.512C158.984 217.704 159.187 217.848 159.421 217.944C159.667 218.04 159.901 218.088 160.125 218.088C160.211 218.088 160.317 218.077 160.445 218.056C160.573 218.035 160.685 218.003 160.781 217.96C160.888 217.917 160.952 217.864 160.973 217.8C160.771 217.757 160.589 217.667 160.429 217.528C160.28 217.379 160.205 217.171 160.205 216.904C160.205 216.627 160.301 216.408 160.493 216.248C160.696 216.088 160.941 216.008 161.229 216.008C161.528 216.008 161.763 216.093 161.933 216.264C162.115 216.435 162.205 216.659 162.205 216.936C162.205 217.245 162.104 217.507 161.901 217.72C161.699 217.933 161.443 218.093 161.133 218.2C160.824 218.296 160.504 218.344 160.173 218.344C159.832 218.344 159.496 218.28 159.165 218.152C158.845 218.013 158.579 217.805 158.365 217.528C158.163 217.24 158.061 216.867 158.061 216.408C158.061 215.971 158.163 215.597 158.365 215.288C158.568 214.968 158.867 214.691 159.261 214.456C159.667 214.221 160.152 214.029 160.717 213.88C161.005 213.784 161.347 213.683 161.741 213.576C162.147 213.469 162.557 213.357 162.973 213.24C163.389 213.112 163.773 212.973 164.125 212.824C164.733 212.589 165.171 212.349 165.437 212.104C165.704 211.859 165.837 211.581 165.837 211.272C165.837 210.963 165.752 210.696 165.581 210.472C165.411 210.237 165.181 210.051 164.893 209.912C164.616 209.773 164.317 209.704 163.997 209.704C163.88 209.704 163.779 209.715 163.693 209.736C163.619 209.747 163.565 209.779 163.533 209.832C163.715 209.907 163.853 210.024 163.949 210.184C164.045 210.344 164.093 210.499 164.093 210.648C164.093 210.915 163.992 211.128 163.789 211.288C163.587 211.437 163.347 211.512 163.069 211.512C162.813 211.512 162.584 211.437 162.381 211.288C162.179 211.139 162.077 210.92 162.077 210.632C162.077 210.355 162.168 210.131 162.349 209.96C162.531 209.779 162.76 209.651 163.037 209.576C163.325 209.491 163.619 209.448 163.917 209.448ZM172.758 209.672C173.004 209.683 173.318 209.693 173.702 209.704C174.097 209.715 174.486 209.72 174.87 209.72C175.382 209.72 175.868 209.715 176.326 209.704C176.796 209.693 177.126 209.688 177.318 209.688C178.673 209.688 179.686 209.981 180.358 210.568C181.03 211.155 181.366 211.912 181.366 212.84C181.366 213.224 181.297 213.629 181.158 214.056C181.03 214.472 180.801 214.861 180.47 215.224C180.14 215.576 179.692 215.864 179.126 216.088C178.561 216.312 177.841 216.424 176.966 216.424H175.398V216.104H176.806C177.521 216.104 178.065 215.96 178.438 215.672C178.822 215.384 179.078 215.005 179.206 214.536C179.345 214.067 179.414 213.56 179.414 213.016C179.414 212.003 179.233 211.245 178.87 210.744C178.508 210.243 177.878 209.992 176.982 209.992C176.524 209.992 176.22 210.083 176.07 210.264C175.932 210.445 175.862 210.813 175.862 211.368V219.272C175.862 219.667 175.905 219.965 175.99 220.168C176.076 220.36 176.236 220.488 176.47 220.552C176.705 220.616 177.052 220.653 177.51 220.664V221C177.222 220.979 176.849 220.968 176.39 220.968C175.932 220.957 175.457 220.952 174.966 220.952C174.54 220.952 174.129 220.957 173.734 220.968C173.35 220.968 173.025 220.979 172.758 221V220.68C173.121 220.659 173.393 220.616 173.574 220.552C173.756 220.488 173.873 220.36 173.926 220.168C173.99 219.976 174.022 219.688 174.022 219.304V211.368C174.022 210.973 173.99 210.685 173.926 210.504C173.873 210.312 173.75 210.184 173.558 210.12C173.377 210.045 173.11 210.003 172.758 209.992V209.672ZM186.788 212.52C187.726 212.52 188.462 212.803 188.996 213.368C189.529 213.933 189.796 214.829 189.796 216.056H184.276L184.244 215.752H188.1C188.11 215.229 188.068 214.749 187.972 214.312C187.876 213.864 187.726 213.507 187.524 213.24C187.321 212.973 187.054 212.84 186.724 212.84C186.265 212.84 185.865 213.085 185.524 213.576C185.193 214.056 184.99 214.829 184.916 215.896L184.964 215.976C184.953 216.125 184.942 216.291 184.932 216.472C184.921 216.643 184.916 216.813 184.916 216.984C184.916 217.72 185.028 218.339 185.252 218.84C185.476 219.341 185.769 219.72 186.132 219.976C186.494 220.221 186.862 220.344 187.236 220.344C187.524 220.344 187.801 220.301 188.068 220.216C188.345 220.12 188.606 219.965 188.852 219.752C189.097 219.528 189.316 219.224 189.508 218.84L189.828 218.968C189.7 219.331 189.502 219.688 189.236 220.04C188.969 220.392 188.628 220.68 188.212 220.904C187.796 221.117 187.31 221.224 186.756 221.224C186.009 221.224 185.358 221.059 184.804 220.728C184.249 220.387 183.822 219.901 183.524 219.272C183.225 218.643 183.076 217.896 183.076 217.032C183.076 216.083 183.23 215.272 183.54 214.6C183.849 213.928 184.281 213.416 184.836 213.064C185.401 212.701 186.052 212.52 186.788 212.52ZM196.818 212.52C197.128 212.52 197.389 212.584 197.602 212.712C197.826 212.84 197.992 213.005 198.098 213.208C198.216 213.4 198.274 213.619 198.274 213.864C198.274 214.173 198.178 214.44 197.986 214.664C197.805 214.877 197.56 214.984 197.25 214.984C196.984 214.984 196.754 214.904 196.562 214.744C196.381 214.584 196.29 214.365 196.29 214.088C196.29 213.853 196.349 213.656 196.466 213.496C196.594 213.325 196.738 213.192 196.898 213.096C196.792 213.011 196.664 212.973 196.514 212.984C196.226 212.995 195.96 213.091 195.714 213.272C195.469 213.443 195.261 213.667 195.09 213.944C194.92 214.211 194.786 214.499 194.69 214.808C194.594 215.117 194.546 215.405 194.546 215.672V219.352C194.546 219.875 194.69 220.227 194.978 220.408C195.266 220.579 195.666 220.664 196.178 220.664V221C195.933 220.989 195.581 220.979 195.122 220.968C194.674 220.947 194.2 220.936 193.698 220.936C193.314 220.936 192.93 220.947 192.546 220.968C192.162 220.979 191.869 220.989 191.666 221V220.664C192.082 220.664 192.376 220.584 192.546 220.424C192.728 220.264 192.818 219.96 192.818 219.512V214.488C192.818 214.008 192.738 213.656 192.578 213.432C192.418 213.197 192.114 213.08 191.666 213.08V212.744C192.008 212.776 192.338 212.792 192.658 212.792C193.021 212.792 193.357 212.776 193.666 212.744C193.986 212.701 194.28 212.643 194.546 212.568V214.408C194.674 214.099 194.845 213.8 195.058 213.512C195.272 213.224 195.528 212.989 195.826 212.808C196.125 212.616 196.456 212.52 196.818 212.52ZM202.109 208.456V219.512C202.109 219.96 202.184 220.264 202.333 220.424C202.493 220.584 202.76 220.664 203.133 220.664V221C202.952 220.989 202.68 220.979 202.317 220.968C201.965 220.947 201.608 220.936 201.245 220.936C200.872 220.936 200.488 220.947 200.093 220.968C199.709 220.979 199.421 220.989 199.229 221V220.664C199.645 220.664 199.939 220.584 200.109 220.424C200.291 220.264 200.381 219.96 200.381 219.512V210.376C200.381 209.896 200.296 209.544 200.125 209.32C199.965 209.085 199.667 208.968 199.229 208.968V208.632C199.571 208.664 199.901 208.68 200.221 208.68C200.573 208.68 200.909 208.664 201.229 208.632C201.549 208.589 201.843 208.531 202.109 208.456ZM207.229 212.744V213.064C206.941 213.107 206.664 213.203 206.397 213.352C206.131 213.501 205.869 213.709 205.613 213.976L203.693 215.992L203.901 215.592L206.797 219.832C206.957 220.056 207.112 220.243 207.261 220.392C207.411 220.531 207.597 220.621 207.821 220.664V221C207.683 220.989 207.475 220.979 207.197 220.968C206.931 220.947 206.664 220.936 206.397 220.936C206.045 220.936 205.688 220.947 205.325 220.968C204.963 220.979 204.696 220.989 204.525 221V220.664C204.739 220.664 204.883 220.611 204.957 220.504C205.043 220.397 205.032 220.269 204.925 220.12L203.165 217.368C202.984 217.112 202.819 216.947 202.669 216.872C202.52 216.797 202.307 216.755 202.029 216.744V216.424C202.339 216.392 202.589 216.333 202.781 216.248C202.984 216.163 203.171 216.024 203.341 215.832L204.541 214.616C204.883 214.275 205.053 213.992 205.053 213.768C205.053 213.533 204.941 213.363 204.717 213.256C204.504 213.139 204.216 213.075 203.853 213.064V212.744C204.141 212.755 204.456 212.771 204.797 212.792C205.149 212.803 205.443 212.808 205.677 212.808C205.869 212.808 206.061 212.808 206.253 212.808C206.456 212.797 206.643 212.787 206.813 212.776C206.984 212.765 207.123 212.755 207.229 212.744ZM212.102 212.52C212.528 212.52 212.896 212.589 213.206 212.728C213.526 212.856 213.755 212.973 213.894 213.08C214.246 213.357 214.464 213.176 214.55 212.536H214.902C214.88 212.835 214.864 213.197 214.854 213.624C214.843 214.04 214.838 214.595 214.838 215.288H214.486C214.422 214.893 214.31 214.509 214.15 214.136C214 213.763 213.776 213.453 213.478 213.208C213.19 212.963 212.811 212.84 212.342 212.84C211.99 212.84 211.696 212.941 211.462 213.144C211.227 213.336 211.11 213.624 211.11 214.008C211.11 214.328 211.206 214.605 211.398 214.84C211.59 215.075 211.835 215.293 212.134 215.496C212.443 215.699 212.774 215.917 213.126 216.152C213.52 216.419 213.872 216.685 214.182 216.952C214.502 217.208 214.752 217.496 214.934 217.816C215.126 218.136 215.222 218.509 215.222 218.936C215.222 219.427 215.088 219.843 214.822 220.184C214.566 220.525 214.224 220.787 213.798 220.968C213.371 221.139 212.902 221.224 212.39 221.224C212.134 221.224 211.894 221.197 211.67 221.144C211.446 221.101 211.238 221.043 211.046 220.968C210.928 220.904 210.811 220.84 210.694 220.776C210.587 220.701 210.48 220.632 210.374 220.568C210.267 220.493 210.171 220.504 210.086 220.6C210 220.696 209.936 220.867 209.894 221.112H209.542C209.563 220.771 209.579 220.355 209.59 219.864C209.6 219.373 209.606 218.723 209.606 217.912H209.958C210.032 218.499 210.144 219.016 210.294 219.464C210.443 219.912 210.662 220.264 210.95 220.52C211.248 220.765 211.654 220.888 212.166 220.888C212.368 220.888 212.571 220.845 212.774 220.76C212.976 220.664 213.142 220.515 213.27 220.312C213.408 220.109 213.478 219.837 213.478 219.496C213.478 219.027 213.312 218.643 212.982 218.344C212.662 218.035 212.246 217.709 211.734 217.368C211.371 217.112 211.024 216.861 210.694 216.616C210.374 216.36 210.112 216.077 209.91 215.768C209.707 215.448 209.606 215.069 209.606 214.632C209.606 214.152 209.718 213.757 209.942 213.448C210.176 213.139 210.486 212.909 210.87 212.76C211.254 212.6 211.664 212.52 212.102 212.52Z" fill="#C04BE2"/>
<path d="M87.1165 255V244.92H93.4165V245.907H88.1455V249.393H92.5765V250.38H88.1455V254.013H93.4165V255H87.1165ZM97.9639 255.21C97.3946 255.21 96.9162 255.107 96.5289 254.902C96.1462 254.697 95.8592 254.424 95.6679 254.083C95.4766 253.742 95.3809 253.371 95.3809 252.97C95.3809 252.559 95.4626 252.209 95.6259 251.92C95.7939 251.626 96.0202 251.386 96.3049 251.199C96.5942 251.012 96.9279 250.87 97.3059 250.772C97.6886 250.679 98.1109 250.597 98.5729 250.527C99.0396 250.452 99.4946 250.389 99.9379 250.338C100.386 250.282 100.778 250.228 101.114 250.177L100.75 250.401C100.764 249.654 100.619 249.101 100.316 248.742C100.013 248.383 99.4852 248.203 98.7339 248.203C98.2159 248.203 97.7772 248.32 97.4179 248.553C97.0632 248.786 96.8136 249.155 96.6689 249.659L95.6679 249.365C95.8406 248.688 96.1882 248.163 96.7109 247.79C97.2336 247.417 97.9126 247.23 98.7479 247.23C99.4386 247.23 100.024 247.361 100.505 247.622C100.99 247.879 101.333 248.252 101.534 248.742C101.627 248.961 101.688 249.206 101.716 249.477C101.744 249.748 101.758 250.023 101.758 250.303V255H100.841V253.103L101.107 253.215C100.85 253.864 100.451 254.358 99.9099 254.699C99.3686 255.04 98.7199 255.21 97.9639 255.21ZM98.0829 254.321C98.5636 254.321 98.9836 254.235 99.3429 254.062C99.7022 253.889 99.9916 253.654 100.211 253.355C100.43 253.052 100.573 252.711 100.638 252.333C100.694 252.09 100.724 251.824 100.729 251.535C100.734 251.241 100.736 251.022 100.736 250.877L101.128 251.08C100.778 251.127 100.398 251.173 99.9869 251.22C99.5809 251.267 99.1796 251.32 98.7829 251.381C98.3909 251.442 98.0362 251.514 97.7189 251.598C97.5042 251.659 97.2966 251.745 97.0959 251.857C96.8952 251.964 96.7296 252.109 96.5989 252.291C96.4729 252.473 96.4099 252.699 96.4099 252.97C96.4099 253.189 96.4636 253.402 96.5709 253.607C96.6829 253.812 96.8602 253.983 97.1029 254.118C97.3502 254.253 97.6769 254.321 98.0829 254.321ZM107.101 255.203C106.215 255.203 105.484 255.012 104.91 254.629C104.341 254.246 103.991 253.714 103.86 253.033L104.91 252.858C105.022 253.287 105.277 253.63 105.673 253.887C106.075 254.139 106.569 254.265 107.157 254.265C107.731 254.265 108.184 254.146 108.515 253.908C108.847 253.665 109.012 253.336 109.012 252.921C109.012 252.688 108.959 252.499 108.851 252.354C108.749 252.205 108.536 252.067 108.214 251.941C107.892 251.815 107.412 251.666 106.772 251.493C106.086 251.306 105.55 251.12 105.162 250.933C104.775 250.746 104.5 250.532 104.336 250.289C104.173 250.042 104.091 249.741 104.091 249.386C104.091 248.957 104.213 248.581 104.455 248.259C104.698 247.932 105.034 247.68 105.463 247.503C105.893 247.321 106.392 247.23 106.961 247.23C107.531 247.23 108.039 247.323 108.487 247.51C108.94 247.692 109.304 247.949 109.579 248.28C109.855 248.611 110.018 248.996 110.069 249.435L109.019 249.624C108.949 249.181 108.728 248.831 108.354 248.574C107.986 248.313 107.517 248.177 106.947 248.168C106.411 248.154 105.974 248.257 105.638 248.476C105.302 248.691 105.134 248.978 105.134 249.337C105.134 249.538 105.195 249.71 105.316 249.855C105.438 249.995 105.657 250.128 105.974 250.254C106.296 250.38 106.754 250.518 107.346 250.667C108.042 250.844 108.588 251.031 108.984 251.227C109.381 251.423 109.663 251.654 109.831 251.92C109.999 252.186 110.083 252.515 110.083 252.907C110.083 253.621 109.817 254.183 109.285 254.594C108.758 255 108.03 255.203 107.101 255.203ZM113.14 258.36L114.603 254.391L114.624 255.567L111.313 247.44H112.405L115.121 254.237H114.673L117.179 247.44H118.229L114.169 258.36H113.14ZM127.764 255C127.339 255.089 126.919 255.124 126.504 255.105C126.093 255.086 125.724 254.998 125.398 254.839C125.076 254.68 124.831 254.433 124.663 254.097C124.527 253.817 124.453 253.535 124.439 253.25C124.429 252.961 124.425 252.632 124.425 252.263V245.34H125.447V252.221C125.447 252.538 125.449 252.804 125.454 253.019C125.463 253.229 125.512 253.416 125.601 253.579C125.769 253.892 126.035 254.078 126.399 254.139C126.767 254.2 127.222 254.186 127.764 254.097V255ZM122.808 248.322V247.44H127.764V248.322H122.808ZM132.837 255.21C132.085 255.21 131.444 255.04 130.912 254.699C130.38 254.358 129.971 253.887 129.687 253.285C129.402 252.683 129.26 251.992 129.26 251.213C129.26 250.42 129.404 249.724 129.694 249.127C129.983 248.53 130.394 248.065 130.926 247.734C131.462 247.398 132.099 247.23 132.837 247.23C133.593 247.23 134.237 247.4 134.769 247.741C135.305 248.077 135.714 248.546 135.994 249.148C136.278 249.745 136.421 250.434 136.421 251.213C136.421 252.006 136.278 252.704 135.994 253.306C135.709 253.903 135.298 254.37 134.762 254.706C134.225 255.042 133.583 255.21 132.837 255.21ZM132.837 254.223C133.677 254.223 134.302 253.945 134.713 253.39C135.123 252.83 135.329 252.104 135.329 251.213C135.329 250.298 135.121 249.57 134.706 249.029C134.295 248.488 133.672 248.217 132.837 248.217C132.272 248.217 131.805 248.345 131.437 248.602C131.073 248.854 130.8 249.206 130.618 249.659C130.44 250.107 130.352 250.625 130.352 251.213C130.352 252.123 130.562 252.853 130.982 253.404C131.402 253.95 132.02 254.223 132.837 254.223ZM142.308 255V244.71H143.337V255H142.308ZM149.334 255.21C148.597 255.21 147.958 255.047 147.416 254.72C146.88 254.393 146.462 253.934 146.163 253.341C145.865 252.748 145.715 252.053 145.715 251.255C145.715 250.429 145.862 249.715 146.156 249.113C146.45 248.511 146.863 248.047 147.395 247.72C147.932 247.393 148.564 247.23 149.292 247.23C150.039 247.23 150.676 247.403 151.203 247.748C151.731 248.089 152.13 248.579 152.4 249.218C152.671 249.857 152.795 250.62 152.771 251.507H151.721V251.143C151.703 250.163 151.49 249.423 151.084 248.924C150.683 248.425 150.095 248.175 149.32 248.175C148.508 248.175 147.885 248.439 147.451 248.966C147.022 249.493 146.807 250.245 146.807 251.22C146.807 252.172 147.022 252.912 147.451 253.439C147.885 253.962 148.499 254.223 149.292 254.223C149.834 254.223 150.305 254.099 150.706 253.852C151.112 253.6 151.432 253.238 151.665 252.767L152.624 253.138C152.326 253.796 151.885 254.307 151.301 254.671C150.723 255.03 150.067 255.21 149.334 255.21ZM146.443 251.507V250.646H152.218V251.507H146.443ZM157.051 255.21C156.482 255.21 156.003 255.107 155.616 254.902C155.233 254.697 154.946 254.424 154.755 254.083C154.564 253.742 154.468 253.371 154.468 252.97C154.468 252.559 154.55 252.209 154.713 251.92C154.881 251.626 155.107 251.386 155.392 251.199C155.681 251.012 156.015 250.87 156.393 250.772C156.776 250.679 157.198 250.597 157.66 250.527C158.127 250.452 158.582 250.389 159.025 250.338C159.473 250.282 159.865 250.228 160.201 250.177L159.837 250.401C159.851 249.654 159.706 249.101 159.403 248.742C159.1 248.383 158.572 248.203 157.821 248.203C157.303 248.203 156.864 248.32 156.505 248.553C156.15 248.786 155.901 249.155 155.756 249.659L154.755 249.365C154.928 248.688 155.275 248.163 155.798 247.79C156.321 247.417 157 247.23 157.835 247.23C158.526 247.23 159.111 247.361 159.592 247.622C160.077 247.879 160.42 248.252 160.621 248.742C160.714 248.961 160.775 249.206 160.803 249.477C160.831 249.748 160.845 250.023 160.845 250.303V255H159.928V253.103L160.194 253.215C159.937 253.864 159.538 254.358 158.997 254.699C158.456 255.04 157.807 255.21 157.051 255.21ZM157.17 254.321C157.651 254.321 158.071 254.235 158.43 254.062C158.789 253.889 159.079 253.654 159.298 253.355C159.517 253.052 159.66 252.711 159.725 252.333C159.781 252.09 159.811 251.824 159.816 251.535C159.821 251.241 159.823 251.022 159.823 250.877L160.215 251.08C159.865 251.127 159.485 251.173 159.074 251.22C158.668 251.267 158.267 251.32 157.87 251.381C157.478 251.442 157.123 251.514 156.806 251.598C156.591 251.659 156.384 251.745 156.183 251.857C155.982 251.964 155.817 252.109 155.686 252.291C155.56 252.473 155.497 252.699 155.497 252.97C155.497 253.189 155.551 253.402 155.658 253.607C155.77 253.812 155.947 253.983 156.19 254.118C156.437 254.253 156.764 254.321 157.17 254.321ZM163.367 255V247.44H164.291V249.26L164.109 249.022C164.193 248.798 164.303 248.593 164.438 248.406C164.574 248.215 164.721 248.058 164.879 247.937C165.075 247.764 165.304 247.634 165.565 247.545C165.827 247.452 166.09 247.398 166.356 247.384C166.622 247.365 166.865 247.384 167.084 247.44V248.406C166.809 248.336 166.508 248.32 166.181 248.357C165.855 248.394 165.554 248.525 165.278 248.749C165.026 248.945 164.837 249.181 164.711 249.456C164.585 249.727 164.501 250.016 164.459 250.324C164.417 250.627 164.396 250.928 164.396 251.227V255H163.367ZM174.572 255V251.143C174.572 250.723 174.533 250.338 174.453 249.988C174.374 249.633 174.246 249.325 174.068 249.064C173.896 248.798 173.669 248.593 173.389 248.448C173.114 248.303 172.778 248.231 172.381 248.231C172.017 248.231 171.695 248.294 171.415 248.42C171.14 248.546 170.907 248.728 170.715 248.966C170.529 249.199 170.386 249.484 170.288 249.82C170.19 250.156 170.141 250.539 170.141 250.968L169.413 250.807C169.413 250.032 169.549 249.381 169.819 248.854C170.09 248.327 170.463 247.928 170.939 247.657C171.415 247.386 171.961 247.251 172.577 247.251C173.03 247.251 173.424 247.321 173.76 247.461C174.101 247.601 174.388 247.79 174.621 248.028C174.859 248.266 175.051 248.539 175.195 248.847C175.34 249.15 175.445 249.475 175.51 249.82C175.576 250.161 175.608 250.501 175.608 250.842V255H174.572ZM169.105 255V247.44H170.036V249.302H170.141V255H169.105ZM177.985 256.463L178.048 255.952C178.234 255.966 178.37 255.929 178.454 255.84C178.538 255.751 178.589 255.632 178.608 255.483C178.626 255.334 178.631 255.173 178.622 255H177.985V253.523H179.182V255.28C179.182 255.709 179.072 256.031 178.853 256.246C178.638 256.461 178.349 256.533 177.985 256.463ZM66.5562 274V270.143C66.5562 269.723 66.5165 269.338 66.4372 268.988C66.3579 268.633 66.2295 268.325 66.0522 268.064C65.8795 267.798 65.6532 267.593 65.3732 267.448C65.0979 267.303 64.7619 267.231 64.3652 267.231C64.0012 267.231 63.6792 267.294 63.3992 267.42C63.1239 267.546 62.8905 267.728 62.6992 267.966C62.5125 268.199 62.3702 268.484 62.2722 268.82C62.1742 269.156 62.1252 269.539 62.1252 269.968L61.3972 269.807C61.3972 269.032 61.5325 268.381 61.8032 267.854C62.0739 267.327 62.4472 266.928 62.9232 266.657C63.3992 266.386 63.9452 266.251 64.5612 266.251C65.0139 266.251 65.4082 266.321 65.7442 266.461C66.0849 266.601 66.3719 266.79 66.6052 267.028C66.8432 267.266 67.0345 267.539 67.1792 267.847C67.3239 268.15 67.4289 268.475 67.4942 268.82C67.5595 269.161 67.5922 269.501 67.5922 269.842V274H66.5562ZM61.0892 274V263.92H62.0202V269.611H62.1252V274H61.0892ZM70.2487 265.005V263.85H71.2777V265.005H70.2487ZM70.2487 274V266.44H71.2777V274H70.2487ZM77.0793 277.57C76.692 277.57 76.3093 277.512 75.9313 277.395C75.558 277.283 75.2126 277.103 74.8953 276.856C74.578 276.613 74.312 276.296 74.0973 275.904L75.0283 275.386C75.2383 275.806 75.5323 276.107 75.9103 276.289C76.293 276.476 76.6826 276.569 77.0793 276.569C77.6253 276.569 78.0663 276.466 78.4023 276.261C78.743 276.06 78.9903 275.762 79.1443 275.365C79.2983 274.968 79.373 274.474 79.3683 273.881V271.865H79.4873V266.44H80.4043V273.895C80.4043 274.11 80.3973 274.315 80.3833 274.511C80.374 274.712 80.353 274.908 80.3203 275.099C80.2316 275.664 80.0473 276.128 79.7673 276.492C79.492 276.856 79.128 277.127 78.6753 277.304C78.2273 277.481 77.6953 277.57 77.0793 277.57ZM77.0093 274.21C76.3046 274.21 75.7026 274.035 75.2033 273.685C74.704 273.33 74.3213 272.852 74.0553 272.25C73.7893 271.648 73.6563 270.969 73.6563 270.213C73.6563 269.462 73.787 268.785 74.0483 268.183C74.3143 267.581 74.6946 267.105 75.1893 266.755C75.684 266.405 76.2766 266.23 76.9673 266.23C77.6766 266.23 78.274 266.403 78.7593 266.748C79.2446 267.093 79.611 267.567 79.8583 268.169C80.1103 268.766 80.2363 269.448 80.2363 270.213C80.2363 270.964 80.1126 271.643 79.8653 272.25C79.618 272.852 79.254 273.33 78.7733 273.685C78.2926 274.035 77.7046 274.21 77.0093 274.21ZM77.1143 273.251C77.651 273.251 78.0943 273.12 78.4443 272.859C78.7943 272.598 79.0556 272.238 79.2283 271.781C79.401 271.319 79.4873 270.796 79.4873 270.213C79.4873 269.62 79.401 269.098 79.2283 268.645C79.0556 268.188 78.7943 267.831 78.4443 267.574C78.099 267.317 77.6626 267.189 77.1353 267.189C76.594 267.189 76.146 267.322 75.7913 267.588C75.4366 267.854 75.173 268.216 75.0003 268.673C74.8323 269.13 74.7483 269.644 74.7483 270.213C74.7483 270.787 74.8346 271.305 75.0073 271.767C75.1846 272.224 75.4483 272.586 75.7983 272.852C76.1483 273.118 76.587 273.251 77.1143 273.251ZM88.5214 274V270.143C88.5214 269.723 88.4818 269.338 88.4024 268.988C88.3231 268.633 88.1948 268.325 88.0174 268.064C87.8448 267.798 87.6184 267.593 87.3384 267.448C87.0631 267.303 86.7271 267.231 86.3304 267.231C85.9664 267.231 85.6444 267.294 85.3644 267.42C85.0891 267.546 84.8558 267.728 84.6644 267.966C84.4778 268.199 84.3354 268.484 84.2374 268.82C84.1394 269.156 84.0904 269.539 84.0904 269.968L83.3624 269.807C83.3624 269.032 83.4978 268.381 83.7684 267.854C84.0391 267.327 84.4124 266.928 84.8884 266.657C85.3644 266.386 85.9104 266.251 86.5264 266.251C86.9791 266.251 87.3734 266.321 87.7094 266.461C88.0501 266.601 88.3371 266.79 88.5704 267.028C88.8084 267.266 88.9998 267.539 89.1444 267.847C89.2891 268.15 89.3941 268.475 89.4594 268.82C89.5248 269.161 89.5574 269.501 89.5574 269.842V274H88.5214ZM83.0544 274V263.92H83.9854V269.611H84.0904V274H83.0544ZM91.9339 270.031V269.149H96.1339V270.031H91.9339ZM102.048 274.21C101.353 274.21 100.765 274.035 100.284 273.685C99.8032 273.33 99.4392 272.852 99.1919 272.25C98.9445 271.643 98.8209 270.964 98.8209 270.213C98.8209 269.448 98.9445 268.766 99.1919 268.169C99.4439 267.567 99.8125 267.093 100.298 266.748C100.783 266.403 101.381 266.23 102.09 266.23C102.781 266.23 103.373 266.405 103.868 266.755C104.363 267.105 104.741 267.581 105.002 268.183C105.268 268.785 105.401 269.462 105.401 270.213C105.401 270.969 105.268 271.648 105.002 272.25C104.736 272.852 104.353 273.33 103.854 273.685C103.355 274.035 102.753 274.21 102.048 274.21ZM98.6459 277.36V266.44H99.5699V272.131H99.6819V277.36H98.6459ZM101.943 273.251C102.47 273.251 102.909 273.118 103.259 272.852C103.609 272.586 103.87 272.224 104.043 271.767C104.22 271.305 104.309 270.787 104.309 270.213C104.309 269.644 104.223 269.13 104.05 268.673C103.877 268.216 103.614 267.854 103.259 267.588C102.909 267.322 102.463 267.189 101.922 267.189C101.395 267.189 100.956 267.317 100.606 267.574C100.261 267.831 100.002 268.188 99.8289 268.645C99.6562 269.098 99.5699 269.62 99.5699 270.213C99.5699 270.796 99.6562 271.319 99.8289 271.781C100.002 272.238 100.263 272.598 100.613 272.859C100.963 273.12 101.406 273.251 101.943 273.251ZM109.801 274.21C109.232 274.21 108.753 274.107 108.366 273.902C107.983 273.697 107.696 273.424 107.505 273.083C107.314 272.742 107.218 272.371 107.218 271.97C107.218 271.559 107.3 271.209 107.463 270.92C107.631 270.626 107.857 270.386 108.142 270.199C108.431 270.012 108.765 269.87 109.143 269.772C109.526 269.679 109.948 269.597 110.41 269.527C110.877 269.452 111.332 269.389 111.775 269.338C112.223 269.282 112.615 269.228 112.951 269.177L112.587 269.401C112.601 268.654 112.456 268.101 112.153 267.742C111.85 267.383 111.322 267.203 110.571 267.203C110.053 267.203 109.614 267.32 109.255 267.553C108.9 267.786 108.651 268.155 108.506 268.659L107.505 268.365C107.678 267.688 108.025 267.163 108.548 266.79C109.071 266.417 109.75 266.23 110.585 266.23C111.276 266.23 111.861 266.361 112.342 266.622C112.827 266.879 113.17 267.252 113.371 267.742C113.464 267.961 113.525 268.206 113.553 268.477C113.581 268.748 113.595 269.023 113.595 269.303V274H112.678V272.103L112.944 272.215C112.687 272.864 112.288 273.358 111.747 273.699C111.206 274.04 110.557 274.21 109.801 274.21ZM109.92 273.321C110.401 273.321 110.821 273.235 111.18 273.062C111.539 272.889 111.829 272.654 112.048 272.355C112.267 272.052 112.41 271.711 112.475 271.333C112.531 271.09 112.561 270.824 112.566 270.535C112.571 270.241 112.573 270.022 112.573 269.877L112.965 270.08C112.615 270.127 112.235 270.173 111.824 270.22C111.418 270.267 111.017 270.32 110.62 270.381C110.228 270.442 109.873 270.514 109.556 270.598C109.341 270.659 109.134 270.745 108.933 270.857C108.732 270.964 108.567 271.109 108.436 271.291C108.31 271.473 108.247 271.699 108.247 271.97C108.247 272.189 108.301 272.402 108.408 272.607C108.52 272.812 108.697 272.983 108.94 273.118C109.187 273.253 109.514 273.321 109.92 273.321ZM116.771 277.36L118.234 273.391L118.255 274.567L114.944 266.44H116.036L118.752 273.237H118.304L120.81 266.44H121.86L117.8 277.36H116.771ZM123.916 265.005V263.85H124.945V265.005H123.916ZM123.916 274V266.44H124.945V274H123.916ZM133.204 274V270.143C133.204 269.723 133.164 269.338 133.085 268.988C133.006 268.633 132.877 268.325 132.7 268.064C132.527 267.798 132.301 267.593 132.021 267.448C131.746 267.303 131.41 267.231 131.013 267.231C130.649 267.231 130.327 267.294 130.047 267.42C129.772 267.546 129.538 267.728 129.347 267.966C129.16 268.199 129.018 268.484 128.92 268.82C128.822 269.156 128.773 269.539 128.773 269.968L128.045 269.807C128.045 269.032 128.18 268.381 128.451 267.854C128.722 267.327 129.095 266.928 129.571 266.657C130.047 266.386 130.593 266.251 131.209 266.251C131.662 266.251 132.056 266.321 132.392 266.461C132.733 266.601 133.02 266.79 133.253 267.028C133.491 267.266 133.682 267.539 133.827 267.847C133.972 268.15 134.077 268.475 134.142 268.82C134.207 269.161 134.24 269.501 134.24 269.842V274H133.204ZM127.737 274V266.44H128.668V268.302H128.773V274H127.737ZM139.759 277.57C139.372 277.57 138.989 277.512 138.611 277.395C138.238 277.283 137.893 277.103 137.575 276.856C137.258 276.613 136.992 276.296 136.777 275.904L137.708 275.386C137.918 275.806 138.212 276.107 138.59 276.289C138.973 276.476 139.363 276.569 139.759 276.569C140.305 276.569 140.746 276.466 141.082 276.261C141.423 276.06 141.67 275.762 141.824 275.365C141.978 274.968 142.053 274.474 142.048 273.881V271.865H142.167V266.44H143.084V273.895C143.084 274.11 143.077 274.315 143.063 274.511C143.054 274.712 143.033 274.908 143 275.099C142.912 275.664 142.727 276.128 142.447 276.492C142.172 276.856 141.808 277.127 141.355 277.304C140.907 277.481 140.375 277.57 139.759 277.57ZM139.689 274.21C138.985 274.21 138.383 274.035 137.883 273.685C137.384 273.33 137.001 272.852 136.735 272.25C136.469 271.648 136.336 270.969 136.336 270.213C136.336 269.462 136.467 268.785 136.728 268.183C136.994 267.581 137.375 267.105 137.869 266.755C138.364 266.405 138.957 266.23 139.647 266.23C140.357 266.23 140.954 266.403 141.439 266.748C141.925 267.093 142.291 267.567 142.538 268.169C142.79 268.766 142.916 269.448 142.916 270.213C142.916 270.964 142.793 271.643 142.545 272.25C142.298 272.852 141.934 273.33 141.453 273.685C140.973 274.035 140.385 274.21 139.689 274.21ZM139.794 273.251C140.331 273.251 140.774 273.12 141.124 272.859C141.474 272.598 141.736 272.238 141.908 271.781C142.081 271.319 142.167 270.796 142.167 270.213C142.167 269.62 142.081 269.098 141.908 268.645C141.736 268.188 141.474 267.831 141.124 267.574C140.779 267.317 140.343 267.189 139.815 267.189C139.274 267.189 138.826 267.322 138.471 267.588C138.117 267.854 137.853 268.216 137.68 268.673C137.512 269.13 137.428 269.644 137.428 270.213C137.428 270.787 137.515 271.305 137.687 271.767C137.865 272.224 138.128 272.586 138.478 272.852C138.828 273.118 139.267 273.251 139.794 273.251ZM145.602 275.463L145.665 274.952C145.851 274.966 145.987 274.929 146.071 274.84C146.155 274.751 146.206 274.632 146.225 274.483C146.243 274.334 146.248 274.173 146.239 274H145.602V272.523H146.799V274.28C146.799 274.709 146.689 275.031 146.47 275.246C146.255 275.461 145.966 275.533 145.602 275.463ZM155.826 274.21C155.257 274.21 154.778 274.107 154.391 273.902C154.008 273.697 153.721 273.424 153.53 273.083C153.339 272.742 153.243 272.371 153.243 271.97C153.243 271.559 153.325 271.209 153.488 270.92C153.656 270.626 153.882 270.386 154.167 270.199C154.456 270.012 154.79 269.87 155.168 269.772C155.551 269.679 155.973 269.597 156.435 269.527C156.902 269.452 157.357 269.389 157.8 269.338C158.248 269.282 158.64 269.228 158.976 269.177L158.612 269.401C158.626 268.654 158.481 268.101 158.178 267.742C157.875 267.383 157.347 267.203 156.596 267.203C156.078 267.203 155.639 267.32 155.28 267.553C154.925 267.786 154.676 268.155 154.531 268.659L153.53 268.365C153.703 267.688 154.05 267.163 154.573 266.79C155.096 266.417 155.775 266.23 156.61 266.23C157.301 266.23 157.886 266.361 158.367 266.622C158.852 266.879 159.195 267.252 159.396 267.742C159.489 267.961 159.55 268.206 159.578 268.477C159.606 268.748 159.62 269.023 159.62 269.303V274H158.703V272.103L158.969 272.215C158.712 272.864 158.313 273.358 157.772 273.699C157.231 274.04 156.582 274.21 155.826 274.21ZM155.945 273.321C156.426 273.321 156.846 273.235 157.205 273.062C157.564 272.889 157.854 272.654 158.073 272.355C158.292 272.052 158.435 271.711 158.5 271.333C158.556 271.09 158.586 270.824 158.591 270.535C158.596 270.241 158.598 270.022 158.598 269.877L158.99 270.08C158.64 270.127 158.26 270.173 157.849 270.22C157.443 270.267 157.042 270.32 156.645 270.381C156.253 270.442 155.898 270.514 155.581 270.598C155.366 270.659 155.159 270.745 154.958 270.857C154.757 270.964 154.592 271.109 154.461 271.291C154.335 271.473 154.272 271.699 154.272 271.97C154.272 272.189 154.326 272.402 154.433 272.607C154.545 272.812 154.722 272.983 154.965 273.118C155.212 273.253 155.539 273.321 155.945 273.321ZM167.602 274V270.143C167.602 269.723 167.563 269.338 167.483 268.988C167.404 268.633 167.276 268.325 167.098 268.064C166.926 267.798 166.699 267.593 166.419 267.448C166.144 267.303 165.808 267.231 165.411 267.231C165.047 267.231 164.725 267.294 164.445 267.42C164.17 267.546 163.937 267.728 163.745 267.966C163.559 268.199 163.416 268.484 163.318 268.82C163.22 269.156 163.171 269.539 163.171 269.968L162.443 269.807C162.443 269.032 162.579 268.381 162.849 267.854C163.12 267.327 163.493 266.928 163.969 266.657C164.445 266.386 164.991 266.251 165.607 266.251C166.06 266.251 166.454 266.321 166.79 266.461C167.131 266.601 167.418 266.79 167.651 267.028C167.889 267.266 168.081 267.539 168.225 267.847C168.37 268.15 168.475 268.475 168.54 268.82C168.606 269.161 168.638 269.501 168.638 269.842V274H167.602ZM162.135 274V266.44H163.066V268.302H163.171V274H162.135ZM174.033 274.21C173.328 274.21 172.726 274.035 172.227 273.685C171.728 273.33 171.345 272.852 171.079 272.25C170.813 271.648 170.68 270.969 170.68 270.213C170.68 269.462 170.811 268.785 171.072 268.183C171.338 267.581 171.718 267.105 172.213 266.755C172.708 266.405 173.3 266.23 173.991 266.23C174.7 266.23 175.298 266.403 175.783 266.748C176.268 267.093 176.635 267.567 176.882 268.169C177.134 268.766 177.26 269.448 177.26 270.213C177.26 270.964 177.136 271.643 176.889 272.25C176.642 272.852 176.278 273.33 175.797 273.685C175.316 274.035 174.728 274.21 174.033 274.21ZM174.138 273.251C174.675 273.251 175.118 273.12 175.468 272.859C175.818 272.598 176.079 272.238 176.252 271.781C176.425 271.319 176.511 270.796 176.511 270.213C176.511 269.62 176.425 269.098 176.252 268.645C176.079 268.188 175.818 267.831 175.468 267.574C175.123 267.317 174.686 267.189 174.159 267.189C173.618 267.189 173.17 267.322 172.815 267.588C172.46 267.854 172.197 268.216 172.024 268.673C171.856 269.13 171.772 269.644 171.772 270.213C171.772 270.787 171.858 271.305 172.031 271.767C172.208 272.224 172.472 272.586 172.822 272.852C173.172 273.118 173.611 273.251 174.138 273.251ZM176.511 274V268.309H176.399V263.92H177.435V274H176.511ZM183.742 265.005V263.85H184.771V265.005H183.742ZM183.742 274V266.44H184.771V274H183.742ZM193.029 274V270.143C193.029 269.723 192.99 269.338 192.91 268.988C192.831 268.633 192.703 268.325 192.525 268.064C192.353 267.798 192.126 267.593 191.846 267.448C191.571 267.303 191.235 267.231 190.838 267.231C190.474 267.231 190.152 267.294 189.872 267.42C189.597 267.546 189.364 267.728 189.172 267.966C188.986 268.199 188.843 268.484 188.745 268.82C188.647 269.156 188.598 269.539 188.598 269.968L187.87 269.807C187.87 269.032 188.006 268.381 188.276 267.854C188.547 267.327 188.92 266.928 189.396 266.657C189.872 266.386 190.418 266.251 191.034 266.251C191.487 266.251 191.881 266.321 192.217 266.461C192.558 266.601 192.845 266.79 193.078 267.028C193.316 267.266 193.508 267.539 193.652 267.847C193.797 268.15 193.902 268.475 193.967 268.82C194.033 269.161 194.065 269.501 194.065 269.842V274H193.029ZM187.562 274V266.44H188.493V268.302H188.598V274H187.562ZM202.247 274.21C201.678 274.21 201.2 274.107 200.812 273.902C200.43 273.697 200.143 273.424 199.951 273.083C199.76 272.742 199.664 272.371 199.664 271.97C199.664 271.559 199.746 271.209 199.909 270.92C200.077 270.626 200.304 270.386 200.588 270.199C200.878 270.012 201.211 269.87 201.589 269.772C201.972 269.679 202.394 269.597 202.856 269.527C203.323 269.452 203.778 269.389 204.221 269.338C204.669 269.282 205.061 269.228 205.397 269.177L205.033 269.401C205.047 268.654 204.903 268.101 204.599 267.742C204.296 267.383 203.769 267.203 203.017 267.203C202.499 267.203 202.061 267.32 201.701 267.553C201.347 267.786 201.097 268.155 200.952 268.659L199.951 268.365C200.124 267.688 200.472 267.163 200.994 266.79C201.517 266.417 202.196 266.23 203.031 266.23C203.722 266.23 204.308 266.361 204.788 266.622C205.274 266.879 205.617 267.252 205.817 267.742C205.911 267.961 205.971 268.206 205.999 268.477C206.027 268.748 206.041 269.023 206.041 269.303V274H205.124V272.103L205.39 272.215C205.134 272.864 204.735 273.358 204.193 273.699C203.652 274.04 203.003 274.21 202.247 274.21ZM202.366 273.321C202.847 273.321 203.267 273.235 203.626 273.062C203.986 272.889 204.275 272.654 204.494 272.355C204.714 272.052 204.856 271.711 204.921 271.333C204.977 271.09 205.008 270.824 205.012 270.535C205.017 270.241 205.019 270.022 205.019 269.877L205.411 270.08C205.061 270.127 204.681 270.173 204.27 270.22C203.864 270.267 203.463 270.32 203.066 270.381C202.674 270.442 202.32 270.514 202.002 270.598C201.788 270.659 201.58 270.745 201.379 270.857C201.179 270.964 201.013 271.109 200.882 271.291C200.756 271.473 200.693 271.699 200.693 271.97C200.693 272.189 200.747 272.402 200.854 272.607C200.966 272.812 201.144 272.983 201.386 273.118C201.634 273.253 201.96 273.321 202.366 273.321ZM56.736 293V284.88C56.736 284.684 56.7454 284.49 56.764 284.299C56.7874 284.108 56.8317 283.926 56.897 283.753C56.9624 283.576 57.065 283.412 57.205 283.263C57.359 283.095 57.527 282.974 57.709 282.899C57.891 282.82 58.08 282.768 58.276 282.745C58.4767 282.722 58.6727 282.71 58.864 282.71H59.83V283.578H58.934C58.542 283.578 58.248 283.674 58.052 283.865C57.8607 284.056 57.765 284.357 57.765 284.768V293H56.736ZM55.427 286.322V285.44H59.83V286.322H55.427ZM63.6078 293.21C63.0385 293.21 62.5602 293.107 62.1728 292.902C61.7902 292.697 61.5032 292.424 61.3118 292.083C61.1205 291.742 61.0248 291.371 61.0248 290.97C61.0248 290.559 61.1065 290.209 61.2698 289.92C61.4378 289.626 61.6642 289.386 61.9488 289.199C62.2382 289.012 62.5718 288.87 62.9498 288.772C63.3325 288.679 63.7548 288.597 64.2168 288.527C64.6835 288.452 65.1385 288.389 65.5818 288.338C66.0298 288.282 66.4218 288.228 66.7578 288.177L66.3938 288.401C66.4078 287.654 66.2632 287.101 65.9598 286.742C65.6565 286.383 65.1292 286.203 64.3778 286.203C63.8598 286.203 63.4212 286.32 63.0618 286.553C62.7072 286.786 62.4575 287.155 62.3128 287.659L61.3118 287.365C61.4845 286.688 61.8322 286.163 62.3548 285.79C62.8775 285.417 63.5565 285.23 64.3918 285.23C65.0825 285.23 65.6682 285.361 66.1488 285.622C66.6342 285.879 66.9772 286.252 67.1778 286.742C67.2712 286.961 67.3318 287.206 67.3598 287.477C67.3878 287.748 67.4018 288.023 67.4018 288.303V293H66.4848V291.103L66.7508 291.215C66.4942 291.864 66.0952 292.358 65.5538 292.699C65.0125 293.04 64.3638 293.21 63.6078 293.21ZM63.7268 292.321C64.2075 292.321 64.6275 292.235 64.9868 292.062C65.3462 291.889 65.6355 291.654 65.8548 291.355C66.0742 291.052 66.2165 290.711 66.2818 290.333C66.3378 290.09 66.3682 289.824 66.3728 289.535C66.3775 289.241 66.3798 289.022 66.3798 288.877L66.7718 289.08C66.4218 289.127 66.0415 289.173 65.6308 289.22C65.2248 289.267 64.8235 289.32 64.4268 289.381C64.0348 289.442 63.6802 289.514 63.3628 289.598C63.1482 289.659 62.9405 289.745 62.7398 289.857C62.5392 289.964 62.3735 290.109 62.2428 290.291C62.1168 290.473 62.0538 290.699 62.0538 290.97C62.0538 291.189 62.1075 291.402 62.2148 291.607C62.3268 291.812 62.5042 291.983 62.7468 292.118C62.9942 292.253 63.3208 292.321 63.7268 292.321ZM72.7451 293.203C71.8585 293.203 71.1281 293.012 70.5541 292.629C69.9848 292.246 69.6348 291.714 69.5041 291.033L70.5541 290.858C70.6661 291.287 70.9205 291.63 71.3171 291.887C71.7185 292.139 72.2131 292.265 72.8011 292.265C73.3751 292.265 73.8278 292.146 74.1591 291.908C74.4905 291.665 74.6561 291.336 74.6561 290.921C74.6561 290.688 74.6025 290.499 74.4951 290.354C74.3925 290.205 74.1801 290.067 73.8581 289.941C73.5361 289.815 73.0555 289.666 72.4161 289.493C71.7301 289.306 71.1935 289.12 70.8061 288.933C70.4188 288.746 70.1435 288.532 69.9801 288.289C69.8168 288.042 69.7351 287.741 69.7351 287.386C69.7351 286.957 69.8565 286.581 70.0991 286.259C70.3418 285.932 70.6778 285.68 71.1071 285.503C71.5365 285.321 72.0358 285.23 72.6051 285.23C73.1745 285.23 73.6831 285.323 74.1311 285.51C74.5838 285.692 74.9478 285.949 75.2231 286.28C75.4985 286.611 75.6618 286.996 75.7131 287.435L74.6631 287.624C74.5931 287.181 74.3715 286.831 73.9981 286.574C73.6295 286.313 73.1605 286.177 72.5911 286.168C72.0545 286.154 71.6181 286.257 71.2821 286.476C70.9461 286.691 70.7781 286.978 70.7781 287.337C70.7781 287.538 70.8388 287.71 70.9601 287.855C71.0815 287.995 71.3008 288.128 71.6181 288.254C71.9401 288.38 72.3975 288.518 72.9901 288.667C73.6855 288.844 74.2315 289.031 74.6281 289.227C75.0248 289.423 75.3071 289.654 75.4751 289.92C75.6431 290.186 75.7271 290.515 75.7271 290.907C75.7271 291.621 75.4611 292.183 74.9291 292.594C74.4018 293 73.6738 293.203 72.7451 293.203ZM82.0956 293C81.6709 293.089 81.2509 293.124 80.8356 293.105C80.4249 293.086 80.0563 292.998 79.7296 292.839C79.4076 292.68 79.1626 292.433 78.9946 292.097C78.8593 291.817 78.7846 291.535 78.7706 291.25C78.7613 290.961 78.7566 290.632 78.7566 290.263V283.34H79.7786V290.221C79.7786 290.538 79.7809 290.804 79.7856 291.019C79.7949 291.229 79.8439 291.416 79.9326 291.579C80.1006 291.892 80.3666 292.078 80.7306 292.139C81.0993 292.2 81.5543 292.186 82.0956 292.097V293ZM77.1396 286.322V285.44H82.0956V286.322H77.1396ZM94.2936 296.57C93.9062 296.57 93.5236 296.512 93.1456 296.395C92.7722 296.283 92.4269 296.103 92.1096 295.856C91.7922 295.613 91.5262 295.296 91.3116 294.904L92.2426 294.386C92.4526 294.806 92.7466 295.107 93.1246 295.289C93.5072 295.476 93.8969 295.569 94.2936 295.569C94.8396 295.569 95.2806 295.466 95.6166 295.261C95.9572 295.06 96.2046 294.762 96.3586 294.365C96.5126 293.968 96.5872 293.474 96.5826 292.881V290.865H96.7016V285.44H97.6186V292.895C97.6186 293.11 97.6116 293.315 97.5976 293.511C97.5882 293.712 97.5672 293.908 97.5346 294.099C97.4459 294.664 97.2616 295.128 96.9816 295.492C96.7062 295.856 96.3422 296.127 95.8896 296.304C95.4416 296.481 94.9096 296.57 94.2936 296.57ZM94.2236 293.21C93.5189 293.21 92.9169 293.035 92.4176 292.685C91.9182 292.33 91.5356 291.852 91.2696 291.25C91.0036 290.648 90.8706 289.969 90.8706 289.213C90.8706 288.462 91.0012 287.785 91.2626 287.183C91.5286 286.581 91.9089 286.105 92.4036 285.755C92.8982 285.405 93.4909 285.23 94.1816 285.23C94.8909 285.23 95.4882 285.403 95.9736 285.748C96.4589 286.093 96.8252 286.567 97.0726 287.169C97.3246 287.766 97.4506 288.448 97.4506 289.213C97.4506 289.964 97.3269 290.643 97.0796 291.25C96.8322 291.852 96.4682 292.33 95.9876 292.685C95.5069 293.035 94.9189 293.21 94.2236 293.21ZM94.3286 292.251C94.8652 292.251 95.3086 292.12 95.6586 291.859C96.0086 291.598 96.2699 291.238 96.4426 290.781C96.6152 290.319 96.7016 289.796 96.7016 289.213C96.7016 288.62 96.6152 288.098 96.4426 287.645C96.2699 287.188 96.0086 286.831 95.6586 286.574C95.3132 286.317 94.8769 286.189 94.3496 286.189C93.8082 286.189 93.3602 286.322 93.0056 286.588C92.6509 286.854 92.3872 287.216 92.2146 287.673C92.0466 288.13 91.9626 288.644 91.9626 289.213C91.9626 289.787 92.0489 290.305 92.2216 290.767C92.3989 291.224 92.6626 291.586 93.0126 291.852C93.3626 292.118 93.8012 292.251 94.3286 292.251ZM100.276 293V285.44H101.2V287.26L101.018 287.022C101.102 286.798 101.211 286.593 101.347 286.406C101.482 286.215 101.629 286.058 101.788 285.937C101.984 285.764 102.212 285.634 102.474 285.545C102.735 285.452 102.999 285.398 103.265 285.384C103.531 285.365 103.773 285.384 103.993 285.44V286.406C103.717 286.336 103.416 286.32 103.09 286.357C102.763 286.394 102.462 286.525 102.187 286.749C101.935 286.945 101.746 287.181 101.62 287.456C101.494 287.727 101.41 288.016 101.368 288.324C101.326 288.627 101.305 288.928 101.305 289.227V293H100.276ZM109.041 293.21C108.29 293.21 107.648 293.04 107.116 292.699C106.584 292.358 106.176 291.887 105.891 291.285C105.606 290.683 105.464 289.992 105.464 289.213C105.464 288.42 105.609 287.724 105.898 287.127C106.187 286.53 106.598 286.065 107.13 285.734C107.667 285.398 108.304 285.23 109.041 285.23C109.797 285.23 110.441 285.4 110.973 285.741C111.51 286.077 111.918 286.546 112.198 287.148C112.483 287.745 112.625 288.434 112.625 289.213C112.625 290.006 112.483 290.704 112.198 291.306C111.913 291.903 111.503 292.37 110.966 292.706C110.429 293.042 109.788 293.21 109.041 293.21ZM109.041 292.223C109.881 292.223 110.506 291.945 110.917 291.39C111.328 290.83 111.533 290.104 111.533 289.213C111.533 288.298 111.325 287.57 110.91 287.029C110.499 286.488 109.876 286.217 109.041 286.217C108.476 286.217 108.01 286.345 107.641 286.602C107.277 286.854 107.004 287.206 106.822 287.659C106.645 288.107 106.556 288.625 106.556 289.213C106.556 290.123 106.766 290.853 107.186 291.404C107.606 291.95 108.224 292.223 109.041 292.223ZM116.206 293L113.896 285.433L114.925 285.44L116.717 291.313L118.516 285.44H119.454L121.253 291.313L123.059 285.44H124.081L121.771 293H120.875L118.985 286.98L117.102 293H116.206ZM126.182 284.005V282.85H127.211V284.005H126.182ZM126.182 293V285.44H127.211V293H126.182ZM135.469 293V289.143C135.469 288.723 135.43 288.338 135.35 287.988C135.271 287.633 135.143 287.325 134.965 287.064C134.793 286.798 134.566 286.593 134.286 286.448C134.011 286.303 133.675 286.231 133.278 286.231C132.914 286.231 132.592 286.294 132.312 286.42C132.037 286.546 131.804 286.728 131.612 286.966C131.426 287.199 131.283 287.484 131.185 287.82C131.087 288.156 131.038 288.539 131.038 288.968L130.31 288.807C130.31 288.032 130.446 287.381 130.716 286.854C130.987 286.327 131.36 285.928 131.836 285.657C132.312 285.386 132.858 285.251 133.474 285.251C133.927 285.251 134.321 285.321 134.657 285.461C134.998 285.601 135.285 285.79 135.518 286.028C135.756 286.266 135.948 286.539 136.092 286.847C136.237 287.15 136.342 287.475 136.407 287.82C136.473 288.161 136.505 288.501 136.505 288.842V293H135.469ZM130.002 293V285.44H130.933V287.302H131.038V293H130.002ZM142.025 296.57C141.637 296.57 141.255 296.512 140.877 296.395C140.503 296.283 140.158 296.103 139.841 295.856C139.523 295.613 139.257 295.296 139.043 294.904L139.974 294.386C140.184 294.806 140.478 295.107 140.856 295.289C141.238 295.476 141.628 295.569 142.025 295.569C142.571 295.569 143.012 295.466 143.348 295.261C143.688 295.06 143.936 294.762 144.09 294.365C144.244 293.968 144.318 293.474 144.314 292.881V290.865H144.433V285.44H145.35V292.895C145.35 293.11 145.343 293.315 145.329 293.511C145.319 293.712 145.298 293.908 145.266 294.099C145.177 294.664 144.993 295.128 144.713 295.492C144.437 295.856 144.073 296.127 143.621 296.304C143.173 296.481 142.641 296.57 142.025 296.57ZM141.955 293.21C141.25 293.21 140.648 293.035 140.149 292.685C139.649 292.33 139.267 291.852 139.001 291.25C138.735 290.648 138.602 289.969 138.602 289.213C138.602 288.462 138.732 287.785 138.994 287.183C139.26 286.581 139.64 286.105 140.135 285.755C140.629 285.405 141.222 285.23 141.913 285.23C142.622 285.23 143.219 285.403 143.705 285.748C144.19 286.093 144.556 286.567 144.804 287.169C145.056 287.766 145.182 288.448 145.182 289.213C145.182 289.964 145.058 290.643 144.811 291.25C144.563 291.852 144.199 292.33 143.719 292.685C143.238 293.035 142.65 293.21 141.955 293.21ZM142.06 292.251C142.596 292.251 143.04 292.12 143.39 291.859C143.74 291.598 144.001 291.238 144.174 290.781C144.346 290.319 144.433 289.796 144.433 289.213C144.433 288.62 144.346 288.098 144.174 287.645C144.001 287.188 143.74 286.831 143.39 286.574C143.044 286.317 142.608 286.189 142.081 286.189C141.539 286.189 141.091 286.322 140.737 286.588C140.382 286.854 140.118 287.216 139.946 287.673C139.778 288.13 139.694 288.644 139.694 289.213C139.694 289.787 139.78 290.305 139.953 290.767C140.13 291.224 140.394 291.586 140.744 291.852C141.094 292.118 141.532 292.251 142.06 292.251ZM151.65 284.005V282.85H152.679V284.005H151.65ZM151.65 293V285.44H152.679V293H151.65ZM160.937 293V289.143C160.937 288.723 160.898 288.338 160.818 287.988C160.739 287.633 160.611 287.325 160.433 287.064C160.261 286.798 160.034 286.593 159.754 286.448C159.479 286.303 159.143 286.231 158.746 286.231C158.382 286.231 158.06 286.294 157.78 286.42C157.505 286.546 157.272 286.728 157.08 286.966C156.894 287.199 156.751 287.484 156.653 287.82C156.555 288.156 156.506 288.539 156.506 288.968L155.778 288.807C155.778 288.032 155.914 287.381 156.184 286.854C156.455 286.327 156.828 285.928 157.304 285.657C157.78 285.386 158.326 285.251 158.942 285.251C159.395 285.251 159.789 285.321 160.125 285.461C160.466 285.601 160.753 285.79 160.986 286.028C161.224 286.266 161.416 286.539 161.56 286.847C161.705 287.15 161.81 287.475 161.875 287.82C161.941 288.161 161.973 288.501 161.973 288.842V293H160.937ZM155.47 293V285.44H156.401V287.302H156.506V293H155.47ZM167.368 293.21C166.663 293.21 166.061 293.035 165.562 292.685C165.063 292.33 164.68 291.852 164.414 291.25C164.148 290.648 164.015 289.969 164.015 289.213C164.015 288.462 164.146 287.785 164.407 287.183C164.673 286.581 165.053 286.105 165.548 285.755C166.043 285.405 166.635 285.23 167.326 285.23C168.035 285.23 168.633 285.403 169.118 285.748C169.603 286.093 169.97 286.567 170.217 287.169C170.469 287.766 170.595 288.448 170.595 289.213C170.595 289.964 170.471 290.643 170.224 291.25C169.977 291.852 169.613 292.33 169.132 292.685C168.651 293.035 168.063 293.21 167.368 293.21ZM167.473 292.251C168.01 292.251 168.453 292.12 168.803 291.859C169.153 291.598 169.414 291.238 169.587 290.781C169.76 290.319 169.846 289.796 169.846 289.213C169.846 288.62 169.76 288.098 169.587 287.645C169.414 287.188 169.153 286.831 168.803 286.574C168.458 286.317 168.021 286.189 167.494 286.189C166.953 286.189 166.505 286.322 166.15 286.588C165.795 286.854 165.532 287.216 165.359 287.673C165.191 288.13 165.107 288.644 165.107 289.213C165.107 289.787 165.193 290.305 165.366 290.767C165.543 291.224 165.807 291.586 166.157 291.852C166.507 292.118 166.946 292.251 167.473 292.251ZM169.846 293V287.309H169.734V282.92H170.77V293H169.846ZM176.325 293.189C175.872 293.189 175.476 293.119 175.135 292.979C174.799 292.839 174.512 292.65 174.274 292.412C174.041 292.174 173.852 291.903 173.707 291.6C173.562 291.292 173.457 290.968 173.392 290.627C173.327 290.282 173.294 289.939 173.294 289.598V285.44H174.33V289.297C174.33 289.712 174.37 290.097 174.449 290.452C174.528 290.807 174.654 291.117 174.827 291.383C175.004 291.644 175.231 291.847 175.506 291.992C175.786 292.137 176.124 292.209 176.521 292.209C176.885 292.209 177.205 292.146 177.48 292.02C177.76 291.894 177.993 291.714 178.18 291.481C178.371 291.243 178.516 290.956 178.614 290.62C178.712 290.279 178.761 289.897 178.761 289.472L179.489 289.633C179.489 290.408 179.354 291.059 179.083 291.586C178.812 292.113 178.439 292.512 177.963 292.783C177.487 293.054 176.941 293.189 176.325 293.189ZM178.866 293V291.138H178.761V285.44H179.79V293H178.866ZM185.267 293.203C184.381 293.203 183.65 293.012 183.076 292.629C182.507 292.246 182.157 291.714 182.026 291.033L183.076 290.858C183.188 291.287 183.443 291.63 183.839 291.887C184.241 292.139 184.735 292.265 185.323 292.265C185.897 292.265 186.35 292.146 186.681 291.908C187.013 291.665 187.178 291.336 187.178 290.921C187.178 290.688 187.125 290.499 187.017 290.354C186.915 290.205 186.702 290.067 186.38 289.941C186.058 289.815 185.578 289.666 184.938 289.493C184.252 289.306 183.716 289.12 183.328 288.933C182.941 288.746 182.666 288.532 182.502 288.289C182.339 288.042 182.257 287.741 182.257 287.386C182.257 286.957 182.379 286.581 182.621 286.259C182.864 285.932 183.2 285.68 183.629 285.503C184.059 285.321 184.558 285.23 185.127 285.23C185.697 285.23 186.205 285.323 186.653 285.51C187.106 285.692 187.47 285.949 187.745 286.28C188.021 286.611 188.184 286.996 188.235 287.435L187.185 287.624C187.115 287.181 186.894 286.831 186.52 286.574C186.152 286.313 185.683 286.177 185.113 286.168C184.577 286.154 184.14 286.257 183.804 286.476C183.468 286.691 183.3 286.978 183.3 287.337C183.3 287.538 183.361 287.71 183.482 287.855C183.604 287.995 183.823 288.128 184.14 288.254C184.462 288.38 184.92 288.518 185.512 288.667C186.208 288.844 186.754 289.031 187.15 289.227C187.547 289.423 187.829 289.654 187.997 289.92C188.165 290.186 188.249 290.515 188.249 290.907C188.249 291.621 187.983 292.183 187.451 292.594C186.924 293 186.196 293.203 185.267 293.203ZM194.618 293C194.193 293.089 193.773 293.124 193.358 293.105C192.947 293.086 192.579 292.998 192.252 292.839C191.93 292.68 191.685 292.433 191.517 292.097C191.382 291.817 191.307 291.535 191.293 291.25C191.284 290.961 191.279 290.632 191.279 290.263V283.34H192.301V290.221C192.301 290.538 192.303 290.804 192.308 291.019C192.317 291.229 192.366 291.416 192.455 291.579C192.623 291.892 192.889 292.078 193.253 292.139C193.622 292.2 194.077 292.186 194.618 292.097V293ZM189.662 286.322V285.44H194.618V286.322H189.662ZM196.807 293V285.44H197.731V287.26L197.549 287.022C197.633 286.798 197.743 286.593 197.878 286.406C198.014 286.215 198.161 286.058 198.319 285.937C198.515 285.764 198.744 285.634 199.005 285.545C199.267 285.452 199.53 285.398 199.796 285.384C200.062 285.365 200.305 285.384 200.524 285.44V286.406C200.249 286.336 199.948 286.32 199.621 286.357C199.295 286.394 198.994 286.525 198.718 286.749C198.466 286.945 198.277 287.181 198.151 287.456C198.025 287.727 197.941 288.016 197.899 288.324C197.857 288.627 197.836 288.928 197.836 289.227V293H196.807ZM203.535 296.36L204.998 292.391L205.019 293.567L201.708 285.44H202.8L205.516 292.237H205.068L207.574 285.44H208.624L204.564 296.36H203.535ZM209.614 293V291.803H210.811V293H209.614Z" fill="#7F8BAB"/>
<defs>
<filter id="filter0_i_2093_1885" x="241.521" y="7.64475" width="27.2172" height="29.0249" filterUnits="userSpaceOnUse" color-interpolation-filters="sRGB">
<feFlood flood-opacity="0" result="BackgroundImageFix"/>
<feBlend mode="normal" in="SourceGraphic" in2="BackgroundImageFix" result="shape"/>
<feColorMatrix in="SourceAlpha" type="matrix" values="0 0 0 0 0 0 0 0 0 0 0 0 0 0 0 0 0 0 127 0" result="hardAlpha"/>
<feOffset dy="-2.55766"/>
<feGaussianBlur stdDeviation="0.959121"/>
<feComposite in2="hardAlpha" operator="arithmetic" k2="-1" k3="1"/>
<feColorMatrix type="matrix" values="0 0 0 0 0.956863 0 0 0 0 0.85098 0 0 0 0 0.431373 0 0 0 1 0"/>
<feBlend mode="normal" in2="shape" result="effect1_innerShadow_2093_1885"/>
</filter>
</defs>
</svg>
