<svg width="90" height="90" viewBox="0 0 90 90" fill="none" xmlns="http://www.w3.org/2000/svg">
    <g id="Group 57">
        <g id="Group 64">
            <g id="Ellipse 31">
                <mask id="path-1-inside-1_866_3684" fill="white">
                    <path d="M77.0448 19.874C78.9049 18.4156 81.6144 18.7317 82.8896 20.7218C86.6578 26.6029 89.0163 33.2985 89.7523 40.2837C90.6382 48.692 89.1374 57.1798 85.4219 64.7744C81.7064 72.3691 75.9265 78.7634 68.7445 83.2246C61.5625 87.6859 53.269 90.0335 44.8142 89.9986C36.3595 89.9637 28.0856 87.5477 20.9407 83.0273C13.7957 78.5069 8.06883 72.0651 4.41616 64.44C0.763499 56.8149 -0.66714 48.3151 0.288183 39.9144C1.08182 32.9355 3.49547 26.2596 7.31215 20.4098C8.60373 18.4302 11.3157 18.1366 13.1637 19.6103C15.0117 21.084 15.2907 23.7658 14.0437 25.7737C11.2056 30.3436 9.40479 35.5014 8.79296 40.8816C8.01936 47.6843 9.17787 54.5674 12.1357 60.7421C15.0936 66.9168 19.7312 72.1333 25.5171 75.7938C31.3029 79.4544 38.003 81.4109 44.8496 81.4391C51.6961 81.4674 58.4121 79.5663 64.228 75.9536C70.0439 72.341 74.7244 67.1629 77.7331 61.0129C80.7419 54.8628 81.9572 47.9896 81.2398 41.1806C80.6724 35.7956 78.9143 30.6232 76.114 26.03C74.8836 24.0118 75.1847 21.3325 77.0448 19.874Z"/>
                </mask>
                <path d="M77.0448 19.874C78.9049 18.4156 81.6144 18.7317 82.8896 20.7218C86.6578 26.6029 89.0163 33.2985 89.7523 40.2837C90.6382 48.692 89.1374 57.1798 85.4219 64.7744C81.7064 72.3691 75.9265 78.7634 68.7445 83.2246C61.5625 87.6859 53.269 90.0335 44.8142 89.9986C36.3595 89.9637 28.0856 87.5477 20.9407 83.0273C13.7957 78.5069 8.06883 72.0651 4.41616 64.44C0.763499 56.8149 -0.66714 48.3151 0.288183 39.9144C1.08182 32.9355 3.49547 26.2596 7.31215 20.4098C8.60373 18.4302 11.3157 18.1366 13.1637 19.6103C15.0117 21.084 15.2907 23.7658 14.0437 25.7737C11.2056 30.3436 9.40479 35.5014 8.79296 40.8816C8.01936 47.6843 9.17787 54.5674 12.1357 60.7421C15.0936 66.9168 19.7312 72.1333 25.5171 75.7938C31.3029 79.4544 38.003 81.4109 44.8496 81.4391C51.6961 81.4674 58.4121 79.5663 64.228 75.9536C70.0439 72.341 74.7244 67.1629 77.7331 61.0129C80.7419 54.8628 81.9572 47.9896 81.2398 41.1806C80.6724 35.7956 78.9143 30.6232 76.114 26.03C74.8836 24.0118 75.1847 21.3325 77.0448 19.874Z" stroke="#2A2E8D" stroke-width="112" mask="url(#path-1-inside-1_866_3684)"/>
            </g>
            <circle id="Ellipse 32" cx="45" cy="44.9993" r="36" fill="#0A004B"/>
        </g>
        <circle id="Ellipse 32_2" cx="45" cy="44.9993" r="32" fill="white" stroke="#C04BE2" stroke-width="8"/>
        <path id="Vector" d="M34 44.8375L42.0417 52.8771L58.1252 36.7979" stroke="#C04BE2" stroke-width="6" stroke-linecap="round" stroke-linejoin="round"/>
    </g>
</svg>