
<svg width="72" height="57" viewBox="0 0 72 57" fill="none" xmlns="http://www.w3.org/2000/svg">
<g id="OBJECTS" clip-path="url(#clip0_535_764)">
<path id="Vector" d="M28.5 57.0001C12.786 57.0001 0 44.2169 0 28.5001C0 14.1241 10.7491 1.96543 25.0048 0.220708L25.3601 0.177734L28.8151 28.1133L56.8596 25.6725L56.8911 26.0306C56.9685 26.9187 57.0057 27.7266 57.0057 28.5001C57.0057 44.2141 44.2197 57.0001 28.5057 57.0001H28.5ZM24.7355 0.977041C11.0184 2.83636 0.716224 14.6054 0.716224 28.5001C0.716224 43.8216 13.1814 56.2839 28.5 56.2839C43.8186 56.2839 56.2838 43.8187 56.2838 28.5001C56.2838 27.8498 56.258 27.1765 56.2007 26.4488L28.1849 28.8869L24.7355 0.977041Z" fill="#F5F4FA" fill-opacity="0.25"/>
<path id="Vector_2" d="M41.6816 23.3316L66.0275 5.60938L66.2797 5.95603C69.3422 10.156 71.1987 15.1151 71.6427 20.292L71.68 20.7188L41.6816 23.3316ZM65.8356 6.80977L44.6869 22.2057L70.746 19.9367C70.2647 15.2096 68.5744 10.6888 65.8356 6.80977Z" fill="#F5F4FA" fill-opacity="0.25"/>
<path id="Vector_3" d="M28.2191 29.1475L24.6494 0.263571L25.0047 0.220597C26.2194 0.0716224 27.3625 0 28.4998 0C37.5701 0 46.182 4.38329 51.5365 11.7289L51.7485 12.0182L28.2191 29.1475ZM25.4487 0.890983L28.7835 27.8525L50.7486 11.8607C45.5116 4.87606 37.2235 0.716224 28.4998 0.716224C27.5029 0.716224 26.5001 0.773522 25.4459 0.890983H25.4487Z" fill="#F5F4FA" fill-opacity="0.25"/>
</g>
<defs>
<clipPath id="clip0_535_764">
<rect width="71.6797" height="57" fill="white"/>
</clipPath>
</defs>
</svg>
