<svg width="200" height="160" viewBox="0 0 200 160" fill="none" xmlns="http://www.w3.org/2000/svg">
<rect width="200" height="160" fill="white"/>
<path d="M145.868 138.145C147.233 138.145 148.338 137.039 148.338 135.675C148.338 134.311 147.233 133.205 145.868 133.205C144.504 133.205 143.398 134.311 143.398 135.675C143.398 137.039 144.504 138.145 145.868 138.145Z" stroke="#5479F7" stroke-miterlimit="10"/>
<path d="M28.47 56.5552C29.8341 56.5552 30.94 55.4494 30.94 54.0852C30.94 52.7211 29.8341 51.6152 28.47 51.6152C27.1059 51.6152 26 52.7211 26 54.0852C26 55.4494 27.1059 56.5552 28.47 56.5552Z" stroke="#C04BE2" stroke-miterlimit="10"/>
<path d="M164.121 32.6753L165.211 34.8753L167.621 35.2253L165.871 36.9253L166.291 39.3353L164.121 38.1953L161.961 39.3353L162.371 36.9253L160.621 35.2253L163.041 34.8753L164.121 32.6753Z" stroke="#5479F7" stroke-miterlimit="10"/>
<path d="M191.164 146.446L191.008 148.897L192.92 150.405L190.554 151.002L189.713 153.299L188.404 151.227L185.963 151.134L187.523 149.252L186.858 146.905L189.129 147.812L191.164 146.446Z" stroke="#C04BE2" stroke-miterlimit="10"/>
<path d="M30.9588 109.165L31.7287 110.725L33.4587 110.975L32.2088 112.195L32.4987 113.905L30.9588 113.095L29.4188 113.905L29.7187 112.195L28.4688 110.975L30.1888 110.725L30.9588 109.165Z" stroke="#5479F7" stroke-miterlimit="10"/>
<path d="M88.4248 90.9794L84.3641 71.0944C83.6908 67.799 84.1397 64.3097 85.6191 61.2693C86.4965 59.4736 88.1901 58.1575 90.149 57.7596C90.3837 57.7085 90.6286 57.6779 90.904 57.6575L93.5363 57.4331C95.7299 57.2494 97.8419 58.1779 99.1988 59.9123L104.596 66.8399L113.534 66.0951C115.482 65.9319 117.319 67.0338 118.084 68.8397C118.196 69.1049 118.288 69.3906 118.349 69.6967C118.788 71.829 117.635 73.9818 115.625 74.798H115.605C114.044 75.4408 112.401 75.8183 110.718 75.9101L98.9335 76.5835C98.7295 76.5937 98.5254 76.5223 98.3826 76.3692L96.2911 74.2267" stroke="#5479F7" stroke-width="2" stroke-linecap="round" stroke-linejoin="round"/>
<path d="M62.7322 105.549L52.3867 95.9486C63.4464 90.4289 73.6287 87.2763 81.046 87.8068" stroke="#C04BE2" stroke-width="2" stroke-linecap="round" stroke-linejoin="round"/>
<path d="M125.812 88.2656L133.995 104.651" stroke="#5479F7" stroke-width="2" stroke-linecap="round" stroke-linejoin="round"/>
<path d="M79.5156 139.249L80.9644 153.175C91.9323 147.697 100.513 141.524 104.584 135.321" stroke="#C04BE2" stroke-width="2" stroke-linecap="round" stroke-linejoin="round"/>
<path d="M109.96 125.577C134.569 113.293 145.506 85.2663 145.506 85.2663C145.506 85.2663 116.541 77.1756 91.9319 89.4596C81.3517 94.7446 73.312 102.927 67.5781 110.549L78.4746 132.372C88.0141 132.362 99.39 130.852 109.97 125.577H109.96Z" stroke="#C04BE2" stroke-width="2" stroke-linecap="round" stroke-linejoin="round"/>
<path d="M61.4453 114.027L72.0357 135.228" stroke="#5479F7" stroke-width="2" stroke-linecap="round" stroke-linejoin="round"/>
<path d="M112.757 107.263C111.513 111.007 107.462 113.028 103.718 111.773C99.9735 110.528 97.9534 106.477 99.2083 102.733C100.453 98.9886 104.503 96.9685 108.248 98.2234" stroke="#5479F7" stroke-width="2" stroke-linecap="round" stroke-linejoin="round"/>
<path d="M56.7327 120.312L41.8164 127.75" stroke="#C04BE2" stroke-width="2" stroke-linecap="round" stroke-linejoin="round"/>
<path d="M64.1819 135.229L49.2656 142.677" stroke="#C04BE2" stroke-width="2" stroke-linecap="round" stroke-linejoin="round"/>
<path d="M60.438 127.74L51.3984 132.26" stroke="#C04BE2" stroke-width="2" stroke-linecap="round" stroke-linejoin="round"/>
<path d="M91.3914 54.3418C95.6569 54.3418 99.1148 50.884 99.1148 46.6184C99.1148 42.3529 95.6569 38.895 91.3914 38.895C87.1259 38.895 83.668 42.3529 83.668 46.6184C83.668 50.884 87.1259 54.3418 91.3914 54.3418Z" stroke="#5479F7" stroke-width="2" stroke-linecap="round" stroke-linejoin="round"/>
<path d="M161.665 67C162.538 71.1362 163 75.4255 163 79.817C163 107.688 144.472 131.249 119 139" stroke="#C04BE2" stroke-width="2" stroke-linecap="round" stroke-linejoin="round"/>
<path d="M58 35.9527C69.1275 24.8574 84.509 18 101.505 18C124.42 18 144.411 30.4809 155 49" stroke="#C04BE2" stroke-width="2" stroke-linecap="round" stroke-linejoin="round"/>
<path d="M48 111C42.2808 101.85 39 91.2239 39 79.8999C39 69.8682 41.5714 60.3905 46.1268 52" stroke="#C04BE2" stroke-width="2" stroke-linecap="round" stroke-linejoin="round"/>
<path d="M173.336 99.5625L169.874 102.015" stroke="#C04BE2" stroke-width="0.942765" stroke-linecap="round"/>
<path d="M172.832 102.52L170.38 99.0576" stroke="#C04BE2" stroke-width="0.942765" stroke-linecap="round"/>
<path d="M10.5742 136.618L7.11226 139.07" stroke="#5479F7" stroke-width="0.942765" stroke-linecap="round"/>
<path d="M10.0703 139.575L7.61814 136.113" stroke="#5479F7" stroke-width="0.942765" stroke-linecap="round"/>
<path d="M87.3242 10.4639L89.7742 7.00034" stroke="#5479F7" stroke-width="0.942765" stroke-linecap="round"/>
<path d="M86.8164 7.50684L90.2799 9.95679" stroke="#5479F7" stroke-width="0.942765" stroke-linecap="round"/>
<path d="M12.36 23.7383C13.1111 23.7383 13.72 23.1253 13.72 22.3691C13.72 21.613 13.1111 21 12.36 21C11.6089 21 11 21.613 11 22.3691C11 23.1253 11.6089 23.7383 12.36 23.7383Z" stroke="#5479F7" stroke-miterlimit="10"/>
</svg>
