<svg width="200" height="160" viewBox="0 0 200 160" fill="none" xmlns="http://www.w3.org/2000/svg">
<rect width="200" height="160" fill="white"/>
<path d="M153.009 105.17C154.949 108.34 154.539 112.53 151.799 115.27C148.589 118.48 143.379 118.48 140.169 115.27C136.959 112.06 136.959 106.85 140.169 103.64C142.909 100.9 147.109 100.5 150.269 102.43" stroke="#5479F7" stroke-width="1.25" stroke-linecap="round" stroke-linejoin="round"/>
<path d="M149.69 108.49C150.02 109.76 149.69 111.17 148.69 112.16C147.19 113.66 144.77 113.66 143.27 112.16C141.77 110.66 141.77 108.24 143.27 106.74C144.27 105.74 145.68 105.41 146.95 105.74" stroke="#5479F7" stroke-width="1.25" stroke-linecap="round" stroke-linejoin="round"/>
<path d="M157.74 93.7598V97.6998H161.68L157.44 101.94H153.5V97.9998L157.74 93.7598Z" stroke="#5479F7" stroke-width="1.25" stroke-linecap="round" stroke-linejoin="round"/>
<path d="M153.498 101.94L145.988 109.45" stroke="#5479F7" stroke-width="1.25" stroke-linecap="round" stroke-linejoin="round"/>
<path d="M151.571 98.1298C146.851 95.8098 140.991 96.6098 137.061 100.53C132.131 105.46 132.131 113.45 137.061 118.38C141.991 123.31 149.981 123.31 154.911 118.38C158.841 114.45 159.641 108.59 157.311 103.87" stroke="#5479F7" stroke-width="1.25" stroke-linecap="round" stroke-linejoin="round"/>
<path d="M22.47 140.94C23.8341 140.94 24.94 139.834 24.94 138.47C24.94 137.106 23.8341 136 22.47 136C21.1059 136 20 137.106 20 138.47C20 139.834 21.1059 140.94 22.47 140.94Z" stroke="#5479F7" stroke-miterlimit="10"/>
<path d="M175.618 123.44C176.369 123.44 176.978 122.831 176.978 122.08C176.978 121.329 176.369 120.72 175.618 120.72C174.867 120.72 174.258 121.329 174.258 122.08C174.258 122.831 174.867 123.44 175.618 123.44Z" stroke="#5479F7" stroke-width="0.942765" stroke-linecap="round"/>
<path d="M161.68 20.46L162.76 22.65L165.18 23.01L163.43 24.71L163.84 27.12L161.68 25.98L159.52 27.12L159.93 24.71L158.18 23.01L160.6 22.65L161.68 20.46Z" stroke="#C04BE2" stroke-miterlimit="10"/>
<path d="M26.49 39L27.26 40.56L28.99 40.81L27.74 42.03L28.03 43.74L26.49 42.93L24.95 43.74L25.25 42.03L24 40.81L25.72 40.56L26.49 39Z" stroke="#5479F7" stroke-miterlimit="10"/>
<path d="M130.558 60.8919H137.697C138.304 60.8919 138.803 61.3908 138.803 61.9985C138.803 75.3507 131.891 88.0135 120.326 95.8598C118.548 97.0752 116.616 98.2 114.584 99.1797C108.28 102.227 101.169 103.842 94.0207 103.842C86.873 103.842 79.7615 102.227 73.4573 99.1797C71.4345 98.2 69.4933 97.0752 67.6973 95.8416C56.1411 87.9954 49.2383 75.3416 49.2383 61.9894C49.2383 61.3817 49.7372 60.8828 50.3449 60.8828H57.4836" stroke="#C04BE2" stroke-width="1.81416" stroke-linecap="round" stroke-linejoin="round"/>
<path d="M94.0191 103.842C85.9461 103.842 78.3992 98.1637 72.7844 87.8502C67.2875 77.7544 64.2578 64.3478 64.2578 50.1066C64.2578 49.4989 64.7567 49 65.3644 49H122.665C123.272 49 123.771 49.4989 123.771 50.1066C123.771 64.3478 120.742 77.7453 115.245 87.8502C109.63 98.1637 102.092 103.842 94.01 103.842H94.0191Z" stroke="#C04BE2" stroke-width="1.81416" stroke-linecap="round" stroke-linejoin="round"/>
<path d="M100.441 103.842V126.138" stroke="#C04BE2" stroke-width="1.81416" stroke-linecap="round" stroke-linejoin="round"/>
<path d="M87.5898 125.866V103.842" stroke="#C04BE2" stroke-width="1.81416" stroke-linecap="round" stroke-linejoin="round"/>
<path d="M74.0117 129.685C74.819 129.304 75.717 128.941 76.7057 128.605C81.35 127.018 87.5 126.138 94.0219 126.138C101.505 126.138 109.279 127.372 114.15 129.73" stroke="#C04BE2" stroke-width="1.81416" stroke-linecap="round" stroke-linejoin="round"/>
<path d="M99.1428 79.9989C99.0358 79.9989 98.9232 79.9711 98.8218 79.9209L94.0056 77.4145L89.1895 79.9209C88.9586 80.0435 88.6769 80.0212 88.4629 79.8708C88.2488 79.7204 88.1474 79.4586 88.1868 79.208L89.105 73.9L85.207 70.1404C85.0212 69.9622 84.9536 69.6893 85.0324 69.4442C85.1113 69.1991 85.331 69.0209 85.5901 68.9819L90.9751 68.2077L93.386 63.3787C93.5043 63.1448 93.7409 63 94 63C94.2591 63 94.5013 63.1448 94.614 63.3787L97.0249 68.2077L102.41 68.9819C102.669 69.0209 102.883 69.1991 102.968 69.4442C103.046 69.6893 102.979 69.9622 102.793 70.1404L98.895 73.9L99.8132 79.208C99.8582 79.4642 99.7512 79.7204 99.5371 79.8708C99.4189 79.9543 99.278 79.9989 99.1316 79.9989H99.1428Z" stroke="#5479F7" stroke-width="1.81416" stroke-linecap="round" stroke-linejoin="round"/>
<path d="M94.0195 18.5C127.45 18.5 154.55 45.6 154.55 79.03C154.55 82.52 154.25 85.94 153.69 89.27" stroke="#C04BE2" stroke-width="2" stroke-linecap="round" stroke-linejoin="round"/>
<path d="M134.502 124.02C123.782 133.67 109.592 139.55 94.0222 139.55C60.5922 139.55 33.4922 112.45 33.4922 79.02C33.4922 60.3 41.9922 43.57 55.3422 32.46" stroke="#C04BE2" stroke-width="2" stroke-linecap="round" stroke-linejoin="round"/>
<path d="M64.04 21.4102H61.5" stroke="#5479F7" stroke-width="1.25" stroke-linecap="round" stroke-linejoin="round"/>
<path d="M82.3198 21.25H79.8398" stroke="#5479F7" stroke-width="1.25" stroke-linecap="round" stroke-linejoin="round"/>
<path d="M71.9219 11V13.48" stroke="#5479F7" stroke-width="1.25" stroke-linecap="round" stroke-linejoin="round"/>
<path d="M66.3286 26.8599L64.5586 28.6299" stroke="#5479F7" stroke-width="1.25" stroke-linecap="round" stroke-linejoin="round"/>
<path d="M79.3213 14.0298L77.5312 15.8198" stroke="#5479F7" stroke-width="1.25" stroke-linecap="round" stroke-linejoin="round"/>
<path d="M77.5586 26.8599L79.3186 28.6299" stroke="#5479F7" stroke-width="1.25" stroke-linecap="round" stroke-linejoin="round"/>
<path d="M64.5586 14.0298L66.3586 15.8198" stroke="#5479F7" stroke-width="1.25" stroke-linecap="round" stroke-linejoin="round"/>
<path d="M74.3595 30.8101H69.5195" stroke="#5479F7" stroke-width="1.25" stroke-linecap="round" stroke-linejoin="round"/>
<path d="M69.5217 29.17V28.82C69.5217 25.89 66.2617 25.13 66.2617 21.41C66.2617 18.27 68.8017 15.73 71.9417 15.73C75.0817 15.73 77.6117 18.27 77.6117 21.41C77.6117 24.96 74.3517 25.72 74.3517 28.82V29.17" stroke="#5479F7" stroke-width="1.25" stroke-linecap="round" stroke-linejoin="round"/>
<path d="M73.1792 32.4702H70.6992" stroke="#5479F7" stroke-width="1.25" stroke-linecap="round" stroke-linejoin="round"/>
<path d="M73.7606 20.57C73.1306 18.88 70.2606 19.08 70.2406 20.84C70.2406 21.63 71.1506 21.99 71.9306 22.11C74.7406 22.55 73.9706 25.2 71.9306 25.1C70.3806 25.02 69.9406 23.98 69.8906 23.73" stroke="#5479F7" stroke-width="1.25" stroke-linecap="round" stroke-linejoin="round"/>
<path d="M71.9609 17.9902V19.4102" stroke="#5479F7" stroke-width="1.25" stroke-linecap="round" stroke-linejoin="round"/>
<path d="M71.9609 25.1104V26.5304" stroke="#5479F7" stroke-width="1.25" stroke-linecap="round" stroke-linejoin="round"/>
<path d="M192.574 49.6177L189.112 52.0698" stroke="#C04BE2" stroke-width="0.942765" stroke-linecap="round"/>
<path d="M192.07 52.5747L189.618 49.1127" stroke="#C04BE2" stroke-width="0.942765" stroke-linecap="round"/>
<path d="M7.16354 95C6.51912 95 6 95.5262 6 96.1713C6 96.8165 6.5227 97.3427 7.16354 97.3427C7.80438 97.3427 8.32707 96.8165 8.32707 96.1713C8.32707 95.5262 7.80438 95 7.16354 95Z" stroke="#C04BE2" stroke-width="0.942765" stroke-linecap="round"/>
<path d="M10.8979 98.7915C10.2535 98.7915 9.73438 99.3177 9.73438 99.9628C9.73438 100.608 10.2571 101.134 10.8979 101.134C11.5388 101.134 12.0614 100.608 12.0614 99.9628C12.0614 99.3177 11.5388 98.7915 10.8979 98.7915Z" stroke="#C04BE2" stroke-width="0.942765" stroke-linecap="round"/>
<path d="M11.7045 95.3604L6.35938 100.774" stroke="#C04BE2" stroke-width="0.942765" stroke-linecap="round"/>
<path d="M159.702 150.948L159.682 154.306C159.682 154.418 159.637 154.524 159.558 154.603C159.479 154.681 159.371 154.724 159.26 154.724L158.42 154.719C158.309 154.718 158.202 154.674 158.124 154.594C158.046 154.515 158.002 154.408 158.003 154.297L158.02 151.358C158.02 151.247 158.065 151.14 158.144 151.062C158.224 150.984 158.331 150.94 158.442 150.941L159.702 150.948ZM159.702 150.948C160.147 150.951 160.575 150.776 160.892 150.463C161.209 150.15 161.389 149.724 161.391 149.279L161.394 148.859C161.395 148.636 161.485 148.423 161.643 148.267C161.801 148.11 162.015 148.023 162.238 148.024C162.461 148.025 162.674 148.115 162.831 148.274C162.987 148.432 163.074 148.646 163.073 148.869L163.061 150.968L164.321 150.975C164.544 150.976 164.757 151.066 164.913 151.224C165.07 151.382 165.157 151.597 165.156 151.819L164.724 153.916C164.662 154.173 164.546 154.393 164.394 154.544C164.241 154.694 164.061 154.767 163.879 154.75L160.94 154.734C160.606 154.732 160.286 154.597 160.051 154.36C159.816 154.122 159.685 153.801 159.687 153.467" stroke="#C04BE2" stroke-width="0.942765" stroke-linecap="round"/>
<path d="M76.5742 151.618L73.1123 154.07" stroke="#5479F7" stroke-width="0.942765" stroke-linecap="round"/>
<path d="M76.0703 154.575L73.6181 151.113" stroke="#5479F7" stroke-width="0.942765" stroke-linecap="round"/>
</svg>
