<svg width="200" height="160" viewBox="0 0 200 160" fill="none" xmlns="http://www.w3.org/2000/svg">
<rect width="200" height="160" fill="white"/>
<path d="M192.47 125.94C193.834 125.94 194.94 124.834 194.94 123.47C194.94 122.106 193.834 121 192.47 121C191.106 121 190 122.106 190 123.47C190 124.834 191.106 125.94 192.47 125.94Z" stroke="#5479F7" stroke-miterlimit="10"/>
<path d="M175.521 18.94C176.885 18.94 177.991 17.8341 177.991 16.47C177.991 15.1059 176.885 14 175.521 14C174.157 14 173.051 15.1059 173.051 16.47C173.051 17.8341 174.157 18.94 175.521 18.94Z" stroke="#5479F7" stroke-miterlimit="10"/>
<path d="M194.36 86.72C195.111 86.72 195.72 86.1111 195.72 85.36C195.72 84.6089 195.111 84 194.36 84C193.609 84 193 84.6089 193 85.36C193 86.1111 193.609 86.72 194.36 86.72Z" stroke="#C04BE2" stroke-miterlimit="10"/>
<path d="M110.5 148L111.58 150.19L114 150.54L112.25 152.25L112.67 154.65L110.5 153.52L108.34 154.65L108.75 152.25L107 150.54L109.42 150.19L110.5 148Z" stroke="#C04BE2" stroke-miterlimit="10"/>
<path d="M61.49 6L62.26 7.56L63.99 7.81L62.74 9.02L63.03 10.74L61.49 9.93L59.95 10.74L60.25 9.02L59 7.81L60.72 7.56L61.49 6Z" stroke="#5479F7" stroke-miterlimit="10"/>
<path d="M10.8795 54.6762L14.9967 59.2288C15.1332 59.3797 15.2042 59.5787 15.1939 59.7819C15.1837 59.9852 15.0931 60.1761 14.9421 60.3126L13.8037 61.3423C13.6527 61.4788 13.4537 61.5498 13.2504 61.5396C13.0471 61.5294 12.8563 61.4389 12.7198 61.288L9.11721 57.3045C8.98071 57.1536 8.90978 56.9546 8.92002 56.7513C8.93026 56.5481 9.02083 56.3572 9.1718 56.2206L10.8795 54.6762ZM10.8795 54.6762C11.4834 54.1301 11.8457 53.3665 11.8866 52.5534C11.9276 51.7404 11.6439 50.9444 11.0979 50.3407L10.5832 49.7716C10.3102 49.4698 10.1684 49.0718 10.1889 48.6653C10.2093 48.2588 10.3905 47.877 10.6924 47.6039C10.9943 47.3308 11.3924 47.1888 11.7989 47.2092C12.2054 47.2296 12.5872 47.4106 12.8602 47.7124L15.4334 50.5578L17.1412 49.0133C17.4431 48.7403 17.8411 48.5983 18.2477 48.6187C18.6542 48.639 19.036 48.82 19.3089 49.1219L21.313 52.482C21.5468 52.9052 21.6626 53.3454 21.6429 53.7364C21.6232 54.1273 21.4691 54.4479 21.2038 54.6498L17.2191 58.2534C16.7662 58.663 16.1692 58.876 15.5593 58.8455C14.9495 58.8149 14.3769 58.5434 13.9674 58.0906" stroke="#5479F7" stroke-width="1.2" stroke-linecap="round" stroke-linejoin="round"/>
<path d="M121.812 86.1236C120.242 84.4728 118.024 82.9637 115.229 81.6674C109.416 78.9835 101.718 77.5049 93.5353 77.5049C85.3521 77.5049 77.655 78.9835 71.8417 81.6674C65.8157 84.4525 62.5039 88.2301 62.5039 92.3116V112.152" stroke="#5479F7" stroke-width="2" stroke-linecap="round" stroke-linejoin="round"/>
<path d="M93.5369 71.5094C102.072 71.5094 108.992 64.59 108.992 56.0545C108.992 47.519 102.072 40.5996 93.5369 40.5996C85.0014 40.5996 78.082 47.519 78.082 56.0545C78.082 64.59 85.0014 71.5094 93.5369 71.5094Z" stroke="#5479F7" stroke-width="2" stroke-linecap="round" stroke-linejoin="round"/>
<path d="M144.589 66.2131H169.402C169.999 66.2131 170.546 65.8789 170.82 65.3421C171.093 64.8053 171.043 64.1673 170.698 63.6812L163.163 53.2091L170.698 42.737C171.053 42.2509 171.093 41.6128 170.82 41.0761C170.546 40.5393 169.999 40.2051 169.402 40.2051H144.559V93.9631" stroke="#C04BE2" stroke-width="2" stroke-linecap="round" stroke-linejoin="round"/>
<path d="M59.832 123.819H91.4913V110.491C91.4913 109.61 92.2104 108.891 93.0915 108.891H124.751V95.5626C124.751 94.6815 125.47 93.9624 126.351 93.9624H159.6" stroke="#5479F7" stroke-width="2" stroke-linecap="round" stroke-linejoin="round"/>
<path d="M51.9492 48.3273C62.5833 30.148 82.3223 17.9238 104.907 17.9238M141.772 30.2493C139.101 28.2347 136.26 26.4336 133.275 24.8714" stroke="#C04BE2" stroke-width="2" stroke-miterlimit="10" stroke-linecap="round"/>
<path d="M51.9607 110.116C47.464 102.419 44.5877 93.6587 43.8281 84.2905" stroke="#C04BE2" stroke-width="2" stroke-miterlimit="10" stroke-linecap="round"/>
<path d="M166.216 79.2266C166.216 113.084 138.77 140.53 104.913 140.53C94.5217 140.53 84.7282 137.947 76.1602 133.38" stroke="#C04BE2" stroke-width="2" stroke-miterlimit="10" stroke-linecap="round"/>
<path d="M109.271 21.4619L106.945 25.2684L110.002 25.1818C110.105 25.1786 110.2 25.2371 110.245 25.3311L111.56 28.1006L113.644 24.693" stroke="#5479F7" stroke-width="1.15939" stroke-linecap="round" stroke-linejoin="round"/>
<path d="M121.992 24.692L124.076 28.0996L125.388 25.3301C125.431 25.2393 125.524 25.1808 125.624 25.1808C125.626 25.1808 125.63 25.1808 125.632 25.1808L128.69 25.2675L126.363 21.4609" stroke="#5479F7" stroke-width="1.15939" stroke-linecap="round" stroke-linejoin="round"/>
<path d="M115.713 22.3759C115.76 22.3759 115.806 22.3884 115.847 22.4124L117.817 23.581L119.786 22.4124C119.827 22.3884 119.875 22.3748 119.923 22.3759L122.213 22.403L123.334 20.4063C123.358 20.3645 123.392 20.3301 123.434 20.3061L125.431 19.1855L125.404 16.8953C125.404 16.8473 125.416 16.8003 125.44 16.7585L126.609 14.7889L125.44 12.8194C125.416 12.7786 125.402 12.7306 125.404 12.6826L125.431 10.3924L123.434 9.27184C123.392 9.24886 123.358 9.21335 123.334 9.17158L122.213 7.17485L119.923 7.20201C119.875 7.20409 119.828 7.18947 119.786 7.16545L117.816 6L115.846 7.16859C115.805 7.19261 115.759 7.20723 115.709 7.20514L113.419 7.17799L112.298 9.17471C112.274 9.21649 112.24 9.25095 112.198 9.27497L110.201 10.3955L110.229 12.6857C110.229 12.7337 110.216 12.7807 110.192 12.8225L109.023 14.7921L110.192 16.7617C110.216 16.8024 110.23 16.8504 110.229 16.8985L110.201 19.1886L112.198 20.3092C112.24 20.3322 112.274 20.3677 112.298 20.4094L113.419 22.4062L115.709 22.379C115.709 22.379 115.711 22.379 115.712 22.379L115.713 22.3759Z" stroke="#5479F7" stroke-width="1.15939" stroke-linecap="round" stroke-linejoin="round"/>
<path d="M117.816 9.7207C115.021 9.7207 112.746 11.9952 112.746 14.7908C112.746 17.5865 115.021 19.861 117.816 19.861C120.612 19.861 122.886 17.5865 122.886 14.7908C122.886 11.9952 120.612 9.7207 117.816 9.7207Z" stroke="#5479F7" stroke-width="1.15939" stroke-linecap="round" stroke-linejoin="round"/>
<path d="M115.891 14.6626L117.179 15.9513L119.747 13.3833" stroke="#5479F7" stroke-width="1.15939" stroke-linecap="round" stroke-linejoin="round"/>
<path d="M40.1714 68.7622L35.513 71.2392C35.4483 71.2762 35.3836 71.2854 35.3097 71.2854C35.2173 71.2854 35.1341 71.2577 35.0601 71.2023C34.9307 71.1098 34.866 70.9435 34.8845 70.7863L35.7349 65.7583L32.1302 62.209C32.01 62.0981 31.973 61.9225 32.0193 61.7746C32.0655 61.6175 32.2041 61.5066 32.3612 61.4881L37.3523 60.7579L39.5799 56.192C39.6538 56.0441 39.8017 55.9517 39.9681 55.9517C40.1344 55.9517 40.2823 56.0441 40.3563 56.192L41.2436 58.022" stroke="#5479F7" stroke-width="1.20087" stroke-miterlimit="10" stroke-linecap="round"/>
<path d="M56.3672 58.0035L57.2545 56.1734C57.3284 56.0255 57.4763 55.9331 57.6427 55.9331C57.8091 55.9331 57.9569 56.0255 58.0309 56.1734L60.2584 60.7394L65.2495 61.4695C65.4066 61.4973 65.5453 61.6082 65.5915 61.7561C65.6377 61.9132 65.5915 62.0796 65.4806 62.1905L61.8666 65.7489L62.717 70.777C62.7447 70.9342 62.68 71.1005 62.5414 71.193C62.4674 71.2484 62.375 71.2761 62.2918 71.2761C62.2271 71.2761 62.1532 71.2576 62.0885 71.2299L57.4301 68.7529" stroke="#5479F7" stroke-width="1.20087" stroke-miterlimit="10" stroke-linecap="round"/>
<path d="M53.1864 72.4222C53.1217 72.4222 53.0478 72.4037 52.9831 72.376L48.5188 70.0098L44.0546 72.376C43.9067 72.4499 43.7311 72.4407 43.6017 72.3482C43.4723 72.2558 43.4076 72.0894 43.4261 71.9323L44.2764 66.9042L40.681 63.3457C40.5608 63.2348 40.5238 63.0592 40.57 62.9113C40.6163 62.7542 40.7549 62.6433 40.912 62.6248L45.9031 61.8946L48.1399 57.3287C48.2138 57.1808 48.3617 57.0884 48.5281 57.0884C48.6944 57.0884 48.8423 57.1808 48.9163 57.3287L51.153 61.8946L56.1441 62.6248C56.3013 62.6525 56.4399 62.7635 56.4861 62.9113C56.5323 63.0685 56.4861 63.2348 56.3752 63.3457L52.7613 66.9042L53.6116 71.9323C53.6393 72.0894 53.5746 72.2558 53.436 72.3482C53.3621 72.4037 53.2696 72.4314 53.1864 72.4314V72.4222Z" stroke="#5479F7" stroke-width="1.20087" stroke-miterlimit="10" stroke-linecap="round"/>
<path d="M23.3359 131.562L19.874 134.015" stroke="#C04BE2" stroke-width="0.942765" stroke-linecap="round"/>
<path d="M22.832 134.52L20.3799 131.058" stroke="#C04BE2" stroke-width="0.942765" stroke-linecap="round"/>
</svg>
