<svg width="200" height="160" viewBox="0 0 200 160" fill="none" xmlns="http://www.w3.org/2000/svg">
<rect width="200" height="160" fill="white"/>
<g clip-path="url(#clip0_2093_1068)">
<path d="M180.25 99.1177C178.45 99.1177 177 100.587 177 102.389C177 104.192 178.46 105.661 180.25 105.661C182.04 105.661 183.5 104.192 183.5 102.389C183.5 100.587 182.04 99.1177 180.25 99.1177Z" stroke="#5479F7" stroke-width="2" stroke-linecap="round" stroke-linejoin="round"/>
<path d="M190.68 109.708C188.88 109.708 187.43 111.178 187.43 112.98C187.43 114.782 188.89 116.252 190.68 116.252C192.47 116.252 193.93 114.782 193.93 112.98C193.93 111.178 192.47 109.708 190.68 109.708Z" stroke="#5479F7" stroke-width="2" stroke-linecap="round" stroke-linejoin="round"/>
<path d="M192.93 100.125L178 115.245" stroke="#5479F7" stroke-width="2" stroke-linecap="round" stroke-linejoin="round"/>
<path d="M112.588 109.638C116.458 106.718 119.568 107.413 122.148 109.487C122.778 109.99 122.808 110.946 122.228 111.5L102.908 129.812C102.378 130.315 101.678 130.587 100.958 130.587H78.3081C76.6281 130.587 75.0181 131.292 73.8681 132.52L68.3281 138.46" stroke="#5479F7" stroke-width="2" stroke-linecap="round" stroke-linejoin="round"/>
<path d="M104.758 115.577C106.948 113.916 110.108 111.51 112.588 109.638" stroke="#5479F7" stroke-width="2" stroke-linecap="round" stroke-linejoin="round"/>
<path d="M85.8495 122.091H101.56C102.04 122.091 102.43 121.678 102.39 121.195C102.01 115.839 98.1795 115.336 96.9795 115.336H89.1095C85.4395 112.859 83.1495 112.346 78.8495 112.346C73.7095 112.346 69.5795 114.852 64.3795 121.426L58.0195 127.456" stroke="#5479F7" stroke-width="2" stroke-linecap="round" stroke-linejoin="round"/>
<path d="M116.568 69.7313C119.738 72.6206 121.728 76.7984 121.728 81.4494C121.728 90.1776 114.698 97.2548 106.028 97.2548C97.3581 97.2548 90.3281 90.1776 90.3281 81.4494C90.3281 74.5736 94.6981 68.7145 100.788 66.54" stroke="#C04BE2" stroke-width="2" stroke-linecap="round" stroke-linejoin="round"/>
<path d="M111.078 76.9192C109.428 72.4796 101.958 73.0031 101.908 77.634C101.888 79.6978 104.298 80.6541 106.308 80.9763C113.648 82.1441 111.618 89.0904 106.308 88.8286C102.278 88.6273 101.118 85.879 100.988 85.2246" stroke="#C04BE2" stroke-width="2" stroke-linecap="round" stroke-linejoin="round"/>
<path d="M106.391 70.1343V73.8591" stroke="#C04BE2" stroke-width="2" stroke-linecap="round" stroke-linejoin="round"/>
<path d="M106.391 88.8286V92.5635" stroke="#C04BE2" stroke-width="2" stroke-linecap="round" stroke-linejoin="round"/>
<path d="M97.8492 60.0166H74.9492V102.681H137.109V73.7683" stroke="#C04BE2" stroke-width="2" stroke-linecap="round" stroke-linejoin="round"/>
<path d="M154.381 72.1778H146.531V39.8926H154.381" stroke="#5479F7" stroke-width="2" stroke-linecap="round" stroke-linejoin="round"/>
<path d="M91.4492 55.1746L100.049 46.5169C101.659 44.8961 103.849 43.98 106.129 43.98H142.209" stroke="#5479F7" stroke-width="2" stroke-linecap="round" stroke-linejoin="round"/>
<path d="M123.84 54.6714H107.97C105.04 54.6714 102.66 57.0674 102.66 60.017C102.66 62.9667 105.04 65.3627 107.97 65.3627H123.84C126.5 68.0405 130.17 69.6915 134.23 69.6915C137.2 69.6915 139.97 68.8056 142.28 67.2754" stroke="#5479F7" stroke-width="2" stroke-linecap="round" stroke-linejoin="round"/>
<path d="M166.99 79.1748C166.99 112.869 139.86 140.182 106.39 140.182C102.21 140.182 98.1197 139.759 94.1797 138.943" stroke="#C04BE2" stroke-width="2" stroke-miterlimit="10" stroke-linecap="round"/>
<path d="M55.6891 112.617C49.4291 103.013 45.7891 91.5267 45.7891 79.1845C45.7891 45.4898 72.9191 18.1777 106.389 18.1777C122.109 18.1777 136.439 24.2079 147.209 34.0938" stroke="#C04BE2" stroke-width="2" stroke-miterlimit="10" stroke-linecap="round"/>
<path d="M160.49 28.124C161.854 28.124 162.96 27.0108 162.96 25.6375C162.96 24.2642 161.854 23.1509 160.49 23.1509C159.125 23.1509 158.02 24.2642 158.02 25.6375C158.02 27.0108 159.125 28.124 160.49 28.124Z" stroke="#5479F7" stroke-miterlimit="10"/>
<path d="M34.9694 121.265C35.7205 121.265 36.3294 120.652 36.3294 119.896C36.3294 119.14 35.7205 118.527 34.9694 118.527C34.2183 118.527 33.6094 119.14 33.6094 119.896C33.6094 120.652 34.2183 121.265 34.9694 121.265Z" fill="#C04BE2"/>
<path d="M25.4688 83.7047V49.4766" stroke="#5479F7" stroke-width="2" stroke-linejoin="round"/>
<path d="M19.9688 54.5704L25.4687 49.0234L30.9687 54.5704" stroke="#5479F7" stroke-width="2" stroke-linecap="round" stroke-linejoin="round"/>
<path d="M12.5 95.3322V61.104" stroke="#5479F7" stroke-width="2" stroke-linejoin="round"/>
<path d="M7 66.1979L12.5 60.6509L18.01 66.1979" stroke="#5479F7" stroke-width="2" stroke-linecap="round" stroke-linejoin="round"/>
<path d="M90.3281 7.13658L90.9591 8.42466L91.0751 8.66148L91.3361 8.69948L92.7596 8.90675L91.7275 9.92208L91.5417 10.1048L91.5851 10.3618L91.8259 11.7866L90.5627 11.1155L90.3287 10.9911L90.0944 11.1151L88.8245 11.7867L89.0708 10.3638L89.1155 10.1057L88.9288 9.92208L87.8966 8.90675L89.3202 8.69948L89.5811 8.66148L89.6971 8.42466L90.3281 7.13658Z" stroke="#C04BE2"/>
<path d="M157.877 137.966L158.509 139.263L158.625 139.501L158.887 139.539L160.307 139.745L159.279 140.75L159.092 140.933L159.136 141.191L159.377 142.616L158.114 141.945L157.879 141.82L157.645 141.944L156.375 142.616L156.622 141.193L156.666 140.934L156.478 140.75L155.451 139.745L156.861 139.539L157.121 139.501L157.238 139.265L157.877 137.966Z" stroke="#C04BE2"/>
<path d="M80.3181 148.866L81.0881 150.436L82.8181 150.688L81.5681 151.916L81.8581 153.638L80.3181 152.822L78.7781 153.638L79.0781 151.916L77.8281 150.688L79.5481 150.436L80.3181 148.866Z" fill="#5479F7"/>
<path d="M10.5742 139.618L7.11226 142.07" stroke="#5479F7" stroke-width="0.942765" stroke-linecap="round"/>
<path d="M10.0703 142.575L7.61814 139.113" stroke="#5479F7" stroke-width="0.942765" stroke-linecap="round"/>
</g>
<defs>
<clipPath id="clip0_2093_1068">
<rect width="188" height="150" fill="white" transform="translate(6 5)"/>
</clipPath>
</defs>
</svg>
