<svg xmlns="http://www.w3.org/2000/svg" width="79" height="58" viewBox="0 0 79 58" fill="none">
  <path d="M77.5371 1.00752e-05L44.2123 1.00752e-05L39.5738 6.76274C39.519 6.84472 39.4444 6.91198 39.3567 6.95852C39.2691 7.00506 39.1711 7.02942 39.0715 7.02942C38.972 7.02942 38.8741 7.00506 38.7864 6.95852C38.6987 6.91198 38.6241 6.84472 38.5693 6.76274L33.9308 1.00752e-05L0.605976 1.00752e-05C0.496049 0.000597266 0.38833 0.0305324 0.294237 0.0866436C0.200144 0.142755 0.123182 0.222952 0.0715089 0.318733C0.0198357 0.414515 -0.00462508 0.52231 0.000721035 0.630699C0.00606715 0.739088 0.0410232 0.844033 0.101878 0.934405L38.5693 57.0375C38.6247 57.1187 38.6995 57.1853 38.7871 57.2313C38.8747 57.2773 38.9723 57.3013 39.0715 57.3013C39.1708 57.3013 39.2684 57.2773 39.356 57.2313C39.4436 57.1853 39.5184 57.1187 39.5738 57.0375L78.0412 0.934405C78.1034 0.844305 78.1394 0.739144 78.1454 0.630295C78.1514 0.521445 78.1271 0.413048 78.0752 0.316832C78.0233 0.220616 77.9457 0.14024 77.8509 0.0843984C77.7561 0.0285568 77.6475 -0.000622646 77.5371 1.00752e-05Z" fill="#C04BE2"/>
</svg>