<svg xmlns="http://www.w3.org/2000/svg" width="235" height="235" viewBox="0 0 235 235" fill="none">
            <path
              d="M138.42 211.017L138.417 211.02C138.408 211.029 138.397 211.035 138.387 211.038L138.574 211.764L138.387 211.038C138.376 211.04 138.366 211.04 138.358 211.038C138.351 211.035 138.345 211.031 138.34 211.026C138.336 211.021 138.332 211.014 138.33 211.006L138.33 211.004L121.687 121.757L121.687 121.756C121.685 121.748 121.686 121.739 121.689 121.729C121.692 121.72 121.697 121.71 121.705 121.702C121.713 121.694 121.723 121.689 121.732 121.686C121.736 121.685 121.74 121.684 121.743 121.683C121.749 121.683 121.754 121.683 121.759 121.684L121.76 121.684L211 138.326C211.001 138.326 211.001 138.326 211.002 138.326C211.01 138.328 211.017 138.332 211.023 138.337C211.028 138.342 211.033 138.349 211.035 138.357C211.038 138.366 211.038 138.376 211.036 138.387C211.033 138.399 211.027 138.41 211.018 138.419L179.851 169.586L169.488 167.656C169.486 167.655 169.485 167.655 169.483 167.655C169.233 167.606 168.976 167.62 168.733 167.694C168.489 167.769 168.267 167.903 168.086 168.083C167.906 168.264 167.772 168.486 167.697 168.73L168.414 168.95L167.697 168.73C167.623 168.973 167.609 169.23 167.658 169.48C167.658 169.482 167.658 169.483 167.659 169.485L169.589 179.848L138.42 211.017Z"
              stroke="#4A5BCF" stroke-opacity="0.25" stroke-width="1.5" />
            <path
              d="M95.8008 23.2041L95.8038 23.201C95.8127 23.192 95.8234 23.1861 95.8341 23.1833L95.6462 22.4573L95.8341 23.1833C95.8448 23.1806 95.8545 23.1811 95.8623 23.1835C95.87 23.1858 95.8761 23.1898 95.8807 23.1949C95.8852 23.2 95.8888 23.2067 95.8903 23.2152L95.8907 23.2173L112.534 112.463L112.534 112.465C112.535 112.473 112.535 112.482 112.532 112.492C112.529 112.501 112.523 112.511 112.515 112.519C112.507 112.527 112.498 112.532 112.488 112.535C112.485 112.536 112.481 112.537 112.477 112.538C112.472 112.538 112.467 112.538 112.462 112.537L112.46 112.537L23.2203 95.8951C23.2198 95.895 23.2194 95.8949 23.219 95.8948C23.2104 95.8929 23.2034 95.8891 23.1981 95.8842C23.1925 95.8792 23.188 95.8724 23.1854 95.8639C23.1829 95.8554 23.1823 95.8449 23.1852 95.8335C23.188 95.8223 23.194 95.8112 23.203 95.8019L54.3702 64.6347L64.7327 66.5654C64.7344 66.5657 64.736 66.566 64.7377 66.5664C64.9875 66.615 65.2452 66.601 65.4878 66.5267C65.7321 66.4518 65.9541 66.3181 66.1345 66.1377C66.3149 65.9573 66.4486 65.7353 66.5234 65.4911L65.8064 65.2714L66.5235 65.491C66.5978 65.2484 66.6118 64.9908 66.5632 64.741C66.5629 64.7393 66.5625 64.7376 66.5622 64.736L64.6315 54.3734L95.8008 23.2041Z"
              stroke="#4A5BCF" stroke-opacity="0.25" stroke-width="1.5" />
            <path
              d="M22.8828 139.767L22.8797 139.764C22.8753 139.76 22.8716 139.754 22.8697 139.746C22.8678 139.738 22.8677 139.728 22.8711 139.717L22.8711 139.717C22.8746 139.706 22.8814 139.695 22.8912 139.686C22.9009 139.677 22.9122 139.672 22.9231 139.67L22.9252 139.67L112.418 121.754L112.419 121.753C112.429 121.751 112.437 121.752 112.444 121.754L112.658 121.035L112.444 121.754C112.451 121.756 112.456 121.759 112.46 121.763C112.464 121.767 112.467 121.772 112.469 121.779L113.188 121.565L112.469 121.779C112.471 121.786 112.472 121.794 112.47 121.804L112.47 121.806L94.5548 211.292C94.5547 211.292 94.5546 211.293 94.5545 211.293C94.5519 211.304 94.5462 211.316 94.5372 211.326C94.5279 211.336 94.5163 211.343 94.5044 211.347C94.4926 211.35 94.4818 211.35 94.4731 211.348C94.4649 211.346 94.4583 211.343 94.4534 211.338L63.7358 180.62L65.8136 170.233C65.8139 170.232 65.8143 170.23 65.8146 170.228C65.8664 169.98 65.8567 169.722 65.7849 169.477C65.7127 169.231 65.58 169.007 65.3982 168.825C65.2164 168.643 64.9921 168.51 64.7458 168.438L64.5347 169.158L64.7458 168.438C64.5013 168.366 64.2432 168.357 63.9947 168.408C63.9931 168.409 63.9915 168.409 63.9899 168.41L53.6028 170.487L22.8828 139.767Z"
              stroke="#4A5BCF" stroke-opacity="0.25" stroke-width="1.5" />
            <path
              d="M211.337 94.4536L211.34 94.4567C211.344 94.461 211.348 94.467 211.35 94.4747C211.352 94.4826 211.352 94.4926 211.349 94.5037L211.349 94.5037C211.345 94.5149 211.338 94.5258 211.329 94.5346C211.319 94.5433 211.308 94.5487 211.297 94.5508L211.295 94.5512L121.802 112.467L121.801 112.468C121.791 112.47 121.782 112.469 121.776 112.467L121.561 113.186L121.776 112.467C121.769 112.465 121.764 112.462 121.76 112.458C121.756 112.454 121.753 112.448 121.751 112.442L121.032 112.656L121.751 112.442C121.749 112.435 121.748 112.427 121.75 112.417L121.75 112.415L139.665 22.929C139.665 22.9286 139.665 22.9281 139.665 22.9277C139.668 22.9165 139.674 22.905 139.683 22.8952C139.692 22.8849 139.703 22.8777 139.715 22.874C139.727 22.8703 139.738 22.8704 139.747 22.8725C139.755 22.8745 139.761 22.8783 139.766 22.8829L170.484 53.6005L168.406 63.9876C168.406 63.9892 168.405 63.9908 168.405 63.9924C168.353 64.241 168.363 64.499 168.435 64.7436C168.507 64.9898 168.64 65.2141 168.822 65.3959C169.003 65.5777 169.228 65.7104 169.474 65.7827L169.685 65.063L169.474 65.7827C169.718 65.8544 169.976 65.8641 170.225 65.8123C170.227 65.812 170.228 65.8117 170.23 65.8113L180.617 63.7336L211.337 94.4536Z"
              stroke="#4A5BCF" stroke-opacity="0.25" stroke-width="1.5" />
          </svg>