<svg width="279" height="380" viewBox="0 0 279 380" fill="none" xmlns="http://www.w3.org/2000/svg">
<g filter="url(#filter0_i_2093_1885)">
<path d="M261.998 12.7583C264.009 12.1191 265.014 11.7995 265.563 12.3354C266.112 12.8712 265.818 13.8842 265.228 15.9102L264.033 20.0202C263.857 20.622 263.77 20.9229 263.824 21.2195C263.878 21.5162 264.066 21.7669 264.442 22.2684L266.986 25.6636C268.328 27.4549 268.999 28.3505 268.644 29.0578C268.289 29.7652 267.17 29.7618 264.931 29.7549L260.929 29.7427C260.276 29.7407 259.95 29.7397 259.672 29.8835C259.394 30.0272 259.206 30.294 258.83 30.8276L256.513 34.1179C255.27 35.8829 254.648 36.7654 253.879 36.6613C253.109 36.5572 252.744 35.5413 252.015 33.5095L250.523 29.354C250.316 28.7785 250.213 28.4908 250.002 28.285C249.791 28.0792 249.5 27.983 248.92 27.7906L244.729 26.4013C242.68 25.722 241.655 25.3824 241.532 24.6155C241.409 23.8486 242.276 23.2055 244.01 21.9194L247.242 19.5218C247.767 19.133 248.029 18.9385 248.166 18.657C248.302 18.3755 248.293 18.0492 248.275 17.3968L248.165 13.3962C248.103 11.1586 248.072 10.0399 248.77 9.66734C249.468 9.29482 250.38 9.94371 252.204 11.2415L255.661 13.7012C256.171 14.0646 256.427 14.2463 256.725 14.2929C257.023 14.3396 257.321 14.2447 257.918 14.0548L261.998 12.7583Z" fill="#E6A608"/>
</g>
<path d="M266.4 58.825C266.4 52.7544 258.548 48.6974 252.477 48.6974C239.714 48.6974 229.368 37.7667 229.368 24.283C229.368 18.5264 225.446 12 219.689 12H27.5586C14.5674 12 8.07173 12 4.03587 16.2638C0 20.5277 0 27.3902 0 41.1153V350.085C0 363.81 0 370.672 4.03587 374.936C8.07173 379.2 14.5674 379.2 27.5586 379.2H238.841C251.833 379.2 258.328 379.2 262.364 374.936C266.4 370.672 266.4 363.81 266.4 350.085V58.825Z" fill="white"/>
<path d="M197.4 133.494C195.96 133.494 194.8 134.67 194.8 136.112C194.8 137.553 195.968 138.729 197.4 138.729C198.832 138.729 200 137.553 200 136.112C200 134.67 198.832 133.494 197.4 133.494Z" stroke="#5479F7" stroke-width="1.6" stroke-linecap="round" stroke-linejoin="round"/>
<path d="M205.744 141.967C204.304 141.967 203.144 143.142 203.144 144.584C203.144 146.026 204.312 147.201 205.744 147.201C207.176 147.201 208.344 146.026 208.344 144.584C208.344 143.142 207.176 141.967 205.744 141.967Z" stroke="#5479F7" stroke-width="1.6" stroke-linecap="round" stroke-linejoin="round"/>
<path d="M207.544 134.299L195.6 146.396" stroke="#5479F7" stroke-width="1.6" stroke-linecap="round" stroke-linejoin="round"/>
<path d="M143.272 141.91C146.368 139.574 148.856 140.13 150.92 141.789C151.424 142.192 151.448 142.957 150.984 143.4L135.528 158.05C135.104 158.452 134.544 158.67 133.968 158.67H115.848C114.504 158.67 113.216 159.233 112.296 160.216L107.864 164.968" stroke="#5479F7" stroke-width="1.6" stroke-linecap="round" stroke-linejoin="round"/>
<path d="M137.008 146.662C138.76 145.333 141.288 143.408 143.272 141.91" stroke="#5479F7" stroke-width="1.6" stroke-linecap="round" stroke-linejoin="round"/>
<path d="M121.88 151.872H134.448C134.832 151.872 135.144 151.542 135.112 151.156C134.808 146.871 131.744 146.468 130.784 146.468H124.488C121.552 144.487 119.72 144.076 116.28 144.076C112.168 144.076 108.864 146.082 104.704 151.341L99.616 156.165" stroke="#5479F7" stroke-width="1.6" stroke-linecap="round" stroke-linejoin="round"/>
<path d="M146.456 109.985C148.992 112.297 150.584 115.639 150.584 119.36C150.584 126.342 144.96 132.004 138.024 132.004C131.088 132.004 125.464 126.342 125.464 119.36C125.464 113.859 128.96 109.172 133.832 107.432" stroke="#C04BE2" stroke-width="1.6" stroke-linecap="round" stroke-linejoin="round"/>
<path d="M142.064 115.735C140.744 112.184 134.768 112.603 134.728 116.307C134.712 117.958 136.64 118.723 138.248 118.981C144.12 119.915 142.496 125.472 138.248 125.263C135.024 125.102 134.096 122.903 133.992 122.38" stroke="#C04BE2" stroke-width="1.6" stroke-linecap="round" stroke-linejoin="round"/>
<path d="M138.312 110.307V113.287" stroke="#C04BE2" stroke-width="1.6" stroke-linecap="round" stroke-linejoin="round"/>
<path d="M138.312 125.263V128.251" stroke="#C04BE2" stroke-width="1.6" stroke-linecap="round" stroke-linejoin="round"/>
<path d="M131.48 102.213H113.16V136.345H162.888V113.215" stroke="#C04BE2" stroke-width="1.6" stroke-linecap="round" stroke-linejoin="round"/>
<path d="M176.704 111.942H170.424V86.1143H176.704" stroke="#5479F7" stroke-width="1.6" stroke-linecap="round" stroke-linejoin="round"/>
<path d="M126.36 98.3397L133.24 91.4136C134.528 90.1169 136.28 89.384 138.104 89.384H166.968" stroke="#5479F7" stroke-width="1.6" stroke-linecap="round" stroke-linejoin="round"/>
<path d="M152.272 97.9368H139.576C137.232 97.9368 135.328 99.8535 135.328 102.213C135.328 104.573 137.232 106.49 139.576 106.49H152.272C154.4 108.632 157.336 109.953 160.584 109.953C162.96 109.953 165.176 109.244 167.024 108.02" stroke="#5479F7" stroke-width="1.6" stroke-linecap="round" stroke-linejoin="round"/>
<path d="M186.792 117.54C186.792 144.495 165.088 166.345 138.312 166.345C134.968 166.345 131.696 166.007 128.544 165.354" stroke="#C04BE2" stroke-width="1.6" stroke-miterlimit="10" stroke-linecap="round"/>
<path d="M97.752 144.294C92.744 136.611 89.832 127.421 89.832 117.548C89.832 90.5919 111.536 68.7422 138.312 68.7422C150.888 68.7422 162.352 73.5663 170.968 81.4751" stroke="#C04BE2" stroke-width="1.6" stroke-miterlimit="10" stroke-linecap="round"/>
<path d="M181.592 76.6992C182.683 76.6992 183.568 75.8086 183.568 74.71C183.568 73.6113 182.683 72.7207 181.592 72.7207C180.501 72.7207 179.616 73.6113 179.616 74.71C179.616 75.8086 180.501 76.6992 181.592 76.6992Z" stroke="#5479F7" stroke-width="0.8" stroke-miterlimit="10"/>
<path d="M81.1759 151.212C81.7768 151.212 82.2639 150.722 82.2639 150.117C82.2639 149.512 81.7768 149.021 81.1759 149.021C80.575 149.021 80.0879 149.512 80.0879 150.117C80.0879 150.722 80.575 151.212 81.1759 151.212Z" fill="#C04BE2"/>
<path d="M73.575 121.164V93.7812" stroke="#5479F7" stroke-width="1.6" stroke-linejoin="round"/>
<path d="M69.175 97.8563L73.575 93.4187L77.975 97.8563" stroke="#5479F7" stroke-width="1.6" stroke-linecap="round" stroke-linejoin="round"/>
<path d="M63.2 130.466V103.083" stroke="#5479F7" stroke-width="1.6" stroke-linejoin="round"/>
<path d="M58.8 107.158L63.2 102.721L67.608 107.158" stroke="#5479F7" stroke-width="1.6" stroke-linecap="round" stroke-linejoin="round"/>
<path d="M125.462 59.9093L125.967 60.9397L126.06 61.1292L126.269 61.1596L127.408 61.3254L126.582 62.1377L126.433 62.2839L126.468 62.4895L126.661 63.6293L125.65 63.0924L125.463 62.9929L125.275 63.092L124.26 63.6293L124.457 62.491L124.492 62.2846L124.343 62.1377L123.517 61.3254L124.656 61.1596L124.865 61.1292L124.958 60.9397L125.462 59.9093Z" stroke="#C04BE2" stroke-width="0.8"/>
<path d="M179.502 164.573L180.008 165.61L180.101 165.801L180.31 165.831L181.446 165.996L180.624 166.8L180.475 166.946L180.51 167.153L180.702 168.293L179.692 167.756L179.504 167.656L179.317 167.755L178.301 168.293L178.498 167.154L178.534 166.947L178.384 166.8L177.561 165.996L178.69 165.831L178.898 165.801L178.991 165.612L179.502 164.573Z" stroke="#C04BE2" stroke-width="0.8"/>
<path d="M117.455 173.292L118.071 174.549L119.455 174.75L118.455 175.733L118.687 177.11L117.455 176.458L116.223 177.11L116.463 175.733L115.463 174.75L116.839 174.549L117.455 173.292Z" fill="#5479F7"/>
<path d="M61.6595 165.894L58.89 167.856" stroke="#5479F7" stroke-width="0.754212" stroke-linecap="round"/>
<path d="M61.2557 168.26L59.2939 165.49" stroke="#5479F7" stroke-width="0.754212" stroke-linecap="round"/>
<path d="M56.2479 209.448C56.9519 209.448 57.5225 209.555 57.9599 209.768C58.3972 209.971 58.7972 210.211 59.1599 210.488C59.2985 210.595 59.4052 210.648 59.4799 210.648C59.6825 210.648 59.8159 210.323 59.8799 209.672H60.2479C60.2265 210.077 60.2105 210.568 60.1999 211.144C60.1892 211.709 60.1839 212.467 60.1839 213.416H59.8159C59.7412 212.904 59.6399 212.429 59.5119 211.992C59.3945 211.555 59.1865 211.181 58.8879 210.872C58.5999 210.531 58.2212 210.264 57.7519 210.072C57.2932 209.88 56.8239 209.784 56.3439 209.784C55.7892 209.784 55.2985 209.923 54.8719 210.2C54.4452 210.467 54.0825 210.851 53.7839 211.352C53.4959 211.853 53.2719 212.445 53.1119 213.128C52.9625 213.8 52.8879 214.541 52.8879 215.352C52.8879 217.272 53.1812 218.68 53.7679 219.576C54.3652 220.461 55.2612 220.904 56.4559 220.904C56.7972 220.904 57.0905 220.856 57.3359 220.76C57.5919 220.664 57.7945 220.568 57.9439 220.472C58.1252 220.344 58.2425 220.221 58.2959 220.104C58.3492 219.976 58.3759 219.811 58.3759 219.608V218.056C58.3759 217.597 58.3332 217.261 58.2479 217.048C58.1732 216.824 58.0185 216.675 57.7839 216.6C57.5492 216.515 57.2079 216.467 56.7599 216.456V216.136C56.9625 216.147 57.2025 216.157 57.4799 216.168C57.7572 216.168 58.0452 216.173 58.3439 216.184C58.6532 216.184 58.9305 216.184 59.1759 216.184C59.5599 216.184 59.9065 216.179 60.2159 216.168C60.5359 216.157 60.7972 216.147 60.9999 216.136V216.456C60.7759 216.467 60.6052 216.504 60.4879 216.568C60.3812 216.632 60.3065 216.76 60.2639 216.952C60.2319 217.144 60.2159 217.437 60.2159 217.832V221H59.8959C59.8852 220.819 59.8425 220.621 59.7679 220.408C59.7039 220.195 59.6025 220.088 59.4639 220.088C59.3892 220.088 59.3092 220.104 59.2239 220.136C59.1492 220.168 59.0159 220.248 58.8239 220.376C58.4505 220.632 58.0612 220.84 57.6559 221C57.2505 221.149 56.7919 221.224 56.2799 221.224C55.1385 221.224 54.1625 221 53.3519 220.552C52.5412 220.093 51.9225 219.437 51.4959 218.584C51.0799 217.72 50.8719 216.696 50.8719 215.512C50.8719 214.275 51.1012 213.203 51.5599 212.296C52.0292 211.389 52.6639 210.691 53.4639 210.2C54.2745 209.699 55.2025 209.448 56.2479 209.448ZM67.8778 212.52C68.1871 212.52 68.4484 212.584 68.6618 212.712C68.8858 212.84 69.0511 213.005 69.1578 213.208C69.2751 213.4 69.3338 213.619 69.3338 213.864C69.3338 214.173 69.2378 214.44 69.0458 214.664C68.8644 214.877 68.6191 214.984 68.3098 214.984C68.0431 214.984 67.8138 214.904 67.6218 214.744C67.4404 214.584 67.3498 214.365 67.3498 214.088C67.3498 213.853 67.4084 213.656 67.5258 213.496C67.6538 213.325 67.7978 213.192 67.9578 213.096C67.8511 213.011 67.7231 212.973 67.5738 212.984C67.2858 212.995 67.0191 213.091 66.7738 213.272C66.5284 213.443 66.3204 213.667 66.1498 213.944C65.9791 214.211 65.8458 214.499 65.7498 214.808C65.6538 215.117 65.6058 215.405 65.6058 215.672V219.352C65.6058 219.875 65.7498 220.227 66.0378 220.408C66.3258 220.579 66.7258 220.664 67.2378 220.664V221C66.9924 220.989 66.6404 220.979 66.1818 220.968C65.7338 220.947 65.2591 220.936 64.7578 220.936C64.3738 220.936 63.9898 220.947 63.6058 220.968C63.2218 220.979 62.9284 220.989 62.7258 221V220.664C63.1418 220.664 63.4351 220.584 63.6058 220.424C63.7871 220.264 63.8778 219.96 63.8778 219.512V214.488C63.8778 214.008 63.7978 213.656 63.6378 213.432C63.4778 213.197 63.1738 213.08 62.7258 213.08V212.744C63.0671 212.776 63.3978 212.792 63.7178 212.792C64.0804 212.792 64.4164 212.776 64.7258 212.744C65.0458 212.701 65.3391 212.643 65.6058 212.568V214.408C65.7338 214.099 65.9044 213.8 66.1178 213.512C66.3311 213.224 66.5871 212.989 66.8858 212.808C67.1844 212.616 67.5151 212.52 67.8778 212.52ZM74.4469 212.52C75.3855 212.52 76.1215 212.803 76.6549 213.368C77.1882 213.933 77.4549 214.829 77.4549 216.056H71.9349L71.9029 215.752H75.7589C75.7695 215.229 75.7269 214.749 75.6309 214.312C75.5349 213.864 75.3855 213.507 75.1829 213.24C74.9802 212.973 74.7135 212.84 74.3829 212.84C73.9242 212.84 73.5242 213.085 73.1829 213.576C72.8522 214.056 72.6495 214.829 72.5749 215.896L72.6229 215.976C72.6122 216.125 72.6015 216.291 72.5909 216.472C72.5802 216.643 72.5749 216.813 72.5749 216.984C72.5749 217.72 72.6869 218.339 72.9109 218.84C73.1349 219.341 73.4282 219.72 73.7909 219.976C74.1535 220.221 74.5215 220.344 74.8949 220.344C75.1829 220.344 75.4602 220.301 75.7269 220.216C76.0042 220.12 76.2655 219.965 76.5109 219.752C76.7562 219.528 76.9749 219.224 77.1669 218.84L77.4869 218.968C77.3589 219.331 77.1615 219.688 76.8949 220.04C76.6282 220.392 76.2869 220.68 75.8709 220.904C75.4549 221.117 74.9695 221.224 74.4149 221.224C73.6682 221.224 73.0175 221.059 72.4629 220.728C71.9082 220.387 71.4815 219.901 71.1829 219.272C70.8842 218.643 70.7349 217.896 70.7349 217.032C70.7349 216.083 70.8895 215.272 71.1989 214.6C71.5082 213.928 71.9402 213.416 72.4949 213.064C73.0602 212.701 73.7109 212.52 74.4469 212.52ZM81.613 221.112C81.165 221.112 80.781 221.027 80.461 220.856C80.141 220.685 79.901 220.451 79.741 220.152C79.581 219.853 79.501 219.512 79.501 219.128C79.501 218.659 79.6077 218.28 79.821 217.992C80.0343 217.693 80.3063 217.453 80.637 217.272C80.9783 217.091 81.3357 216.941 81.709 216.824C82.093 216.696 82.4503 216.579 82.781 216.472C83.1223 216.355 83.3997 216.221 83.613 216.072C83.837 215.923 83.949 215.725 83.949 215.48V214.392C83.949 214.008 83.885 213.704 83.757 213.48C83.6397 213.245 83.4743 213.08 83.261 212.984C83.0583 212.888 82.813 212.84 82.525 212.84C82.2797 212.84 82.0183 212.877 81.741 212.952C81.4637 213.016 81.245 213.149 81.085 213.352C81.3197 213.416 81.5117 213.544 81.661 213.736C81.821 213.917 81.901 214.147 81.901 214.424C81.901 214.723 81.7997 214.957 81.597 215.128C81.405 215.299 81.1597 215.384 80.861 215.384C80.5303 215.384 80.285 215.283 80.125 215.08C79.965 214.867 79.885 214.621 79.885 214.344C79.885 214.056 79.9543 213.821 80.093 213.64C80.2423 213.459 80.4343 213.288 80.669 213.128C80.925 212.957 81.2503 212.813 81.645 212.696C82.0503 212.579 82.4983 212.52 82.989 212.52C83.4477 212.52 83.8423 212.573 84.173 212.68C84.5143 212.776 84.797 212.936 85.021 213.16C85.2877 213.405 85.4637 213.715 85.549 214.088C85.6343 214.451 85.677 214.893 85.677 215.416V219.832C85.677 220.099 85.709 220.291 85.773 220.408C85.8477 220.515 85.965 220.568 86.125 220.568C86.2317 220.568 86.333 220.541 86.429 220.488C86.5357 220.435 86.6583 220.355 86.797 220.248L86.957 220.52C86.733 220.701 86.5037 220.845 86.269 220.952C86.045 221.059 85.757 221.112 85.405 221.112C85.0637 221.112 84.7863 221.059 84.573 220.952C84.3597 220.845 84.1997 220.691 84.093 220.488C83.997 220.285 83.949 220.035 83.949 219.736C83.6717 220.184 83.341 220.525 82.957 220.76C82.573 220.995 82.125 221.112 81.613 221.112ZM82.381 220.344C82.6797 220.344 82.957 220.259 83.213 220.088C83.4797 219.917 83.725 219.661 83.949 219.32V216.136C83.8317 216.307 83.661 216.456 83.437 216.584C83.213 216.701 82.973 216.824 82.717 216.952C82.461 217.08 82.2157 217.229 81.981 217.4C81.757 217.56 81.5703 217.768 81.421 218.024C81.2717 218.28 81.197 218.605 81.197 219C81.197 219.416 81.3037 219.747 81.517 219.992C81.7303 220.227 82.0183 220.344 82.381 220.344ZM91.0351 210.104V212.76H93.2431V213.08H91.0351V219.368C91.0351 219.805 91.1151 220.115 91.2751 220.296C91.4351 220.477 91.6645 220.568 91.9631 220.568C92.2405 220.568 92.4858 220.456 92.6991 220.232C92.9231 220.008 93.1151 219.629 93.2751 219.096L93.5791 219.208C93.4511 219.773 93.2218 220.253 92.8911 220.648C92.5711 221.032 92.0965 221.224 91.4671 221.224C91.1045 221.224 90.8005 221.176 90.5551 221.08C90.3098 220.995 90.0965 220.867 89.9151 220.696C89.6805 220.451 89.5205 220.157 89.4351 219.816C89.3498 219.475 89.3071 219.021 89.3071 218.456V213.08H87.8351V212.76H89.3071V210.424C89.6378 210.413 89.9471 210.387 90.2351 210.344C90.5231 210.291 90.7898 210.211 91.0351 210.104ZM102.971 209.48C103.537 209.48 103.969 209.544 104.267 209.672C104.566 209.8 104.827 209.939 105.051 210.088C105.179 210.163 105.281 210.221 105.355 210.264C105.441 210.296 105.521 210.312 105.595 210.312C105.702 210.312 105.777 210.253 105.819 210.136C105.873 210.019 105.915 209.843 105.947 209.608H106.315C106.305 209.8 106.289 210.029 106.267 210.296C106.257 210.552 106.246 210.893 106.235 211.32C106.235 211.747 106.235 212.307 106.235 213H105.867C105.835 212.477 105.718 211.971 105.515 211.48C105.323 210.989 105.035 210.589 104.651 210.28C104.278 209.971 103.798 209.816 103.211 209.816C102.667 209.816 102.214 209.981 101.851 210.312C101.499 210.632 101.323 211.059 101.323 211.592C101.323 212.061 101.441 212.456 101.675 212.776C101.91 213.085 102.23 213.379 102.635 213.656C103.051 213.923 103.521 214.221 104.043 214.552C104.577 214.893 105.057 215.235 105.483 215.576C105.91 215.907 106.246 216.275 106.491 216.68C106.737 217.085 106.859 217.576 106.859 218.152C106.859 218.845 106.694 219.421 106.363 219.88C106.043 220.328 105.611 220.664 105.067 220.888C104.523 221.112 103.926 221.224 103.275 221.224C102.678 221.224 102.203 221.16 101.851 221.032C101.499 220.904 101.201 220.771 100.955 220.632C100.721 220.483 100.539 220.408 100.411 220.408C100.305 220.408 100.225 220.467 100.171 220.584C100.129 220.701 100.091 220.877 100.059 221.112H99.6913C99.7126 220.877 99.7233 220.605 99.7233 220.296C99.7339 219.976 99.7393 219.56 99.7393 219.048C99.7499 218.536 99.7553 217.891 99.7553 217.112H100.123C100.166 217.773 100.283 218.392 100.475 218.968C100.678 219.544 100.982 220.008 101.387 220.36C101.803 220.701 102.353 220.872 103.035 220.872C103.398 220.872 103.734 220.803 104.043 220.664C104.353 220.525 104.603 220.307 104.795 220.008C104.987 219.709 105.083 219.325 105.083 218.856C105.083 218.419 104.977 218.035 104.763 217.704C104.561 217.373 104.273 217.069 103.899 216.792C103.537 216.504 103.11 216.211 102.619 215.912C102.118 215.592 101.649 215.272 101.211 214.952C100.774 214.632 100.422 214.259 100.155 213.832C99.8993 213.405 99.7713 212.899 99.7713 212.312C99.7713 211.661 99.9206 211.128 100.219 210.712C100.529 210.296 100.923 209.987 101.403 209.784C101.894 209.581 102.417 209.48 102.971 209.48ZM111.094 221.112C110.646 221.112 110.262 221.027 109.942 220.856C109.622 220.685 109.382 220.451 109.222 220.152C109.062 219.853 108.982 219.512 108.982 219.128C108.982 218.659 109.089 218.28 109.302 217.992C109.516 217.693 109.788 217.453 110.118 217.272C110.46 217.091 110.817 216.941 111.19 216.824C111.574 216.696 111.932 216.579 112.262 216.472C112.604 216.355 112.881 216.221 113.094 216.072C113.318 215.923 113.43 215.725 113.43 215.48V214.392C113.43 214.008 113.366 213.704 113.238 213.48C113.121 213.245 112.956 213.08 112.742 212.984C112.54 212.888 112.294 212.84 112.006 212.84C111.761 212.84 111.5 212.877 111.222 212.952C110.945 213.016 110.726 213.149 110.566 213.352C110.801 213.416 110.993 213.544 111.142 213.736C111.302 213.917 111.382 214.147 111.382 214.424C111.382 214.723 111.281 214.957 111.078 215.128C110.886 215.299 110.641 215.384 110.342 215.384C110.012 215.384 109.766 215.283 109.606 215.08C109.446 214.867 109.366 214.621 109.366 214.344C109.366 214.056 109.436 213.821 109.574 213.64C109.724 213.459 109.916 213.288 110.15 213.128C110.406 212.957 110.732 212.813 111.126 212.696C111.532 212.579 111.98 212.52 112.47 212.52C112.929 212.52 113.324 212.573 113.654 212.68C113.996 212.776 114.278 212.936 114.502 213.16C114.769 213.405 114.945 213.715 115.03 214.088C115.116 214.451 115.158 214.893 115.158 215.416V219.832C115.158 220.099 115.19 220.291 115.254 220.408C115.329 220.515 115.446 220.568 115.606 220.568C115.713 220.568 115.814 220.541 115.91 220.488C116.017 220.435 116.14 220.355 116.278 220.248L116.438 220.52C116.214 220.701 115.985 220.845 115.75 220.952C115.526 221.059 115.238 221.112 114.886 221.112C114.545 221.112 114.268 221.059 114.054 220.952C113.841 220.845 113.681 220.691 113.574 220.488C113.478 220.285 113.43 220.035 113.43 219.736C113.153 220.184 112.822 220.525 112.438 220.76C112.054 220.995 111.606 221.112 111.094 221.112ZM111.862 220.344C112.161 220.344 112.438 220.259 112.694 220.088C112.961 219.917 113.206 219.661 113.43 219.32V216.136C113.313 216.307 113.142 216.456 112.918 216.584C112.694 216.701 112.454 216.824 112.198 216.952C111.942 217.08 111.697 217.229 111.462 217.4C111.238 217.56 111.052 217.768 110.902 218.024C110.753 218.28 110.678 218.605 110.678 219C110.678 219.416 110.785 219.747 110.998 219.992C111.212 220.227 111.5 220.344 111.862 220.344ZM120.5 208.456V219.512C120.5 219.96 120.586 220.264 120.756 220.424C120.938 220.584 121.236 220.664 121.652 220.664V221C121.471 220.989 121.188 220.979 120.804 220.968C120.42 220.947 120.036 220.936 119.652 220.936C119.268 220.936 118.879 220.947 118.484 220.968C118.1 220.979 117.812 220.989 117.62 221V220.664C118.036 220.664 118.33 220.584 118.5 220.424C118.682 220.264 118.772 219.96 118.772 219.512V210.376C118.772 209.896 118.692 209.544 118.532 209.32C118.372 209.085 118.068 208.968 117.62 208.968V208.632C117.962 208.664 118.292 208.68 118.612 208.68C118.964 208.68 119.3 208.664 119.62 208.632C119.94 208.589 120.234 208.531 120.5 208.456ZM125.475 221.112C125.027 221.112 124.643 221.027 124.323 220.856C124.003 220.685 123.763 220.451 123.603 220.152C123.443 219.853 123.363 219.512 123.363 219.128C123.363 218.659 123.47 218.28 123.683 217.992C123.897 217.693 124.169 217.453 124.499 217.272C124.841 217.091 125.198 216.941 125.571 216.824C125.955 216.696 126.313 216.579 126.643 216.472C126.985 216.355 127.262 216.221 127.475 216.072C127.699 215.923 127.811 215.725 127.811 215.48V214.392C127.811 214.008 127.747 213.704 127.619 213.48C127.502 213.245 127.337 213.08 127.123 212.984C126.921 212.888 126.675 212.84 126.387 212.84C126.142 212.84 125.881 212.877 125.603 212.952C125.326 213.016 125.107 213.149 124.947 213.352C125.182 213.416 125.374 213.544 125.523 213.736C125.683 213.917 125.763 214.147 125.763 214.424C125.763 214.723 125.662 214.957 125.459 215.128C125.267 215.299 125.022 215.384 124.723 215.384C124.393 215.384 124.147 215.283 123.987 215.08C123.827 214.867 123.747 214.621 123.747 214.344C123.747 214.056 123.817 213.821 123.955 213.64C124.105 213.459 124.297 213.288 124.531 213.128C124.787 212.957 125.113 212.813 125.507 212.696C125.913 212.579 126.361 212.52 126.851 212.52C127.31 212.52 127.705 212.573 128.035 212.68C128.377 212.776 128.659 212.936 128.883 213.16C129.15 213.405 129.326 213.715 129.411 214.088C129.497 214.451 129.539 214.893 129.539 215.416V219.832C129.539 220.099 129.571 220.291 129.635 220.408C129.71 220.515 129.827 220.568 129.987 220.568C130.094 220.568 130.195 220.541 130.291 220.488C130.398 220.435 130.521 220.355 130.659 220.248L130.819 220.52C130.595 220.701 130.366 220.845 130.131 220.952C129.907 221.059 129.619 221.112 129.267 221.112C128.926 221.112 128.649 221.059 128.435 220.952C128.222 220.845 128.062 220.691 127.955 220.488C127.859 220.285 127.811 220.035 127.811 219.736C127.534 220.184 127.203 220.525 126.819 220.76C126.435 220.995 125.987 221.112 125.475 221.112ZM126.243 220.344C126.542 220.344 126.819 220.259 127.075 220.088C127.342 219.917 127.587 219.661 127.811 219.32V216.136C127.694 216.307 127.523 216.456 127.299 216.584C127.075 216.701 126.835 216.824 126.579 216.952C126.323 217.08 126.078 217.229 125.843 217.4C125.619 217.56 125.433 217.768 125.283 218.024C125.134 218.28 125.059 218.605 125.059 219C125.059 219.416 125.166 219.747 125.379 219.992C125.593 220.227 125.881 220.344 126.243 220.344ZM137.25 212.52C137.559 212.52 137.82 212.584 138.034 212.712C138.258 212.84 138.423 213.005 138.53 213.208C138.647 213.4 138.706 213.619 138.706 213.864C138.706 214.173 138.61 214.44 138.418 214.664C138.236 214.877 137.991 214.984 137.682 214.984C137.415 214.984 137.186 214.904 136.994 214.744C136.812 214.584 136.722 214.365 136.722 214.088C136.722 213.853 136.78 213.656 136.898 213.496C137.026 213.325 137.17 213.192 137.33 213.096C137.223 213.011 137.095 212.973 136.946 212.984C136.658 212.995 136.391 213.091 136.146 213.272C135.9 213.443 135.692 213.667 135.522 213.944C135.351 214.211 135.218 214.499 135.122 214.808C135.026 215.117 134.978 215.405 134.978 215.672V219.352C134.978 219.875 135.122 220.227 135.41 220.408C135.698 220.579 136.098 220.664 136.61 220.664V221C136.364 220.989 136.012 220.979 135.554 220.968C135.106 220.947 134.631 220.936 134.13 220.936C133.746 220.936 133.362 220.947 132.978 220.968C132.594 220.979 132.3 220.989 132.098 221V220.664C132.514 220.664 132.807 220.584 132.978 220.424C133.159 220.264 133.25 219.96 133.25 219.512V214.488C133.25 214.008 133.17 213.656 133.01 213.432C132.85 213.197 132.546 213.08 132.098 213.08V212.744C132.439 212.776 132.77 212.792 133.09 212.792C133.452 212.792 133.788 212.776 134.098 212.744C134.418 212.701 134.711 212.643 134.978 212.568V214.408C135.106 214.099 135.276 213.8 135.49 213.512C135.703 213.224 135.959 212.989 136.258 212.808C136.556 212.616 136.887 212.52 137.25 212.52ZM147.7 212.744V213.064C147.497 213.096 147.311 213.203 147.14 213.384C146.969 213.555 146.804 213.853 146.644 214.28L144.148 220.968L143.764 221.352L140.644 213.976C140.441 213.56 140.244 213.309 140.052 213.224C139.871 213.128 139.716 213.08 139.588 213.08V212.744C139.855 212.776 140.137 212.803 140.436 212.824C140.735 212.835 141.044 212.84 141.364 212.84C141.727 212.84 142.089 212.829 142.452 212.808C142.825 212.787 143.172 212.765 143.492 212.744V213.08C143.236 213.08 143.007 213.101 142.804 213.144C142.612 213.176 142.484 213.277 142.42 213.448C142.367 213.608 142.42 213.885 142.58 214.28L144.564 219.16L144.452 219.208L146.068 214.92C146.228 214.493 146.292 214.152 146.26 213.896C146.228 213.629 146.116 213.432 145.924 213.304C145.732 213.165 145.449 213.085 145.076 213.064V212.744C145.257 212.755 145.423 212.765 145.572 212.776C145.732 212.776 145.887 212.781 146.036 212.792C146.185 212.792 146.335 212.792 146.484 212.792C146.719 212.792 146.937 212.787 147.14 212.776C147.353 212.765 147.54 212.755 147.7 212.744ZM144.148 220.968L143.572 222.472C143.465 222.739 143.353 222.963 143.236 223.144C143.129 223.325 143.012 223.475 142.884 223.592C142.724 223.741 142.527 223.848 142.292 223.912C142.057 223.976 141.823 224.008 141.588 224.008C141.364 224.008 141.151 223.965 140.948 223.88C140.756 223.805 140.596 223.688 140.468 223.528C140.34 223.368 140.276 223.171 140.276 222.936C140.276 222.659 140.367 222.435 140.548 222.264C140.729 222.093 140.969 222.008 141.268 222.008C141.535 222.008 141.759 222.077 141.94 222.216C142.121 222.365 142.212 222.579 142.212 222.856C142.212 223.048 142.159 223.213 142.052 223.352C141.956 223.491 141.828 223.597 141.668 223.672C141.7 223.683 141.732 223.688 141.764 223.688C141.796 223.688 141.823 223.688 141.844 223.688C142.143 223.688 142.409 223.587 142.644 223.384C142.879 223.192 143.076 222.877 143.236 222.44L143.812 220.904L144.148 220.968ZM157.949 209.72C158.355 209.72 158.685 209.763 158.941 209.848C159.208 209.923 159.432 210.024 159.613 210.152C159.763 210.248 159.885 210.36 159.981 210.488C160.088 210.616 160.173 210.749 160.237 210.888C160.301 211.027 160.333 211.171 160.333 211.32C160.333 211.608 160.227 211.837 160.013 212.008C159.811 212.168 159.581 212.248 159.325 212.248C159.069 212.248 158.845 212.173 158.653 212.024C158.472 211.875 158.381 211.661 158.381 211.384C158.381 211.139 158.467 210.925 158.637 210.744C158.808 210.552 159.021 210.44 159.277 210.408C159.224 210.291 159.091 210.189 158.877 210.104C158.675 210.019 158.424 209.976 158.125 209.976C157.571 209.976 157.112 210.141 156.749 210.472C156.397 210.803 156.221 211.293 156.221 211.944C156.221 212.221 156.269 212.509 156.365 212.808C156.472 213.107 156.675 213.405 156.973 213.704C157.155 213.672 157.331 213.645 157.501 213.624C157.683 213.603 157.827 213.592 157.933 213.592C158.125 213.592 158.275 213.629 158.381 213.704C158.499 213.768 158.557 213.864 158.557 213.992C158.557 214.088 158.515 214.163 158.429 214.216C158.344 214.269 158.237 214.296 158.109 214.296C157.907 214.296 157.699 214.253 157.485 214.168C157.272 214.072 157.107 213.992 156.989 213.928C156.403 214.131 155.928 214.44 155.565 214.856C155.213 215.261 155.037 215.821 155.037 216.536C155.037 217.261 155.229 217.875 155.613 218.376C155.997 218.867 156.52 219.24 157.181 219.496C157.843 219.752 158.6 219.88 159.453 219.88C160.008 219.88 160.541 219.816 161.053 219.688C161.565 219.56 162.019 219.373 162.413 219.128C162.819 218.872 163.139 218.568 163.373 218.216C163.608 217.864 163.725 217.459 163.725 217C163.725 216.808 163.688 216.563 163.613 216.264C163.539 215.965 163.379 215.672 163.133 215.384C162.899 215.096 162.531 214.867 162.029 214.696L162.189 214.536C162.904 214.76 163.421 215.128 163.741 215.64C164.061 216.152 164.221 216.728 164.221 217.368C164.221 218.04 164.013 218.675 163.597 219.272C163.192 219.859 162.611 220.333 161.853 220.696C161.096 221.048 160.184 221.224 159.117 221.224C158.36 221.224 157.651 221.133 156.989 220.952C156.339 220.771 155.768 220.509 155.277 220.168C154.787 219.816 154.403 219.395 154.125 218.904C153.848 218.413 153.709 217.859 153.709 217.24C153.709 216.653 153.821 216.157 154.045 215.752C154.28 215.336 154.568 214.995 154.909 214.728C155.251 214.451 155.592 214.243 155.933 214.104C156.275 213.955 156.552 213.853 156.765 213.8C156.413 213.651 156.109 213.475 155.853 213.272C155.608 213.059 155.416 212.824 155.277 212.568C155.149 212.301 155.085 212.029 155.085 211.752C155.085 211.464 155.155 211.197 155.293 210.952C155.432 210.707 155.624 210.493 155.869 210.312C156.125 210.12 156.424 209.976 156.765 209.88C157.117 209.773 157.512 209.72 157.949 209.72ZM163.917 209.448C164.611 209.448 165.187 209.64 165.645 210.024C166.104 210.408 166.333 210.947 166.333 211.64C166.333 212.067 166.243 212.435 166.061 212.744C165.891 213.053 165.645 213.32 165.325 213.544C165.016 213.768 164.653 213.949 164.237 214.088C164.024 214.184 163.747 214.291 163.405 214.408C163.064 214.515 162.701 214.627 162.317 214.744C161.933 214.861 161.565 214.973 161.213 215.08C160.872 215.187 160.589 215.283 160.365 215.368C159.832 215.528 159.4 215.72 159.069 215.944C158.739 216.157 158.573 216.445 158.573 216.808C158.573 217.085 158.653 217.32 158.813 217.512C158.984 217.704 159.187 217.848 159.421 217.944C159.667 218.04 159.901 218.088 160.125 218.088C160.211 218.088 160.317 218.077 160.445 218.056C160.573 218.035 160.685 218.003 160.781 217.96C160.888 217.917 160.952 217.864 160.973 217.8C160.771 217.757 160.589 217.667 160.429 217.528C160.28 217.379 160.205 217.171 160.205 216.904C160.205 216.627 160.301 216.408 160.493 216.248C160.696 216.088 160.941 216.008 161.229 216.008C161.528 216.008 161.763 216.093 161.933 216.264C162.115 216.435 162.205 216.659 162.205 216.936C162.205 217.245 162.104 217.507 161.901 217.72C161.699 217.933 161.443 218.093 161.133 218.2C160.824 218.296 160.504 218.344 160.173 218.344C159.832 218.344 159.496 218.28 159.165 218.152C158.845 218.013 158.579 217.805 158.365 217.528C158.163 217.24 158.061 216.867 158.061 216.408C158.061 215.971 158.163 215.597 158.365 215.288C158.568 214.968 158.867 214.691 159.261 214.456C159.667 214.221 160.152 214.029 160.717 213.88C161.005 213.784 161.347 213.683 161.741 213.576C162.147 213.469 162.557 213.357 162.973 213.24C163.389 213.112 163.773 212.973 164.125 212.824C164.733 212.589 165.171 212.349 165.437 212.104C165.704 211.859 165.837 211.581 165.837 211.272C165.837 210.963 165.752 210.696 165.581 210.472C165.411 210.237 165.181 210.051 164.893 209.912C164.616 209.773 164.317 209.704 163.997 209.704C163.88 209.704 163.779 209.715 163.693 209.736C163.619 209.747 163.565 209.779 163.533 209.832C163.715 209.907 163.853 210.024 163.949 210.184C164.045 210.344 164.093 210.499 164.093 210.648C164.093 210.915 163.992 211.128 163.789 211.288C163.587 211.437 163.347 211.512 163.069 211.512C162.813 211.512 162.584 211.437 162.381 211.288C162.179 211.139 162.077 210.92 162.077 210.632C162.077 210.355 162.168 210.131 162.349 209.96C162.531 209.779 162.76 209.651 163.037 209.576C163.325 209.491 163.619 209.448 163.917 209.448ZM172.758 209.672C173.004 209.683 173.318 209.693 173.702 209.704C174.097 209.715 174.486 209.72 174.87 209.72C175.382 209.72 175.868 209.715 176.326 209.704C176.796 209.693 177.126 209.688 177.318 209.688C178.673 209.688 179.686 209.981 180.358 210.568C181.03 211.155 181.366 211.912 181.366 212.84C181.366 213.224 181.297 213.629 181.158 214.056C181.03 214.472 180.801 214.861 180.47 215.224C180.14 215.576 179.692 215.864 179.126 216.088C178.561 216.312 177.841 216.424 176.966 216.424H175.398V216.104H176.806C177.521 216.104 178.065 215.96 178.438 215.672C178.822 215.384 179.078 215.005 179.206 214.536C179.345 214.067 179.414 213.56 179.414 213.016C179.414 212.003 179.233 211.245 178.87 210.744C178.508 210.243 177.878 209.992 176.982 209.992C176.524 209.992 176.22 210.083 176.07 210.264C175.932 210.445 175.862 210.813 175.862 211.368V219.272C175.862 219.667 175.905 219.965 175.99 220.168C176.076 220.36 176.236 220.488 176.47 220.552C176.705 220.616 177.052 220.653 177.51 220.664V221C177.222 220.979 176.849 220.968 176.39 220.968C175.932 220.957 175.457 220.952 174.966 220.952C174.54 220.952 174.129 220.957 173.734 220.968C173.35 220.968 173.025 220.979 172.758 221V220.68C173.121 220.659 173.393 220.616 173.574 220.552C173.756 220.488 173.873 220.36 173.926 220.168C173.99 219.976 174.022 219.688 174.022 219.304V211.368C174.022 210.973 173.99 210.685 173.926 210.504C173.873 210.312 173.75 210.184 173.558 210.12C173.377 210.045 173.11 210.003 172.758 209.992V209.672ZM186.788 212.52C187.726 212.52 188.462 212.803 188.996 213.368C189.529 213.933 189.796 214.829 189.796 216.056H184.276L184.244 215.752H188.1C188.11 215.229 188.068 214.749 187.972 214.312C187.876 213.864 187.726 213.507 187.524 213.24C187.321 212.973 187.054 212.84 186.724 212.84C186.265 212.84 185.865 213.085 185.524 213.576C185.193 214.056 184.99 214.829 184.916 215.896L184.964 215.976C184.953 216.125 184.942 216.291 184.932 216.472C184.921 216.643 184.916 216.813 184.916 216.984C184.916 217.72 185.028 218.339 185.252 218.84C185.476 219.341 185.769 219.72 186.132 219.976C186.494 220.221 186.862 220.344 187.236 220.344C187.524 220.344 187.801 220.301 188.068 220.216C188.345 220.12 188.606 219.965 188.852 219.752C189.097 219.528 189.316 219.224 189.508 218.84L189.828 218.968C189.7 219.331 189.502 219.688 189.236 220.04C188.969 220.392 188.628 220.68 188.212 220.904C187.796 221.117 187.31 221.224 186.756 221.224C186.009 221.224 185.358 221.059 184.804 220.728C184.249 220.387 183.822 219.901 183.524 219.272C183.225 218.643 183.076 217.896 183.076 217.032C183.076 216.083 183.23 215.272 183.54 214.6C183.849 213.928 184.281 213.416 184.836 213.064C185.401 212.701 186.052 212.52 186.788 212.52ZM196.818 212.52C197.128 212.52 197.389 212.584 197.602 212.712C197.826 212.84 197.992 213.005 198.098 213.208C198.216 213.4 198.274 213.619 198.274 213.864C198.274 214.173 198.178 214.44 197.986 214.664C197.805 214.877 197.56 214.984 197.25 214.984C196.984 214.984 196.754 214.904 196.562 214.744C196.381 214.584 196.29 214.365 196.29 214.088C196.29 213.853 196.349 213.656 196.466 213.496C196.594 213.325 196.738 213.192 196.898 213.096C196.792 213.011 196.664 212.973 196.514 212.984C196.226 212.995 195.96 213.091 195.714 213.272C195.469 213.443 195.261 213.667 195.09 213.944C194.92 214.211 194.786 214.499 194.69 214.808C194.594 215.117 194.546 215.405 194.546 215.672V219.352C194.546 219.875 194.69 220.227 194.978 220.408C195.266 220.579 195.666 220.664 196.178 220.664V221C195.933 220.989 195.581 220.979 195.122 220.968C194.674 220.947 194.2 220.936 193.698 220.936C193.314 220.936 192.93 220.947 192.546 220.968C192.162 220.979 191.869 220.989 191.666 221V220.664C192.082 220.664 192.376 220.584 192.546 220.424C192.728 220.264 192.818 219.96 192.818 219.512V214.488C192.818 214.008 192.738 213.656 192.578 213.432C192.418 213.197 192.114 213.08 191.666 213.08V212.744C192.008 212.776 192.338 212.792 192.658 212.792C193.021 212.792 193.357 212.776 193.666 212.744C193.986 212.701 194.28 212.643 194.546 212.568V214.408C194.674 214.099 194.845 213.8 195.058 213.512C195.272 213.224 195.528 212.989 195.826 212.808C196.125 212.616 196.456 212.52 196.818 212.52ZM202.109 208.456V219.512C202.109 219.96 202.184 220.264 202.333 220.424C202.493 220.584 202.76 220.664 203.133 220.664V221C202.952 220.989 202.68 220.979 202.317 220.968C201.965 220.947 201.608 220.936 201.245 220.936C200.872 220.936 200.488 220.947 200.093 220.968C199.709 220.979 199.421 220.989 199.229 221V220.664C199.645 220.664 199.939 220.584 200.109 220.424C200.291 220.264 200.381 219.96 200.381 219.512V210.376C200.381 209.896 200.296 209.544 200.125 209.32C199.965 209.085 199.667 208.968 199.229 208.968V208.632C199.571 208.664 199.901 208.68 200.221 208.68C200.573 208.68 200.909 208.664 201.229 208.632C201.549 208.589 201.843 208.531 202.109 208.456ZM207.229 212.744V213.064C206.941 213.107 206.664 213.203 206.397 213.352C206.131 213.501 205.869 213.709 205.613 213.976L203.693 215.992L203.901 215.592L206.797 219.832C206.957 220.056 207.112 220.243 207.261 220.392C207.411 220.531 207.597 220.621 207.821 220.664V221C207.683 220.989 207.475 220.979 207.197 220.968C206.931 220.947 206.664 220.936 206.397 220.936C206.045 220.936 205.688 220.947 205.325 220.968C204.963 220.979 204.696 220.989 204.525 221V220.664C204.739 220.664 204.883 220.611 204.957 220.504C205.043 220.397 205.032 220.269 204.925 220.12L203.165 217.368C202.984 217.112 202.819 216.947 202.669 216.872C202.52 216.797 202.307 216.755 202.029 216.744V216.424C202.339 216.392 202.589 216.333 202.781 216.248C202.984 216.163 203.171 216.024 203.341 215.832L204.541 214.616C204.883 214.275 205.053 213.992 205.053 213.768C205.053 213.533 204.941 213.363 204.717 213.256C204.504 213.139 204.216 213.075 203.853 213.064V212.744C204.141 212.755 204.456 212.771 204.797 212.792C205.149 212.803 205.443 212.808 205.677 212.808C205.869 212.808 206.061 212.808 206.253 212.808C206.456 212.797 206.643 212.787 206.813 212.776C206.984 212.765 207.123 212.755 207.229 212.744ZM212.102 212.52C212.528 212.52 212.896 212.589 213.206 212.728C213.526 212.856 213.755 212.973 213.894 213.08C214.246 213.357 214.464 213.176 214.55 212.536H214.902C214.88 212.835 214.864 213.197 214.854 213.624C214.843 214.04 214.838 214.595 214.838 215.288H214.486C214.422 214.893 214.31 214.509 214.15 214.136C214 213.763 213.776 213.453 213.478 213.208C213.19 212.963 212.811 212.84 212.342 212.84C211.99 212.84 211.696 212.941 211.462 213.144C211.227 213.336 211.11 213.624 211.11 214.008C211.11 214.328 211.206 214.605 211.398 214.84C211.59 215.075 211.835 215.293 212.134 215.496C212.443 215.699 212.774 215.917 213.126 216.152C213.52 216.419 213.872 216.685 214.182 216.952C214.502 217.208 214.752 217.496 214.934 217.816C215.126 218.136 215.222 218.509 215.222 218.936C215.222 219.427 215.088 219.843 214.822 220.184C214.566 220.525 214.224 220.787 213.798 220.968C213.371 221.139 212.902 221.224 212.39 221.224C212.134 221.224 211.894 221.197 211.67 221.144C211.446 221.101 211.238 221.043 211.046 220.968C210.928 220.904 210.811 220.84 210.694 220.776C210.587 220.701 210.48 220.632 210.374 220.568C210.267 220.493 210.171 220.504 210.086 220.6C210 220.696 209.936 220.867 209.894 221.112H209.542C209.563 220.771 209.579 220.355 209.59 219.864C209.6 219.373 209.606 218.723 209.606 217.912H209.958C210.032 218.499 210.144 219.016 210.294 219.464C210.443 219.912 210.662 220.264 210.95 220.52C211.248 220.765 211.654 220.888 212.166 220.888C212.368 220.888 212.571 220.845 212.774 220.76C212.976 220.664 213.142 220.515 213.27 220.312C213.408 220.109 213.478 219.837 213.478 219.496C213.478 219.027 213.312 218.643 212.982 218.344C212.662 218.035 212.246 217.709 211.734 217.368C211.371 217.112 211.024 216.861 210.694 216.616C210.374 216.36 210.112 216.077 209.91 215.768C209.707 215.448 209.606 215.069 209.606 214.632C209.606 214.152 209.718 213.757 209.942 213.448C210.176 213.139 210.486 212.909 210.87 212.76C211.254 212.6 211.664 212.52 212.102 212.52Z" fill="#C04BE2"/>
<path d="M87.1165 255V244.92H93.4165V245.907H88.1455V249.393H92.5765V250.38H88.1455V254.013H93.4165V255H87.1165ZM97.9639 255.21C97.3946 255.21 96.9162 255.107 96.5289 254.902C96.1462 254.697 95.8592 254.424 95.6679 254.083C95.4766 253.742 95.3809 253.371 95.3809 252.97C95.3809 252.559 95.4626 252.209 95.6259 251.92C95.7939 251.626 96.0202 251.386 96.3049 251.199C96.5942 251.012 96.9279 250.87 97.3059 250.772C97.6886 250.679 98.1109 250.597 98.5729 250.527C99.0396 250.452 99.4946 250.389 99.9379 250.338C100.386 250.282 100.778 250.228 101.114 250.177L100.75 250.401C100.764 249.654 100.619 249.101 100.316 248.742C100.013 248.383 99.4852 248.203 98.7339 248.203C98.2159 248.203 97.7772 248.32 97.4179 248.553C97.0632 248.786 96.8136 249.155 96.6689 249.659L95.6679 249.365C95.8406 248.688 96.1882 248.163 96.7109 247.79C97.2336 247.417 97.9126 247.23 98.7479 247.23C99.4386 247.23 100.024 247.361 100.505 247.622C100.99 247.879 101.333 248.252 101.534 248.742C101.627 248.961 101.688 249.206 101.716 249.477C101.744 249.748 101.758 250.023 101.758 250.303V255H100.841V253.103L101.107 253.215C100.85 253.864 100.451 254.358 99.9099 254.699C99.3686 255.04 98.7199 255.21 97.9639 255.21ZM98.0829 254.321C98.5636 254.321 98.9836 254.235 99.3429 254.062C99.7022 253.889 99.9916 253.654 100.211 253.355C100.43 253.052 100.573 252.711 100.638 252.333C100.694 252.09 100.724 251.824 100.729 251.535C100.734 251.241 100.736 251.022 100.736 250.877L101.128 251.08C100.778 251.127 100.398 251.173 99.9869 251.22C99.5809 251.267 99.1796 251.32 98.7829 251.381C98.3909 251.442 98.0362 251.514 97.7189 251.598C97.5042 251.659 97.2966 251.745 97.0959 251.857C96.8952 251.964 96.7296 252.109 96.5989 252.291C96.4729 252.473 96.4099 252.699 96.4099 252.97C96.4099 253.189 96.4636 253.402 96.5709 253.607C96.6829 253.812 96.8602 253.983 97.1029 254.118C97.3502 254.253 97.6769 254.321 98.0829 254.321ZM107.101 255.203C106.215 255.203 105.484 255.012 104.91 254.629C104.341 254.246 103.991 253.714 103.86 253.033L104.91 252.858C105.022 253.287 105.277 253.63 105.673 253.887C106.075 254.139 106.569 254.265 107.157 254.265C107.731 254.265 108.184 254.146 108.515 253.908C108.847 253.665 109.012 253.336 109.012 252.921C109.012 252.688 108.959 252.499 108.851 252.354C108.749 252.205 108.536 252.067 108.214 251.941C107.892 251.815 107.412 251.666 106.772 251.493C106.086 251.306 105.55 251.12 105.162 250.933C104.775 250.746 104.5 250.532 104.336 250.289C104.173 250.042 104.091 249.741 104.091 249.386C104.091 248.957 104.213 248.581 104.455 248.259C104.698 247.932 105.034 247.68 105.463 247.503C105.893 247.321 106.392 247.23 106.961 247.23C107.531 247.23 108.039 247.323 108.487 247.51C108.94 247.692 109.304 247.949 109.579 248.28C109.855 248.611 110.018 248.996 110.069 249.435L109.019 249.624C108.949 249.181 108.728 248.831 108.354 248.574C107.986 248.313 107.517 248.177 106.947 248.168C106.411 248.154 105.974 248.257 105.638 248.476C105.302 248.691 105.134 248.978 105.134 249.337C105.134 249.538 105.195 249.71 105.316 249.855C105.438 249.995 105.657 250.128 105.974 250.254C106.296 250.38 106.754 250.518 107.346 250.667C108.042 250.844 108.588 251.031 108.984 251.227C109.381 251.423 109.663 251.654 109.831 251.92C109.999 252.186 110.083 252.515 110.083 252.907C110.083 253.621 109.817 254.183 109.285 254.594C108.758 255 108.03 255.203 107.101 255.203ZM113.14 258.36L114.603 254.391L114.624 255.567L111.313 247.44H112.405L115.121 254.237H114.673L117.179 247.44H118.229L114.169 258.36H113.14ZM127.764 255C127.339 255.089 126.919 255.124 126.504 255.105C126.093 255.086 125.724 254.998 125.398 254.839C125.076 254.68 124.831 254.433 124.663 254.097C124.527 253.817 124.453 253.535 124.439 253.25C124.429 252.961 124.425 252.632 124.425 252.263V245.34H125.447V252.221C125.447 252.538 125.449 252.804 125.454 253.019C125.463 253.229 125.512 253.416 125.601 253.579C125.769 253.892 126.035 254.078 126.399 254.139C126.767 254.2 127.222 254.186 127.764 254.097V255ZM122.808 248.322V247.44H127.764V248.322H122.808ZM132.837 255.21C132.085 255.21 131.444 255.04 130.912 254.699C130.38 254.358 129.971 253.887 129.687 253.285C129.402 252.683 129.26 251.992 129.26 251.213C129.26 250.42 129.404 249.724 129.694 249.127C129.983 248.53 130.394 248.065 130.926 247.734C131.462 247.398 132.099 247.23 132.837 247.23C133.593 247.23 134.237 247.4 134.769 247.741C135.305 248.077 135.714 248.546 135.994 249.148C136.278 249.745 136.421 250.434 136.421 251.213C136.421 252.006 136.278 252.704 135.994 253.306C135.709 253.903 135.298 254.37 134.762 254.706C134.225 255.042 133.583 255.21 132.837 255.21ZM132.837 254.223C133.677 254.223 134.302 253.945 134.713 253.39C135.123 252.83 135.329 252.104 135.329 251.213C135.329 250.298 135.121 249.57 134.706 249.029C134.295 248.488 133.672 248.217 132.837 248.217C132.272 248.217 131.805 248.345 131.437 248.602C131.073 248.854 130.8 249.206 130.618 249.659C130.44 250.107 130.352 250.625 130.352 251.213C130.352 252.123 130.562 252.853 130.982 253.404C131.402 253.95 132.02 254.223 132.837 254.223ZM142.308 255V244.71H143.337V255H142.308ZM149.334 255.21C148.597 255.21 147.958 255.047 147.416 254.72C146.88 254.393 146.462 253.934 146.163 253.341C145.865 252.748 145.715 252.053 145.715 251.255C145.715 250.429 145.862 249.715 146.156 249.113C146.45 248.511 146.863 248.047 147.395 247.72C147.932 247.393 148.564 247.23 149.292 247.23C150.039 247.23 150.676 247.403 151.203 247.748C151.731 248.089 152.13 248.579 152.4 249.218C152.671 249.857 152.795 250.62 152.771 251.507H151.721V251.143C151.703 250.163 151.49 249.423 151.084 248.924C150.683 248.425 150.095 248.175 149.32 248.175C148.508 248.175 147.885 248.439 147.451 248.966C147.022 249.493 146.807 250.245 146.807 251.22C146.807 252.172 147.022 252.912 147.451 253.439C147.885 253.962 148.499 254.223 149.292 254.223C149.834 254.223 150.305 254.099 150.706 253.852C151.112 253.6 151.432 253.238 151.665 252.767L152.624 253.138C152.326 253.796 151.885 254.307 151.301 254.671C150.723 255.03 150.067 255.21 149.334 255.21ZM146.443 251.507V250.646H152.218V251.507H146.443ZM157.051 255.21C156.482 255.21 156.003 255.107 155.616 254.902C155.233 254.697 154.946 254.424 154.755 254.083C154.564 253.742 154.468 253.371 154.468 252.97C154.468 252.559 154.55 252.209 154.713 251.92C154.881 251.626 155.107 251.386 155.392 251.199C155.681 251.012 156.015 250.87 156.393 250.772C156.776 250.679 157.198 250.597 157.66 250.527C158.127 250.452 158.582 250.389 159.025 250.338C159.473 250.282 159.865 250.228 160.201 250.177L159.837 250.401C159.851 249.654 159.706 249.101 159.403 248.742C159.1 248.383 158.572 248.203 157.821 248.203C157.303 248.203 156.864 248.32 156.505 248.553C156.15 248.786 155.901 249.155 155.756 249.659L154.755 249.365C154.928 248.688 155.275 248.163 155.798 247.79C156.321 247.417 157 247.23 157.835 247.23C158.526 247.23 159.111 247.361 159.592 247.622C160.077 247.879 160.42 248.252 160.621 248.742C160.714 248.961 160.775 249.206 160.803 249.477C160.831 249.748 160.845 250.023 160.845 250.303V255H159.928V253.103L160.194 253.215C159.937 253.864 159.538 254.358 158.997 254.699C158.456 255.04 157.807 255.21 157.051 255.21ZM157.17 254.321C157.651 254.321 158.071 254.235 158.43 254.062C158.789 253.889 159.079 253.654 159.298 253.355C159.517 253.052 159.66 252.711 159.725 252.333C159.781 252.09 159.811 251.824 159.816 251.535C159.821 251.241 159.823 251.022 159.823 250.877L160.215 251.08C159.865 251.127 159.485 251.173 159.074 251.22C158.668 251.267 158.267 251.32 157.87 251.381C157.478 251.442 157.123 251.514 156.806 251.598C156.591 251.659 156.384 251.745 156.183 251.857C155.982 251.964 155.817 252.109 155.686 252.291C155.56 252.473 155.497 252.699 155.497 252.97C155.497 253.189 155.551 253.402 155.658 253.607C155.77 253.812 155.947 253.983 156.19 254.118C156.437 254.253 156.764 254.321 157.17 254.321ZM163.367 255V247.44H164.291V249.26L164.109 249.022C164.193 248.798 164.303 248.593 164.438 248.406C164.574 248.215 164.721 248.058 164.879 247.937C165.075 247.764 165.304 247.634 165.565 247.545C165.827 247.452 166.09 247.398 166.356 247.384C166.622 247.365 166.865 247.384 167.084 247.44V248.406C166.809 248.336 166.508 248.32 166.181 248.357C165.855 248.394 165.554 248.525 165.278 248.749C165.026 248.945 164.837 249.181 164.711 249.456C164.585 249.727 164.501 250.016 164.459 250.324C164.417 250.627 164.396 250.928 164.396 251.227V255H163.367ZM174.572 255V251.143C174.572 250.723 174.533 250.338 174.453 249.988C174.374 249.633 174.246 249.325 174.068 249.064C173.896 248.798 173.669 248.593 173.389 248.448C173.114 248.303 172.778 248.231 172.381 248.231C172.017 248.231 171.695 248.294 171.415 248.42C171.14 248.546 170.907 248.728 170.715 248.966C170.529 249.199 170.386 249.484 170.288 249.82C170.19 250.156 170.141 250.539 170.141 250.968L169.413 250.807C169.413 250.032 169.549 249.381 169.819 248.854C170.09 248.327 170.463 247.928 170.939 247.657C171.415 247.386 171.961 247.251 172.577 247.251C173.03 247.251 173.424 247.321 173.76 247.461C174.101 247.601 174.388 247.79 174.621 248.028C174.859 248.266 175.051 248.539 175.195 248.847C175.34 249.15 175.445 249.475 175.51 249.82C175.576 250.161 175.608 250.501 175.608 250.842V255H174.572ZM169.105 255V247.44H170.036V249.302H170.141V255H169.105ZM177.985 256.463L178.048 255.952C178.234 255.966 178.37 255.929 178.454 255.84C178.538 255.751 178.589 255.632 178.608 255.483C178.626 255.334 178.631 255.173 178.622 255H177.985V253.523H179.182V255.28C179.182 255.709 179.072 256.031 178.853 256.246C178.638 256.461 178.349 256.533 177.985 256.463ZM64.8882 274V270.143C64.8882 269.723 64.8486 269.338 64.7692 268.988C64.6899 268.633 64.5616 268.325 64.3842 268.064C64.2116 267.798 63.9852 267.593 63.7052 267.448C63.4299 267.303 63.0939 267.231 62.6972 267.231C62.3332 267.231 62.0112 267.294 61.7312 267.42C61.4559 267.546 61.2226 267.728 61.0312 267.966C60.8446 268.199 60.7022 268.484 60.6042 268.82C60.5062 269.156 60.4572 269.539 60.4572 269.968L59.7292 269.807C59.7292 269.032 59.8646 268.381 60.1352 267.854C60.4059 267.327 60.7792 266.928 61.2552 266.657C61.7312 266.386 62.2772 266.251 62.8932 266.251C63.3459 266.251 63.7402 266.321 64.0762 266.461C64.4169 266.601 64.7039 266.79 64.9372 267.028C65.1752 267.266 65.3666 267.539 65.5112 267.847C65.6559 268.15 65.7609 268.475 65.8262 268.82C65.8916 269.161 65.9242 269.501 65.9242 269.842V274H64.8882ZM59.4212 274V263.92H60.3522V269.611H60.4572V274H59.4212ZM68.5807 265.005V263.85H69.6097V265.005H68.5807ZM68.5807 274V266.44H69.6097V274H68.5807ZM75.4113 277.57C75.024 277.57 74.6413 277.512 74.2633 277.395C73.89 277.283 73.5447 277.103 73.2273 276.856C72.91 276.613 72.644 276.296 72.4293 275.904L73.3603 275.386C73.5703 275.806 73.8643 276.107 74.2423 276.289C74.625 276.476 75.0147 276.569 75.4113 276.569C75.9573 276.569 76.3983 276.466 76.7343 276.261C77.075 276.06 77.3223 275.762 77.4763 275.365C77.6303 274.968 77.705 274.474 77.7003 273.881V271.865H77.8193V266.44H78.7363V273.895C78.7363 274.11 78.7293 274.315 78.7153 274.511C78.706 274.712 78.685 274.908 78.6523 275.099C78.5637 275.664 78.3793 276.128 78.0993 276.492C77.824 276.856 77.46 277.127 77.0073 277.304C76.5593 277.481 76.0273 277.57 75.4113 277.57ZM75.3413 274.21C74.6367 274.21 74.0347 274.035 73.5353 273.685C73.036 273.33 72.6533 272.852 72.3873 272.25C72.1213 271.648 71.9883 270.969 71.9883 270.213C71.9883 269.462 72.119 268.785 72.3803 268.183C72.6463 267.581 73.0267 267.105 73.5213 266.755C74.016 266.405 74.6087 266.23 75.2993 266.23C76.0087 266.23 76.606 266.403 77.0913 266.748C77.5767 267.093 77.943 267.567 78.1903 268.169C78.4423 268.766 78.5683 269.448 78.5683 270.213C78.5683 270.964 78.4447 271.643 78.1973 272.25C77.95 272.852 77.586 273.33 77.1053 273.685C76.6247 274.035 76.0367 274.21 75.3413 274.21ZM75.4463 273.251C75.983 273.251 76.4263 273.12 76.7763 272.859C77.1263 272.598 77.3877 272.238 77.5603 271.781C77.733 271.319 77.8193 270.796 77.8193 270.213C77.8193 269.62 77.733 269.098 77.5603 268.645C77.3877 268.188 77.1263 267.831 76.7763 267.574C76.431 267.317 75.9947 267.189 75.4673 267.189C74.926 267.189 74.478 267.322 74.1233 267.588C73.7687 267.854 73.505 268.216 73.3323 268.673C73.1643 269.13 73.0803 269.644 73.0803 270.213C73.0803 270.787 73.1667 271.305 73.3393 271.767C73.5167 272.224 73.7803 272.586 74.1303 272.852C74.4803 273.118 74.919 273.251 75.4463 273.251ZM86.8535 274V270.143C86.8535 269.723 86.8138 269.338 86.7345 268.988C86.6551 268.633 86.5268 268.325 86.3495 268.064C86.1768 267.798 85.9505 267.593 85.6705 267.448C85.3951 267.303 85.0591 267.231 84.6625 267.231C84.2985 267.231 83.9765 267.294 83.6965 267.42C83.4211 267.546 83.1878 267.728 82.9965 267.966C82.8098 268.199 82.6675 268.484 82.5695 268.82C82.4715 269.156 82.4225 269.539 82.4225 269.968L81.6945 269.807C81.6945 269.032 81.8298 268.381 82.1005 267.854C82.3711 267.327 82.7445 266.928 83.2205 266.657C83.6965 266.386 84.2425 266.251 84.8585 266.251C85.3111 266.251 85.7055 266.321 86.0415 266.461C86.3821 266.601 86.6691 266.79 86.9025 267.028C87.1405 267.266 87.3318 267.539 87.4765 267.847C87.6211 268.15 87.7261 268.475 87.7915 268.82C87.8568 269.161 87.8895 269.501 87.8895 269.842V274H86.8535ZM81.3865 274V263.92H82.3175V269.611H82.4225V274H81.3865ZM90.266 270.031V269.149H94.466V270.031H90.266ZM100.38 274.21C99.6845 274.21 99.0965 274.035 98.6159 273.685C98.1352 273.33 97.7712 272.852 97.5239 272.25C97.2765 271.643 97.1529 270.964 97.1529 270.213C97.1529 269.448 97.2765 268.766 97.5239 268.169C97.7759 267.567 98.1445 267.093 98.6299 266.748C99.1152 266.403 99.7125 266.23 100.422 266.23C101.113 266.23 101.705 266.405 102.2 266.755C102.695 267.105 103.073 267.581 103.334 268.183C103.6 268.785 103.733 269.462 103.733 270.213C103.733 270.969 103.6 271.648 103.334 272.25C103.068 272.852 102.685 273.33 102.186 273.685C101.687 274.035 101.085 274.21 100.38 274.21ZM96.9779 277.36V266.44H97.9019V272.131H98.0139V277.36H96.9779ZM100.275 273.251C100.802 273.251 101.241 273.118 101.591 272.852C101.941 272.586 102.202 272.224 102.375 271.767C102.552 271.305 102.641 270.787 102.641 270.213C102.641 269.644 102.555 269.13 102.382 268.673C102.209 268.216 101.946 267.854 101.591 267.588C101.241 267.322 100.795 267.189 100.254 267.189C99.7265 267.189 99.2879 267.317 98.9379 267.574C98.5925 267.831 98.3335 268.188 98.1609 268.645C97.9882 269.098 97.9019 269.62 97.9019 270.213C97.9019 270.796 97.9882 271.319 98.1609 271.781C98.3335 272.238 98.5949 272.598 98.9449 272.859C99.2949 273.12 99.7382 273.251 100.275 273.251ZM108.133 274.21C107.564 274.21 107.085 274.107 106.698 273.902C106.315 273.697 106.028 273.424 105.837 273.083C105.646 272.742 105.55 272.371 105.55 271.97C105.55 271.559 105.632 271.209 105.795 270.92C105.963 270.626 106.189 270.386 106.474 270.199C106.763 270.012 107.097 269.87 107.475 269.772C107.858 269.679 108.28 269.597 108.742 269.527C109.209 269.452 109.664 269.389 110.107 269.338C110.555 269.282 110.947 269.228 111.283 269.177L110.919 269.401C110.933 268.654 110.788 268.101 110.485 267.742C110.182 267.383 109.654 267.203 108.903 267.203C108.385 267.203 107.946 267.32 107.587 267.553C107.232 267.786 106.983 268.155 106.838 268.659L105.837 268.365C106.01 267.688 106.357 267.163 106.88 266.79C107.403 266.417 108.082 266.23 108.917 266.23C109.608 266.23 110.193 266.361 110.674 266.622C111.159 266.879 111.502 267.252 111.703 267.742C111.796 267.961 111.857 268.206 111.885 268.477C111.913 268.748 111.927 269.023 111.927 269.303V274H111.01V272.103L111.276 272.215C111.019 272.864 110.62 273.358 110.079 273.699C109.538 274.04 108.889 274.21 108.133 274.21ZM108.252 273.321C108.733 273.321 109.153 273.235 109.512 273.062C109.871 272.889 110.161 272.654 110.38 272.355C110.599 272.052 110.742 271.711 110.807 271.333C110.863 271.09 110.893 270.824 110.898 270.535C110.903 270.241 110.905 270.022 110.905 269.877L111.297 270.08C110.947 270.127 110.567 270.173 110.156 270.22C109.75 270.267 109.349 270.32 108.952 270.381C108.56 270.442 108.205 270.514 107.888 270.598C107.673 270.659 107.466 270.745 107.265 270.857C107.064 270.964 106.899 271.109 106.768 271.291C106.642 271.473 106.579 271.699 106.579 271.97C106.579 272.189 106.633 272.402 106.74 272.607C106.852 272.812 107.029 272.983 107.272 273.118C107.519 273.253 107.846 273.321 108.252 273.321ZM115.104 277.36L116.567 273.391L116.588 274.567L113.277 266.44H114.369L117.085 273.237H116.637L119.143 266.44H120.193L116.133 277.36H115.104ZM122.248 265.005V263.85H123.277V265.005H122.248ZM122.248 274V266.44H123.277V274H122.248ZM131.536 274V270.143C131.536 269.723 131.496 269.338 131.417 268.988C131.338 268.633 131.209 268.325 131.032 268.064C130.859 267.798 130.633 267.593 130.353 267.448C130.078 267.303 129.742 267.231 129.345 267.231C128.981 267.231 128.659 267.294 128.379 267.42C128.104 267.546 127.87 267.728 127.679 267.966C127.492 268.199 127.35 268.484 127.252 268.82C127.154 269.156 127.105 269.539 127.105 269.968L126.377 269.807C126.377 269.032 126.512 268.381 126.783 267.854C127.054 267.327 127.427 266.928 127.903 266.657C128.379 266.386 128.925 266.251 129.541 266.251C129.994 266.251 130.388 266.321 130.724 266.461C131.065 266.601 131.352 266.79 131.585 267.028C131.823 267.266 132.014 267.539 132.159 267.847C132.304 268.15 132.409 268.475 132.474 268.82C132.539 269.161 132.572 269.501 132.572 269.842V274H131.536ZM126.069 274V266.44H127V268.302H127.105V274H126.069ZM138.091 277.57C137.704 277.57 137.321 277.512 136.943 277.395C136.57 277.283 136.225 277.103 135.907 276.856C135.59 276.613 135.324 276.296 135.109 275.904L136.04 275.386C136.25 275.806 136.544 276.107 136.922 276.289C137.305 276.476 137.695 276.569 138.091 276.569C138.637 276.569 139.078 276.466 139.414 276.261C139.755 276.06 140.002 275.762 140.156 275.365C140.31 274.968 140.385 274.474 140.38 273.881V271.865H140.499V266.44H141.416V273.895C141.416 274.11 141.409 274.315 141.395 274.511C141.386 274.712 141.365 274.908 141.332 275.099C141.244 275.664 141.059 276.128 140.779 276.492C140.504 276.856 140.14 277.127 139.687 277.304C139.239 277.481 138.707 277.57 138.091 277.57ZM138.021 274.21C137.317 274.21 136.715 274.035 136.215 273.685C135.716 273.33 135.333 272.852 135.067 272.25C134.801 271.648 134.668 270.969 134.668 270.213C134.668 269.462 134.799 268.785 135.06 268.183C135.326 267.581 135.707 267.105 136.201 266.755C136.696 266.405 137.289 266.23 137.979 266.23C138.689 266.23 139.286 266.403 139.771 266.748C140.257 267.093 140.623 267.567 140.87 268.169C141.122 268.766 141.248 269.448 141.248 270.213C141.248 270.964 141.125 271.643 140.877 272.25C140.63 272.852 140.266 273.33 139.785 273.685C139.305 274.035 138.717 274.21 138.021 274.21ZM138.126 273.251C138.663 273.251 139.106 273.12 139.456 272.859C139.806 272.598 140.068 272.238 140.24 271.781C140.413 271.319 140.499 270.796 140.499 270.213C140.499 269.62 140.413 269.098 140.24 268.645C140.068 268.188 139.806 267.831 139.456 267.574C139.111 267.317 138.675 267.189 138.147 267.189C137.606 267.189 137.158 267.322 136.803 267.588C136.449 267.854 136.185 268.216 136.012 268.673C135.844 269.13 135.76 269.644 135.76 270.213C135.76 270.787 135.847 271.305 136.019 271.767C136.197 272.224 136.46 272.586 136.81 272.852C137.16 273.118 137.599 273.251 138.126 273.251ZM143.934 275.463L143.997 274.952C144.183 274.966 144.319 274.929 144.403 274.84C144.487 274.751 144.538 274.632 144.557 274.483C144.575 274.334 144.58 274.173 144.571 274H143.934V272.523H145.131V274.28C145.131 274.709 145.021 275.031 144.802 275.246C144.587 275.461 144.298 275.533 143.934 275.463ZM154.158 274.21C153.589 274.21 153.11 274.107 152.723 273.902C152.34 273.697 152.053 273.424 151.862 273.083C151.671 272.742 151.575 272.371 151.575 271.97C151.575 271.559 151.657 271.209 151.82 270.92C151.988 270.626 152.214 270.386 152.499 270.199C152.788 270.012 153.122 269.87 153.5 269.772C153.883 269.679 154.305 269.597 154.767 269.527C155.234 269.452 155.689 269.389 156.132 269.338C156.58 269.282 156.972 269.228 157.308 269.177L156.944 269.401C156.958 268.654 156.813 268.101 156.51 267.742C156.207 267.383 155.679 267.203 154.928 267.203C154.41 267.203 153.971 267.32 153.612 267.553C153.257 267.786 153.008 268.155 152.863 268.659L151.862 268.365C152.035 267.688 152.382 267.163 152.905 266.79C153.428 266.417 154.107 266.23 154.942 266.23C155.633 266.23 156.218 266.361 156.699 266.622C157.184 266.879 157.527 267.252 157.728 267.742C157.821 267.961 157.882 268.206 157.91 268.477C157.938 268.748 157.952 269.023 157.952 269.303V274H157.035V272.103L157.301 272.215C157.044 272.864 156.645 273.358 156.104 273.699C155.563 274.04 154.914 274.21 154.158 274.21ZM154.277 273.321C154.758 273.321 155.178 273.235 155.537 273.062C155.896 272.889 156.186 272.654 156.405 272.355C156.624 272.052 156.767 271.711 156.832 271.333C156.888 271.09 156.918 270.824 156.923 270.535C156.928 270.241 156.93 270.022 156.93 269.877L157.322 270.08C156.972 270.127 156.592 270.173 156.181 270.22C155.775 270.267 155.374 270.32 154.977 270.381C154.585 270.442 154.23 270.514 153.913 270.598C153.698 270.659 153.491 270.745 153.29 270.857C153.089 270.964 152.924 271.109 152.793 271.291C152.667 271.473 152.604 271.699 152.604 271.97C152.604 272.189 152.658 272.402 152.765 272.607C152.877 272.812 153.054 272.983 153.297 273.118C153.544 273.253 153.871 273.321 154.277 273.321ZM165.934 274V270.143C165.934 269.723 165.895 269.338 165.815 268.988C165.736 268.633 165.608 268.325 165.43 268.064C165.258 267.798 165.031 267.593 164.751 267.448C164.476 267.303 164.14 267.231 163.743 267.231C163.379 267.231 163.057 267.294 162.777 267.42C162.502 267.546 162.269 267.728 162.077 267.966C161.891 268.199 161.748 268.484 161.65 268.82C161.552 269.156 161.503 269.539 161.503 269.968L160.775 269.807C160.775 269.032 160.911 268.381 161.181 267.854C161.452 267.327 161.825 266.928 162.301 266.657C162.777 266.386 163.323 266.251 163.939 266.251C164.392 266.251 164.786 266.321 165.122 266.461C165.463 266.601 165.75 266.79 165.983 267.028C166.221 267.266 166.413 267.539 166.557 267.847C166.702 268.15 166.807 268.475 166.872 268.82C166.938 269.161 166.97 269.501 166.97 269.842V274H165.934ZM160.467 274V266.44H161.398V268.302H161.503V274H160.467ZM172.365 274.21C171.66 274.21 171.058 274.035 170.559 273.685C170.06 273.33 169.677 272.852 169.411 272.25C169.145 271.648 169.012 270.969 169.012 270.213C169.012 269.462 169.143 268.785 169.404 268.183C169.67 267.581 170.05 267.105 170.545 266.755C171.04 266.405 171.632 266.23 172.323 266.23C173.032 266.23 173.63 266.403 174.115 266.748C174.6 267.093 174.967 267.567 175.214 268.169C175.466 268.766 175.592 269.448 175.592 270.213C175.592 270.964 175.468 271.643 175.221 272.25C174.974 272.852 174.61 273.33 174.129 273.685C173.648 274.035 173.06 274.21 172.365 274.21ZM172.47 273.251C173.007 273.251 173.45 273.12 173.8 272.859C174.15 272.598 174.411 272.238 174.584 271.781C174.757 271.319 174.843 270.796 174.843 270.213C174.843 269.62 174.757 269.098 174.584 268.645C174.411 268.188 174.15 267.831 173.8 267.574C173.455 267.317 173.018 267.189 172.491 267.189C171.95 267.189 171.502 267.322 171.147 267.588C170.792 267.854 170.529 268.216 170.356 268.673C170.188 269.13 170.104 269.644 170.104 270.213C170.104 270.787 170.19 271.305 170.363 271.767C170.54 272.224 170.804 272.586 171.154 272.852C171.504 273.118 171.943 273.251 172.47 273.251ZM174.843 274V268.309H174.731V263.92H175.767V274H174.843ZM182.683 274V265.88C182.683 265.684 182.692 265.49 182.711 265.299C182.734 265.108 182.778 264.926 182.844 264.753C182.909 264.576 183.012 264.412 183.152 264.263C183.306 264.095 183.474 263.974 183.656 263.899C183.838 263.82 184.027 263.768 184.223 263.745C184.423 263.722 184.619 263.71 184.811 263.71H185.777V264.578H184.881C184.489 264.578 184.195 264.674 183.999 264.865C183.807 265.056 183.712 265.357 183.712 265.768V274H182.683ZM181.374 267.322V266.44H185.777V267.322H181.374ZM189.555 274.21C188.985 274.21 188.507 274.107 188.12 273.902C187.737 273.697 187.45 273.424 187.259 273.083C187.067 272.742 186.972 272.371 186.972 271.97C186.972 271.559 187.053 271.209 187.217 270.92C187.385 270.626 187.611 270.386 187.896 270.199C188.185 270.012 188.519 269.87 188.897 269.772C189.279 269.679 189.702 269.597 190.164 269.527C190.63 269.452 191.085 269.389 191.529 269.338C191.977 269.282 192.369 269.228 192.705 269.177L192.341 269.401C192.355 268.654 192.21 268.101 191.907 267.742C191.603 267.383 191.076 267.203 190.325 267.203C189.807 267.203 189.368 267.32 189.009 267.553C188.654 267.786 188.404 268.155 188.26 268.659L187.259 268.365C187.431 267.688 187.779 267.163 188.302 266.79C188.824 266.417 189.503 266.23 190.339 266.23C191.029 266.23 191.615 266.361 192.096 266.622C192.581 266.879 192.924 267.252 193.125 267.742C193.218 267.961 193.279 268.206 193.307 268.477C193.335 268.748 193.349 269.023 193.349 269.303V274H192.432V272.103L192.698 272.215C192.441 272.864 192.042 273.358 191.501 273.699C190.959 274.04 190.311 274.21 189.555 274.21ZM189.674 273.321C190.154 273.321 190.574 273.235 190.934 273.062C191.293 272.889 191.582 272.654 191.802 272.355C192.021 272.052 192.163 271.711 192.229 271.333C192.285 271.09 192.315 270.824 192.32 270.535C192.324 270.241 192.327 270.022 192.327 269.877L192.719 270.08C192.369 270.127 191.988 270.173 191.578 270.22C191.172 270.267 190.77 270.32 190.374 270.381C189.982 270.442 189.627 270.514 189.31 270.598C189.095 270.659 188.887 270.745 188.687 270.857C188.486 270.964 188.32 271.109 188.19 271.291C188.064 271.473 188.001 271.699 188.001 271.97C188.001 272.189 188.054 272.402 188.162 272.607C188.274 272.812 188.451 272.983 188.694 273.118C188.941 273.253 189.268 273.321 189.674 273.321ZM198.692 274.203C197.805 274.203 197.075 274.012 196.501 273.629C195.931 273.246 195.581 272.714 195.451 272.033L196.501 271.858C196.613 272.287 196.867 272.63 197.264 272.887C197.665 273.139 198.16 273.265 198.748 273.265C199.322 273.265 199.774 273.146 200.106 272.908C200.437 272.665 200.603 272.336 200.603 271.921C200.603 271.688 200.549 271.499 200.442 271.354C200.339 271.205 200.127 271.067 199.805 270.941C199.483 270.815 199.002 270.666 198.363 270.493C197.677 270.306 197.14 270.12 196.753 269.933C196.365 269.746 196.09 269.532 195.927 269.289C195.763 269.042 195.682 268.741 195.682 268.386C195.682 267.957 195.803 267.581 196.046 267.259C196.288 266.932 196.624 266.68 197.054 266.503C197.483 266.321 197.982 266.23 198.552 266.23C199.121 266.23 199.63 266.323 200.078 266.51C200.53 266.692 200.894 266.949 201.17 267.28C201.445 267.611 201.608 267.996 201.66 268.435L200.61 268.624C200.54 268.181 200.318 267.831 199.945 267.574C199.576 267.313 199.107 267.177 198.538 267.168C198.001 267.154 197.565 267.257 197.229 267.476C196.893 267.691 196.725 267.978 196.725 268.337C196.725 268.538 196.785 268.71 196.907 268.855C197.028 268.995 197.247 269.128 197.565 269.254C197.887 269.38 198.344 269.518 198.937 269.667C199.632 269.844 200.178 270.031 200.575 270.227C200.971 270.423 201.254 270.654 201.422 270.92C201.59 271.186 201.674 271.515 201.674 271.907C201.674 272.621 201.408 273.183 200.876 273.594C200.348 274 199.62 274.203 198.692 274.203ZM208.042 274C207.618 274.089 207.198 274.124 206.782 274.105C206.372 274.086 206.003 273.998 205.676 273.839C205.354 273.68 205.109 273.433 204.941 273.097C204.806 272.817 204.731 272.535 204.717 272.25C204.708 271.961 204.703 271.632 204.703 271.263V264.34H205.725V271.221C205.725 271.538 205.728 271.804 205.732 272.019C205.742 272.229 205.791 272.416 205.879 272.579C206.047 272.892 206.313 273.078 206.677 273.139C207.046 273.2 207.501 273.186 208.042 273.097V274ZM203.086 267.322V266.44H208.042V267.322H203.086ZM76.6418 296.57C76.2545 296.57 75.8718 296.512 75.4938 296.395C75.1205 296.283 74.7751 296.103 74.4578 295.856C74.1405 295.613 73.8745 295.296 73.6598 294.904L74.5908 294.386C74.8008 294.806 75.0948 295.107 75.4728 295.289C75.8555 295.476 76.2451 295.569 76.6418 295.569C77.1878 295.569 77.6288 295.466 77.9648 295.261C78.3055 295.06 78.5528 294.762 78.7068 294.365C78.8608 293.968 78.9355 293.474 78.9308 292.881V290.865H79.0498V285.44H79.9668V292.895C79.9668 293.11 79.9598 293.315 79.9458 293.511C79.9365 293.712 79.9155 293.908 79.8828 294.099C79.7941 294.664 79.6098 295.128 79.3298 295.492C79.0545 295.856 78.6905 296.127 78.2378 296.304C77.7898 296.481 77.2578 296.57 76.6418 296.57ZM76.5718 293.21C75.8671 293.21 75.2651 293.035 74.7658 292.685C74.2665 292.33 73.8838 291.852 73.6178 291.25C73.3518 290.648 73.2188 289.969 73.2188 289.213C73.2188 288.462 73.3495 287.785 73.6108 287.183C73.8768 286.581 74.2571 286.105 74.7518 285.755C75.2465 285.405 75.8391 285.23 76.5298 285.23C77.2391 285.23 77.8365 285.403 78.3218 285.748C78.8071 286.093 79.1735 286.567 79.4208 287.169C79.6728 287.766 79.7988 288.448 79.7988 289.213C79.7988 289.964 79.6751 290.643 79.4278 291.25C79.1805 291.852 78.8165 292.33 78.3358 292.685C77.8551 293.035 77.2671 293.21 76.5718 293.21ZM76.6768 292.251C77.2135 292.251 77.6568 292.12 78.0068 291.859C78.3568 291.598 78.6181 291.238 78.7908 290.781C78.9635 290.319 79.0498 289.796 79.0498 289.213C79.0498 288.62 78.9635 288.098 78.7908 287.645C78.6181 287.188 78.3568 286.831 78.0068 286.574C77.6615 286.317 77.2251 286.189 76.6978 286.189C76.1565 286.189 75.7085 286.322 75.3538 286.588C74.9991 286.854 74.7355 287.216 74.5628 287.673C74.3948 288.13 74.3108 288.644 74.3108 289.213C74.3108 289.787 74.3971 290.305 74.5698 290.767C74.7471 291.224 75.0108 291.586 75.3608 291.852C75.7108 292.118 76.1495 292.251 76.6768 292.251ZM82.6239 293V285.44H83.5479V287.26L83.3659 287.022C83.4499 286.798 83.5596 286.593 83.6949 286.406C83.8303 286.215 83.9773 286.058 84.1359 285.937C84.3319 285.764 84.5606 285.634 84.8219 285.545C85.0833 285.452 85.3469 285.398 85.6129 285.384C85.8789 285.365 86.1216 285.384 86.3409 285.44V286.406C86.0656 286.336 85.7646 286.32 85.4379 286.357C85.1113 286.394 84.8103 286.525 84.5349 286.749C84.2829 286.945 84.0939 287.181 83.9679 287.456C83.8419 287.727 83.7579 288.016 83.7159 288.324C83.6739 288.627 83.6529 288.928 83.6529 289.227V293H82.6239ZM91.3891 293.21C90.6378 293.21 89.9961 293.04 89.4641 292.699C88.9321 292.358 88.5238 291.887 88.2391 291.285C87.9545 290.683 87.8121 289.992 87.8121 289.213C87.8121 288.42 87.9568 287.724 88.2461 287.127C88.5355 286.53 88.9461 286.065 89.4781 285.734C90.0148 285.398 90.6518 285.23 91.3891 285.23C92.1451 285.23 92.7891 285.4 93.3211 285.741C93.8578 286.077 94.2661 286.546 94.5461 287.148C94.8308 287.745 94.9731 288.434 94.9731 289.213C94.9731 290.006 94.8308 290.704 94.5461 291.306C94.2615 291.903 93.8508 292.37 93.3141 292.706C92.7775 293.042 92.1358 293.21 91.3891 293.21ZM91.3891 292.223C92.2291 292.223 92.8545 291.945 93.2651 291.39C93.6758 290.83 93.8811 290.104 93.8811 289.213C93.8811 288.298 93.6735 287.57 93.2581 287.029C92.8475 286.488 92.2245 286.217 91.3891 286.217C90.8245 286.217 90.3578 286.345 89.9891 286.602C89.6251 286.854 89.3521 287.206 89.1701 287.659C88.9928 288.107 88.9041 288.625 88.9041 289.213C88.9041 290.123 89.1141 290.853 89.5341 291.404C89.9541 291.95 90.5725 292.223 91.3891 292.223ZM98.5539 293L96.2439 285.433L97.2729 285.44L99.0649 291.313L100.864 285.44H101.802L103.601 291.313L105.407 285.44H106.429L104.119 293H103.223L101.333 286.98L99.4499 293H98.5539ZM108.53 284.005V282.85H109.559V284.005H108.53ZM108.53 293V285.44H109.559V293H108.53ZM117.818 293V289.143C117.818 288.723 117.778 288.338 117.699 287.988C117.619 287.633 117.491 287.325 117.314 287.064C117.141 286.798 116.915 286.593 116.635 286.448C116.359 286.303 116.023 286.231 115.627 286.231C115.263 286.231 114.941 286.294 114.661 286.42C114.385 286.546 114.152 286.728 113.961 286.966C113.774 287.199 113.632 287.484 113.534 287.82C113.436 288.156 113.387 288.539 113.387 288.968L112.659 288.807C112.659 288.032 112.794 287.381 113.065 286.854C113.335 286.327 113.709 285.928 114.185 285.657C114.661 285.386 115.207 285.251 115.823 285.251C116.275 285.251 116.67 285.321 117.006 285.461C117.346 285.601 117.633 285.79 117.867 286.028C118.105 286.266 118.296 286.539 118.441 286.847C118.585 287.15 118.69 287.475 118.756 287.82C118.821 288.161 118.854 288.501 118.854 288.842V293H117.818ZM112.351 293V285.44H113.282V287.302H113.387V293H112.351ZM124.373 296.57C123.986 296.57 123.603 296.512 123.225 296.395C122.852 296.283 122.506 296.103 122.189 295.856C121.872 295.613 121.606 295.296 121.391 294.904L122.322 294.386C122.532 294.806 122.826 295.107 123.204 295.289C123.587 295.476 123.976 295.569 124.373 295.569C124.919 295.569 125.36 295.466 125.696 295.261C126.037 295.06 126.284 294.762 126.438 294.365C126.592 293.968 126.667 293.474 126.662 292.881V290.865H126.781V285.44H127.698V292.895C127.698 293.11 127.691 293.315 127.677 293.511C127.668 293.712 127.647 293.908 127.614 294.099C127.525 294.664 127.341 295.128 127.061 295.492C126.786 295.856 126.422 296.127 125.969 296.304C125.521 296.481 124.989 296.57 124.373 296.57ZM124.303 293.21C123.598 293.21 122.996 293.035 122.497 292.685C121.998 292.33 121.615 291.852 121.349 291.25C121.083 290.648 120.95 289.969 120.95 289.213C120.95 288.462 121.081 287.785 121.342 287.183C121.608 286.581 121.988 286.105 122.483 285.755C122.978 285.405 123.57 285.23 124.261 285.23C124.97 285.23 125.568 285.403 126.053 285.748C126.538 286.093 126.905 286.567 127.152 287.169C127.404 287.766 127.53 288.448 127.53 289.213C127.53 289.964 127.406 290.643 127.159 291.25C126.912 291.852 126.548 292.33 126.067 292.685C125.586 293.035 124.998 293.21 124.303 293.21ZM124.408 292.251C124.945 292.251 125.388 292.12 125.738 291.859C126.088 291.598 126.349 291.238 126.522 290.781C126.695 290.319 126.781 289.796 126.781 289.213C126.781 288.62 126.695 288.098 126.522 287.645C126.349 287.188 126.088 286.831 125.738 286.574C125.393 286.317 124.956 286.189 124.429 286.189C123.888 286.189 123.44 286.322 123.085 286.588C122.73 286.854 122.467 287.216 122.294 287.673C122.126 288.13 122.042 288.644 122.042 289.213C122.042 289.787 122.128 290.305 122.301 290.767C122.478 291.224 122.742 291.586 123.092 291.852C123.442 292.118 123.881 292.251 124.408 292.251ZM133.998 284.005V282.85H135.027V284.005H133.998ZM133.998 293V285.44H135.027V293H133.998ZM143.286 293V289.143C143.286 288.723 143.246 288.338 143.167 287.988C143.087 287.633 142.959 287.325 142.782 287.064C142.609 286.798 142.383 286.593 142.103 286.448C141.827 286.303 141.491 286.231 141.095 286.231C140.731 286.231 140.409 286.294 140.129 286.42C139.853 286.546 139.62 286.728 139.429 286.966C139.242 287.199 139.1 287.484 139.002 287.82C138.904 288.156 138.855 288.539 138.855 288.968L138.127 288.807C138.127 288.032 138.262 287.381 138.533 286.854C138.803 286.327 139.177 285.928 139.653 285.657C140.129 285.386 140.675 285.251 141.291 285.251C141.743 285.251 142.138 285.321 142.474 285.461C142.814 285.601 143.101 285.79 143.335 286.028C143.573 286.266 143.764 286.539 143.909 286.847C144.053 287.15 144.158 287.475 144.224 287.82C144.289 288.161 144.322 288.501 144.322 288.842V293H143.286ZM137.819 293V285.44H138.75V287.302H138.855V293H137.819ZM149.716 293.21C149.012 293.21 148.41 293.035 147.91 292.685C147.411 292.33 147.028 291.852 146.762 291.25C146.496 290.648 146.363 289.969 146.363 289.213C146.363 288.462 146.494 287.785 146.755 287.183C147.021 286.581 147.402 286.105 147.896 285.755C148.391 285.405 148.984 285.23 149.674 285.23C150.384 285.23 150.981 285.403 151.466 285.748C151.952 286.093 152.318 286.567 152.565 287.169C152.817 287.766 152.943 288.448 152.943 289.213C152.943 289.964 152.82 290.643 152.572 291.25C152.325 291.852 151.961 292.33 151.48 292.685C151 293.035 150.412 293.21 149.716 293.21ZM149.821 292.251C150.358 292.251 150.801 292.12 151.151 291.859C151.501 291.598 151.763 291.238 151.935 290.781C152.108 290.319 152.194 289.796 152.194 289.213C152.194 288.62 152.108 288.098 151.935 287.645C151.763 287.188 151.501 286.831 151.151 286.574C150.806 286.317 150.37 286.189 149.842 286.189C149.301 286.189 148.853 286.322 148.498 286.588C148.144 286.854 147.88 287.216 147.707 287.673C147.539 288.13 147.455 288.644 147.455 289.213C147.455 289.787 147.542 290.305 147.714 290.767C147.892 291.224 148.155 291.586 148.505 291.852C148.855 292.118 149.294 292.251 149.821 292.251ZM152.194 293V287.309H152.082V282.92H153.118V293H152.194ZM158.673 293.189C158.22 293.189 157.824 293.119 157.483 292.979C157.147 292.839 156.86 292.65 156.622 292.412C156.389 292.174 156.2 291.903 156.055 291.6C155.91 291.292 155.805 290.968 155.74 290.627C155.675 290.282 155.642 289.939 155.642 289.598V285.44H156.678V289.297C156.678 289.712 156.718 290.097 156.797 290.452C156.876 290.807 157.002 291.117 157.175 291.383C157.352 291.644 157.579 291.847 157.854 291.992C158.134 292.137 158.472 292.209 158.869 292.209C159.233 292.209 159.553 292.146 159.828 292.02C160.108 291.894 160.341 291.714 160.528 291.481C160.719 291.243 160.864 290.956 160.962 290.62C161.06 290.279 161.109 289.897 161.109 289.472L161.837 289.633C161.837 290.408 161.702 291.059 161.431 291.586C161.16 292.113 160.787 292.512 160.311 292.783C159.835 293.054 159.289 293.189 158.673 293.189ZM161.214 293V291.138H161.109V285.44H162.138V293H161.214ZM167.616 293.203C166.729 293.203 165.999 293.012 165.425 292.629C164.855 292.246 164.505 291.714 164.375 291.033L165.425 290.858C165.537 291.287 165.791 291.63 166.188 291.887C166.589 292.139 167.084 292.265 167.672 292.265C168.246 292.265 168.698 292.146 169.03 291.908C169.361 291.665 169.527 291.336 169.527 290.921C169.527 290.688 169.473 290.499 169.366 290.354C169.263 290.205 169.051 290.067 168.729 289.941C168.407 289.815 167.926 289.666 167.287 289.493C166.601 289.306 166.064 289.12 165.677 288.933C165.289 288.746 165.014 288.532 164.851 288.289C164.687 288.042 164.606 287.741 164.606 287.386C164.606 286.957 164.727 286.581 164.97 286.259C165.212 285.932 165.548 285.68 165.978 285.503C166.407 285.321 166.906 285.23 167.476 285.23C168.045 285.23 168.554 285.323 169.002 285.51C169.454 285.692 169.818 285.949 170.094 286.28C170.369 286.611 170.532 286.996 170.584 287.435L169.534 287.624C169.464 287.181 169.242 286.831 168.869 286.574C168.5 286.313 168.031 286.177 167.462 286.168C166.925 286.154 166.489 286.257 166.153 286.476C165.817 286.691 165.649 286.978 165.649 287.337C165.649 287.538 165.709 287.71 165.831 287.855C165.952 287.995 166.171 288.128 166.489 288.254C166.811 288.38 167.268 288.518 167.861 288.667C168.556 288.844 169.102 289.031 169.499 289.227C169.895 289.423 170.178 289.654 170.346 289.92C170.514 290.186 170.598 290.515 170.598 290.907C170.598 291.621 170.332 292.183 169.8 292.594C169.272 293 168.544 293.203 167.616 293.203ZM176.966 293C176.541 293.089 176.121 293.124 175.706 293.105C175.295 293.086 174.927 292.998 174.6 292.839C174.278 292.68 174.033 292.433 173.865 292.097C173.73 291.817 173.655 291.535 173.641 291.25C173.632 290.961 173.627 290.632 173.627 290.263V283.34H174.649V290.221C174.649 290.538 174.651 290.804 174.656 291.019C174.665 291.229 174.714 291.416 174.803 291.579C174.971 291.892 175.237 292.078 175.601 292.139C175.97 292.2 176.425 292.186 176.966 292.097V293ZM172.01 286.322V285.44H176.966V286.322H172.01ZM179.156 293V285.44H180.08V287.26L179.898 287.022C179.982 286.798 180.091 286.593 180.227 286.406C180.362 286.215 180.509 286.058 180.668 285.937C180.864 285.764 181.092 285.634 181.354 285.545C181.615 285.452 181.879 285.398 182.145 285.384C182.411 285.365 182.653 285.384 182.873 285.44V286.406C182.597 286.336 182.296 286.32 181.97 286.357C181.643 286.394 181.342 286.525 181.067 286.749C180.815 286.945 180.626 287.181 180.5 287.456C180.374 287.727 180.29 288.016 180.248 288.324C180.206 288.627 180.185 288.928 180.185 289.227V293H179.156ZM185.883 296.36L187.346 292.391L187.367 293.567L184.056 285.44H185.148L187.864 292.237H187.416L189.922 285.44H190.972L186.912 296.36H185.883ZM191.963 293V291.803H193.16V293H191.963Z" fill="#7F8BAB"/>
<defs>
<filter id="filter0_i_2093_1885" x="241.521" y="7.64475" width="27.2172" height="29.0249" filterUnits="userSpaceOnUse" color-interpolation-filters="sRGB">
<feFlood flood-opacity="0" result="BackgroundImageFix"/>
<feBlend mode="normal" in="SourceGraphic" in2="BackgroundImageFix" result="shape"/>
<feColorMatrix in="SourceAlpha" type="matrix" values="0 0 0 0 0 0 0 0 0 0 0 0 0 0 0 0 0 0 127 0" result="hardAlpha"/>
<feOffset dy="-2.55766"/>
<feGaussianBlur stdDeviation="0.959121"/>
<feComposite in2="hardAlpha" operator="arithmetic" k2="-1" k3="1"/>
<feColorMatrix type="matrix" values="0 0 0 0 0.956863 0 0 0 0 0.85098 0 0 0 0 0.431373 0 0 0 1 0"/>
<feBlend mode="normal" in2="shape" result="effect1_innerShadow_2093_1885"/>
</filter>
</defs>
</svg>
