<svg width="159" height="69" viewBox="0 0 159 69" fill="none" xmlns="http://www.w3.org/2000/svg">
<rect y="8.18604" width="148" height="60" rx="12" fill="#5928E5" fill-opacity="0.25"/>
<path d="M55.48 36.396C54.7753 36.396 54.1407 36.2794 53.576 36.046C53.016 35.808 52.5517 35.472 52.183 35.038C51.819 34.604 51.581 34.0884 51.469 33.491L52.519 33.316C52.687 33.9694 53.0417 34.4827 53.583 34.856C54.1243 35.2247 54.7707 35.409 55.522 35.409C56.0167 35.409 56.46 35.332 56.852 35.178C57.244 35.0194 57.552 34.7954 57.776 34.506C58 34.2167 58.112 33.8737 58.112 33.477C58.112 33.2157 58.0653 32.994 57.972 32.812C57.8787 32.6254 57.755 32.4714 57.601 32.35C57.447 32.2287 57.279 32.1284 57.097 32.049C56.915 31.965 56.7377 31.8974 56.565 31.846L54.01 31.083C53.702 30.9944 53.4173 30.8824 53.156 30.747C52.8947 30.607 52.666 30.4414 52.47 30.25C52.2787 30.054 52.1293 29.8254 52.022 29.564C51.9147 29.3027 51.861 29.004 51.861 28.668C51.861 28.0987 52.0103 27.6064 52.309 27.191C52.6077 26.7757 53.016 26.456 53.534 26.232C54.052 26.008 54.6423 25.8984 55.305 25.903C55.977 25.903 56.5767 26.022 57.104 26.26C57.636 26.498 58.0747 26.8387 58.42 27.282C58.7653 27.7207 58.994 28.241 59.106 28.843L58.028 29.039C57.958 28.6004 57.797 28.22 57.545 27.898C57.293 27.576 56.971 27.3287 56.579 27.156C56.1917 26.9787 55.7647 26.8877 55.298 26.883C54.8453 26.883 54.4417 26.96 54.087 27.114C53.737 27.2634 53.4593 27.4687 53.254 27.73C53.0487 27.9914 52.946 28.29 52.946 28.626C52.946 28.9667 53.0393 29.2397 53.226 29.445C53.4173 29.6504 53.6507 29.8114 53.926 29.928C54.206 30.0447 54.4767 30.1404 54.738 30.215L56.712 30.796C56.9173 30.852 57.1577 30.9337 57.433 31.041C57.713 31.1437 57.9837 31.293 58.245 31.489C58.511 31.6804 58.7303 31.9324 58.903 32.245C59.0757 32.5577 59.162 32.9544 59.162 33.435C59.162 33.9017 59.0687 34.3194 58.882 34.688C58.7 35.0567 58.441 35.367 58.105 35.619C57.7737 35.871 57.384 36.0624 56.936 36.193C56.4927 36.3284 56.0073 36.396 55.48 36.396ZM64.702 36.396C64.0066 36.396 63.4186 36.221 62.938 35.871C62.4573 35.5164 62.0933 35.038 61.846 34.436C61.5986 33.8294 61.475 33.1504 61.475 32.399C61.475 31.6337 61.5986 30.9524 61.846 30.355C62.098 29.753 62.4666 29.2794 62.952 28.934C63.4373 28.5887 64.0346 28.416 64.744 28.416C65.4346 28.416 66.0273 28.591 66.522 28.941C67.0166 29.291 67.3946 29.767 67.656 30.369C67.922 30.971 68.055 31.6477 68.055 32.399C68.055 33.155 67.922 33.834 67.656 34.436C67.39 35.038 67.0073 35.5164 66.508 35.871C66.0086 36.221 65.4066 36.396 64.702 36.396ZM61.3 39.546V28.626H62.224V34.317H62.336V39.546H61.3ZM64.597 35.437C65.1243 35.437 65.563 35.304 65.913 35.038C66.263 34.772 66.5243 34.4104 66.697 33.953C66.8743 33.491 66.963 32.973 66.963 32.399C66.963 31.8297 66.8766 31.3164 66.704 30.859C66.5313 30.4017 66.2676 30.04 65.913 29.774C65.563 29.508 65.1173 29.375 64.576 29.375C64.0486 29.375 63.61 29.5034 63.26 29.76C62.9146 30.0167 62.6556 30.3737 62.483 30.831C62.3103 31.2837 62.224 31.8064 62.224 32.399C62.224 32.9824 62.3103 33.505 62.483 33.967C62.6556 34.4244 62.917 34.7837 63.267 35.045C63.617 35.3064 64.0603 35.437 64.597 35.437ZM73.4911 36.396C72.7538 36.396 72.1144 36.2327 71.5731 35.906C71.0364 35.5794 70.6188 35.1197 70.3201 34.527C70.0214 33.9344 69.8721 33.239 69.8721 32.441C69.8721 31.615 70.0191 30.901 70.3131 30.299C70.6071 29.697 71.0201 29.2327 71.5521 28.906C72.0888 28.5794 72.7211 28.416 73.4491 28.416C74.1958 28.416 74.8328 28.5887 75.3601 28.934C75.8874 29.2747 76.2864 29.7647 76.5571 30.404C76.8278 31.0434 76.9514 31.8064 76.9281 32.693H75.8781V32.329C75.8594 31.349 75.6471 30.6094 75.2411 30.11C74.8398 29.6107 74.2518 29.361 73.4771 29.361C72.6651 29.361 72.0421 29.6247 71.6081 30.152C71.1788 30.6794 70.9641 31.4307 70.9641 32.406C70.9641 33.358 71.1788 34.0977 71.6081 34.625C72.0421 35.1477 72.6558 35.409 73.4491 35.409C73.9904 35.409 74.4618 35.2854 74.8631 35.038C75.2691 34.786 75.5888 34.4244 75.8221 33.953L76.7811 34.324C76.4824 34.982 76.0414 35.493 75.4581 35.857C74.8794 36.2164 74.2238 36.396 73.4911 36.396ZM70.6001 32.693V31.832H76.3751V32.693H70.6001ZM82.3176 36.396C81.5569 36.396 80.9129 36.2257 80.3856 35.885C79.8582 35.5444 79.4569 35.0754 79.1816 34.478C78.9109 33.876 78.7709 33.1854 78.7616 32.406C78.7709 31.6127 78.9156 30.9174 79.1956 30.32C79.4756 29.718 79.8792 29.2514 80.4066 28.92C80.9339 28.584 81.5732 28.416 82.3246 28.416C83.0899 28.416 83.7549 28.6027 84.3196 28.976C84.8889 29.3494 85.2786 29.8604 85.4886 30.509L84.4806 30.831C84.3032 30.3784 84.0209 30.0284 83.6336 29.781C83.2509 29.529 82.8122 29.403 82.3176 29.403C81.7622 29.403 81.3026 29.5314 80.9386 29.788C80.5746 30.04 80.3039 30.3924 80.1266 30.845C79.9492 31.2977 79.8582 31.818 79.8536 32.406C79.8629 33.3114 80.0729 34.0394 80.4836 34.59C80.8942 35.136 81.5056 35.409 82.3176 35.409C82.8309 35.409 83.2672 35.2924 83.6266 35.059C83.9906 34.821 84.2659 34.4757 84.4526 34.023L85.4886 34.331C85.2086 35.003 84.7979 35.5164 84.2566 35.871C83.7152 36.221 83.0689 36.396 82.3176 36.396ZM87.5684 27.191V26.036H88.5974V27.191H87.5684ZM87.5684 36.186V28.626H88.5974V36.186H87.5684ZM93.559 36.396C92.9897 36.396 92.5113 36.2934 92.124 36.088C91.7413 35.8827 91.4543 35.6097 91.263 35.269C91.0717 34.9284 90.976 34.5574 90.976 34.156C90.976 33.7454 91.0577 33.3954 91.221 33.106C91.389 32.812 91.6153 32.5717 91.9 32.385C92.1893 32.1984 92.523 32.056 92.901 31.958C93.2837 31.8647 93.706 31.783 94.168 31.713C94.6347 31.6384 95.0897 31.5754 95.533 31.524C95.981 31.468 96.373 31.4144 96.709 31.363L96.345 31.587C96.359 30.8404 96.2143 30.2874 95.911 29.928C95.6077 29.5687 95.0803 29.389 94.329 29.389C93.811 29.389 93.3723 29.5057 93.013 29.739C92.6583 29.9724 92.4087 30.341 92.264 30.845L91.263 30.551C91.4357 29.8744 91.7833 29.3494 92.306 28.976C92.8287 28.6027 93.5077 28.416 94.343 28.416C95.0337 28.416 95.6193 28.5467 96.1 28.808C96.5853 29.0647 96.9283 29.438 97.129 29.928C97.2223 30.1474 97.283 30.3924 97.311 30.663C97.339 30.9337 97.353 31.209 97.353 31.489V36.186H96.436V34.289L96.702 34.401C96.4453 35.0497 96.0463 35.5444 95.505 35.885C94.9637 36.2257 94.315 36.396 93.559 36.396ZM93.678 35.507C94.1587 35.507 94.5787 35.4207 94.938 35.248C95.2973 35.0754 95.5867 34.8397 95.806 34.541C96.0253 34.2377 96.1677 33.897 96.233 33.519C96.289 33.2764 96.3193 33.0104 96.324 32.721C96.3287 32.427 96.331 32.2077 96.331 32.063L96.723 32.266C96.373 32.3127 95.9927 32.3594 95.582 32.406C95.176 32.4527 94.7747 32.5064 94.378 32.567C93.986 32.6277 93.6313 32.7 93.314 32.784C93.0993 32.8447 92.8917 32.931 92.691 33.043C92.4903 33.1504 92.3247 33.295 92.194 33.477C92.068 33.659 92.005 33.8854 92.005 34.156C92.005 34.3754 92.0587 34.5877 92.166 34.793C92.278 34.9984 92.4553 35.1687 92.698 35.304C92.9453 35.4394 93.272 35.507 93.678 35.507ZM100.015 36.186V25.896H101.044V36.186H100.015ZM103.983 27.191V26.036H105.012V27.191H103.983ZM103.983 36.186V28.626H105.012V36.186H103.983ZM107.11 36.186V35.969L111.989 29.585H107.474V28.626H113.683V28.864L108.811 35.227H113.417V36.186H107.11ZM118.559 36.396C117.822 36.396 117.182 36.2327 116.641 35.906C116.104 35.5794 115.687 35.1197 115.388 34.527C115.089 33.9344 114.94 33.239 114.94 32.441C114.94 31.615 115.087 30.901 115.381 30.299C115.675 29.697 116.088 29.2327 116.62 28.906C117.157 28.5794 117.789 28.416 118.517 28.416C119.264 28.416 119.901 28.5887 120.428 28.934C120.955 29.2747 121.354 29.7647 121.625 30.404C121.896 31.0434 122.019 31.8064 121.996 32.693H120.946V32.329C120.927 31.349 120.715 30.6094 120.309 30.11C119.908 29.6107 119.32 29.361 118.545 29.361C117.733 29.361 117.11 29.6247 116.676 30.152C116.247 30.6794 116.032 31.4307 116.032 32.406C116.032 33.358 116.247 34.0977 116.676 34.625C117.11 35.1477 117.724 35.409 118.517 35.409C119.058 35.409 119.53 35.2854 119.931 35.038C120.337 34.786 120.657 34.4244 120.89 33.953L121.849 34.324C121.55 34.982 121.109 35.493 120.526 35.857C119.947 36.2164 119.292 36.396 118.559 36.396ZM115.668 32.693V31.832H121.443V32.693H115.668ZM127.183 36.396C126.478 36.396 125.876 36.221 125.377 35.871C124.877 35.5164 124.495 35.038 124.229 34.436C123.963 33.834 123.83 33.155 123.83 32.399C123.83 31.6477 123.96 30.971 124.222 30.369C124.488 29.767 124.868 29.291 125.363 28.941C125.857 28.591 126.45 28.416 127.141 28.416C127.85 28.416 128.447 28.5887 128.933 28.934C129.418 29.2794 129.784 29.753 130.032 30.355C130.284 30.9524 130.41 31.6337 130.41 32.399C130.41 33.1504 130.286 33.8294 130.039 34.436C129.791 35.038 129.427 35.5164 128.947 35.871C128.466 36.221 127.878 36.396 127.183 36.396ZM127.288 35.437C127.824 35.437 128.268 35.3064 128.618 35.045C128.968 34.7837 129.229 34.4244 129.402 33.967C129.574 33.505 129.661 32.9824 129.661 32.399C129.661 31.8064 129.574 31.2837 129.402 30.831C129.229 30.3737 128.968 30.0167 128.618 29.76C128.272 29.5034 127.836 29.375 127.309 29.375C126.767 29.375 126.319 29.508 125.965 29.774C125.61 30.04 125.346 30.4017 125.174 30.859C125.006 31.3164 124.922 31.8297 124.922 32.399C124.922 32.973 125.008 33.491 125.181 33.953C125.358 34.4104 125.622 34.772 125.972 35.038C126.322 35.304 126.76 35.437 127.288 35.437ZM129.661 36.186V30.495H129.549V26.106H130.585V36.186H129.661ZM56.061 54.396C55.0577 54.396 54.2107 54.1744 53.52 53.731C52.8293 53.283 52.3067 52.6647 51.952 51.876C51.5973 51.0874 51.42 50.1774 51.42 49.146C51.42 48.1147 51.5973 47.2047 51.952 46.416C52.3067 45.6274 52.8293 45.0114 53.52 44.568C54.2107 44.12 55.0577 43.896 56.061 43.896C57.2323 43.896 58.189 44.197 58.931 44.799C59.673 45.3964 60.1817 46.199 60.457 47.207L59.407 47.48C59.1923 46.682 58.8073 46.0497 58.252 45.583C57.6967 45.1164 56.9663 44.883 56.061 44.883C55.2723 44.883 54.6167 45.0627 54.094 45.422C53.5713 45.7814 53.177 46.283 52.911 46.927C52.6497 47.5664 52.5143 48.306 52.505 49.146C52.5003 49.986 52.6287 50.7257 52.89 51.365C53.156 52.0044 53.5527 52.506 54.08 52.87C54.612 53.2294 55.2723 53.409 56.061 53.409C56.9663 53.409 57.6967 53.1757 58.252 52.709C58.8073 52.2377 59.1923 51.6054 59.407 50.812L60.457 51.085C60.1817 52.093 59.673 52.898 58.931 53.5C58.189 54.0974 57.2323 54.396 56.061 54.396ZM65.8585 54.396C65.1072 54.396 64.4655 54.2257 63.9335 53.885C63.4015 53.5444 62.9932 53.073 62.7085 52.471C62.4238 51.869 62.2815 51.1784 62.2815 50.399C62.2815 49.6057 62.4262 48.9104 62.7155 48.313C63.0048 47.7157 63.4155 47.2514 63.9475 46.92C64.4842 46.584 65.1212 46.416 65.8585 46.416C66.6145 46.416 67.2585 46.5864 67.7905 46.927C68.3272 47.263 68.7355 47.732 69.0155 48.334C69.3002 48.9314 69.4425 49.6197 69.4425 50.399C69.4425 51.1924 69.3002 51.89 69.0155 52.492C68.7308 53.0894 68.3202 53.556 67.7835 53.892C67.2468 54.228 66.6052 54.396 65.8585 54.396ZM65.8585 53.409C66.6985 53.409 67.3238 53.1314 67.7345 52.576C68.1452 52.016 68.3505 51.2904 68.3505 50.399C68.3505 49.4844 68.1428 48.7564 67.7275 48.215C67.3168 47.6737 66.6938 47.403 65.8585 47.403C65.2938 47.403 64.8272 47.5314 64.4585 47.788C64.0945 48.04 63.8215 48.3924 63.6395 48.845C63.4622 49.293 63.3735 49.811 63.3735 50.399C63.3735 51.309 63.5835 52.0394 64.0035 52.59C64.4235 53.136 65.0418 53.409 65.8585 53.409ZM74.5776 54.375C74.125 54.375 73.7283 54.305 73.3876 54.165C73.0516 54.025 72.7646 53.836 72.5266 53.598C72.2933 53.36 72.1043 53.0894 71.9596 52.786C71.815 52.478 71.71 52.1537 71.6446 51.813C71.5793 51.4677 71.5466 51.1247 71.5466 50.784V46.626H72.5826V50.483C72.5826 50.8984 72.6223 51.2834 72.7016 51.638C72.781 51.9927 72.907 52.303 73.0796 52.569C73.257 52.8304 73.4833 53.0334 73.7586 53.178C74.0386 53.3227 74.377 53.395 74.7736 53.395C75.1376 53.395 75.4573 53.332 75.7326 53.206C76.0126 53.08 76.246 52.9004 76.4326 52.667C76.624 52.429 76.7686 52.142 76.8666 51.806C76.9646 51.4654 77.0136 51.0827 77.0136 50.658L77.7416 50.819C77.7416 51.5937 77.6063 52.2447 77.3356 52.772C77.065 53.2994 76.6916 53.6984 76.2156 53.969C75.7396 54.2397 75.1936 54.375 74.5776 54.375ZM77.1186 54.186V52.324H77.0136V46.626H78.0426V54.186H77.1186ZM80.6991 54.186V46.626H81.6231V48.446L81.4411 48.208C81.5251 47.984 81.6348 47.7787 81.7701 47.592C81.9055 47.4007 82.0525 47.2444 82.2111 47.123C82.4071 46.9504 82.6358 46.8197 82.8971 46.731C83.1585 46.6377 83.4221 46.584 83.6881 46.57C83.9541 46.5514 84.1968 46.57 84.4161 46.626V47.592C84.1408 47.522 83.8398 47.5057 83.5131 47.543C83.1865 47.5804 82.8855 47.711 82.6101 47.935C82.3581 48.131 82.1691 48.3667 82.0431 48.642C81.9171 48.9127 81.8331 49.202 81.7911 49.51C81.7491 49.8134 81.7281 50.1144 81.7281 50.413V54.186H80.6991ZM88.9916 54.389C88.105 54.389 87.3746 54.1977 86.8006 53.815C86.2313 53.4324 85.8813 52.9004 85.7506 52.219L86.8006 52.044C86.9126 52.4734 87.167 52.8164 87.5636 53.073C87.965 53.325 88.4596 53.451 89.0476 53.451C89.6216 53.451 90.0743 53.332 90.4056 53.094C90.737 52.8514 90.9026 52.5224 90.9026 52.107C90.9026 51.8737 90.849 51.6847 90.7416 51.54C90.639 51.3907 90.4266 51.253 90.1046 51.127C89.7826 51.001 89.302 50.8517 88.6626 50.679C87.9766 50.4924 87.44 50.3057 87.0526 50.119C86.6653 49.9324 86.39 49.7177 86.2266 49.475C86.0633 49.2277 85.9816 48.9267 85.9816 48.572C85.9816 48.1427 86.103 47.767 86.3456 47.445C86.5883 47.1184 86.9243 46.8664 87.3536 46.689C87.783 46.507 88.2823 46.416 88.8516 46.416C89.421 46.416 89.9296 46.5094 90.3776 46.696C90.8303 46.878 91.1943 47.1347 91.4696 47.466C91.745 47.7974 91.9083 48.1824 91.9596 48.621L90.9096 48.81C90.8396 48.3667 90.618 48.0167 90.2446 47.76C89.876 47.4987 89.407 47.3634 88.8376 47.354C88.301 47.34 87.8646 47.4427 87.5286 47.662C87.1926 47.8767 87.0246 48.1637 87.0246 48.523C87.0246 48.7237 87.0853 48.8964 87.2066 49.041C87.328 49.181 87.5473 49.314 87.8646 49.44C88.1866 49.566 88.644 49.7037 89.2366 49.853C89.932 50.0304 90.478 50.217 90.8746 50.413C91.2713 50.609 91.5536 50.84 91.7216 51.106C91.8896 51.372 91.9736 51.701 91.9736 52.093C91.9736 52.807 91.7076 53.3694 91.1756 53.78C90.6483 54.186 89.9203 54.389 88.9916 54.389ZM97.4251 54.396C96.6878 54.396 96.0484 54.2327 95.5071 53.906C94.9704 53.5794 94.5528 53.1197 94.2541 52.527C93.9554 51.9344 93.8061 51.239 93.8061 50.441C93.8061 49.615 93.9531 48.901 94.2471 48.299C94.5411 47.697 94.9541 47.2327 95.4861 46.906C96.0228 46.5794 96.6551 46.416 97.3831 46.416C98.1298 46.416 98.7668 46.5887 99.2941 46.934C99.8214 47.2747 100.22 47.7647 100.491 48.404C100.762 49.0434 100.885 49.8064 100.862 50.693H99.8121V50.329C99.7934 49.349 99.5811 48.6094 99.1751 48.11C98.7738 47.6107 98.1858 47.361 97.4111 47.361C96.5991 47.361 95.9761 47.6247 95.5421 48.152C95.1128 48.6794 94.8981 49.4307 94.8981 50.406C94.8981 51.358 95.1128 52.0977 95.5421 52.625C95.9761 53.1477 96.5898 53.409 97.3831 53.409C97.9244 53.409 98.3958 53.2854 98.7971 53.038C99.2031 52.786 99.5228 52.4244 99.7561 51.953L100.715 52.324C100.416 52.982 99.9754 53.493 99.3921 53.857C98.8134 54.2164 98.1578 54.396 97.4251 54.396ZM94.5341 50.693V49.832H100.309V50.693H94.5341ZM105.937 54.389C105.05 54.389 104.32 54.1977 103.746 53.815C103.176 53.4324 102.826 52.9004 102.696 52.219L103.746 52.044C103.858 52.4734 104.112 52.8164 104.509 53.073C104.91 53.325 105.405 53.451 105.993 53.451C106.567 53.451 107.019 53.332 107.351 53.094C107.682 52.8514 107.848 52.5224 107.848 52.107C107.848 51.8737 107.794 51.6847 107.687 51.54C107.584 51.3907 107.372 51.253 107.05 51.127C106.728 51.001 106.247 50.8517 105.608 50.679C104.922 50.4924 104.385 50.3057 103.998 50.119C103.61 49.9324 103.335 49.7177 103.172 49.475C103.008 49.2277 102.927 48.9267 102.927 48.572C102.927 48.1427 103.048 47.767 103.291 47.445C103.533 47.1184 103.869 46.8664 104.299 46.689C104.728 46.507 105.227 46.416 105.797 46.416C106.366 46.416 106.875 46.5094 107.323 46.696C107.775 46.878 108.139 47.1347 108.415 47.466C108.69 47.7974 108.853 48.1824 108.905 48.621L107.855 48.81C107.785 48.3667 107.563 48.0167 107.19 47.76C106.821 47.4987 106.352 47.3634 105.783 47.354C105.246 47.34 104.81 47.4427 104.474 47.662C104.138 47.8767 103.97 48.1637 103.97 48.523C103.97 48.7237 104.03 48.8964 104.152 49.041C104.273 49.181 104.492 49.314 104.81 49.44C105.132 49.566 105.589 49.7037 106.182 49.853C106.877 50.0304 107.423 50.217 107.82 50.413C108.216 50.609 108.499 50.84 108.667 51.106C108.835 51.372 108.919 51.701 108.919 52.093C108.919 52.807 108.653 53.3694 108.121 53.78C107.593 54.186 106.865 54.389 105.937 54.389Z" fill="#F4F0FF"/>
<path d="M24.3333 47.3203H16.3333C15.9797 47.3203 15.6406 47.1798 15.3905 46.9298C15.1405 46.6799 15 46.3408 15 45.9873V27.3256C15 26.9721 15.1405 26.6331 15.3905 26.3831C15.6406 26.1331 15.9797 25.9927 16.3333 25.9927H24.3333C25.0406 25.9927 25.7189 26.2736 26.219 26.7735C26.719 27.2735 27 27.9516 27 28.6586C27 27.9516 27.281 27.2735 27.781 26.7735C28.2811 26.2736 28.9594 25.9927 29.6667 25.9927H37.6667C38.0203 25.9927 38.3594 26.1331 38.6095 26.3831C38.8595 26.6331 39 26.9721 39 27.3256V45.9873C39 46.3408 38.8595 46.6799 38.6095 46.9298C38.3594 47.1798 38.0203 47.3203 37.6667 47.3203H29.6667C28.9594 47.3203 28.2811 47.6011 27.781 48.1011C27.281 48.6011 27 49.2791 27 49.9862C27 49.2791 26.719 48.6011 26.219 48.1011C25.7189 47.6011 25.0406 47.3203 24.3333 47.3203Z" stroke="#F4F0FF" stroke-linecap="round" stroke-linejoin="round"/>
<path d="M27 28.6587V49.9863" stroke="#F4F0FF" stroke-linecap="round" stroke-linejoin="round"/>
<path d="M20.332 31.3247H21.6654" stroke="#F4F0FF" stroke-linecap="round" stroke-linejoin="round"/>
<path d="M20.332 36.6562H21.6654" stroke="#F4F0FF" stroke-linecap="round" stroke-linejoin="round"/>
<path d="M32.332 31.3247H33.6654" stroke="#F4F0FF" stroke-linecap="round" stroke-linejoin="round"/>
<path d="M32.332 36.6562H33.6654" stroke="#F4F0FF" stroke-linecap="round" stroke-linejoin="round"/>
<path d="M32.332 41.9883H33.6654" stroke="#F4F0FF" stroke-linecap="round" stroke-linejoin="round"/>
<path d="M133 12.7466C133 14.4205 133.33 16.078 133.971 17.6245C134.611 19.1709 135.55 20.5761 136.734 21.7597C137.918 22.9434 139.324 23.8823 140.871 24.5228C142.418 25.1634 144.076 25.4931 145.75 25.4931C147.424 25.4931 149.082 25.1634 150.629 24.5228C152.176 23.8823 153.582 22.9434 154.766 21.7597C155.95 20.5761 156.889 19.1709 157.529 17.6245C158.17 16.078 158.5 14.4205 158.5 12.7466C158.5 11.0727 158.17 9.41515 157.529 7.86866C156.889 6.32218 155.95 4.91701 154.766 3.73338C153.582 2.54975 152.176 1.61085 150.629 0.970274C149.082 0.3297 147.424 0 145.75 0C144.076 0 142.418 0.3297 140.871 0.970274C139.324 1.61085 137.918 2.54975 136.734 3.73338C135.55 4.91701 134.611 6.32218 133.971 7.86866C133.33 9.41515 133 11.0727 133 12.7466Z" fill="white"/>
<path d="M141.5 12.7468L144.333 15.5796L150 9.91406" stroke="#5928E5" stroke-width="2.125" stroke-linecap="round" stroke-linejoin="round"/>
</svg>
