<svg width="97" height="130" viewBox="0 0 97 130" fill="none" xmlns="http://www.w3.org/2000/svg">
<rect y="9.18604" width="88" height="120" rx="12" fill="#5928E5" fill-opacity="0.25"/>
<path d="M36.668 28.2606C36.668 30.2051 37.4406 32.07 38.8159 33.445C40.1911 34.8199 42.0564 35.5924 44.0013 35.5924C45.9462 35.5924 47.8115 34.8199 49.1868 33.445C50.562 32.07 51.3346 30.2051 51.3346 28.2606C51.3346 26.316 50.562 24.4511 49.1868 23.0762C47.8115 21.7012 45.9462 20.9287 44.0013 20.9287C42.0564 20.9287 40.1911 21.7012 38.8159 23.0762C37.4406 24.4511 36.668 26.316 36.668 28.2606Z" stroke="#F4F0FF" stroke-linecap="round" stroke-linejoin="round"/>
<path d="M33 53.9198V50.2542C33 48.3098 33.7726 46.445 35.1479 45.0702C36.5232 43.6953 38.3884 42.9229 40.3333 42.9229H41.25" stroke="#F4F0FF" stroke-linecap="round" stroke-linejoin="round"/>
<path d="M54.6347 53.5855L50.6527 55.6714C50.5346 55.7329 50.4016 55.7603 50.2688 55.7507C50.1359 55.741 50.0083 55.6946 49.9003 55.6166C49.7923 55.5387 49.7081 55.4323 49.6571 55.3092C49.6061 55.1862 49.5902 55.0514 49.6114 54.9199L50.3722 50.5006L47.1511 47.3718C47.0549 47.2788 46.9869 47.1608 46.9546 47.031C46.9224 46.9012 46.9273 46.765 46.9688 46.6379C47.0103 46.5108 47.0867 46.3979 47.1892 46.3122C47.2918 46.2264 47.4165 46.1712 47.5489 46.1528L52.0002 45.5076L53.9912 41.488C54.0508 41.3682 54.1426 41.2675 54.2563 41.1971C54.3699 41.1267 54.501 41.0894 54.6347 41.0894C54.7685 41.0894 54.8996 41.1267 55.0132 41.1971C55.1269 41.2675 55.2187 41.3682 55.2782 41.488L57.2692 45.5076L61.7206 46.1528C61.8527 46.1718 61.9768 46.2274 62.0789 46.3133C62.181 46.3991 62.2571 46.5118 62.2985 46.6387C62.3399 46.7655 62.345 46.9014 62.3131 47.0309C62.2813 47.1605 62.2139 47.2785 62.1184 47.3718L58.8972 50.5006L59.6562 54.9181C59.679 55.0498 59.6644 55.1853 59.614 55.3091C59.5637 55.4329 59.4796 55.5402 59.3713 55.6186C59.2631 55.6971 59.135 55.7436 59.0016 55.753C58.8682 55.7623 58.7349 55.734 58.6167 55.6714L54.6347 53.5855Z" stroke="#F4F0FF" stroke-linecap="round" stroke-linejoin="round"/>
<path d="M13.98 78.186V68.106H17.872C17.97 68.106 18.0797 68.1107 18.201 68.12C18.327 68.1247 18.453 68.1387 18.579 68.162C19.1063 68.2414 19.552 68.4257 19.916 68.715C20.2847 68.9997 20.5623 69.359 20.749 69.793C20.9403 70.227 21.036 70.7077 21.036 71.235C21.036 71.9957 20.8353 72.656 20.434 73.216C20.0327 73.776 19.4587 74.1284 18.712 74.273L18.355 74.357H15.009V78.186H13.98ZM20.084 78.186L18.096 74.084L19.083 73.706L21.267 78.186H20.084ZM15.009 73.377H17.844C17.928 73.377 18.026 73.3724 18.138 73.363C18.25 73.3537 18.3597 73.3374 18.467 73.314C18.8123 73.2394 19.0947 73.097 19.314 72.887C19.538 72.677 19.7037 72.4274 19.811 72.138C19.923 71.8487 19.979 71.5477 19.979 71.235C19.979 70.9224 19.923 70.6214 19.811 70.332C19.7037 70.038 19.538 69.786 19.314 69.576C19.0947 69.366 18.8123 69.2237 18.467 69.149C18.3597 69.1257 18.25 69.1117 18.138 69.107C18.026 69.0977 17.928 69.093 17.844 69.093H15.009V73.377ZM26.711 78.396C25.9737 78.396 25.3344 78.2327 24.793 77.906C24.2564 77.5794 23.8387 77.1197 23.54 76.527C23.2414 75.9344 23.092 75.239 23.092 74.441C23.092 73.615 23.239 72.901 23.533 72.299C23.827 71.697 24.24 71.2327 24.772 70.906C25.3087 70.5794 25.941 70.416 26.669 70.416C27.4157 70.416 28.0527 70.5887 28.58 70.934C29.1074 71.2747 29.5064 71.7647 29.777 72.404C30.0477 73.0434 30.1714 73.8064 30.148 74.693H29.098V74.329C29.0794 73.349 28.867 72.6094 28.461 72.11C28.0597 71.6107 27.4717 71.361 26.697 71.361C25.885 71.361 25.262 71.6247 24.828 72.152C24.3987 72.6794 24.184 73.4307 24.184 74.406C24.184 75.358 24.3987 76.0977 24.828 76.625C25.262 77.1477 25.8757 77.409 26.669 77.409C27.2104 77.409 27.6817 77.2854 28.083 77.038C28.489 76.786 28.8087 76.4244 29.042 75.953L30.001 76.324C29.7024 76.982 29.2614 77.493 28.678 77.857C28.0994 78.2164 27.4437 78.396 26.711 78.396ZM23.82 74.693V73.832H29.595V74.693H23.82ZM34.4278 78.396C33.8584 78.396 33.3801 78.2934 32.9928 78.088C32.6101 77.8827 32.3231 77.6097 32.1318 77.269C31.9404 76.9284 31.8448 76.5574 31.8448 76.156C31.8448 75.7454 31.9264 75.3954 32.0898 75.106C32.2578 74.812 32.4841 74.5717 32.7688 74.385C33.0581 74.1984 33.3918 74.056 33.7698 73.958C34.1524 73.8647 34.5748 73.783 35.0368 73.713C35.5034 73.6384 35.9584 73.5754 36.4018 73.524C36.8498 73.468 37.2418 73.4144 37.5778 73.363L37.2138 73.587C37.2278 72.8404 37.0831 72.2874 36.7798 71.928C36.4764 71.5687 35.9491 71.389 35.1978 71.389C34.6798 71.389 34.2411 71.5057 33.8818 71.739C33.5271 71.9724 33.2774 72.341 33.1328 72.845L32.1318 72.551C32.3044 71.8744 32.6521 71.3494 33.1748 70.976C33.6974 70.6027 34.3764 70.416 35.2118 70.416C35.9024 70.416 36.4881 70.5467 36.9688 70.808C37.4541 71.0647 37.7971 71.438 37.9978 71.928C38.0911 72.1474 38.1518 72.3924 38.1798 72.663C38.2078 72.9337 38.2218 73.209 38.2218 73.489V78.186H37.3048V76.289L37.5708 76.401C37.3141 77.0497 36.9151 77.5444 36.3738 77.885C35.8324 78.2257 35.1838 78.396 34.4278 78.396ZM34.5468 77.507C35.0274 77.507 35.4474 77.4207 35.8068 77.248C36.1661 77.0754 36.4554 76.8397 36.6748 76.541C36.8941 76.2377 37.0364 75.897 37.1018 75.519C37.1578 75.2764 37.1881 75.0104 37.1928 74.721C37.1974 74.427 37.1998 74.2077 37.1998 74.063L37.5918 74.266C37.2418 74.3127 36.8614 74.3594 36.4508 74.406C36.0448 74.4527 35.6434 74.5064 35.2468 74.567C34.8548 74.6277 34.5001 74.7 34.1828 74.784C33.9681 74.8447 33.7604 74.931 33.5598 75.043C33.3591 75.1504 33.1934 75.295 33.0628 75.477C32.9368 75.659 32.8738 75.8854 32.8738 76.156C32.8738 76.3754 32.9274 76.5877 33.0348 76.793C33.1468 76.9984 33.3241 77.1687 33.5668 77.304C33.8141 77.4394 34.1408 77.507 34.5468 77.507ZM40.8841 78.186V67.896H41.9131V78.186H40.8841ZM44.5716 74.217V73.335H48.7716V74.217H44.5716ZM55.4065 78.186C54.9819 78.2747 54.5619 78.3097 54.1465 78.291C53.7359 78.2724 53.3672 78.1837 53.0405 78.025C52.7185 77.8664 52.4735 77.619 52.3055 77.283C52.1702 77.003 52.0955 76.7207 52.0815 76.436C52.0722 76.1467 52.0675 75.8177 52.0675 75.449V68.526H53.0895V75.407C53.0895 75.7244 53.0919 75.9904 53.0965 76.205C53.1059 76.415 53.1549 76.6017 53.2435 76.765C53.4115 77.0777 53.6775 77.2644 54.0415 77.325C54.4102 77.3857 54.8652 77.3717 55.4065 77.283V78.186ZM50.4505 71.508V70.626H55.4065V71.508H50.4505ZM57.736 69.191V68.036H58.765V69.191H57.736ZM57.736 78.186V70.626H58.765V78.186H57.736ZM70.5796 78.186L70.5866 73.223C70.5866 72.6397 70.4233 72.1824 70.0966 71.851C69.7746 71.515 69.3639 71.347 68.8646 71.347C68.5799 71.347 68.3023 71.4124 68.0316 71.543C67.7609 71.6737 67.5369 71.8837 67.3596 72.173C67.1869 72.4624 67.1006 72.8404 67.1006 73.307L66.4916 73.132C66.4776 72.5907 66.5826 72.117 66.8066 71.711C67.0353 71.305 67.3479 70.99 67.7446 70.766C68.1459 70.5374 68.5986 70.423 69.1026 70.423C69.8633 70.423 70.4723 70.6587 70.9296 71.13C71.3869 71.5967 71.6156 72.229 71.6156 73.027L71.6086 78.186H70.5796ZM61.5566 78.186V70.626H62.4806V72.488H62.5926V78.186H61.5566ZM66.0786 78.186L66.0856 73.293C66.0856 72.691 65.9246 72.2174 65.6026 71.872C65.2853 71.522 64.8653 71.347 64.3426 71.347C63.8199 71.347 63.3976 71.5267 63.0756 71.886C62.7536 72.2407 62.5926 72.7144 62.5926 73.307L61.9766 72.971C61.9766 72.4857 62.0909 72.0517 62.3196 71.669C62.5483 71.2817 62.8609 70.9784 63.2576 70.759C63.6543 70.535 64.1046 70.423 64.6086 70.423C65.0893 70.423 65.5163 70.5257 65.8896 70.731C66.2676 70.9364 66.5639 71.235 66.7786 71.627C66.9933 72.019 67.1006 72.495 67.1006 73.055L67.0936 78.186H66.0786ZM77.2751 78.396C76.5378 78.396 75.8984 78.2327 75.3571 77.906C74.8204 77.5794 74.4028 77.1197 74.1041 76.527C73.8054 75.9344 73.6561 75.239 73.6561 74.441C73.6561 73.615 73.8031 72.901 74.0971 72.299C74.3911 71.697 74.8041 71.2327 75.3361 70.906C75.8728 70.5794 76.5051 70.416 77.2331 70.416C77.9798 70.416 78.6168 70.5887 79.1441 70.934C79.6714 71.2747 80.0704 71.7647 80.3411 72.404C80.6118 73.0434 80.7354 73.8064 80.7121 74.693H79.6621V74.329C79.6434 73.349 79.4311 72.6094 79.0251 72.11C78.6238 71.6107 78.0358 71.361 77.2611 71.361C76.4491 71.361 75.8261 71.6247 75.3921 72.152C74.9628 72.6794 74.7481 73.4307 74.7481 74.406C74.7481 75.358 74.9628 76.0977 75.3921 76.625C75.8261 77.1477 76.4398 77.409 77.2331 77.409C77.7744 77.409 78.2458 77.2854 78.6471 77.038C79.0531 76.786 79.3728 76.4244 79.6061 75.953L80.5651 76.324C80.2664 76.982 79.8254 77.493 79.2421 77.857C78.6634 78.2164 78.0078 78.396 77.2751 78.396ZM74.3841 74.693V73.832H80.1591V74.693H74.3841ZM14.12 96.186V86.106H15.149V96.186H14.12ZM23.4076 96.186V92.329C23.4076 91.909 23.3679 91.524 23.2886 91.174C23.2092 90.8194 23.0809 90.5114 22.9036 90.25C22.7309 89.984 22.5046 89.7787 22.2246 89.634C21.9492 89.4894 21.6132 89.417 21.2166 89.417C20.8526 89.417 20.5306 89.48 20.2506 89.606C19.9752 89.732 19.7419 89.914 19.5506 90.152C19.3639 90.3854 19.2216 90.67 19.1236 91.006C19.0256 91.342 18.9766 91.7247 18.9766 92.154L18.2486 91.993C18.2486 91.2184 18.3839 90.5674 18.6546 90.04C18.9252 89.5127 19.2986 89.1137 19.7746 88.843C20.2506 88.5724 20.7966 88.437 21.4126 88.437C21.8652 88.437 22.2596 88.507 22.5956 88.647C22.9362 88.787 23.2232 88.976 23.4566 89.214C23.6946 89.452 23.8859 89.725 24.0306 90.033C24.1752 90.3364 24.2802 90.6607 24.3456 91.006C24.4109 91.3467 24.4436 91.6874 24.4436 92.028V96.186H23.4076ZM17.9406 96.186V88.626H18.8716V90.488H18.9766V96.186H17.9406ZM29.8384 96.396C29.1337 96.396 28.5317 96.221 28.0324 95.871C27.5331 95.5164 27.1504 95.038 26.8844 94.436C26.6184 93.834 26.4854 93.155 26.4854 92.399C26.4854 91.6477 26.6161 90.971 26.8774 90.369C27.1434 89.767 27.5237 89.291 28.0184 88.941C28.5131 88.591 29.1057 88.416 29.7964 88.416C30.5057 88.416 31.1031 88.5887 31.5884 88.934C32.0737 89.2794 32.4401 89.753 32.6874 90.355C32.9394 90.9524 33.0654 91.6337 33.0654 92.399C33.0654 93.1504 32.9417 93.8294 32.6944 94.436C32.4471 95.038 32.0831 95.5164 31.6024 95.871C31.1217 96.221 30.5337 96.396 29.8384 96.396ZM29.9434 95.437C30.4801 95.437 30.9234 95.3064 31.2734 95.045C31.6234 94.7837 31.8847 94.4244 32.0574 93.967C32.2301 93.505 32.3164 92.9824 32.3164 92.399C32.3164 91.8064 32.2301 91.2837 32.0574 90.831C31.8847 90.3737 31.6234 90.0167 31.2734 89.76C30.9281 89.5034 30.4917 89.375 29.9644 89.375C29.4231 89.375 28.9751 89.508 28.6204 89.774C28.2657 90.04 28.0021 90.4017 27.8294 90.859C27.6614 91.3164 27.5774 91.8297 27.5774 92.399C27.5774 92.973 27.6637 93.491 27.8364 93.953C28.0137 94.4104 28.2774 94.772 28.6274 95.038C28.9774 95.304 29.4161 95.437 29.9434 95.437ZM32.3164 96.186V90.495H32.2044V86.106H33.2404V96.186H32.3164ZM38.7952 96.375C38.3426 96.375 37.9459 96.305 37.6052 96.165C37.2692 96.025 36.9822 95.836 36.7442 95.598C36.5109 95.36 36.3219 95.0894 36.1772 94.786C36.0326 94.478 35.9276 94.1537 35.8622 93.813C35.7969 93.4677 35.7642 93.1247 35.7642 92.784V88.626H36.8002V92.483C36.8002 92.8984 36.8399 93.2834 36.9192 93.638C36.9986 93.9927 37.1246 94.303 37.2972 94.569C37.4746 94.8304 37.7009 95.0334 37.9762 95.178C38.2562 95.3227 38.5946 95.395 38.9912 95.395C39.3552 95.395 39.6749 95.332 39.9502 95.206C40.2302 95.08 40.4636 94.9004 40.6502 94.667C40.8416 94.429 40.9862 94.142 41.0842 93.806C41.1822 93.4654 41.2312 93.0827 41.2312 92.658L41.9592 92.819C41.9592 93.5937 41.8239 94.2447 41.5532 94.772C41.2826 95.2994 40.9092 95.6984 40.4332 95.969C39.9572 96.2397 39.4112 96.375 38.7952 96.375ZM41.3362 96.186V94.324H41.2312V88.626H42.2602V96.186H41.3362ZM47.7377 96.389C46.8511 96.389 46.1207 96.1977 45.5467 95.815C44.9774 95.4324 44.6274 94.9004 44.4967 94.219L45.5467 94.044C45.6587 94.4734 45.9131 94.8164 46.3097 95.073C46.7111 95.325 47.2057 95.451 47.7937 95.451C48.3677 95.451 48.8204 95.332 49.1517 95.094C49.4831 94.8514 49.6487 94.5224 49.6487 94.107C49.6487 93.8737 49.5951 93.6847 49.4877 93.54C49.3851 93.3907 49.1727 93.253 48.8507 93.127C48.5287 93.001 48.0481 92.8517 47.4087 92.679C46.7227 92.4924 46.1861 92.3057 45.7987 92.119C45.4114 91.9324 45.1361 91.7177 44.9727 91.475C44.8094 91.2277 44.7277 90.9267 44.7277 90.572C44.7277 90.1427 44.8491 89.767 45.0917 89.445C45.3344 89.1184 45.6704 88.8664 46.0997 88.689C46.5291 88.507 47.0284 88.416 47.5977 88.416C48.1671 88.416 48.6757 88.5094 49.1237 88.696C49.5764 88.878 49.9404 89.1347 50.2157 89.466C50.4911 89.7974 50.6544 90.1824 50.7057 90.621L49.6557 90.81C49.5857 90.3667 49.3641 90.0167 48.9907 89.76C48.6221 89.4987 48.1531 89.3634 47.5837 89.354C47.0471 89.34 46.6107 89.4427 46.2747 89.662C45.9387 89.8767 45.7707 90.1637 45.7707 90.523C45.7707 90.7237 45.8314 90.8964 45.9527 91.041C46.0741 91.181 46.2934 91.314 46.6107 91.44C46.9327 91.566 47.3901 91.7037 47.9827 91.853C48.6781 92.0304 49.2241 92.217 49.6207 92.413C50.0174 92.609 50.2997 92.84 50.4677 93.106C50.6357 93.372 50.7197 93.701 50.7197 94.093C50.7197 94.807 50.4537 95.3694 49.9217 95.78C49.3944 96.186 48.6664 96.389 47.7377 96.389ZM57.0882 96.186C56.6635 96.2747 56.2435 96.3097 55.8282 96.291C55.4175 96.2724 55.0489 96.1837 54.7222 96.025C54.4002 95.8664 54.1552 95.619 53.9872 95.283C53.8519 95.003 53.7772 94.7207 53.7632 94.436C53.7539 94.1467 53.7492 93.8177 53.7492 93.449V86.526H54.7712V93.407C54.7712 93.7244 54.7735 93.9904 54.7782 94.205C54.7875 94.415 54.8365 94.6017 54.9252 94.765C55.0932 95.0777 55.3592 95.2644 55.7232 95.325C56.0919 95.3857 56.5469 95.3717 57.0882 95.283V96.186ZM52.1322 89.508V88.626H57.0882V89.508H52.1322ZM59.2777 96.186V88.626H60.2017V90.446L60.0197 90.208C60.1037 89.984 60.2133 89.7787 60.3487 89.592C60.484 89.4007 60.631 89.2444 60.7897 89.123C60.9857 88.9504 61.2143 88.8197 61.4757 88.731C61.737 88.6377 62.0007 88.584 62.2667 88.57C62.5327 88.5514 62.7753 88.57 62.9947 88.626V89.592C62.7193 89.522 62.4183 89.5057 62.0917 89.543C61.765 89.5804 61.464 89.711 61.1887 89.935C60.9367 90.131 60.7477 90.3667 60.6217 90.642C60.4957 90.9127 60.4117 91.202 60.3697 91.51C60.3277 91.8134 60.3067 92.1144 60.3067 92.413V96.186H59.2777ZM66.0049 99.546L67.4679 95.577L67.4889 96.753L64.1779 88.626H65.2699L67.9859 95.423H67.5379L70.0439 88.626H71.0939L67.0339 99.546H66.0049ZM13.98 113.186V103.106H20.28V104.093H15.009V107.579H19.44V108.566H15.009V112.199H20.28V113.186H13.98ZM21.8244 113.186L24.7784 109.364L21.8874 105.626H23.1194L25.3804 108.573L27.6204 105.626H28.8524L25.9614 109.364L28.9224 113.186H27.6834L25.3804 110.155L23.0634 113.186H21.8244ZM34.1422 113.396C33.4469 113.396 32.8589 113.221 32.3782 112.871C31.8975 112.516 31.5335 112.038 31.2862 111.436C31.0389 110.829 30.9152 110.15 30.9152 109.399C30.9152 108.634 31.0389 107.952 31.2862 107.355C31.5382 106.753 31.9069 106.279 32.3922 105.934C32.8775 105.589 33.4749 105.416 34.1842 105.416C34.8749 105.416 35.4675 105.591 35.9622 105.941C36.4569 106.291 36.8349 106.767 37.0962 107.369C37.3622 107.971 37.4952 108.648 37.4952 109.399C37.4952 110.155 37.3622 110.834 37.0962 111.436C36.8302 112.038 36.4475 112.516 35.9482 112.871C35.4489 113.221 34.8469 113.396 34.1422 113.396ZM30.7402 116.546V105.626H31.6642V111.317H31.7762V116.546H30.7402ZM34.0372 112.437C34.5645 112.437 35.0032 112.304 35.3532 112.038C35.7032 111.772 35.9645 111.41 36.1372 110.953C36.3145 110.491 36.4032 109.973 36.4032 109.399C36.4032 108.83 36.3169 108.316 36.1442 107.859C35.9715 107.402 35.7079 107.04 35.3532 106.774C35.0032 106.508 34.5575 106.375 34.0162 106.375C33.4889 106.375 33.0502 106.503 32.7002 106.76C32.3549 107.017 32.0959 107.374 31.9232 107.831C31.7505 108.284 31.6642 108.806 31.6642 109.399C31.6642 109.982 31.7505 110.505 31.9232 110.967C32.0959 111.424 32.3572 111.784 32.7072 112.045C33.0572 112.306 33.5005 112.437 34.0372 112.437ZM42.9313 113.396C42.194 113.396 41.5547 113.233 41.0133 112.906C40.4767 112.579 40.059 112.12 39.7603 111.527C39.4617 110.934 39.3123 110.239 39.3123 109.441C39.3123 108.615 39.4593 107.901 39.7533 107.299C40.0473 106.697 40.4603 106.233 40.9923 105.906C41.529 105.579 42.1613 105.416 42.8893 105.416C43.636 105.416 44.273 105.589 44.8003 105.934C45.3277 106.275 45.7267 106.765 45.9973 107.404C46.268 108.043 46.3917 108.806 46.3683 109.693H45.3183V109.329C45.2997 108.349 45.0873 107.609 44.6813 107.11C44.28 106.611 43.692 106.361 42.9173 106.361C42.1053 106.361 41.4823 106.625 41.0483 107.152C40.619 107.679 40.4043 108.431 40.4043 109.406C40.4043 110.358 40.619 111.098 41.0483 111.625C41.4823 112.148 42.096 112.409 42.8893 112.409C43.4307 112.409 43.902 112.285 44.3033 112.038C44.7093 111.786 45.029 111.424 45.2623 110.953L46.2213 111.324C45.9227 111.982 45.4817 112.493 44.8983 112.857C44.3197 113.216 43.664 113.396 42.9313 113.396ZM40.0403 109.693V108.832H45.8153V109.693H40.0403ZM48.6218 113.186V105.626H49.5458V107.446L49.3638 107.208C49.4478 106.984 49.5575 106.779 49.6928 106.592C49.8281 106.401 49.9751 106.244 50.1338 106.123C50.3298 105.95 50.5585 105.82 50.8198 105.731C51.0811 105.638 51.3448 105.584 51.6108 105.57C51.8768 105.551 52.1195 105.57 52.3388 105.626V106.592C52.0635 106.522 51.7625 106.506 51.4358 106.543C51.1091 106.58 50.8081 106.711 50.5328 106.935C50.2808 107.131 50.0918 107.367 49.9658 107.642C49.8398 107.913 49.7558 108.202 49.7138 108.51C49.6718 108.813 49.6508 109.114 49.6508 109.413V113.186H48.6218ZM58.4827 113.186C58.0581 113.275 57.6381 113.31 57.2227 113.291C56.8121 113.272 56.4434 113.184 56.1167 113.025C55.7947 112.866 55.5497 112.619 55.3817 112.283C55.2464 112.003 55.1717 111.721 55.1577 111.436C55.1484 111.147 55.1437 110.818 55.1437 110.449V103.526H56.1657V110.407C56.1657 110.724 56.1681 110.99 56.1727 111.205C56.1821 111.415 56.2311 111.602 56.3197 111.765C56.4877 112.078 56.7537 112.264 57.1177 112.325C57.4864 112.386 57.9414 112.372 58.4827 112.283V113.186ZM53.5267 106.508V105.626H58.4827V106.508H53.5267ZM63.4932 113.389C62.6065 113.389 61.8762 113.198 61.3022 112.815C60.7329 112.432 60.3829 111.9 60.2522 111.219L61.3022 111.044C61.4142 111.473 61.6685 111.816 62.0652 112.073C62.4665 112.325 62.9612 112.451 63.5492 112.451C64.1232 112.451 64.5759 112.332 64.9072 112.094C65.2385 111.851 65.4042 111.522 65.4042 111.107C65.4042 110.874 65.3505 110.685 65.2432 110.54C65.1405 110.391 64.9282 110.253 64.6062 110.127C64.2842 110.001 63.8035 109.852 63.1642 109.679C62.4782 109.492 61.9415 109.306 61.5542 109.119C61.1669 108.932 60.8915 108.718 60.7282 108.475C60.5649 108.228 60.4832 107.927 60.4832 107.572C60.4832 107.143 60.6045 106.767 60.8472 106.445C61.0899 106.118 61.4259 105.866 61.8552 105.689C62.2845 105.507 62.7839 105.416 63.3532 105.416C63.9225 105.416 64.4312 105.509 64.8792 105.696C65.3319 105.878 65.6959 106.135 65.9712 106.466C66.2465 106.797 66.4099 107.182 66.4612 107.621L65.4112 107.81C65.3412 107.367 65.1195 107.017 64.7462 106.76C64.3775 106.499 63.9085 106.363 63.3392 106.354C62.8025 106.34 62.3662 106.443 62.0302 106.662C61.6942 106.877 61.5262 107.164 61.5262 107.523C61.5262 107.724 61.5869 107.896 61.7082 108.041C61.8295 108.181 62.0489 108.314 62.3662 108.44C62.6882 108.566 63.1455 108.704 63.7382 108.853C64.4335 109.03 64.9795 109.217 65.3762 109.413C65.7729 109.609 66.0552 109.84 66.2232 110.106C66.3912 110.372 66.4752 110.701 66.4752 111.093C66.4752 111.807 66.2092 112.369 65.6772 112.78C65.1499 113.186 64.4219 113.389 63.4932 113.389Z" fill="#F4F0FF"/>
<path d="M71 13.6806C71 15.3545 71.3298 17.0121 71.9705 18.5585C72.6113 20.105 73.5504 21.5102 74.7344 22.6938C75.9183 23.8774 77.3239 24.8164 78.8708 25.4569C80.4177 26.0975 82.0756 26.4272 83.75 26.4272C85.4244 26.4272 87.0823 26.0975 88.6292 25.4569C90.1761 24.8164 91.5817 23.8774 92.7656 22.6938C93.9496 21.5102 94.8887 20.105 95.5295 18.5585C96.1702 17.0121 96.5 15.3545 96.5 13.6806C96.5 12.0067 96.1702 10.3492 95.5295 8.80274C94.8887 7.25626 93.9496 5.85109 92.7656 4.66746C91.5817 3.48384 90.1761 2.54493 88.6292 1.90436C87.0823 1.26378 85.4244 0.934082 83.75 0.934082C82.0756 0.934082 80.4177 1.26378 78.8708 1.90436C77.3239 2.54493 75.9183 3.48384 74.7344 4.66746C73.5504 5.85109 72.6113 7.25626 71.9705 8.80274C71.3298 10.3492 71 12.0067 71 13.6806Z" fill="white"/>
<path d="M79.5 13.6809L82.3333 16.5137L88 10.8481" stroke="#5928E5" stroke-width="2.125" stroke-linecap="round" stroke-linejoin="round"/>
</svg>
