<svg width="91" height="112" viewBox="0 0 91 112" fill="none" xmlns="http://www.w3.org/2000/svg">
<rect y="9" width="83" height="103" rx="12" fill="#5928E5" fill-opacity="0.25"/>
<path d="M30.668 28.0745C30.668 30.019 31.4406 31.8839 32.8159 33.2589C34.1911 34.6339 36.0564 35.4064 38.0013 35.4064C39.9462 35.4064 41.8115 34.6339 43.1868 33.2589C44.562 31.8839 45.3346 30.019 45.3346 28.0745C45.3346 26.13 44.562 24.2651 43.1868 22.8901C41.8115 21.5151 39.9462 20.7427 38.0013 20.7427C36.0564 20.7427 34.1911 21.5151 32.8159 22.8901C31.4406 24.2651 30.668 26.13 30.668 28.0745Z" stroke="#F4F0FF" stroke-linecap="round" stroke-linejoin="round"/>
<path d="M27 53.7338V50.0681C27 48.1238 27.7726 46.259 29.1479 44.8841C30.5232 43.5092 32.3884 42.7368 34.3333 42.7368H35.25" stroke="#F4F0FF" stroke-linecap="round" stroke-linejoin="round"/>
<path d="M48.6347 53.3995L44.6527 55.4854C44.5346 55.5469 44.4016 55.5743 44.2688 55.5646C44.1359 55.555 44.0083 55.5086 43.9003 55.4306C43.7923 55.3527 43.7081 55.2462 43.6571 55.1232C43.6061 55.0001 43.5902 54.8654 43.6114 54.7339L44.3722 50.3146L41.1511 47.1857C41.0549 47.0928 40.9869 46.9747 40.9546 46.845C40.9224 46.7152 40.9273 46.579 40.9688 46.4519C41.0103 46.3248 41.0867 46.2119 41.1892 46.1261C41.2918 46.0404 41.4165 45.9851 41.5489 45.9668L46.0002 45.3216L47.9912 41.3019C48.0508 41.1822 48.1426 41.0815 48.2563 41.011C48.3699 40.9406 48.501 40.9033 48.6347 40.9033C48.7685 40.9033 48.8996 40.9406 49.0132 41.011C49.1269 41.0815 49.2187 41.1822 49.2782 41.3019L51.2692 45.3216L55.7206 45.9668C55.8527 45.9858 55.9768 46.0414 56.0789 46.1272C56.181 46.2131 56.2571 46.3258 56.2985 46.4526C56.3399 46.5794 56.345 46.7153 56.3131 46.8449C56.2813 46.9744 56.2139 47.0925 56.1184 47.1857L52.8972 50.3146L53.6562 54.732C53.679 54.8638 53.6644 54.9992 53.614 55.1231C53.5637 55.2469 53.4796 55.3541 53.3713 55.4326C53.2631 55.5111 53.135 55.5576 53.0016 55.5669C52.8682 55.5763 52.7349 55.548 52.6167 55.4854L48.6347 53.3995Z" stroke="#F4F0FF" stroke-linecap="round" stroke-linejoin="round"/>
<path d="M11.8796 78V68.907H8.35856V67.92H16.4296V68.907H12.9086V78H11.8796ZM20.288 78.21C19.5366 78.21 18.895 78.0397 18.363 77.699C17.831 77.3583 17.4226 76.887 17.138 76.285C16.8533 75.683 16.711 74.9923 16.711 74.213C16.711 73.4197 16.8556 72.7243 17.145 72.127C17.4343 71.5297 17.845 71.0653 18.377 70.734C18.9136 70.398 19.5506 70.23 20.288 70.23C21.044 70.23 21.688 70.4003 22.22 70.741C22.7566 71.077 23.165 71.546 23.445 72.148C23.7296 72.7453 23.872 73.4337 23.872 74.213C23.872 75.0063 23.7296 75.704 23.445 76.306C23.1603 76.9033 22.7496 77.37 22.213 77.706C21.6763 78.042 21.0346 78.21 20.288 78.21ZM20.288 77.223C21.128 77.223 21.7533 76.9453 22.164 76.39C22.5746 75.83 22.78 75.1043 22.78 74.213C22.78 73.2983 22.5723 72.5703 22.157 72.029C21.7463 71.4877 21.1233 71.217 20.288 71.217C19.7233 71.217 19.2566 71.3453 18.888 71.602C18.524 71.854 18.251 72.2063 18.069 72.659C17.8916 73.107 17.803 73.625 17.803 74.213C17.803 75.123 18.013 75.8533 18.433 76.404C18.853 76.95 19.4713 77.223 20.288 77.223ZM29.5111 78.21C28.8158 78.21 28.2278 78.035 27.7471 77.685C27.2665 77.3303 26.9025 76.852 26.6551 76.25C26.4078 75.6433 26.2841 74.9643 26.2841 74.213C26.2841 73.4477 26.4078 72.7663 26.6551 72.169C26.9071 71.567 27.2758 71.0933 27.7611 70.748C28.2465 70.4027 28.8438 70.23 29.5531 70.23C30.2438 70.23 30.8365 70.405 31.3311 70.755C31.8258 71.105 32.2038 71.581 32.4651 72.183C32.7311 72.785 32.8641 73.4617 32.8641 74.213C32.8641 74.969 32.7311 75.648 32.4651 76.25C32.1991 76.852 31.8165 77.3303 31.3171 77.685C30.8178 78.035 30.2158 78.21 29.5111 78.21ZM26.1091 81.36V70.44H27.0331V76.131H27.1451V81.36H26.1091ZM29.4061 77.251C29.9335 77.251 30.3721 77.118 30.7221 76.852C31.0721 76.586 31.3335 76.2243 31.5061 75.767C31.6835 75.305 31.7721 74.787 31.7721 74.213C31.7721 73.6437 31.6858 73.1303 31.5131 72.673C31.3405 72.2157 31.0768 71.854 30.7221 71.588C30.3721 71.322 29.9265 71.189 29.3851 71.189C28.8578 71.189 28.4191 71.3173 28.0691 71.574C27.7238 71.8307 27.4648 72.1877 27.2921 72.645C27.1195 73.0977 27.0331 73.6203 27.0331 74.213C27.0331 74.7963 27.1195 75.319 27.2921 75.781C27.4648 76.2383 27.7261 76.5977 28.0761 76.859C28.4261 77.1203 28.8695 77.251 29.4061 77.251ZM38.604 78V70.44H39.528V72.26L39.346 72.022C39.43 71.798 39.5397 71.5927 39.675 71.406C39.8104 71.2147 39.9574 71.0583 40.116 70.937C40.312 70.7643 40.5407 70.6337 40.802 70.545C41.0634 70.4517 41.327 70.398 41.593 70.384C41.859 70.3653 42.1017 70.384 42.321 70.44V71.406C42.0457 71.336 41.7447 71.3197 41.418 71.357C41.0914 71.3943 40.7904 71.525 40.515 71.749C40.263 71.945 40.074 72.1807 39.948 72.456C39.822 72.7267 39.738 73.016 39.696 73.324C39.654 73.6273 39.633 73.9283 39.633 74.227V78H38.604ZM46.2248 78.21C45.6555 78.21 45.1772 78.1073 44.7898 77.902C44.4072 77.6967 44.1202 77.4237 43.9288 77.083C43.7375 76.7423 43.6418 76.3713 43.6418 75.97C43.6418 75.5593 43.7235 75.2093 43.8868 74.92C44.0548 74.626 44.2812 74.3857 44.5658 74.199C44.8552 74.0123 45.1888 73.87 45.5668 73.772C45.9495 73.6787 46.3718 73.597 46.8338 73.527C47.3005 73.4523 47.7555 73.3893 48.1988 73.338C48.6468 73.282 49.0388 73.2283 49.3748 73.177L49.0108 73.401C49.0248 72.6543 48.8802 72.1013 48.5768 71.742C48.2735 71.3827 47.7462 71.203 46.9948 71.203C46.4768 71.203 46.0382 71.3197 45.6788 71.553C45.3242 71.7863 45.0745 72.155 44.9298 72.659L43.9288 72.365C44.1015 71.6883 44.4492 71.1633 44.9718 70.79C45.4945 70.4167 46.1735 70.23 47.0088 70.23C47.6995 70.23 48.2852 70.3607 48.7658 70.622C49.2512 70.8787 49.5942 71.252 49.7948 71.742C49.8882 71.9613 49.9488 72.2063 49.9768 72.477C50.0048 72.7477 50.0188 73.023 50.0188 73.303V78H49.1018V76.103L49.3678 76.215C49.1112 76.8637 48.7122 77.3583 48.1708 77.699C47.6295 78.0397 46.9808 78.21 46.2248 78.21ZM46.3438 77.321C46.8245 77.321 47.2445 77.2347 47.6038 77.062C47.9632 76.8893 48.2525 76.6537 48.4718 76.355C48.6912 76.0517 48.8335 75.711 48.8988 75.333C48.9548 75.0903 48.9852 74.8243 48.9898 74.535C48.9945 74.241 48.9968 74.0217 48.9968 73.877L49.3888 74.08C49.0388 74.1267 48.6585 74.1733 48.2478 74.22C47.8418 74.2667 47.4405 74.3203 47.0438 74.381C46.6518 74.4417 46.2972 74.514 45.9798 74.598C45.7652 74.6587 45.5575 74.745 45.3568 74.857C45.1562 74.9643 44.9905 75.109 44.8598 75.291C44.7338 75.473 44.6708 75.6993 44.6708 75.97C44.6708 76.1893 44.7245 76.4017 44.8318 76.607C44.9438 76.8123 45.1212 76.9827 45.3638 77.118C45.6112 77.2533 45.9378 77.321 46.3438 77.321ZM56.6571 78C56.2325 78.0887 55.8125 78.1237 55.3971 78.105C54.9865 78.0863 54.6178 77.9977 54.2911 77.839C53.9691 77.6803 53.7241 77.433 53.5561 77.097C53.4208 76.817 53.3461 76.5347 53.3321 76.25C53.3228 75.9607 53.3181 75.6317 53.3181 75.263V68.34H54.3401V75.221C54.3401 75.5383 54.3425 75.8043 54.3471 76.019C54.3565 76.229 54.4055 76.4157 54.4941 76.579C54.6621 76.8917 54.9281 77.0783 55.2921 77.139C55.6608 77.1997 56.1158 77.1857 56.6571 77.097V78ZM51.7011 71.322V70.44H56.6571V71.322H51.7011ZM61.7722 78.21C61.0348 78.21 60.3955 78.0467 59.8542 77.72C59.3175 77.3933 58.8998 76.9337 58.6012 76.341C58.3025 75.7483 58.1532 75.053 58.1532 74.255C58.1532 73.429 58.3002 72.715 58.5942 72.113C58.8882 71.511 59.3012 71.0467 59.8332 70.72C60.3698 70.3933 61.0022 70.23 61.7302 70.23C62.4768 70.23 63.1138 70.4027 63.6412 70.748C64.1685 71.0887 64.5675 71.5787 64.8382 72.218C65.1088 72.8573 65.2325 73.6203 65.2092 74.507H64.1592V74.143C64.1405 73.163 63.9282 72.4233 63.5222 71.924C63.1208 71.4247 62.5328 71.175 61.7582 71.175C60.9462 71.175 60.3232 71.4387 59.8892 71.966C59.4598 72.4933 59.2452 73.2447 59.2452 74.22C59.2452 75.172 59.4598 75.9117 59.8892 76.439C60.3232 76.9617 60.9368 77.223 61.7302 77.223C62.2715 77.223 62.7428 77.0993 63.1442 76.852C63.5502 76.6 63.8698 76.2383 64.1032 75.767L65.0622 76.138C64.7635 76.796 64.3225 77.307 63.7392 77.671C63.1605 78.0303 62.5048 78.21 61.7722 78.21ZM58.8812 74.507V73.646H64.6562V74.507H58.8812ZM70.3956 78.21C69.6909 78.21 69.0889 78.035 68.5896 77.685C68.0903 77.3303 67.7076 76.852 67.4416 76.25C67.1756 75.648 67.0426 74.969 67.0426 74.213C67.0426 73.4617 67.1733 72.785 67.4346 72.183C67.7006 71.581 68.0809 71.105 68.5756 70.755C69.0703 70.405 69.6629 70.23 70.3536 70.23C71.063 70.23 71.6603 70.4027 72.1456 70.748C72.631 71.0933 72.9973 71.567 73.2446 72.169C73.4966 72.7663 73.6226 73.4477 73.6226 74.213C73.6226 74.9643 73.499 75.6433 73.2516 76.25C73.0043 76.852 72.6403 77.3303 72.1596 77.685C71.6789 78.035 71.0909 78.21 70.3956 78.21ZM70.5006 77.251C71.0373 77.251 71.4806 77.1203 71.8306 76.859C72.1806 76.5977 72.442 76.2383 72.6146 75.781C72.7873 75.319 72.8736 74.7963 72.8736 74.213C72.8736 73.6203 72.7873 73.0977 72.6146 72.645C72.442 72.1877 72.1806 71.8307 71.8306 71.574C71.4853 71.3173 71.049 71.189 70.5216 71.189C69.9803 71.189 69.5323 71.322 69.1776 71.588C68.8229 71.854 68.5593 72.2157 68.3866 72.673C68.2186 73.1303 68.1346 73.6437 68.1346 74.213C68.1346 74.787 68.2209 75.305 68.3936 75.767C68.5709 76.2243 68.8346 76.586 69.1846 76.852C69.5346 77.118 69.9733 77.251 70.5006 77.251ZM72.8736 78V72.309H72.7616V67.92H73.7976V78H72.8736ZM12.9883 96V86.907H9.46734V85.92H17.5383V86.907H14.0173V96H12.9883ZM21.4388 96.21C20.7014 96.21 20.0621 96.0467 19.5208 95.72C18.9841 95.3933 18.5664 94.9337 18.2678 94.341C17.9691 93.7483 17.8198 93.053 17.8198 92.255C17.8198 91.429 17.9668 90.715 18.2608 90.113C18.5548 89.511 18.9678 89.0467 19.4998 88.72C20.0364 88.3933 20.6688 88.23 21.3968 88.23C22.1434 88.23 22.7804 88.4027 23.3078 88.748C23.8351 89.0887 24.2341 89.5787 24.5048 90.218C24.7754 90.8573 24.8991 91.6203 24.8758 92.507H23.8258V92.143C23.8071 91.163 23.5948 90.4233 23.1888 89.924C22.7874 89.4247 22.1994 89.175 21.4248 89.175C20.6128 89.175 19.9898 89.4387 19.5558 89.966C19.1264 90.4933 18.9118 91.2447 18.9118 92.22C18.9118 93.172 19.1264 93.9117 19.5558 94.439C19.9898 94.9617 20.6034 95.223 21.3968 95.223C21.9381 95.223 22.4094 95.0993 22.8108 94.852C23.2168 94.6 23.5364 94.2383 23.7698 93.767L24.7288 94.138C24.4301 94.796 23.9891 95.307 23.4058 95.671C22.8271 96.0303 22.1714 96.21 21.4388 96.21ZM18.5478 92.507V91.646H24.3228V92.507H18.5478ZM29.1555 96.21C28.5862 96.21 28.1078 96.1073 27.7205 95.902C27.3378 95.6967 27.0508 95.4237 26.8595 95.083C26.6682 94.7423 26.5725 94.3713 26.5725 93.97C26.5725 93.5593 26.6542 93.2093 26.8175 92.92C26.9855 92.626 27.2118 92.3857 27.4965 92.199C27.7858 92.0123 28.1195 91.87 28.4975 91.772C28.8802 91.6787 29.3025 91.597 29.7645 91.527C30.2312 91.4523 30.6862 91.3893 31.1295 91.338C31.5775 91.282 31.9695 91.2283 32.3055 91.177L31.9415 91.401C31.9555 90.6543 31.8108 90.1013 31.5075 89.742C31.2042 89.3827 30.6768 89.203 29.9255 89.203C29.4075 89.203 28.9688 89.3197 28.6095 89.553C28.2548 89.7863 28.0052 90.155 27.8605 90.659L26.8595 90.365C27.0322 89.6883 27.3798 89.1633 27.9025 88.79C28.4252 88.4167 29.1042 88.23 29.9395 88.23C30.6302 88.23 31.2158 88.3607 31.6965 88.622C32.1818 88.8787 32.5248 89.252 32.7255 89.742C32.8188 89.9613 32.8795 90.2063 32.9075 90.477C32.9355 90.7477 32.9495 91.023 32.9495 91.303V96H32.0325V94.103L32.2985 94.215C32.0418 94.8637 31.6428 95.3583 31.1015 95.699C30.5602 96.0397 29.9115 96.21 29.1555 96.21ZM29.2745 95.321C29.7552 95.321 30.1752 95.2347 30.5345 95.062C30.8938 94.8893 31.1832 94.6537 31.4025 94.355C31.6218 94.0517 31.7642 93.711 31.8295 93.333C31.8855 93.0903 31.9158 92.8243 31.9205 92.535C31.9252 92.241 31.9275 92.0217 31.9275 91.877L32.3195 92.08C31.9695 92.1267 31.5892 92.1733 31.1785 92.22C30.7725 92.2667 30.3712 92.3203 29.9745 92.381C29.5825 92.4417 29.2278 92.514 28.9105 92.598C28.6958 92.6587 28.4882 92.745 28.2875 92.857C28.0868 92.9643 27.9212 93.109 27.7905 93.291C27.6645 93.473 27.6015 93.6993 27.6015 93.97C27.6015 94.1893 27.6552 94.4017 27.7625 94.607C27.8745 94.8123 28.0518 94.9827 28.2945 95.118C28.5418 95.2533 28.8685 95.321 29.2745 95.321ZM38.6078 96.21C37.8471 96.21 37.2031 96.0397 36.6758 95.699C36.1485 95.3583 35.7471 94.8893 35.4718 94.292C35.2011 93.69 35.0611 92.9993 35.0518 92.22C35.0611 91.4267 35.2058 90.7313 35.4858 90.134C35.7658 89.532 36.1695 89.0653 36.6968 88.734C37.2241 88.398 37.8635 88.23 38.6148 88.23C39.3801 88.23 40.0451 88.4167 40.6098 88.79C41.1791 89.1633 41.5688 89.6743 41.7788 90.323L40.7708 90.645C40.5935 90.1923 40.3111 89.8423 39.9238 89.595C39.5411 89.343 39.1025 89.217 38.6078 89.217C38.0525 89.217 37.5928 89.3453 37.2288 89.602C36.8648 89.854 36.5941 90.2063 36.4168 90.659C36.2395 91.1117 36.1485 91.632 36.1438 92.22C36.1531 93.1253 36.3631 93.8533 36.7738 94.404C37.1845 94.95 37.7958 95.223 38.6078 95.223C39.1211 95.223 39.5575 95.1063 39.9168 94.873C40.2808 94.635 40.5561 94.2897 40.7428 93.837L41.7788 94.145C41.4988 94.817 41.0881 95.3303 40.5468 95.685C40.0055 96.035 39.3591 96.21 38.6078 96.21ZM49.3837 96V92.143C49.3837 91.723 49.3441 91.338 49.2647 90.988C49.1854 90.6333 49.0571 90.3253 48.8797 90.064C48.7071 89.798 48.4807 89.5927 48.2007 89.448C47.9254 89.3033 47.5894 89.231 47.1927 89.231C46.8287 89.231 46.5067 89.294 46.2267 89.42C45.9514 89.546 45.7181 89.728 45.5267 89.966C45.3401 90.1993 45.1977 90.484 45.0997 90.82C45.0017 91.156 44.9527 91.5387 44.9527 91.968L44.2247 91.807C44.2247 91.0323 44.3601 90.3813 44.6307 89.854C44.9014 89.3267 45.2747 88.9277 45.7507 88.657C46.2267 88.3863 46.7727 88.251 47.3887 88.251C47.8414 88.251 48.2357 88.321 48.5717 88.461C48.9124 88.601 49.1994 88.79 49.4327 89.028C49.6707 89.266 49.8621 89.539 50.0067 89.847C50.1514 90.1503 50.2564 90.4747 50.3217 90.82C50.3871 91.1607 50.4197 91.5013 50.4197 91.842V96H49.3837ZM43.9167 96V85.92H44.8477V91.611H44.9527V96H43.9167ZM56.1352 96.21C55.3979 96.21 54.7586 96.0467 54.2172 95.72C53.6806 95.3933 53.2629 94.9337 52.9642 94.341C52.6656 93.7483 52.5162 93.053 52.5162 92.255C52.5162 91.429 52.6632 90.715 52.9572 90.113C53.2512 89.511 53.6642 89.0467 54.1962 88.72C54.7329 88.3933 55.3652 88.23 56.0932 88.23C56.8399 88.23 57.4769 88.4027 58.0042 88.748C58.5316 89.0887 58.9306 89.5787 59.2012 90.218C59.4719 90.8573 59.5956 91.6203 59.5722 92.507H58.5222V92.143C58.5036 91.163 58.2912 90.4233 57.8852 89.924C57.4839 89.4247 56.8959 89.175 56.1212 89.175C55.3092 89.175 54.6862 89.4387 54.2522 89.966C53.8229 90.4933 53.6082 91.2447 53.6082 92.22C53.6082 93.172 53.8229 93.9117 54.2522 94.439C54.6862 94.9617 55.2999 95.223 56.0932 95.223C56.6346 95.223 57.1059 95.0993 57.5072 94.852C57.9132 94.6 58.2329 94.2383 58.4662 93.767L59.4252 94.138C59.1266 94.796 58.6856 95.307 58.1022 95.671C57.5236 96.0303 56.8679 96.21 56.1352 96.21ZM53.2442 92.507V91.646H59.0192V92.507H53.2442ZM61.8257 96V88.44H62.7497V90.26L62.5677 90.022C62.6517 89.798 62.7614 89.5927 62.8967 89.406C63.032 89.2147 63.179 89.0583 63.3377 88.937C63.5337 88.7643 63.7624 88.6337 64.0237 88.545C64.285 88.4517 64.5487 88.398 64.8147 88.384C65.0807 88.3653 65.3234 88.384 65.5427 88.44V89.406C65.2674 89.336 64.9664 89.3197 64.6397 89.357C64.313 89.3943 64.012 89.525 63.7367 89.749C63.4847 89.945 63.2957 90.1807 63.1697 90.456C63.0437 90.7267 62.9597 91.016 62.9177 91.324C62.8757 91.6273 62.8547 91.9283 62.8547 92.227V96H61.8257ZM70.1182 96.203C69.2315 96.203 68.5012 96.0117 67.9272 95.629C67.3579 95.2463 67.0079 94.7143 66.8772 94.033L67.9272 93.858C68.0392 94.2873 68.2935 94.6303 68.6902 94.887C69.0915 95.139 69.5862 95.265 70.1742 95.265C70.7482 95.265 71.2009 95.146 71.5322 94.908C71.8635 94.6653 72.0292 94.3363 72.0292 93.921C72.0292 93.6877 71.9755 93.4987 71.8682 93.354C71.7655 93.2047 71.5532 93.067 71.2312 92.941C70.9092 92.815 70.4285 92.6657 69.7892 92.493C69.1032 92.3063 68.5665 92.1197 68.1792 91.933C67.7919 91.7463 67.5165 91.5317 67.3532 91.289C67.1899 91.0417 67.1082 90.7407 67.1082 90.386C67.1082 89.9567 67.2295 89.581 67.4722 89.259C67.7149 88.9323 68.0509 88.6803 68.4802 88.503C68.9095 88.321 69.4089 88.23 69.9782 88.23C70.5475 88.23 71.0562 88.3233 71.5042 88.51C71.9569 88.692 72.3209 88.9487 72.5962 89.28C72.8715 89.6113 73.0349 89.9963 73.0862 90.435L72.0362 90.624C71.9662 90.1807 71.7445 89.8307 71.3712 89.574C71.0025 89.3127 70.5335 89.1773 69.9642 89.168C69.4275 89.154 68.9912 89.2567 68.6552 89.476C68.3192 89.6907 68.1512 89.9777 68.1512 90.337C68.1512 90.5377 68.2119 90.7103 68.3332 90.855C68.4545 90.995 68.6739 91.128 68.9912 91.254C69.3132 91.38 69.7705 91.5177 70.3632 91.667C71.0585 91.8443 71.6045 92.031 72.0012 92.227C72.3979 92.423 72.6802 92.654 72.8482 92.92C73.0162 93.186 73.1002 93.515 73.1002 93.907C73.1002 94.621 72.8342 95.1833 72.3022 95.594C71.7749 96 71.0469 96.203 70.1182 96.203Z" fill="#F4F0FF"/>
<path d="M65 13.4946C65 15.1685 65.3298 16.826 65.9705 18.3725C66.6113 19.919 67.5504 21.3242 68.7344 22.5078C69.9183 23.6914 71.3239 24.6303 72.8708 25.2709C74.4177 25.9115 76.0756 26.2412 77.75 26.2412C79.4244 26.2412 81.0823 25.9115 82.6292 25.2709C84.1761 24.6303 85.5817 23.6914 86.7656 22.5078C87.9496 21.3242 88.8887 19.919 89.5295 18.3725C90.1702 16.826 90.5 15.1685 90.5 13.4946C90.5 11.8207 90.1702 10.1632 89.5295 8.61671C88.8887 7.07023 87.9496 5.66506 86.7656 4.48143C85.5817 3.2978 84.1761 2.3589 82.6292 1.71832C81.0823 1.07775 79.4244 0.748047 77.75 0.748047C76.0756 0.748047 74.4177 1.07775 72.8708 1.71832C71.3239 2.3589 69.9183 3.2978 68.7344 4.48143C67.5504 5.66506 66.6113 7.07023 65.9705 8.61671C65.3298 10.1632 65 11.8207 65 13.4946Z" fill="white"/>
<path d="M73.5 13.4949L76.3333 16.3276L82 10.6621" stroke="#5928E5" stroke-width="2.125" stroke-linecap="round" stroke-linejoin="round"/>
</svg>
