<svg width="159" height="69" viewBox="0 0 159 69" fill="none" xmlns="http://www.w3.org/2000/svg">
<rect y="9" width="148" height="60" rx="12" fill="#5928E5" fill-opacity="0.25"/>
<path d="M55.48 37.21C54.7753 37.21 54.1407 37.0933 53.576 36.86C53.016 36.622 52.5517 36.286 52.183 35.852C51.819 35.418 51.581 34.9023 51.469 34.305L52.519 34.13C52.687 34.7833 53.0417 35.2967 53.583 35.67C54.1243 36.0387 54.7707 36.223 55.522 36.223C56.0167 36.223 56.46 36.146 56.852 35.992C57.244 35.8333 57.552 35.6093 57.776 35.32C58 35.0307 58.112 34.6877 58.112 34.291C58.112 34.0297 58.0653 33.808 57.972 33.626C57.8787 33.4393 57.755 33.2853 57.601 33.164C57.447 33.0427 57.279 32.9423 57.097 32.863C56.915 32.779 56.7377 32.7113 56.565 32.66L54.01 31.897C53.702 31.8083 53.4173 31.6963 53.156 31.561C52.8947 31.421 52.666 31.2553 52.47 31.064C52.2787 30.868 52.1293 30.6393 52.022 30.378C51.9147 30.1167 51.861 29.818 51.861 29.482C51.861 28.9127 52.0103 28.4203 52.309 28.005C52.6077 27.5897 53.016 27.27 53.534 27.046C54.052 26.822 54.6423 26.7123 55.305 26.717C55.977 26.717 56.5767 26.836 57.104 27.074C57.636 27.312 58.0747 27.6527 58.42 28.096C58.7653 28.5347 58.994 29.055 59.106 29.657L58.028 29.853C57.958 29.4143 57.797 29.034 57.545 28.712C57.293 28.39 56.971 28.1427 56.579 27.97C56.1917 27.7927 55.7647 27.7017 55.298 27.697C54.8453 27.697 54.4417 27.774 54.087 27.928C53.737 28.0773 53.4593 28.2827 53.254 28.544C53.0487 28.8053 52.946 29.104 52.946 29.44C52.946 29.7807 53.0393 30.0537 53.226 30.259C53.4173 30.4643 53.6507 30.6253 53.926 30.742C54.206 30.8587 54.4767 30.9543 54.738 31.029L56.712 31.61C56.9173 31.666 57.1577 31.7477 57.433 31.855C57.713 31.9577 57.9837 32.107 58.245 32.303C58.511 32.4943 58.7303 32.7463 58.903 33.059C59.0757 33.3717 59.162 33.7683 59.162 34.249C59.162 34.7157 59.0687 35.1333 58.882 35.502C58.7 35.8707 58.441 36.181 58.105 36.433C57.7737 36.685 57.384 36.8763 56.936 37.007C56.4927 37.1423 56.0073 37.21 55.48 37.21ZM64.702 37.21C64.0066 37.21 63.4186 37.035 62.938 36.685C62.4573 36.3303 62.0933 35.852 61.846 35.25C61.5986 34.6433 61.475 33.9643 61.475 33.213C61.475 32.4477 61.5986 31.7663 61.846 31.169C62.098 30.567 62.4666 30.0933 62.952 29.748C63.4373 29.4027 64.0346 29.23 64.744 29.23C65.4346 29.23 66.0273 29.405 66.522 29.755C67.0166 30.105 67.3946 30.581 67.656 31.183C67.922 31.785 68.055 32.4617 68.055 33.213C68.055 33.969 67.922 34.648 67.656 35.25C67.39 35.852 67.0073 36.3303 66.508 36.685C66.0086 37.035 65.4066 37.21 64.702 37.21ZM61.3 40.36V29.44H62.224V35.131H62.336V40.36H61.3ZM64.597 36.251C65.1243 36.251 65.563 36.118 65.913 35.852C66.263 35.586 66.5243 35.2243 66.697 34.767C66.8743 34.305 66.963 33.787 66.963 33.213C66.963 32.6437 66.8766 32.1303 66.704 31.673C66.5313 31.2157 66.2676 30.854 65.913 30.588C65.563 30.322 65.1173 30.189 64.576 30.189C64.0486 30.189 63.61 30.3173 63.26 30.574C62.9146 30.8307 62.6556 31.1877 62.483 31.645C62.3103 32.0977 62.224 32.6203 62.224 33.213C62.224 33.7963 62.3103 34.319 62.483 34.781C62.6556 35.2383 62.917 35.5977 63.267 35.859C63.617 36.1203 64.0603 36.251 64.597 36.251ZM73.4911 37.21C72.7538 37.21 72.1144 37.0467 71.5731 36.72C71.0364 36.3933 70.6188 35.9337 70.3201 35.341C70.0214 34.7483 69.8721 34.053 69.8721 33.255C69.8721 32.429 70.0191 31.715 70.3131 31.113C70.6071 30.511 71.0201 30.0467 71.5521 29.72C72.0888 29.3933 72.7211 29.23 73.4491 29.23C74.1958 29.23 74.8328 29.4027 75.3601 29.748C75.8874 30.0887 76.2864 30.5787 76.5571 31.218C76.8278 31.8573 76.9514 32.6203 76.9281 33.507H75.8781V33.143C75.8594 32.163 75.6471 31.4233 75.2411 30.924C74.8398 30.4247 74.2518 30.175 73.4771 30.175C72.6651 30.175 72.0421 30.4387 71.6081 30.966C71.1788 31.4933 70.9641 32.2447 70.9641 33.22C70.9641 34.172 71.1788 34.9117 71.6081 35.439C72.0421 35.9617 72.6558 36.223 73.4491 36.223C73.9904 36.223 74.4618 36.0993 74.8631 35.852C75.2691 35.6 75.5888 35.2383 75.8221 34.767L76.7811 35.138C76.4824 35.796 76.0414 36.307 75.4581 36.671C74.8794 37.0303 74.2238 37.21 73.4911 37.21ZM70.6001 33.507V32.646H76.3751V33.507H70.6001ZM82.3176 37.21C81.5569 37.21 80.9129 37.0397 80.3856 36.699C79.8582 36.3583 79.4569 35.8893 79.1816 35.292C78.9109 34.69 78.7709 33.9993 78.7616 33.22C78.7709 32.4267 78.9156 31.7313 79.1956 31.134C79.4756 30.532 79.8792 30.0653 80.4066 29.734C80.9339 29.398 81.5732 29.23 82.3246 29.23C83.0899 29.23 83.7549 29.4167 84.3196 29.79C84.8889 30.1633 85.2786 30.6743 85.4886 31.323L84.4806 31.645C84.3032 31.1923 84.0209 30.8423 83.6336 30.595C83.2509 30.343 82.8122 30.217 82.3176 30.217C81.7622 30.217 81.3026 30.3453 80.9386 30.602C80.5746 30.854 80.3039 31.2063 80.1266 31.659C79.9492 32.1117 79.8582 32.632 79.8536 33.22C79.8629 34.1253 80.0729 34.8533 80.4836 35.404C80.8942 35.95 81.5056 36.223 82.3176 36.223C82.8309 36.223 83.2672 36.1063 83.6266 35.873C83.9906 35.635 84.2659 35.2897 84.4526 34.837L85.4886 35.145C85.2086 35.817 84.7979 36.3303 84.2566 36.685C83.7152 37.035 83.0689 37.21 82.3176 37.21ZM87.5684 28.005V26.85H88.5974V28.005H87.5684ZM87.5684 37V29.44H88.5974V37H87.5684ZM93.559 37.21C92.9897 37.21 92.5113 37.1073 92.124 36.902C91.7413 36.6967 91.4543 36.4237 91.263 36.083C91.0717 35.7423 90.976 35.3713 90.976 34.97C90.976 34.5593 91.0577 34.2093 91.221 33.92C91.389 33.626 91.6153 33.3857 91.9 33.199C92.1893 33.0123 92.523 32.87 92.901 32.772C93.2837 32.6787 93.706 32.597 94.168 32.527C94.6347 32.4523 95.0897 32.3893 95.533 32.338C95.981 32.282 96.373 32.2283 96.709 32.177L96.345 32.401C96.359 31.6543 96.2143 31.1013 95.911 30.742C95.6077 30.3827 95.0803 30.203 94.329 30.203C93.811 30.203 93.3723 30.3197 93.013 30.553C92.6583 30.7863 92.4087 31.155 92.264 31.659L91.263 31.365C91.4357 30.6883 91.7833 30.1633 92.306 29.79C92.8287 29.4167 93.5077 29.23 94.343 29.23C95.0337 29.23 95.6193 29.3607 96.1 29.622C96.5853 29.8787 96.9283 30.252 97.129 30.742C97.2223 30.9613 97.283 31.2063 97.311 31.477C97.339 31.7477 97.353 32.023 97.353 32.303V37H96.436V35.103L96.702 35.215C96.4453 35.8637 96.0463 36.3583 95.505 36.699C94.9637 37.0397 94.315 37.21 93.559 37.21ZM93.678 36.321C94.1587 36.321 94.5787 36.2347 94.938 36.062C95.2973 35.8893 95.5867 35.6537 95.806 35.355C96.0253 35.0517 96.1677 34.711 96.233 34.333C96.289 34.0903 96.3193 33.8243 96.324 33.535C96.3287 33.241 96.331 33.0217 96.331 32.877L96.723 33.08C96.373 33.1267 95.9927 33.1733 95.582 33.22C95.176 33.2667 94.7747 33.3203 94.378 33.381C93.986 33.4417 93.6313 33.514 93.314 33.598C93.0993 33.6587 92.8917 33.745 92.691 33.857C92.4903 33.9643 92.3247 34.109 92.194 34.291C92.068 34.473 92.005 34.6993 92.005 34.97C92.005 35.1893 92.0587 35.4017 92.166 35.607C92.278 35.8123 92.4553 35.9827 92.698 36.118C92.9453 36.2533 93.272 36.321 93.678 36.321ZM100.015 37V26.71H101.044V37H100.015ZM103.983 28.005V26.85H105.012V28.005H103.983ZM103.983 37V29.44H105.012V37H103.983ZM107.11 37V36.783L111.989 30.399H107.474V29.44H113.683V29.678L108.811 36.041H113.417V37H107.11ZM118.559 37.21C117.822 37.21 117.182 37.0467 116.641 36.72C116.104 36.3933 115.687 35.9337 115.388 35.341C115.089 34.7483 114.94 34.053 114.94 33.255C114.94 32.429 115.087 31.715 115.381 31.113C115.675 30.511 116.088 30.0467 116.62 29.72C117.157 29.3933 117.789 29.23 118.517 29.23C119.264 29.23 119.901 29.4027 120.428 29.748C120.955 30.0887 121.354 30.5787 121.625 31.218C121.896 31.8573 122.019 32.6203 121.996 33.507H120.946V33.143C120.927 32.163 120.715 31.4233 120.309 30.924C119.908 30.4247 119.32 30.175 118.545 30.175C117.733 30.175 117.11 30.4387 116.676 30.966C116.247 31.4933 116.032 32.2447 116.032 33.22C116.032 34.172 116.247 34.9117 116.676 35.439C117.11 35.9617 117.724 36.223 118.517 36.223C119.058 36.223 119.53 36.0993 119.931 35.852C120.337 35.6 120.657 35.2383 120.89 34.767L121.849 35.138C121.55 35.796 121.109 36.307 120.526 36.671C119.947 37.0303 119.292 37.21 118.559 37.21ZM115.668 33.507V32.646H121.443V33.507H115.668ZM127.183 37.21C126.478 37.21 125.876 37.035 125.377 36.685C124.877 36.3303 124.495 35.852 124.229 35.25C123.963 34.648 123.83 33.969 123.83 33.213C123.83 32.4617 123.96 31.785 124.222 31.183C124.488 30.581 124.868 30.105 125.363 29.755C125.857 29.405 126.45 29.23 127.141 29.23C127.85 29.23 128.447 29.4027 128.933 29.748C129.418 30.0933 129.784 30.567 130.032 31.169C130.284 31.7663 130.41 32.4477 130.41 33.213C130.41 33.9643 130.286 34.6433 130.039 35.25C129.791 35.852 129.427 36.3303 128.947 36.685C128.466 37.035 127.878 37.21 127.183 37.21ZM127.288 36.251C127.824 36.251 128.268 36.1203 128.618 35.859C128.968 35.5977 129.229 35.2383 129.402 34.781C129.574 34.319 129.661 33.7963 129.661 33.213C129.661 32.6203 129.574 32.0977 129.402 31.645C129.229 31.1877 128.968 30.8307 128.618 30.574C128.272 30.3173 127.836 30.189 127.309 30.189C126.767 30.189 126.319 30.322 125.965 30.588C125.61 30.854 125.346 31.2157 125.174 31.673C125.006 32.1303 124.922 32.6437 124.922 33.213C124.922 33.787 125.008 34.305 125.181 34.767C125.358 35.2243 125.622 35.586 125.972 35.852C126.322 36.118 126.76 36.251 127.288 36.251ZM129.661 37V31.309H129.549V26.92H130.585V37H129.661ZM55.116 55.21C54.3553 55.21 53.7113 55.0397 53.184 54.699C52.6567 54.3583 52.2553 53.8893 51.98 53.292C51.7093 52.69 51.5693 51.9993 51.56 51.22C51.5693 50.4267 51.714 49.7313 51.994 49.134C52.274 48.532 52.6777 48.0653 53.205 47.734C53.7323 47.398 54.3717 47.23 55.123 47.23C55.8883 47.23 56.5533 47.4167 57.118 47.79C57.6873 48.1633 58.077 48.6743 58.287 49.323L57.279 49.645C57.1017 49.1923 56.8193 48.8423 56.432 48.595C56.0493 48.343 55.6107 48.217 55.116 48.217C54.5607 48.217 54.101 48.3453 53.737 48.602C53.373 48.854 53.1023 49.2063 52.925 49.659C52.7477 50.1117 52.6567 50.632 52.652 51.22C52.6613 52.1253 52.8713 52.8533 53.282 53.404C53.6927 53.95 54.304 54.223 55.116 54.223C55.6293 54.223 56.0657 54.1063 56.425 53.873C56.789 53.635 57.0643 53.2897 57.251 52.837L58.287 53.145C58.007 53.817 57.5963 54.3303 57.055 54.685C56.5137 55.035 55.8673 55.21 55.116 55.21ZM63.3839 55.21C62.6325 55.21 61.9909 55.0397 61.4589 54.699C60.9269 54.3583 60.5185 53.887 60.2339 53.285C59.9492 52.683 59.8069 51.9923 59.8069 51.213C59.8069 50.4197 59.9515 49.7243 60.2409 49.127C60.5302 48.5297 60.9409 48.0653 61.4729 47.734C62.0095 47.398 62.6465 47.23 63.3839 47.23C64.1399 47.23 64.7839 47.4003 65.3159 47.741C65.8525 48.077 66.2609 48.546 66.5409 49.148C66.8255 49.7453 66.9679 50.4337 66.9679 51.213C66.9679 52.0063 66.8255 52.704 66.5409 53.306C66.2562 53.9033 65.8455 54.37 65.3089 54.706C64.7722 55.042 64.1305 55.21 63.3839 55.21ZM63.3839 54.223C64.2239 54.223 64.8492 53.9453 65.2599 53.39C65.6705 52.83 65.8759 52.1043 65.8759 51.213C65.8759 50.2983 65.6682 49.5703 65.2529 49.029C64.8422 48.4877 64.2192 48.217 63.3839 48.217C62.8192 48.217 62.3525 48.3453 61.9839 48.602C61.6199 48.854 61.3469 49.2063 61.1649 49.659C60.9875 50.107 60.8989 50.625 60.8989 51.213C60.8989 52.123 61.1089 52.8533 61.5289 53.404C61.9489 53.95 62.5672 54.223 63.3839 54.223ZM72.103 55.189C71.6504 55.189 71.2537 55.119 70.913 54.979C70.577 54.839 70.29 54.65 70.052 54.412C69.8187 54.174 69.6297 53.9033 69.485 53.6C69.3404 53.292 69.2354 52.9677 69.17 52.627C69.1047 52.2817 69.072 51.9387 69.072 51.598V47.44H70.108V51.297C70.108 51.7123 70.1477 52.0973 70.227 52.452C70.3064 52.8067 70.4324 53.117 70.605 53.383C70.7824 53.6443 71.0087 53.8473 71.284 53.992C71.564 54.1367 71.9024 54.209 72.299 54.209C72.663 54.209 72.9827 54.146 73.258 54.02C73.538 53.894 73.7714 53.7143 73.958 53.481C74.1494 53.243 74.294 52.956 74.392 52.62C74.49 52.2793 74.539 51.8967 74.539 51.472L75.267 51.633C75.267 52.4077 75.1317 53.0587 74.861 53.586C74.5904 54.1133 74.217 54.5123 73.741 54.783C73.265 55.0537 72.719 55.189 72.103 55.189ZM74.644 55V53.138H74.539V47.44H75.568V55H74.644ZM78.2245 55V47.44H79.1485V49.26L78.9665 49.022C79.0505 48.798 79.1602 48.5927 79.2955 48.406C79.4309 48.2147 79.5779 48.0583 79.7365 47.937C79.9325 47.7643 80.1612 47.6337 80.4225 47.545C80.6839 47.4517 80.9475 47.398 81.2135 47.384C81.4795 47.3653 81.7222 47.384 81.9415 47.44V48.406C81.6662 48.336 81.3652 48.3197 81.0385 48.357C80.7119 48.3943 80.4109 48.525 80.1355 48.749C79.8835 48.945 79.6945 49.1807 79.5685 49.456C79.4425 49.7267 79.3585 50.016 79.3165 50.324C79.2745 50.6273 79.2535 50.9283 79.2535 51.227V55H78.2245ZM86.517 55.203C85.6303 55.203 84.9 55.0117 84.326 54.629C83.7567 54.2463 83.4067 53.7143 83.276 53.033L84.326 52.858C84.438 53.2873 84.6923 53.6303 85.089 53.887C85.4903 54.139 85.985 54.265 86.573 54.265C87.147 54.265 87.5997 54.146 87.931 53.908C88.2623 53.6653 88.428 53.3363 88.428 52.921C88.428 52.6877 88.3743 52.4987 88.267 52.354C88.1643 52.2047 87.952 52.067 87.63 51.941C87.308 51.815 86.8273 51.6657 86.188 51.493C85.502 51.3063 84.9653 51.1197 84.578 50.933C84.1907 50.7463 83.9153 50.5317 83.752 50.289C83.5887 50.0417 83.507 49.7407 83.507 49.386C83.507 48.9567 83.6283 48.581 83.871 48.259C84.1137 47.9323 84.4497 47.6803 84.879 47.503C85.3083 47.321 85.8077 47.23 86.377 47.23C86.9463 47.23 87.455 47.3233 87.903 47.51C88.3557 47.692 88.7197 47.9487 88.995 48.28C89.2703 48.6113 89.4337 48.9963 89.485 49.435L88.435 49.624C88.365 49.1807 88.1433 48.8307 87.77 48.574C87.4013 48.3127 86.9323 48.1773 86.363 48.168C85.8263 48.154 85.39 48.2567 85.054 48.476C84.718 48.6907 84.55 48.9777 84.55 49.337C84.55 49.5377 84.6107 49.7103 84.732 49.855C84.8533 49.995 85.0727 50.128 85.39 50.254C85.712 50.38 86.1693 50.5177 86.762 50.667C87.4573 50.8443 88.0033 51.031 88.4 51.227C88.7967 51.423 89.079 51.654 89.247 51.92C89.415 52.186 89.499 52.515 89.499 52.907C89.499 53.621 89.233 54.1833 88.701 54.594C88.1737 55 87.4457 55.203 86.517 55.203ZM94.9505 55.21C94.2132 55.21 93.5738 55.0467 93.0325 54.72C92.4958 54.3933 92.0782 53.9337 91.7795 53.341C91.4808 52.7483 91.3315 52.053 91.3315 51.255C91.3315 50.429 91.4785 49.715 91.7725 49.113C92.0665 48.511 92.4795 48.0467 93.0115 47.72C93.5482 47.3933 94.1805 47.23 94.9085 47.23C95.6552 47.23 96.2922 47.4027 96.8195 47.748C97.3468 48.0887 97.7458 48.5787 98.0165 49.218C98.2872 49.8573 98.4108 50.6203 98.3875 51.507H97.3375V51.143C97.3188 50.163 97.1065 49.4233 96.7005 48.924C96.2992 48.4247 95.7112 48.175 94.9365 48.175C94.1245 48.175 93.5015 48.4387 93.0675 48.966C92.6382 49.4933 92.4235 50.2447 92.4235 51.22C92.4235 52.172 92.6382 52.9117 93.0675 53.439C93.5015 53.9617 94.1152 54.223 94.9085 54.223C95.4498 54.223 95.9212 54.0993 96.3225 53.852C96.7285 53.6 97.0482 53.2383 97.2815 52.767L98.2405 53.138C97.9418 53.796 97.5008 54.307 96.9175 54.671C96.3388 55.0303 95.6832 55.21 94.9505 55.21ZM92.0595 51.507V50.646H97.8345V51.507H92.0595ZM103.462 55.203C102.575 55.203 101.845 55.0117 101.271 54.629C100.702 54.2463 100.352 53.7143 100.221 53.033L101.271 52.858C101.383 53.2873 101.637 53.6303 102.034 53.887C102.435 54.139 102.93 54.265 103.518 54.265C104.092 54.265 104.545 54.146 104.876 53.908C105.207 53.6653 105.373 53.3363 105.373 52.921C105.373 52.6877 105.319 52.4987 105.212 52.354C105.109 52.2047 104.897 52.067 104.575 51.941C104.253 51.815 103.772 51.6657 103.133 51.493C102.447 51.3063 101.91 51.1197 101.523 50.933C101.136 50.7463 100.86 50.5317 100.697 50.289C100.534 50.0417 100.452 49.7407 100.452 49.386C100.452 48.9567 100.573 48.581 100.816 48.259C101.059 47.9323 101.395 47.6803 101.824 47.503C102.253 47.321 102.753 47.23 103.322 47.23C103.891 47.23 104.4 47.3233 104.848 47.51C105.301 47.692 105.665 47.9487 105.94 48.28C106.215 48.6113 106.379 48.9963 106.43 49.435L105.38 49.624C105.31 49.1807 105.088 48.8307 104.715 48.574C104.346 48.3127 103.877 48.1773 103.308 48.168C102.771 48.154 102.335 48.2567 101.999 48.476C101.663 48.6907 101.495 48.9777 101.495 49.337C101.495 49.5377 101.556 49.7103 101.677 49.855C101.798 49.995 102.018 50.128 102.335 50.254C102.657 50.38 103.114 50.5177 103.707 50.667C104.402 50.8443 104.948 51.031 105.345 51.227C105.742 51.423 106.024 51.654 106.192 51.92C106.36 52.186 106.444 52.515 106.444 52.907C106.444 53.621 106.178 54.1833 105.646 54.594C105.119 55 104.391 55.203 103.462 55.203Z" fill="#F4F0FF"/>
<path d="M24.3333 48.1342H16.3333C15.9797 48.1342 15.6406 47.9938 15.3905 47.7438C15.1405 47.4938 15 47.1548 15 46.8012V28.1396C15 27.7861 15.1405 27.447 15.3905 27.1971C15.6406 26.9471 15.9797 26.8066 16.3333 26.8066H24.3333C25.0406 26.8066 25.7189 27.0875 26.219 27.5875C26.719 28.0874 27 28.7655 27 29.4726C27 28.7655 27.281 28.0874 27.781 27.5875C28.2811 27.0875 28.9594 26.8066 29.6667 26.8066H37.6667C38.0203 26.8066 38.3594 26.9471 38.6095 27.1971C38.8595 27.447 39 27.7861 39 28.1396V46.8012C39 47.1548 38.8595 47.4938 38.6095 47.7438C38.3594 47.9938 38.0203 48.1342 37.6667 48.1342H29.6667C28.9594 48.1342 28.2811 48.4151 27.781 48.9151C27.281 49.415 27 50.0931 27 50.8002C27 50.0931 26.719 49.415 26.219 48.9151C25.7189 48.4151 25.0406 48.1342 24.3333 48.1342Z" stroke="#F4F0FF" stroke-linecap="round" stroke-linejoin="round"/>
<path d="M27 29.4727V50.8002" stroke="#F4F0FF" stroke-linecap="round" stroke-linejoin="round"/>
<path d="M20.332 32.1387H21.6654" stroke="#F4F0FF" stroke-linecap="round" stroke-linejoin="round"/>
<path d="M20.332 37.4702H21.6654" stroke="#F4F0FF" stroke-linecap="round" stroke-linejoin="round"/>
<path d="M32.332 32.1387H33.6654" stroke="#F4F0FF" stroke-linecap="round" stroke-linejoin="round"/>
<path d="M32.332 37.4702H33.6654" stroke="#F4F0FF" stroke-linecap="round" stroke-linejoin="round"/>
<path d="M32.332 42.8022H33.6654" stroke="#F4F0FF" stroke-linecap="round" stroke-linejoin="round"/>
<path d="M133 13.5605C133 15.2344 133.33 16.8919 133.971 18.4384C134.611 19.9849 135.55 21.3901 136.734 22.5737C137.918 23.7573 139.324 24.6962 140.871 25.3368C142.418 25.9774 144.076 26.3071 145.75 26.3071C147.424 26.3071 149.082 25.9774 150.629 25.3368C152.176 24.6962 153.582 23.7573 154.766 22.5737C155.95 21.3901 156.889 19.9849 157.529 18.4384C158.17 16.8919 158.5 15.2344 158.5 13.5605C158.5 11.8866 158.17 10.2291 157.529 8.68263C156.889 7.13614 155.95 5.73097 154.766 4.54735C153.582 3.36372 152.176 2.42481 150.629 1.78424C149.082 1.14366 147.424 0.813965 145.75 0.813965C144.076 0.813965 142.418 1.14366 140.871 1.78424C139.324 2.42481 137.918 3.36372 136.734 4.54735C135.55 5.73097 134.611 7.13614 133.971 8.68263C133.33 10.2291 133 11.8866 133 13.5605Z" fill="white"/>
<path d="M141.5 13.5608L144.333 16.3936L150 10.728" stroke="#5928E5" stroke-width="2.125" stroke-linecap="round" stroke-linejoin="round"/>
</svg>
