<svg width="97" height="129" viewBox="0 0 97 129" fill="none" xmlns="http://www.w3.org/2000/svg">
<rect y="9" width="88" height="120" rx="12" fill="#5928E5" fill-opacity="0.25"/>
<path d="M36.668 28.0745C36.668 30.019 37.4406 31.8839 38.8159 33.2589C40.1911 34.6339 42.0564 35.4064 44.0013 35.4064C45.9462 35.4064 47.8115 34.6339 49.1868 33.2589C50.562 31.8839 51.3346 30.019 51.3346 28.0745C51.3346 26.13 50.562 24.2651 49.1868 22.8901C47.8115 21.5151 45.9462 20.7427 44.0013 20.7427C42.0564 20.7427 40.1911 21.5151 38.8159 22.8901C37.4406 24.2651 36.668 26.13 36.668 28.0745Z" stroke="#F4F0FF" stroke-linecap="round" stroke-linejoin="round"/>
<path d="M33 53.7338V50.0681C33 48.1238 33.7726 46.259 35.1479 44.8841C36.5232 43.5092 38.3884 42.7368 40.3333 42.7368H41.25" stroke="#F4F0FF" stroke-linecap="round" stroke-linejoin="round"/>
<path d="M54.6347 53.3995L50.6527 55.4854C50.5346 55.5469 50.4016 55.5743 50.2688 55.5646C50.1359 55.555 50.0083 55.5086 49.9003 55.4306C49.7923 55.3527 49.7081 55.2462 49.6571 55.1232C49.6061 55.0001 49.5902 54.8654 49.6114 54.7339L50.3722 50.3146L47.1511 47.1857C47.0549 47.0928 46.9869 46.9747 46.9546 46.845C46.9224 46.7152 46.9273 46.579 46.9688 46.4519C47.0103 46.3248 47.0867 46.2119 47.1892 46.1261C47.2918 46.0404 47.4165 45.9851 47.5489 45.9668L52.0002 45.3216L53.9912 41.3019C54.0508 41.1822 54.1426 41.0815 54.2563 41.011C54.3699 40.9406 54.501 40.9033 54.6347 40.9033C54.7685 40.9033 54.8996 40.9406 55.0132 41.011C55.1269 41.0815 55.2187 41.1822 55.2782 41.3019L57.2692 45.3216L61.7206 45.9668C61.8527 45.9858 61.9768 46.0414 62.0789 46.1272C62.181 46.2131 62.2571 46.3258 62.2985 46.4526C62.3399 46.5794 62.345 46.7153 62.3131 46.8449C62.2813 46.9744 62.2139 47.0925 62.1184 47.1857L58.8972 50.3146L59.6562 54.732C59.679 54.8638 59.6644 54.9992 59.614 55.1231C59.5637 55.2469 59.4796 55.3541 59.3713 55.4326C59.2631 55.5111 59.135 55.5576 59.0016 55.5669C58.8682 55.5763 58.7349 55.548 58.6167 55.4854L54.6347 53.3995Z" stroke="#F4F0FF" stroke-linecap="round" stroke-linejoin="round"/>
<path d="M13.98 78V67.92H17.872C17.97 67.92 18.0797 67.9247 18.201 67.934C18.327 67.9387 18.453 67.9527 18.579 67.976C19.1063 68.0553 19.552 68.2397 19.916 68.529C20.2847 68.8137 20.5623 69.173 20.749 69.607C20.9403 70.041 21.036 70.5217 21.036 71.049C21.036 71.8097 20.8353 72.47 20.434 73.03C20.0327 73.59 19.4587 73.9423 18.712 74.087L18.355 74.171H15.009V78H13.98ZM20.084 78L18.096 73.898L19.083 73.52L21.267 78H20.084ZM15.009 73.191H17.844C17.928 73.191 18.026 73.1863 18.138 73.177C18.25 73.1677 18.3597 73.1513 18.467 73.128C18.8123 73.0533 19.0947 72.911 19.314 72.701C19.538 72.491 19.7037 72.2413 19.811 71.952C19.923 71.6627 19.979 71.3617 19.979 71.049C19.979 70.7363 19.923 70.4353 19.811 70.146C19.7037 69.852 19.538 69.6 19.314 69.39C19.0947 69.18 18.8123 69.0377 18.467 68.963C18.3597 68.9397 18.25 68.9257 18.138 68.921C18.026 68.9117 17.928 68.907 17.844 68.907H15.009V73.191ZM26.711 78.21C25.9737 78.21 25.3344 78.0467 24.793 77.72C24.2564 77.3933 23.8387 76.9337 23.54 76.341C23.2414 75.7483 23.092 75.053 23.092 74.255C23.092 73.429 23.239 72.715 23.533 72.113C23.827 71.511 24.24 71.0467 24.772 70.72C25.3087 70.3933 25.941 70.23 26.669 70.23C27.4157 70.23 28.0527 70.4027 28.58 70.748C29.1074 71.0887 29.5064 71.5787 29.777 72.218C30.0477 72.8573 30.1714 73.6203 30.148 74.507H29.098V74.143C29.0794 73.163 28.867 72.4233 28.461 71.924C28.0597 71.4247 27.4717 71.175 26.697 71.175C25.885 71.175 25.262 71.4387 24.828 71.966C24.3987 72.4933 24.184 73.2447 24.184 74.22C24.184 75.172 24.3987 75.9117 24.828 76.439C25.262 76.9617 25.8757 77.223 26.669 77.223C27.2104 77.223 27.6817 77.0993 28.083 76.852C28.489 76.6 28.8087 76.2383 29.042 75.767L30.001 76.138C29.7024 76.796 29.2614 77.307 28.678 77.671C28.0994 78.0303 27.4437 78.21 26.711 78.21ZM23.82 74.507V73.646H29.595V74.507H23.82ZM34.4278 78.21C33.8584 78.21 33.3801 78.1073 32.9928 77.902C32.6101 77.6967 32.3231 77.4237 32.1318 77.083C31.9404 76.7423 31.8448 76.3713 31.8448 75.97C31.8448 75.5593 31.9264 75.2093 32.0898 74.92C32.2578 74.626 32.4841 74.3857 32.7688 74.199C33.0581 74.0123 33.3918 73.87 33.7698 73.772C34.1524 73.6787 34.5748 73.597 35.0368 73.527C35.5034 73.4523 35.9584 73.3893 36.4018 73.338C36.8498 73.282 37.2418 73.2283 37.5778 73.177L37.2138 73.401C37.2278 72.6543 37.0831 72.1013 36.7798 71.742C36.4764 71.3827 35.9491 71.203 35.1978 71.203C34.6798 71.203 34.2411 71.3197 33.8818 71.553C33.5271 71.7863 33.2774 72.155 33.1328 72.659L32.1318 72.365C32.3044 71.6883 32.6521 71.1633 33.1748 70.79C33.6974 70.4167 34.3764 70.23 35.2118 70.23C35.9024 70.23 36.4881 70.3607 36.9688 70.622C37.4541 70.8787 37.7971 71.252 37.9978 71.742C38.0911 71.9613 38.1518 72.2063 38.1798 72.477C38.2078 72.7477 38.2218 73.023 38.2218 73.303V78H37.3048V76.103L37.5708 76.215C37.3141 76.8637 36.9151 77.3583 36.3738 77.699C35.8324 78.0397 35.1838 78.21 34.4278 78.21ZM34.5468 77.321C35.0274 77.321 35.4474 77.2347 35.8068 77.062C36.1661 76.8893 36.4554 76.6537 36.6748 76.355C36.8941 76.0517 37.0364 75.711 37.1018 75.333C37.1578 75.0903 37.1881 74.8243 37.1928 74.535C37.1974 74.241 37.1998 74.0217 37.1998 73.877L37.5918 74.08C37.2418 74.1267 36.8614 74.1733 36.4508 74.22C36.0448 74.2667 35.6434 74.3203 35.2468 74.381C34.8548 74.4417 34.5001 74.514 34.1828 74.598C33.9681 74.6587 33.7604 74.745 33.5598 74.857C33.3591 74.9643 33.1934 75.109 33.0628 75.291C32.9368 75.473 32.8738 75.6993 32.8738 75.97C32.8738 76.1893 32.9274 76.4017 33.0348 76.607C33.1468 76.8123 33.3241 76.9827 33.5668 77.118C33.8141 77.2533 34.1408 77.321 34.5468 77.321ZM40.8841 78V67.71H41.9131V78H40.8841ZM44.5716 74.031V73.149H48.7716V74.031H44.5716ZM55.4065 78C54.9819 78.0887 54.5619 78.1237 54.1465 78.105C53.7359 78.0863 53.3672 77.9977 53.0405 77.839C52.7185 77.6803 52.4735 77.433 52.3055 77.097C52.1702 76.817 52.0955 76.5347 52.0815 76.25C52.0722 75.9607 52.0675 75.6317 52.0675 75.263V68.34H53.0895V75.221C53.0895 75.5383 53.0919 75.8043 53.0965 76.019C53.1059 76.229 53.1549 76.4157 53.2435 76.579C53.4115 76.8917 53.6775 77.0783 54.0415 77.139C54.4102 77.1997 54.8652 77.1857 55.4065 77.097V78ZM50.4505 71.322V70.44H55.4065V71.322H50.4505ZM57.736 69.005V67.85H58.765V69.005H57.736ZM57.736 78V70.44H58.765V78H57.736ZM70.5796 78L70.5866 73.037C70.5866 72.4537 70.4233 71.9963 70.0966 71.665C69.7746 71.329 69.3639 71.161 68.8646 71.161C68.5799 71.161 68.3023 71.2263 68.0316 71.357C67.7609 71.4877 67.5369 71.6977 67.3596 71.987C67.1869 72.2763 67.1006 72.6543 67.1006 73.121L66.4916 72.946C66.4776 72.4047 66.5826 71.931 66.8066 71.525C67.0353 71.119 67.3479 70.804 67.7446 70.58C68.1459 70.3513 68.5986 70.237 69.1026 70.237C69.8633 70.237 70.4723 70.4727 70.9296 70.944C71.3869 71.4107 71.6156 72.043 71.6156 72.841L71.6086 78H70.5796ZM61.5566 78V70.44H62.4806V72.302H62.5926V78H61.5566ZM66.0786 78L66.0856 73.107C66.0856 72.505 65.9246 72.0313 65.6026 71.686C65.2853 71.336 64.8653 71.161 64.3426 71.161C63.8199 71.161 63.3976 71.3407 63.0756 71.7C62.7536 72.0547 62.5926 72.5283 62.5926 73.121L61.9766 72.785C61.9766 72.2997 62.0909 71.8657 62.3196 71.483C62.5483 71.0957 62.8609 70.7923 63.2576 70.573C63.6543 70.349 64.1046 70.237 64.6086 70.237C65.0893 70.237 65.5163 70.3397 65.8896 70.545C66.2676 70.7503 66.5639 71.049 66.7786 71.441C66.9933 71.833 67.1006 72.309 67.1006 72.869L67.0936 78H66.0786ZM77.2751 78.21C76.5378 78.21 75.8984 78.0467 75.3571 77.72C74.8204 77.3933 74.4028 76.9337 74.1041 76.341C73.8054 75.7483 73.6561 75.053 73.6561 74.255C73.6561 73.429 73.8031 72.715 74.0971 72.113C74.3911 71.511 74.8041 71.0467 75.3361 70.72C75.8728 70.3933 76.5051 70.23 77.2331 70.23C77.9798 70.23 78.6168 70.4027 79.1441 70.748C79.6714 71.0887 80.0704 71.5787 80.3411 72.218C80.6118 72.8573 80.7354 73.6203 80.7121 74.507H79.6621V74.143C79.6434 73.163 79.4311 72.4233 79.0251 71.924C78.6238 71.4247 78.0358 71.175 77.2611 71.175C76.4491 71.175 75.8261 71.4387 75.3921 71.966C74.9628 72.4933 74.7481 73.2447 74.7481 74.22C74.7481 75.172 74.9628 75.9117 75.3921 76.439C75.8261 76.9617 76.4398 77.223 77.2331 77.223C77.7744 77.223 78.2458 77.0993 78.6471 76.852C79.0531 76.6 79.3728 76.2383 79.6061 75.767L80.5651 76.138C80.2664 76.796 79.8254 77.307 79.2421 77.671C78.6634 78.0303 78.0078 78.21 77.2751 78.21ZM74.3841 74.507V73.646H80.1591V74.507H74.3841ZM14.12 87.005V85.85H15.149V87.005H14.12ZM14.12 96V88.44H15.149V96H14.12ZM23.4076 96V92.143C23.4076 91.723 23.3679 91.338 23.2886 90.988C23.2092 90.6333 23.0809 90.3253 22.9036 90.064C22.7309 89.798 22.5046 89.5927 22.2246 89.448C21.9492 89.3033 21.6132 89.231 21.2166 89.231C20.8526 89.231 20.5306 89.294 20.2506 89.42C19.9752 89.546 19.7419 89.728 19.5506 89.966C19.3639 90.1993 19.2216 90.484 19.1236 90.82C19.0256 91.156 18.9766 91.5387 18.9766 91.968L18.2486 91.807C18.2486 91.0323 18.3839 90.3813 18.6546 89.854C18.9252 89.3267 19.2986 88.9277 19.7746 88.657C20.2506 88.3863 20.7966 88.251 21.4126 88.251C21.8652 88.251 22.2596 88.321 22.5956 88.461C22.9362 88.601 23.2232 88.79 23.4566 89.028C23.6946 89.266 23.8859 89.539 24.0306 89.847C24.1752 90.1503 24.2802 90.4747 24.3456 90.82C24.4109 91.1607 24.4436 91.5013 24.4436 91.842V96H23.4076ZM17.9406 96V88.44H18.8716V90.302H18.9766V96H17.9406ZM29.8384 96.21C29.1337 96.21 28.5317 96.035 28.0324 95.685C27.5331 95.3303 27.1504 94.852 26.8844 94.25C26.6184 93.648 26.4854 92.969 26.4854 92.213C26.4854 91.4617 26.6161 90.785 26.8774 90.183C27.1434 89.581 27.5237 89.105 28.0184 88.755C28.5131 88.405 29.1057 88.23 29.7964 88.23C30.5057 88.23 31.1031 88.4027 31.5884 88.748C32.0737 89.0933 32.4401 89.567 32.6874 90.169C32.9394 90.7663 33.0654 91.4477 33.0654 92.213C33.0654 92.9643 32.9417 93.6433 32.6944 94.25C32.4471 94.852 32.0831 95.3303 31.6024 95.685C31.1217 96.035 30.5337 96.21 29.8384 96.21ZM29.9434 95.251C30.4801 95.251 30.9234 95.1203 31.2734 94.859C31.6234 94.5977 31.8847 94.2383 32.0574 93.781C32.2301 93.319 32.3164 92.7963 32.3164 92.213C32.3164 91.6203 32.2301 91.0977 32.0574 90.645C31.8847 90.1877 31.6234 89.8307 31.2734 89.574C30.9281 89.3173 30.4917 89.189 29.9644 89.189C29.4231 89.189 28.9751 89.322 28.6204 89.588C28.2657 89.854 28.0021 90.2157 27.8294 90.673C27.6614 91.1303 27.5774 91.6437 27.5774 92.213C27.5774 92.787 27.6637 93.305 27.8364 93.767C28.0137 94.2243 28.2774 94.586 28.6274 94.852C28.9774 95.118 29.4161 95.251 29.9434 95.251ZM32.3164 96V90.309H32.2044V85.92H33.2404V96H32.3164ZM38.7952 96.189C38.3426 96.189 37.9459 96.119 37.6052 95.979C37.2692 95.839 36.9822 95.65 36.7442 95.412C36.5109 95.174 36.3219 94.9033 36.1772 94.6C36.0326 94.292 35.9276 93.9677 35.8622 93.627C35.7969 93.2817 35.7642 92.9387 35.7642 92.598V88.44H36.8002V92.297C36.8002 92.7123 36.8399 93.0973 36.9192 93.452C36.9986 93.8067 37.1246 94.117 37.2972 94.383C37.4746 94.6443 37.7009 94.8473 37.9762 94.992C38.2562 95.1367 38.5946 95.209 38.9912 95.209C39.3552 95.209 39.6749 95.146 39.9502 95.02C40.2302 94.894 40.4636 94.7143 40.6502 94.481C40.8416 94.243 40.9862 93.956 41.0842 93.62C41.1822 93.2793 41.2312 92.8967 41.2312 92.472L41.9592 92.633C41.9592 93.4077 41.8239 94.0587 41.5532 94.586C41.2826 95.1133 40.9092 95.5123 40.4332 95.783C39.9572 96.0537 39.4112 96.189 38.7952 96.189ZM41.3362 96V94.138H41.2312V88.44H42.2602V96H41.3362ZM47.7377 96.203C46.8511 96.203 46.1207 96.0117 45.5467 95.629C44.9774 95.2463 44.6274 94.7143 44.4967 94.033L45.5467 93.858C45.6587 94.2873 45.9131 94.6303 46.3097 94.887C46.7111 95.139 47.2057 95.265 47.7937 95.265C48.3677 95.265 48.8204 95.146 49.1517 94.908C49.4831 94.6653 49.6487 94.3363 49.6487 93.921C49.6487 93.6877 49.5951 93.4987 49.4877 93.354C49.3851 93.2047 49.1727 93.067 48.8507 92.941C48.5287 92.815 48.0481 92.6657 47.4087 92.493C46.7227 92.3063 46.1861 92.1197 45.7987 91.933C45.4114 91.7463 45.1361 91.5317 44.9727 91.289C44.8094 91.0417 44.7277 90.7407 44.7277 90.386C44.7277 89.9567 44.8491 89.581 45.0917 89.259C45.3344 88.9323 45.6704 88.6803 46.0997 88.503C46.5291 88.321 47.0284 88.23 47.5977 88.23C48.1671 88.23 48.6757 88.3233 49.1237 88.51C49.5764 88.692 49.9404 88.9487 50.2157 89.28C50.4911 89.6113 50.6544 89.9963 50.7057 90.435L49.6557 90.624C49.5857 90.1807 49.3641 89.8307 48.9907 89.574C48.6221 89.3127 48.1531 89.1773 47.5837 89.168C47.0471 89.154 46.6107 89.2567 46.2747 89.476C45.9387 89.6907 45.7707 89.9777 45.7707 90.337C45.7707 90.5377 45.8314 90.7103 45.9527 90.855C46.0741 90.995 46.2934 91.128 46.6107 91.254C46.9327 91.38 47.3901 91.5177 47.9827 91.667C48.6781 91.8443 49.2241 92.031 49.6207 92.227C50.0174 92.423 50.2997 92.654 50.4677 92.92C50.6357 93.186 50.7197 93.515 50.7197 93.907C50.7197 94.621 50.4537 95.1833 49.9217 95.594C49.3944 96 48.6664 96.203 47.7377 96.203ZM57.0882 96C56.6635 96.0887 56.2435 96.1237 55.8282 96.105C55.4175 96.0863 55.0489 95.9977 54.7222 95.839C54.4002 95.6803 54.1552 95.433 53.9872 95.097C53.8519 94.817 53.7772 94.5347 53.7632 94.25C53.7539 93.9607 53.7492 93.6317 53.7492 93.263V86.34H54.7712V93.221C54.7712 93.5383 54.7735 93.8043 54.7782 94.019C54.7875 94.229 54.8365 94.4157 54.9252 94.579C55.0932 94.8917 55.3592 95.0783 55.7232 95.139C56.0919 95.1997 56.5469 95.1857 57.0882 95.097V96ZM52.1322 89.322V88.44H57.0882V89.322H52.1322ZM59.2777 96V88.44H60.2017V90.26L60.0197 90.022C60.1037 89.798 60.2133 89.5927 60.3487 89.406C60.484 89.2147 60.631 89.0583 60.7897 88.937C60.9857 88.7643 61.2143 88.6337 61.4757 88.545C61.737 88.4517 62.0007 88.398 62.2667 88.384C62.5327 88.3653 62.7753 88.384 62.9947 88.44V89.406C62.7193 89.336 62.4183 89.3197 62.0917 89.357C61.765 89.3943 61.464 89.525 61.1887 89.749C60.9367 89.945 60.7477 90.1807 60.6217 90.456C60.4957 90.7267 60.4117 91.016 60.3697 91.324C60.3277 91.6273 60.3067 91.9283 60.3067 92.227V96H59.2777ZM66.0049 99.36L67.4679 95.391L67.4889 96.567L64.1779 88.44H65.2699L67.9859 95.237H67.5379L70.0439 88.44H71.0939L67.0339 99.36H66.0049ZM17.179 113.21C16.4417 113.21 15.8023 113.047 15.261 112.72C14.7243 112.393 14.3067 111.934 14.008 111.341C13.7093 110.748 13.56 110.053 13.56 109.255C13.56 108.429 13.707 107.715 14.001 107.113C14.295 106.511 14.708 106.047 15.24 105.72C15.7767 105.393 16.409 105.23 17.137 105.23C17.8837 105.23 18.5207 105.403 19.048 105.748C19.5753 106.089 19.9743 106.579 20.245 107.218C20.5157 107.857 20.6393 108.62 20.616 109.507H19.566V109.143C19.5473 108.163 19.335 107.423 18.929 106.924C18.5277 106.425 17.9397 106.175 17.165 106.175C16.353 106.175 15.73 106.439 15.296 106.966C14.8667 107.493 14.652 108.245 14.652 109.22C14.652 110.172 14.8667 110.912 15.296 111.439C15.73 111.962 16.3437 112.223 17.137 112.223C17.6783 112.223 18.1497 112.099 18.551 111.852C18.957 111.6 19.2767 111.238 19.51 110.767L20.469 111.138C20.1703 111.796 19.7293 112.307 19.146 112.671C18.5673 113.03 17.9117 113.21 17.179 113.21ZM14.288 109.507V108.646H20.063V109.507H14.288ZM21.756 113L24.71 109.178L21.819 105.44H23.051L25.312 108.387L27.552 105.44H28.784L25.893 109.178L28.854 113H27.615L25.312 109.969L22.995 113H21.756ZM34.0738 113.21C33.3785 113.21 32.7905 113.035 32.3098 112.685C31.8292 112.33 31.4652 111.852 31.2178 111.25C30.9705 110.643 30.8468 109.964 30.8468 109.213C30.8468 108.448 30.9705 107.766 31.2178 107.169C31.4698 106.567 31.8385 106.093 32.3238 105.748C32.8092 105.403 33.4065 105.23 34.1158 105.23C34.8065 105.23 35.3992 105.405 35.8938 105.755C36.3885 106.105 36.7665 106.581 37.0278 107.183C37.2938 107.785 37.4268 108.462 37.4268 109.213C37.4268 109.969 37.2938 110.648 37.0278 111.25C36.7618 111.852 36.3792 112.33 35.8798 112.685C35.3805 113.035 34.7785 113.21 34.0738 113.21ZM30.6718 116.36V105.44H31.5958V111.131H31.7078V116.36H30.6718ZM33.9688 112.251C34.4962 112.251 34.9348 112.118 35.2848 111.852C35.6348 111.586 35.8962 111.224 36.0688 110.767C36.2462 110.305 36.3348 109.787 36.3348 109.213C36.3348 108.644 36.2485 108.13 36.0758 107.673C35.9032 107.216 35.6395 106.854 35.2848 106.588C34.9348 106.322 34.4892 106.189 33.9478 106.189C33.4205 106.189 32.9818 106.317 32.6318 106.574C32.2865 106.831 32.0275 107.188 31.8548 107.645C31.6822 108.098 31.5958 108.62 31.5958 109.213C31.5958 109.796 31.6822 110.319 31.8548 110.781C32.0275 111.238 32.2888 111.598 32.6388 111.859C32.9888 112.12 33.4322 112.251 33.9688 112.251ZM42.863 113.21C42.1257 113.21 41.4863 113.047 40.945 112.72C40.4083 112.393 39.9907 111.934 39.692 111.341C39.3933 110.748 39.244 110.053 39.244 109.255C39.244 108.429 39.391 107.715 39.685 107.113C39.979 106.511 40.392 106.047 40.924 105.72C41.4607 105.393 42.093 105.23 42.821 105.23C43.5677 105.23 44.2047 105.403 44.732 105.748C45.2593 106.089 45.6583 106.579 45.929 107.218C46.1997 107.857 46.3233 108.62 46.3 109.507H45.25V109.143C45.2313 108.163 45.019 107.423 44.613 106.924C44.2117 106.425 43.6237 106.175 42.849 106.175C42.037 106.175 41.414 106.439 40.98 106.966C40.5507 107.493 40.336 108.245 40.336 109.22C40.336 110.172 40.5507 110.912 40.98 111.439C41.414 111.962 42.0277 112.223 42.821 112.223C43.3623 112.223 43.8337 112.099 44.235 111.852C44.641 111.6 44.9607 111.238 45.194 110.767L46.153 111.138C45.8543 111.796 45.4133 112.307 44.83 112.671C44.2513 113.03 43.5957 113.21 42.863 113.21ZM39.972 109.507V108.646H45.747V109.507H39.972ZM48.5534 113V105.44H49.4774V107.26L49.2954 107.022C49.3794 106.798 49.4891 106.593 49.6244 106.406C49.7598 106.215 49.9068 106.058 50.0654 105.937C50.2614 105.764 50.4901 105.634 50.7514 105.545C51.0128 105.452 51.2764 105.398 51.5424 105.384C51.8084 105.365 52.0511 105.384 52.2704 105.44V106.406C51.9951 106.336 51.6941 106.32 51.3674 106.357C51.0408 106.394 50.7398 106.525 50.4644 106.749C50.2124 106.945 50.0234 107.181 49.8974 107.456C49.7714 107.727 49.6874 108.016 49.6454 108.324C49.6034 108.627 49.5824 108.928 49.5824 109.227V113H48.5534ZM58.4144 113C57.9897 113.089 57.5697 113.124 57.1544 113.105C56.7437 113.086 56.375 112.998 56.0484 112.839C55.7264 112.68 55.4814 112.433 55.3134 112.097C55.178 111.817 55.1034 111.535 55.0894 111.25C55.08 110.961 55.0754 110.632 55.0754 110.263V103.34H56.0974V110.221C56.0974 110.538 56.0997 110.804 56.1044 111.019C56.1137 111.229 56.1627 111.416 56.2514 111.579C56.4194 111.892 56.6854 112.078 57.0494 112.139C57.418 112.2 57.873 112.186 58.4144 112.097V113ZM53.4584 106.322V105.44H58.4144V106.322H53.4584ZM63.4248 113.203C62.5382 113.203 61.8078 113.012 61.2338 112.629C60.6645 112.246 60.3145 111.714 60.1838 111.033L61.2338 110.858C61.3458 111.287 61.6002 111.63 61.9968 111.887C62.3982 112.139 62.8928 112.265 63.4808 112.265C64.0548 112.265 64.5075 112.146 64.8388 111.908C65.1702 111.665 65.3358 111.336 65.3358 110.921C65.3358 110.688 65.2822 110.499 65.1748 110.354C65.0722 110.205 64.8598 110.067 64.5378 109.941C64.2158 109.815 63.7352 109.666 63.0958 109.493C62.4098 109.306 61.8732 109.12 61.4858 108.933C61.0985 108.746 60.8232 108.532 60.6598 108.289C60.4965 108.042 60.4148 107.741 60.4148 107.386C60.4148 106.957 60.5362 106.581 60.7788 106.259C61.0215 105.932 61.3575 105.68 61.7868 105.503C62.2162 105.321 62.7155 105.23 63.2848 105.23C63.8542 105.23 64.3628 105.323 64.8108 105.51C65.2635 105.692 65.6275 105.949 65.9028 106.28C66.1782 106.611 66.3415 106.996 66.3928 107.435L65.3428 107.624C65.2728 107.181 65.0512 106.831 64.6778 106.574C64.3092 106.313 63.8402 106.177 63.2708 106.168C62.7342 106.154 62.2978 106.257 61.9618 106.476C61.6258 106.691 61.4578 106.978 61.4578 107.337C61.4578 107.538 61.5185 107.71 61.6398 107.855C61.7612 107.995 61.9805 108.128 62.2978 108.254C62.6198 108.38 63.0772 108.518 63.6698 108.667C64.3652 108.844 64.9112 109.031 65.3078 109.227C65.7045 109.423 65.9868 109.654 66.1548 109.92C66.3228 110.186 66.4068 110.515 66.4068 110.907C66.4068 111.621 66.1408 112.183 65.6088 112.594C65.0815 113 64.3535 113.203 63.4248 113.203Z" fill="#F4F0FF"/>
<path d="M71 13.4946C71 15.1685 71.3298 16.826 71.9705 18.3725C72.6113 19.919 73.5504 21.3242 74.7344 22.5078C75.9183 23.6914 77.3239 24.6303 78.8708 25.2709C80.4177 25.9115 82.0756 26.2412 83.75 26.2412C85.4244 26.2412 87.0823 25.9115 88.6292 25.2709C90.1761 24.6303 91.5817 23.6914 92.7656 22.5078C93.9496 21.3242 94.8887 19.919 95.5295 18.3725C96.1702 16.826 96.5 15.1685 96.5 13.4946C96.5 11.8207 96.1702 10.1632 95.5295 8.61671C94.8887 7.07023 93.9496 5.66506 92.7656 4.48143C91.5817 3.2978 90.1761 2.3589 88.6292 1.71832C87.0823 1.07775 85.4244 0.748047 83.75 0.748047C82.0756 0.748047 80.4177 1.07775 78.8708 1.71832C77.3239 2.3589 75.9183 3.2978 74.7344 4.48143C73.5504 5.66506 72.6113 7.07023 71.9705 8.61671C71.3298 10.1632 71 11.8207 71 13.4946Z" fill="white"/>
<path d="M79.5 13.4949L82.3333 16.3276L88 10.6621" stroke="#5928E5" stroke-width="2.125" stroke-linecap="round" stroke-linejoin="round"/>
</svg>
