<svg width="136" height="69" viewBox="0 0 136 69" fill="none" xmlns="http://www.w3.org/2000/svg">
<rect y="9" width="128" height="60" rx="12" fill="#5928E5" fill-opacity="0.25"/>
<path d="M61.6078 54.21C60.8471 54.21 60.2031 54.0397 59.6758 53.699C59.1485 53.3583 58.7471 52.8893 58.4718 52.292C58.2011 51.69 58.0611 50.9993 58.0518 50.22C58.0611 49.4267 58.2058 48.7313 58.4858 48.134C58.7658 47.532 59.1695 47.0653 59.6968 46.734C60.2241 46.398 60.8635 46.23 61.6148 46.23C62.3801 46.23 63.0451 46.4167 63.6098 46.79C64.1791 47.1633 64.5688 47.6743 64.7788 48.323L63.7708 48.645C63.5935 48.1923 63.3111 47.8423 62.9238 47.595C62.5411 47.343 62.1025 47.217 61.6078 47.217C61.0525 47.217 60.5928 47.3453 60.2288 47.602C59.8648 47.854 59.5941 48.2063 59.4168 48.659C59.2395 49.1117 59.1485 49.632 59.1438 50.22C59.1531 51.1253 59.3631 51.8533 59.7738 52.404C60.1845 52.95 60.7958 53.223 61.6078 53.223C62.1211 53.223 62.5575 53.1063 62.9168 52.873C63.2808 52.635 63.5561 52.2897 63.7428 51.837L64.7788 52.145C64.4988 52.817 64.0881 53.3303 63.5468 53.685C63.0055 54.035 62.3591 54.21 61.6078 54.21ZM69.8757 54.21C69.1243 54.21 68.4827 54.0397 67.9507 53.699C67.4187 53.3583 67.0103 52.887 66.7257 52.285C66.441 51.683 66.2987 50.9923 66.2987 50.213C66.2987 49.4197 66.4433 48.7243 66.7327 48.127C67.022 47.5297 67.4327 47.0653 67.9647 46.734C68.5013 46.398 69.1383 46.23 69.8757 46.23C70.6317 46.23 71.2757 46.4003 71.8077 46.741C72.3443 47.077 72.7527 47.546 73.0327 48.148C73.3173 48.7453 73.4597 49.4337 73.4597 50.213C73.4597 51.0063 73.3173 51.704 73.0327 52.306C72.748 52.9033 72.3373 53.37 71.8007 53.706C71.264 54.042 70.6223 54.21 69.8757 54.21ZM69.8757 53.223C70.7157 53.223 71.341 52.9453 71.7517 52.39C72.1623 51.83 72.3677 51.1043 72.3677 50.213C72.3677 49.2983 72.16 48.5703 71.7447 48.029C71.334 47.4877 70.711 47.217 69.8757 47.217C69.311 47.217 68.8443 47.3453 68.4757 47.602C68.1117 47.854 67.8387 48.2063 67.6567 48.659C67.4793 49.107 67.3907 49.625 67.3907 50.213C67.3907 51.123 67.6007 51.8533 68.0207 52.404C68.4407 52.95 69.059 53.223 69.8757 53.223ZM78.5948 54.189C78.1422 54.189 77.7455 54.119 77.4048 53.979C77.0688 53.839 76.7818 53.65 76.5438 53.412C76.3105 53.174 76.1215 52.9033 75.9768 52.6C75.8322 52.292 75.7272 51.9677 75.6618 51.627C75.5965 51.2817 75.5638 50.9387 75.5638 50.598V46.44H76.5998V50.297C76.5998 50.7123 76.6395 51.0973 76.7188 51.452C76.7982 51.8067 76.9242 52.117 77.0968 52.383C77.2742 52.6443 77.5005 52.8473 77.7758 52.992C78.0558 53.1367 78.3942 53.209 78.7908 53.209C79.1548 53.209 79.4745 53.146 79.7498 53.02C80.0298 52.894 80.2632 52.7143 80.4498 52.481C80.6412 52.243 80.7858 51.956 80.8838 51.62C80.9818 51.2793 81.0308 50.8967 81.0308 50.472L81.7588 50.633C81.7588 51.4077 81.6235 52.0587 81.3528 52.586C81.0822 53.1133 80.7088 53.5123 80.2328 53.783C79.7568 54.0537 79.2108 54.189 78.5948 54.189ZM81.1358 54V52.138H81.0308V46.44H82.0598V54H81.1358ZM84.7163 54V46.44H85.6403V48.26L85.4583 48.022C85.5423 47.798 85.652 47.5927 85.7873 47.406C85.9227 47.2147 86.0697 47.0583 86.2283 46.937C86.4243 46.7643 86.653 46.6337 86.9143 46.545C87.1757 46.4517 87.4393 46.398 87.7053 46.384C87.9713 46.3653 88.214 46.384 88.4333 46.44V47.406C88.158 47.336 87.857 47.3197 87.5303 47.357C87.2037 47.3943 86.9027 47.525 86.6273 47.749C86.3753 47.945 86.1863 48.1807 86.0603 48.456C85.9343 48.7267 85.8503 49.016 85.8083 49.324C85.7663 49.6273 85.7453 49.9283 85.7453 50.227V54H84.7163ZM93.0088 54.203C92.1221 54.203 91.3918 54.0117 90.8178 53.629C90.2485 53.2463 89.8985 52.7143 89.7678 52.033L90.8178 51.858C90.9298 52.2873 91.1841 52.6303 91.5808 52.887C91.9821 53.139 92.4768 53.265 93.0648 53.265C93.6388 53.265 94.0915 53.146 94.4228 52.908C94.7541 52.6653 94.9198 52.3363 94.9198 51.921C94.9198 51.6877 94.8661 51.4987 94.7588 51.354C94.6561 51.2047 94.4438 51.067 94.1218 50.941C93.7998 50.815 93.3191 50.6657 92.6798 50.493C91.9938 50.3063 91.4571 50.1197 91.0698 49.933C90.6825 49.7463 90.4071 49.5317 90.2438 49.289C90.0805 49.0417 89.9988 48.7407 89.9988 48.386C89.9988 47.9567 90.1201 47.581 90.3628 47.259C90.6055 46.9323 90.9415 46.6803 91.3708 46.503C91.8001 46.321 92.2995 46.23 92.8688 46.23C93.4381 46.23 93.9468 46.3233 94.3948 46.51C94.8475 46.692 95.2115 46.9487 95.4868 47.28C95.7621 47.6113 95.9255 47.9963 95.9768 48.435L94.9268 48.624C94.8568 48.1807 94.6351 47.8307 94.2618 47.574C93.8931 47.3127 93.4241 47.1773 92.8548 47.168C92.3181 47.154 91.8818 47.2567 91.5458 47.476C91.2098 47.6907 91.0418 47.9777 91.0418 48.337C91.0418 48.5377 91.1025 48.7103 91.2238 48.855C91.3451 48.995 91.5645 49.128 91.8818 49.254C92.2038 49.38 92.6611 49.5177 93.2538 49.667C93.9491 49.8443 94.4951 50.031 94.8918 50.227C95.2885 50.423 95.5708 50.654 95.7388 50.92C95.9068 51.186 95.9908 51.515 95.9908 51.907C95.9908 52.621 95.7248 53.1833 95.1928 53.594C94.6655 54 93.9375 54.203 93.0088 54.203ZM101.442 54.21C100.705 54.21 100.066 54.0467 99.5243 53.72C98.9876 53.3933 98.5699 52.9337 98.2713 52.341C97.9726 51.7483 97.8233 51.053 97.8233 50.255C97.8233 49.429 97.9703 48.715 98.2643 48.113C98.5583 47.511 98.9713 47.0467 99.5033 46.72C100.04 46.3933 100.672 46.23 101.4 46.23C102.147 46.23 102.784 46.4027 103.311 46.748C103.839 47.0887 104.238 47.5787 104.508 48.218C104.779 48.8573 104.903 49.6203 104.879 50.507H103.829V50.143C103.811 49.163 103.598 48.4233 103.192 47.924C102.791 47.4247 102.203 47.175 101.428 47.175C100.616 47.175 99.9933 47.4387 99.5593 47.966C99.1299 48.4933 98.9153 49.2447 98.9153 50.22C98.9153 51.172 99.1299 51.9117 99.5593 52.439C99.9933 52.9617 100.607 53.223 101.4 53.223C101.942 53.223 102.413 53.0993 102.814 52.852C103.22 52.6 103.54 52.2383 103.773 51.767L104.732 52.138C104.434 52.796 103.993 53.307 103.409 53.671C102.831 54.0303 102.175 54.21 101.442 54.21ZM98.5513 50.507V49.646H104.326V50.507H98.5513ZM109.954 54.203C109.067 54.203 108.337 54.0117 107.763 53.629C107.193 53.2463 106.843 52.7143 106.713 52.033L107.763 51.858C107.875 52.2873 108.129 52.6303 108.526 52.887C108.927 53.139 109.422 53.265 110.01 53.265C110.584 53.265 111.036 53.146 111.368 52.908C111.699 52.6653 111.865 52.3363 111.865 51.921C111.865 51.6877 111.811 51.4987 111.704 51.354C111.601 51.2047 111.389 51.067 111.067 50.941C110.745 50.815 110.264 50.6657 109.625 50.493C108.939 50.3063 108.402 50.1197 108.015 49.933C107.627 49.7463 107.352 49.5317 107.189 49.289C107.025 49.0417 106.944 48.7407 106.944 48.386C106.944 47.9567 107.065 47.581 107.308 47.259C107.55 46.9323 107.886 46.6803 108.316 46.503C108.745 46.321 109.244 46.23 109.814 46.23C110.383 46.23 110.892 46.3233 111.34 46.51C111.792 46.692 112.156 46.9487 112.432 47.28C112.707 47.6113 112.87 47.9963 112.922 48.435L111.872 48.624C111.802 48.1807 111.58 47.8307 111.207 47.574C110.838 47.3127 110.369 47.1773 109.8 47.168C109.263 47.154 108.827 47.2567 108.491 47.476C108.155 47.6907 107.987 47.9777 107.987 48.337C107.987 48.5377 108.047 48.7103 108.169 48.855C108.29 48.995 108.509 49.128 108.827 49.254C109.149 49.38 109.606 49.5177 110.199 49.667C110.894 49.8443 111.44 50.031 111.837 50.227C112.233 50.423 112.516 50.654 112.684 50.92C112.852 51.186 112.936 51.515 112.936 51.907C112.936 52.621 112.67 53.1833 112.138 53.594C111.61 54 110.882 54.203 109.954 54.203Z" fill="#F4F0FF"/>
<path d="M63.9159 38.36C63.0199 38.36 62.1919 38.176 61.4319 37.808C60.6719 37.44 60.0239 36.932 59.4879 36.284C58.9519 35.636 58.5679 34.892 58.3359 34.052L60.0279 33.596C60.1799 34.22 60.4559 34.76 60.8559 35.216C61.2559 35.664 61.7239 36.012 62.2599 36.26C62.8039 36.508 63.3719 36.632 63.9639 36.632C64.7319 36.632 65.4199 36.448 66.0279 36.08C66.6439 35.704 67.1319 35.208 67.4919 34.592C67.8519 33.976 68.0319 33.3 68.0319 32.564C68.0319 31.804 67.8439 31.12 67.4679 30.512C67.0919 29.896 66.5959 29.408 65.9799 29.048C65.3639 28.688 64.6919 28.508 63.9639 28.508C63.1479 28.508 62.4439 28.688 61.8519 29.048C61.2599 29.4 60.7879 29.844 60.4359 30.38L58.8279 29.708L59.3559 20.72H68.5839V22.412H60.1359L61.0119 21.584L60.5439 29.252L60.0999 28.664C60.5959 28.096 61.1959 27.652 61.8999 27.332C62.6039 27.012 63.3439 26.852 64.1199 26.852C65.1839 26.852 66.1439 27.108 66.9999 27.62C67.8559 28.124 68.5359 28.808 69.0399 29.672C69.5439 30.536 69.7959 31.5 69.7959 32.564C69.7959 33.62 69.5279 34.588 68.9919 35.468C68.4559 36.34 67.7439 37.04 66.8559 37.568C65.9679 38.096 64.9879 38.36 63.9159 38.36ZM79.5075 38.36C78.4435 38.36 77.4835 38.112 76.6275 37.616C75.7795 37.12 75.1075 36.448 74.6115 35.6C74.1155 34.744 73.8675 33.784 73.8675 32.72V26C73.8675 24.936 74.1155 23.98 74.6115 23.132C75.1075 22.276 75.7795 21.6 76.6275 21.104C77.4835 20.608 78.4435 20.36 79.5075 20.36C80.5715 20.36 81.5275 20.608 82.3755 21.104C83.2315 21.6 83.9075 22.276 84.4035 23.132C84.8995 23.98 85.1475 24.936 85.1475 26V32.72C85.1475 33.784 84.8995 34.744 84.4035 35.6C83.9075 36.448 83.2315 37.12 82.3755 37.616C81.5275 38.112 80.5715 38.36 79.5075 38.36ZM79.5075 36.656C80.2195 36.656 80.8675 36.484 81.4515 36.14C82.0355 35.788 82.4995 35.32 82.8435 34.736C83.1875 34.152 83.3595 33.508 83.3595 32.804V25.916C83.3595 25.204 83.1875 24.556 82.8435 23.972C82.4995 23.388 82.0355 22.924 81.4515 22.58C80.8675 22.228 80.2195 22.052 79.5075 22.052C78.7955 22.052 78.1475 22.228 77.5635 22.58C76.9795 22.924 76.5155 23.388 76.1715 23.972C75.8275 24.556 75.6555 25.204 75.6555 25.916V32.804C75.6555 33.508 75.8275 34.152 76.1715 34.736C76.5155 35.32 76.9795 35.788 77.5635 36.14C78.1475 36.484 78.7955 36.656 79.5075 36.656ZM94.2039 34.844V30.116H89.4759V28.604H94.2039V23.876H95.7159V28.604H100.432V30.116H95.7159V34.844H94.2039Z" fill="#F4F0FF"/>
<path d="M24.3333 48.1342H16.3333C15.9797 48.1342 15.6406 47.9938 15.3905 47.7438C15.1405 47.4938 15 47.1548 15 46.8012V28.1396C15 27.7861 15.1405 27.447 15.3905 27.1971C15.6406 26.9471 15.9797 26.8066 16.3333 26.8066H24.3333C25.0406 26.8066 25.7189 27.0875 26.219 27.5875C26.719 28.0874 27 28.7655 27 29.4726C27 28.7655 27.281 28.0874 27.781 27.5875C28.2811 27.0875 28.9594 26.8066 29.6667 26.8066H37.6667C38.0203 26.8066 38.3594 26.9471 38.6095 27.1971C38.8595 27.447 39 27.7861 39 28.1396V46.8012C39 47.1548 38.8595 47.4938 38.6095 47.7438C38.3594 47.9938 38.0203 48.1342 37.6667 48.1342H29.6667C28.9594 48.1342 28.2811 48.4151 27.781 48.9151C27.281 49.415 27 50.0931 27 50.8002C27 50.0931 26.719 49.415 26.219 48.9151C25.7189 48.4151 25.0406 48.1342 24.3333 48.1342Z" stroke="#F4F0FF" stroke-linecap="round" stroke-linejoin="round"/>
<path d="M27 29.4727V50.8002" stroke="#F4F0FF" stroke-linecap="round" stroke-linejoin="round"/>
<path d="M20.332 32.1387H21.6654" stroke="#F4F0FF" stroke-linecap="round" stroke-linejoin="round"/>
<path d="M20.332 37.4702H21.6654" stroke="#F4F0FF" stroke-linecap="round" stroke-linejoin="round"/>
<path d="M32.332 32.1387H33.6654" stroke="#F4F0FF" stroke-linecap="round" stroke-linejoin="round"/>
<path d="M32.332 37.4702H33.6654" stroke="#F4F0FF" stroke-linecap="round" stroke-linejoin="round"/>
<path d="M32.332 42.8022H33.6654" stroke="#F4F0FF" stroke-linecap="round" stroke-linejoin="round"/>
<path d="M110 13.5605C110 15.2344 110.33 16.8919 110.971 18.4384C111.611 19.9849 112.55 21.3901 113.734 22.5737C114.918 23.7573 116.324 24.6962 117.871 25.3368C119.418 25.9774 121.076 26.3071 122.75 26.3071C124.424 26.3071 126.082 25.9774 127.629 25.3368C129.176 24.6962 130.582 23.7573 131.766 22.5737C132.95 21.3901 133.889 19.9849 134.529 18.4384C135.17 16.8919 135.5 15.2344 135.5 13.5605C135.5 11.8866 135.17 10.2291 134.529 8.68263C133.889 7.13614 132.95 5.73097 131.766 4.54735C130.582 3.36372 129.176 2.42481 127.629 1.78424C126.082 1.14366 124.424 0.813965 122.75 0.813965C121.076 0.813965 119.418 1.14366 117.871 1.78424C116.324 2.42481 114.918 3.36372 113.734 4.54735C112.55 5.73097 111.611 7.13614 110.971 8.68263C110.33 10.2291 110 11.8866 110 13.5605Z" fill="white"/>
<path d="M118.5 13.5608L121.333 16.3936L127 10.728" stroke="#5928E5" stroke-width="2.125" stroke-linecap="round" stroke-linejoin="round"/>
</svg>
