<svg width="40" height="40" viewBox="0 0 40 40" fill="none" xmlns="http://www.w3.org/2000/svg">
<rect width="40" height="40" fill="white"/>
<path d="M12 37.5106C13.2808 36.7711 14.7338 36.3818 16.2128 36.3818C17.6917 36.3818 19.1447 36.7711 20.4255 37.5106C21.7064 36.7711 23.1593 36.3818 24.6383 36.3818C26.1173 36.3818 27.5702 36.7711 28.851 37.5106" stroke="#5479F7" stroke-width="2" stroke-linecap="round" stroke-linejoin="round"/>
<path d="M12 25.3402C13.2808 24.6007 14.7338 24.2114 16.2128 24.2114C17.6917 24.2114 19.1447 24.6007 20.4255 25.3402C21.7064 24.6007 23.1593 24.2114 24.6383 24.2114C26.1173 24.2114 27.5702 24.6007 28.851 25.3402" stroke="#5479F7" stroke-width="2" stroke-linecap="round" stroke-linejoin="round"/>
<path d="M12 25.3403V37.5105" stroke="#5479F7" stroke-width="2" stroke-linecap="round" stroke-linejoin="round"/>
<path d="M20.4256 25.3403V37.5105" stroke="#5479F7" stroke-width="2" stroke-linecap="round" stroke-linejoin="round"/>
<path d="M18.2724 16.1064H22.5788" stroke="#5479F7" stroke-width="2" stroke-linecap="round" stroke-linejoin="round"/>
<path d="M28.8506 25.3403V37.5105" stroke="#5479F7" stroke-width="2" stroke-linecap="round" stroke-linejoin="round"/>
<path d="M12.0001 11.4255H12.9362M20.4256 3V3.93617M27.9149 11.4255H28.8511M14.4341 5.43404L15.0894 6.08936M26.4171 5.43404L25.7617 6.08936" stroke="#5479F7" stroke-linecap="round" stroke-linejoin="round"/>
<path d="M17.6165 15.1702C16.8306 14.5807 16.25 13.7589 15.9571 12.8212C15.6642 11.8834 15.6737 10.8773 15.9844 9.94527C16.2951 9.01325 16.8911 8.20261 17.6881 7.62818C18.4851 7.05374 19.4426 6.74463 20.425 6.74463C21.4075 6.74463 22.365 7.05374 23.162 7.62818C23.959 8.20261 24.555 9.01325 24.8657 9.94527C25.1764 10.8773 25.1859 11.8834 24.893 12.8212C24.6 13.7589 24.0195 14.5807 23.2336 15.1702C22.868 15.532 22.5928 15.9747 22.4302 16.4627C22.2676 16.9506 22.2221 17.4699 22.2974 17.9787C22.2974 18.4752 22.1001 18.9515 21.749 19.3026C21.3979 19.6537 20.9216 19.851 20.425 19.851C19.9285 19.851 19.4522 19.6537 19.1011 19.3026C18.75 18.9515 18.5527 18.4752 18.5527 17.9787C18.628 17.4699 18.5825 16.9506 18.4199 16.4627C18.2573 15.9747 17.982 15.532 17.6165 15.1702Z" stroke="#5479F7" stroke-width="2" stroke-linecap="round" stroke-linejoin="round"/>
</svg>
