<svg width="40" height="40" viewBox="0 0 40 40" fill="none" xmlns="http://www.w3.org/2000/svg">
<rect width="40" height="40" fill="white"/>
<path d="M11.25 6.2299C11.25 6.755 11.4586 7.2586 11.8299 7.6299C12.2012 8.0012 12.7048 8.2098 13.2299 8.2098C13.755 8.2098 14.2586 8.0012 14.6299 7.6299C15.0012 7.2586 15.2098 6.755 15.2098 6.2299C15.2098 5.7048 15.0012 5.2012 14.6299 4.8299C14.2586 4.4586 13.755 4.25 13.2299 4.25C12.7048 4.25 12.2012 4.4586 11.8299 4.8299C11.4586 5.2012 11.25 5.7048 11.25 6.2299Z" stroke="#5479F7" stroke-width="1.5" stroke-linecap="round" stroke-linejoin="round"/>
<path d="M6.23047 24.7929L9.92017 19.8733" stroke="#5479F7" stroke-width="2" stroke-linecap="round" stroke-linejoin="round"/>
<path d="M17.2987 24.7926L14.8389 19.873L11.1492 16.1834L12.3791 8.80396" stroke="#5479F7" stroke-width="2" stroke-linecap="round" stroke-linejoin="round"/>
<path d="M5 13.7236L7.4598 10.0339L12.3794 8.80396L16.0691 12.4937L19.7588 13.7236" stroke="#5479F7" stroke-width="2" stroke-linecap="round" stroke-linejoin="round"/>
<path d="M5.12207 34.9646H12.6221V25.9646H20.6221V16.4646H28.6221V6.4646H36.1221M18.4971 34.9646H24.3721H36.1221V11" stroke="#5479F7" stroke-width="2" stroke-linecap="round" stroke-linejoin="round"/>
</svg>
