<svg width="40" height="40" viewBox="0 0 40 40" fill="none" xmlns="http://www.w3.org/2000/svg">
<rect width="40" height="40" fill="white"/>
<path d="M15.833 21.3332C15.833 22.3056 16.2193 23.2383 16.907 23.9259C17.5946 24.6135 18.5272 24.9998 19.4997 24.9998C20.4721 24.9998 21.4048 24.6135 22.0924 23.9259C22.78 23.2383 23.1663 22.3056 23.1663 21.3332C23.1663 20.3607 22.78 19.4281 22.0924 18.7404C21.4048 18.0528 20.4721 17.6665 19.4997 17.6665C18.5272 17.6665 17.5946 18.0528 16.907 18.7404C16.2193 19.4281 15.833 20.3607 15.833 21.3332Z" stroke="#5479F7" stroke-width="2" stroke-linecap="round" stroke-linejoin="round"/>
<path d="M12.167 36V34.1667C12.167 33.1942 12.5533 32.2616 13.2409 31.5739C13.9286 30.8863 14.8612 30.5 15.8337 30.5H23.167C24.1395 30.5 25.0721 30.8863 25.7597 31.5739C26.4474 32.2616 26.8337 33.1942 26.8337 34.1667V36" stroke="#5479F7" stroke-width="2" stroke-linecap="round" stroke-linejoin="round"/>
<path d="M25 6.66667C25 7.63913 25.3863 8.57176 26.0739 9.25939C26.7616 9.94702 27.6942 10.3333 28.6667 10.3333C29.6391 10.3333 30.5718 9.94702 31.2594 9.25939C31.947 8.57176 32.3333 7.63913 32.3333 6.66667C32.3333 5.69421 31.947 4.76157 31.2594 4.07394C30.5718 3.38631 29.6391 3 28.6667 3C27.6942 3 26.7616 3.38631 26.0739 4.07394C25.3863 4.76157 25 5.69421 25 6.66667Z" stroke="#5479F7" stroke-width="2" stroke-linecap="round" stroke-linejoin="round"/>
<path d="M28.667 15.8335H32.3337C33.3061 15.8335 34.2387 16.2198 34.9264 16.9074C35.614 17.5951 36.0003 18.5277 36.0003 19.5002V21.3335" stroke="#5479F7" stroke-width="2" stroke-linecap="round" stroke-linejoin="round"/>
<path d="M6.66699 6.66667C6.66699 7.63913 7.0533 8.57176 7.74093 9.25939C8.42857 9.94702 9.3612 10.3333 10.3337 10.3333C11.3061 10.3333 12.2387 9.94702 12.9264 9.25939C13.614 8.57176 14.0003 7.63913 14.0003 6.66667C14.0003 5.69421 13.614 4.76157 12.9264 4.07394C12.2387 3.38631 11.3061 3 10.3337 3C9.3612 3 8.42857 3.38631 7.74093 4.07394C7.0533 4.76157 6.66699 5.69421 6.66699 6.66667Z" stroke="#5479F7" stroke-width="2" stroke-linecap="round" stroke-linejoin="round"/>
<path d="M3 21.3335V19.5002C3 18.5277 3.38631 17.5951 4.07394 16.9074C4.76158 16.2198 5.69421 15.8335 6.66667 15.8335H10.3333" stroke="#5479F7" stroke-width="2" stroke-linecap="round" stroke-linejoin="round"/>
</svg>
