
<svg width="61" height="53" viewBox="0 0 61 53" fill="none" xmlns="http://www.w3.org/2000/svg">
<g id="Mask group">
<mask id="mask0_1055_2916" style="mask-type:alpha" maskUnits="userSpaceOnUse" x="0" y="0" width="61" height="54">
<rect id="Rectangle 192" width="60.4634" height="52.2927" transform="matrix(-1 0 0 1 60.6377 0.70752)" fill="#D9D9D9"/>
</mask>
<g mask="url(#mask0_1055_2916)">
<g id="Group">
<path id="Vector" d="M37.078 43.4854C37.8632 46.3388 38.685 49.1839 39.54 52.0207C37.465 52.8894 30.1375 55.8037 23.7402 56.4755C22.9173 53.512 22.0846 50.5447 21.2657 47.6372C23.7648 46.8437 33.3848 43.8497 37.078 43.4854Z" fill="url(#paint0_linear_1055_2916)"/>
<path id="Vector_2" d="M27.7534 54.8036C27.7534 54.8036 13.0798 45.0478 8.06231 46.1868C8.06231 46.1868 10.5298 43.4028 14.0606 43.2842L9.70578 37.4079C9.70578 37.4079 22.9807 43.3324 26.9257 49.3281L27.7533 54.8069L27.7534 54.8036Z" fill="url(#paint1_linear_1055_2916)"/>
<path id="Vector_3" d="M34.8193 52.782C34.8193 52.782 42.0991 36.747 46.9606 35.0616C46.9606 35.0616 43.3939 34.0048 40.3345 35.769L40.9174 28.4802C40.9174 28.4802 32.7886 40.5245 32.6186 47.7007L34.8191 52.7853L34.8193 52.782Z" fill="url(#paint2_linear_1055_2916)"/>
<path id="Vector_4" d="M28.0608 8.54258C30.5021 18.0471 32.9933 27.5408 35.3779 37.0625C38.941 51.2869 43.7026 65.1911 48.1553 79.1601C48.2073 79.3203 49.4744 83.3004 49.4778 83.2973C49.4778 83.2973 47.6252 86.8097 41.6768 88.5311C37.178 89.8319 33.1581 89.6355 32.4816 88.1581L32.2817 88.2147C26.413 65.2679 12.031 14.2168 10.8648 13.46C10.5675 13.2689 13.7162 9.60513 18.6574 8.19297C23.5986 6.78081 28.2101 8.22388 28.0608 8.54258Z" fill="url(#paint3_linear_1055_2916)"/>
<g id="Vector_5" style="mix-blend-mode:multiply" opacity="0.6">
<path d="M45.0915 87.1584C41.6664 70.3164 25.8115 11.6091 23.6114 7.60618C26.2644 7.63174 28.1454 8.36516 28.0617 8.54218C30.5031 18.0469 32.9942 27.5407 35.3789 37.0625C38.9421 51.287 43.7038 65.1914 48.1566 79.1606C48.2086 79.3208 49.4757 83.301 49.4791 83.2978C49.4791 83.2978 48.364 85.4104 45.0913 87.1617L45.0915 87.1584Z" fill="#F2F2F2"/>
</g>
<path id="Vector_6" d="M39.1272 90.6309L15.7057 9.1393C15.7057 9.1393 11.5052 9.66134 10.8447 13.9416C10.8447 13.9416 18.4711 39.4051 21.7244 50.0811C21.7244 50.0811 32.1445 86.1305 32.2621 88.6938C32.2621 88.6938 35.8239 91.1675 39.1241 90.6275L39.1272 90.6309Z" fill="url(#paint4_linear_1055_2916)"/>
<g id="Vector_7" style="mix-blend-mode:screen" opacity="0.1">
<path d="M39.1271 90.6314C38.0571 90.803 37.4901 90.6851 36.4716 90.517C29.3936 65.9431 21.3583 39.1195 14.1178 9.62945C15.0989 9.17112 15.7022 9.13942 15.7022 9.13942L39.1271 90.6314Z" fill="#F2F2F2"/>
</g>
<path id="Vector_8" d="M37.0786 43.4852C37.8149 45.0212 38.9224 48.9643 39.5406 52.0204C37.4656 52.8892 29.9347 55.7942 23.5374 56.466C22.7218 54.2129 21.4934 50.1789 20.9845 47.6866C23.4835 46.8964 33.3887 43.8497 37.0819 43.4854L37.0786 43.4852Z" fill="url(#paint5_linear_1055_2916)"/>
<g id="Vector_9" style="mix-blend-mode:lighten" opacity="0.3">
<path d="M23.7096 55.9226C24.2617 56.4409 36.3821 54.4387 37.9464 51.6267C38.2649 51.0561 33.0082 52.7595 29.6757 52.6405C26.3432 52.5182 25.7288 51.4152 29.0899 50.1777C29.0899 50.1777 30.7462 48.1655 27.9619 48.2129C27.9619 48.2129 23.0751 48.937 21.7036 49.8148C21.7036 49.8148 23.1135 55.3595 23.7128 55.926L23.7096 55.9226Z" fill="#F43745"/>
</g>
<g id="Vector_10" style="mix-blend-mode:soft-light" opacity="0.5">
<path d="M23.9408 55.6795C23.9408 55.6795 26.7655 56.2652 34.7838 53.5567C35.7823 53.2209 33.8511 53.1658 29.6913 53.8145C26.1443 54.3662 23.4631 54.244 22.7724 53.0093C22.7724 53.0093 23.419 55.6557 23.9408 55.6795Z" fill="white"/>
</g>
</g>
</g>
</g>
<defs>
<linearGradient id="paint0_linear_1055_2916" x1="22.031" y1="52.4362" x2="39.2415" y2="47.5063" gradientUnits="userSpaceOnUse">
<stop stop-color="#ADAFB2"/>
<stop offset="0.36" stop-color="#E6E7E8"/>
<stop offset="0.49" stop-color="#DEDFE0"/>
<stop offset="0.67" stop-color="#C8CACC"/>
<stop offset="0.9" stop-color="#A7A9AC"/>
</linearGradient>
<linearGradient id="paint1_linear_1055_2916" x1="11.2786" y1="42.8563" x2="28.1513" y2="53.7042" gradientUnits="userSpaceOnUse">
<stop offset="0.05" stop-color="#EC1C24"/>
<stop offset="0.41" stop-color="#D71A2A"/>
<stop offset="1" stop-color="#BA1934"/>
</linearGradient>
<linearGradient id="paint2_linear_1055_2916" x1="32.5605" y1="46.6474" x2="43.1883" y2="34.6914" gradientUnits="userSpaceOnUse">
<stop offset="0.1" stop-color="#BA1934"/>
<stop offset="0.84" stop-color="#EC1C24"/>
</linearGradient>
<linearGradient id="paint3_linear_1055_2916" x1="21.5632" y1="50.8206" x2="38.7744" y2="45.8905" gradientUnits="userSpaceOnUse">
<stop offset="0.18" stop-color="#ADAFB2"/>
<stop offset="0.46" stop-color="#E6E7E8"/>
<stop offset="0.57" stop-color="#E1E2E3"/>
<stop offset="0.68" stop-color="#D4D5D6"/>
<stop offset="0.8" stop-color="#BDBFC1"/>
<stop offset="0.9" stop-color="#A7A9AC"/>
</linearGradient>
<linearGradient id="paint4_linear_1055_2916" x1="40.5815" y1="45.4171" x2="9.84701" y2="55.7694" gradientUnits="userSpaceOnUse">
<stop offset="0.44" stop-color="#E6E7E8"/>
<stop offset="0.51" stop-color="#DEDFE0"/>
<stop offset="0.62" stop-color="#C8CACC"/>
<stop offset="0.75" stop-color="#A7A9AC"/>
</linearGradient>
<linearGradient id="paint5_linear_1055_2916" x1="23.4921" y1="51.9876" x2="38.2237" y2="47.7678" gradientUnits="userSpaceOnUse">
<stop offset="0.06" stop-color="#BA1934"/>
<stop offset="0.19" stop-color="#CE1A2D"/>
<stop offset="0.38" stop-color="#E41B26"/>
<stop offset="0.5" stop-color="#EC1C24"/>
<stop offset="0.7" stop-color="#DA1A29"/>
<stop offset="0.98" stop-color="#BA1934"/>
</linearGradient>
</defs>
</svg>
